<?xml version="1.0" standalone="no"?>
<!DOCTYPE svg PUBLIC "-//W3C//DTD SVG 1.1//EN" "http://www.w3.org/Graphics/SVG/1.1/DTD/svg11.dtd" >
<svg>
<metadata>
Created by FontForge 20090622 at Tue Aug  2 07:49:09 2016
 By deploy user
Copyright (c) 2014 by Andriy Konstantynov. All rights reserved.
</metadata>
<defs>
<font id="ProbaPro-Regular" horiz-adv-x="220" >
  <font-face 
    font-family="Proba Pro"
    font-weight="400"
    font-stretch="normal"
    units-per-em="1000"
    panose-1="2 13 0 3 3 2 0 0 0 0"
    ascent="750"
    descent="-250"
    x-height="450"
    cap-height="700"
    bbox="-31 -257 1206 1001"
    underline-thickness="50"
    underline-position="-50"
    unicode-range="U+0020-U+FB03"
  />
<missing-glyph horiz-adv-x="230" 
 />
    <glyph glyph-name="ff" unicode="ff" horiz-adv-x="578" 
d="M350 0v392h-179v-392h-76v392h-62v58h62v156q0 68 41 109.5t109 41.5q31 0 54 -10v-62q-18 10 -42 10q-39 0 -62.5 -25t-23.5 -64v-156h179v156q0 68 40.5 109.5t108.5 41.5q31 0 54 -10v-62q-18 10 -42 10q-39 0 -62.5 -25t-23.5 -64v-156h128v-58h-128v-392h-75z" />
    <glyph glyph-name="fi" unicode="fi" horiz-adv-x="496" 
d="M350 0v392h-179v-392h-76v392h-62v58h62v156q0 68 41 109.5t109 41.5q31 0 54 -10v-62q-18 10 -42 10q-39 0 -62.5 -25t-23.5 -64v-156h251v-450h-72zM337 585q0 20 14.5 34.5t34.5 14.5t34.5 -14.5t14.5 -34.5t-14.5 -34.5t-34.5 -14.5t-34.5 14.5t-14.5 34.5z" />
    <glyph glyph-name="ffi" unicode="ffi" horiz-adv-x="750" 
d="M604 0v392h-179v-392h-75v392h-179v-392h-76v392h-62v58h62v156q0 68 41 109.5t109 41.5q31 0 54 -10v-62q-18 10 -42 10q-39 0 -62.5 -25t-23.5 -64v-156h179v156q0 68 40.5 109.5t108.5 41.5q31 0 54 -10v-62q-18 10 -42 10q-39 0 -62.5 -25t-23.5 -64v-156h252v-450
h-73zM591 585q0 20 14.5 34.5t34.5 14.5q21 0 35 -14.5t14 -34.5t-14 -34.5t-35 -14.5q-20 0 -34.5 14.5t-14.5 34.5z" />
    <glyph glyph-name="f_j" unicode="fj" horiz-adv-x="496" 
d="M294 -250v49q56 0 56 53v540h-179v-392h-76v392h-62v58h62v156q0 68 41 109.5t109 41.5q31 0 54 -10v-62q-18 10 -42 10q-39 0 -62.5 -25t-23.5 -64v-156h251v-600q0 -48 -25.5 -76t-69.5 -28q-24 0 -33 4zM337 585q0 20 14.5 34.5t34.5 14.5t34.5 -14.5t14.5 -34.5
t-14.5 -34.5t-34.5 -14.5t-34.5 14.5t-14.5 34.5z" />
    <glyph glyph-name="afii10104_afii10104" unicode="&#x457;&#x457;" horiz-adv-x="439" 
d="M73 0v450h73v-450h-73zM-13 560q0 19 13.5 32.5t33.5 13.5t33 -13t13 -33t-13.5 -33.5t-32.5 -13.5q-20 0 -33.5 13.5t-13.5 33.5zM293 0v450h73v-450h-73zM358 560q0 20 14 33.5t33 13.5t33 -13.5t14 -33.5t-14 -33.5t-33 -13.5t-33 13.5t-14 33.5zM173 560
q0 20 13.5 33.5t33.5 13.5t33.5 -13.5t13.5 -33.5t-13.5 -33.5t-33.5 -13.5t-33.5 13.5t-13.5 33.5z" />
    <glyph glyph-name="afii10103_afii10104" unicode="&#x456;&#x457;" horiz-adv-x="439" 
d="M73 0v450h73v-450h-73zM61 585q0 20 14 34.5t35 14.5q20 0 34.5 -14.5t14.5 -34.5t-14.5 -34.5t-34.5 -14.5q-21 0 -35 14.5t-14 34.5zM293 0v450h73v-450h-73zM215 560q0 19 13.5 32.5t33.5 13.5t33.5 -13.5t13.5 -32.5q0 -20 -13.5 -33.5t-33.5 -13.5t-33.5 13.5
t-13.5 33.5zM358 560q0 20 14 33.5t33 13.5t33 -13.5t14 -33.5t-14 -33.5t-33 -13.5t-33 13.5t-14 33.5z" />
    <glyph glyph-name="quoteright_afii10104" unicode="&#x2019;&#x457;" horiz-adv-x="304" 
d="M51 491l-26 26q39 37 47 73q-18 2 -30 15.5t-12 32.5q0 20 14.5 34.5t35.5 14.5q20 0 34 -14.5t14 -42.5q0 -64 -77 -139zM157 0v450h73v-450h-73zM223 560q0 20 13.5 33.5t32.5 13.5q20 0 33.5 -13.5t13.5 -33.5t-13.5 -33.5t-33.5 -13.5q-19 0 -32.5 13.5t-13.5 33.5z
" />
    <glyph glyph-name="afii10056_afii10056" unicode="&#x407;&#x407;" horiz-adv-x="444" 
d="M73 0v700h76v-700h-76zM-14 797q0 19 14 33t33 14t32.5 -13.5t13.5 -33.5q0 -19 -13.5 -32.5t-32.5 -13.5q-20 0 -33.5 13.5t-13.5 32.5zM295 0v700h76v-700h-76zM365 797q0 20 13 33.5t33 13.5t33.5 -13.5t13.5 -33.5t-13.5 -33t-33.5 -13q-19 0 -32.5 13.5t-13.5 32.5z
M175 797q0 20 13 33.5t33 13.5t34 -13.5t14 -33.5q0 -19 -14 -32.5t-34 -13.5q-19 0 -32.5 13.5t-13.5 32.5z" />
    <glyph glyph-name="f_f_j" unicode="ffj" horiz-adv-x="750" 
d="M548 -250v49q56 0 56 53v540h-179v-392h-75v392h-179v-392h-76v392h-62v58h62v156q0 68 41 109.5t109 41.5q31 0 54 -10v-62q-18 10 -42 10q-39 0 -62.5 -25t-23.5 -64v-156h179v156q0 68 40.5 109.5t108.5 41.5q31 0 54 -10v-62q-18 10 -42 10q-39 0 -62.5 -25
t-23.5 -64v-156h252v-600q0 -48 -26 -76t-70 -28q-24 0 -33 4zM591 585q0 20 14.5 34.5t34.5 14.5q21 0 35 -14.5t14 -34.5t-14 -34.5t-35 -14.5q-20 0 -34.5 14.5t-14.5 34.5z" />
    <glyph glyph-name=".notdef" horiz-adv-x="230" 
 />
    <glyph glyph-name=".null" horiz-adv-x="0" 
 />
    <glyph glyph-name="nonmarkingreturn" horiz-adv-x="333" 
 />
    <glyph glyph-name="space" unicode=" " horiz-adv-x="230" 
 />
    <glyph glyph-name="exclam" unicode="!" 
d="M61 42q0 20 14 34.5t35 14.5q20 0 34.5 -14.5t14.5 -34.5q0 -21 -14.5 -35t-34.5 -14q-21 0 -35 14t-14 35zM73 192v508h73v-508h-73z" />
    <glyph glyph-name="quotedbl" unicode="&#x22;" horiz-adv-x="365" 
d="M73 450v250h64v-250h-64zM228 450v250h63v-250h-63z" />
    <glyph glyph-name="numbersign" unicode="#" horiz-adv-x="605" 
d="M333 0l27 176h-171l-27 -176h-74l28 176h-76v58h85l37 232h-85v58h93l29 176h73l-29 -176h172l28 176h73l-28 -176h77v-58h-86l-37 -232h87v-58h-95l-28 -176h-73zM235 466l-37 -232h172l36 232h-171z" />
    <glyph glyph-name="dollar" unicode="$" horiz-adv-x="530" 
d="M240 -100v94q-123 8 -199 91l47 47q58 -66 152 -71v263q-42 16 -67.5 29t-55.5 35.5t-44.5 55t-14.5 75.5q0 76 46.5 130t135.5 58v93h44v-95q103 -11 170 -80l-47 -48q-47 50 -123 60v-250q31 -12 46.5 -19t42.5 -20.5t41.5 -27t30.5 -32t23 -42.5t7 -53
q0 -77 -49.5 -134.5t-141.5 -64.5v-94h-44zM397 191q0 42 -29 67.5t-84 47.5v-243q56 10 84.5 48t28.5 80zM135 521q0 -42 27 -68t78 -49v234q-52 -6 -78.5 -41t-26.5 -76z" />
    <glyph glyph-name="percent" unicode="%" horiz-adv-x="855" 
d="M207 0l368 700h74l-368 -700h-74zM40 538q0 76 47 122.5t123 46.5q75 0 122 -46.5t47 -122.5t-47 -122.5t-122 -46.5q-76 0 -123 46.5t-47 122.5zM106 538q0 -50 29 -81.5t75 -31.5t74.5 31.5t28.5 81.5t-28.5 81.5t-74.5 31.5t-75 -31.5t-29 -81.5zM476 162
q0 76 47 122.5t122 46.5q76 0 123 -46.5t47 -122.5t-47 -122.5t-123 -46.5q-75 0 -122 46.5t-47 122.5zM542 162q0 -50 28.5 -81.5t74.5 -31.5t75 31.5t29 81.5t-29 81.5t-75 31.5t-74.5 -31.5t-28.5 -81.5z" />
    <glyph glyph-name="ampersand" unicode="&#x26;" horiz-adv-x="603" 
d="M336 349v62h227v-62h-76v-146q0 -94 -61 -152t-159 -58t-158.5 58t-60.5 152q0 64 31 110.5t85 68.5q-86 43 -86 145q0 80 52.5 130t136.5 50q85 0 137 -50t52 -130h-75q0 51 -31.5 83t-82.5 32q-50 0 -81.5 -32t-31.5 -83t31.5 -83.5t81.5 -32.5h29v-62h-29
q-64 0 -104 -40.5t-40 -105.5q0 -64 40 -104.5t104 -40.5q65 0 105 40t40 105v146h-76z" />
    <glyph glyph-name="quotesingle" unicode="'" horiz-adv-x="210" 
d="M73 450v250h64v-250h-64z" />
    <glyph glyph-name="parenleft" unicode="(" horiz-adv-x="298" 
d="M247 757v-56q-46 0 -78.5 -127t-32.5 -324t32.5 -324t78.5 -127v-56q-80 0 -133 142t-53 365t53 365t133 142z" />
    <glyph glyph-name="parenright" unicode=")" horiz-adv-x="298" 
d="M51 701v56q80 0 133 -142t53 -365t-53 -365t-133 -142v56q45 0 78 127.5t33 323.5t-33 323.5t-78 127.5z" />
    <glyph glyph-name="asterisk" unicode="*" horiz-adv-x="446" 
d="M223 476l-82 -114l-44 34l81 112l-132 43l17 53l132 -43v139h55v-139l133 44l17 -53l-133 -44l83 -113l-46 -32z" />
    <glyph glyph-name="plus" unicode="+" horiz-adv-x="436" 
d="M61 264v58h128v128h58v-128h128v-58h-128v-128h-58v128h-128z" />
    <glyph glyph-name="comma" unicode="," 
d="M82 -105l-26 26q40 40 46 73q-17 2 -29 15.5t-12 32.5q0 20 14 34.5t35 14.5q20 0 34.5 -14t14.5 -43q0 -62 -77 -139z" />
    <glyph glyph-name="hyphen" unicode="-" horiz-adv-x="340" 
d="M61 236v58h218v-58h-218z" />
    <glyph glyph-name="period" unicode="." 
d="M61 42q0 20 14 34.5t35 14.5q20 0 34.5 -14.5t14.5 -34.5q0 -21 -14.5 -35t-34.5 -14q-21 0 -35 14t-14 35z" />
    <glyph glyph-name="slash" unicode="/" horiz-adv-x="549" 
d="M53 -50l369 800h74l-369 -800h-74z" />
    <glyph glyph-name="zero" unicode="0" horiz-adv-x="565" 
d="M50 350q0 159 64.5 258t168.5 99q103 0 167.5 -99t64.5 -258t-64.5 -258t-167.5 -99q-104 0 -168.5 99t-64.5 258zM126 350q0 -130 43.5 -211t113.5 -81t113.5 81t43.5 211t-43.5 211t-113.5 81t-113.5 -81t-43.5 -211z" />
    <glyph glyph-name="one" unicode="1" horiz-adv-x="316" 
d="M33 614v59l182 31v-704h-72v635z" />
    <glyph glyph-name="two" unicode="2" horiz-adv-x="517" 
d="M50 65l304 303q40 42 40 118q0 69 -38.5 112t-99.5 43t-99.5 -43t-38.5 -112h-75q0 99 59 160t154 61t154 -61t59 -160q0 -101 -64 -167l-256 -256h320v-63h-419v65z" />
    <glyph glyph-name="three" unicode="3" horiz-adv-x="532" 
d="M219 349v62h46q50 0 82 32.5t32 83.5t-32 83t-82 32t-82 -32t-32 -83h-75q0 80 52 130t137 50q84 0 136.5 -50t52.5 -130q0 -102 -86 -145q54 -22 85 -68.5t31 -110.5q0 -94 -60.5 -152t-158.5 -58t-159 58t-61 152h76q0 -65 40 -105t104 -40t104 40.5t40 104.5
q0 65 -40 105.5t-104 40.5h-46z" />
    <glyph glyph-name="four" unicode="4" horiz-adv-x="548" 
d="M360 0v136h-320v36l315 528h75v-501h63v-63h-60v-136h-73zM131 199h231v390z" />
    <glyph glyph-name="five" unicode="5" horiz-adv-x="524" 
d="M469 214q0 -99 -59 -160t-154 -61t-154 57.5t-59 149.5h73q0 -62 39 -101.5t101 -39.5q61 0 99.5 43t38.5 112q0 75 -43.5 122t-112.5 47q-73 0 -116 -43l-53 21l43 339h305v-63h-240l-30 -211q38 23 95 23q101 0 164 -65t63 -170z" />
    <glyph glyph-name="six" unicode="6" horiz-adv-x="530" 
d="M293 707l62 -36q-102 -143 -169 -261q34 20 80 20q97 0 158 -60t61 -158t-61 -158.5t-159 -60.5q-99 0 -159.5 61t-60.5 164q0 92 58 198q35 64 190 291zM121 212q0 -68 40 -111t104 -43t104 43t40 111q0 69 -40 112t-104 43t-104 -43t-40 -112z" />
    <glyph glyph-name="seven" unicode="7" horiz-adv-x="523" 
d="M50 637v63h423v-27l-253 -673h-78l237 637h-329z" />
    <glyph glyph-name="eight" unicode="8" horiz-adv-x="535" 
d="M78 527q0 80 52.5 130t136.5 50q85 0 137 -50t52 -130q0 -50 -22.5 -87.5t-62.5 -57.5q54 -22 85 -68.5t31 -110.5q0 -94 -61 -152t-159 -58t-158.5 58t-60.5 152q0 64 30.5 110.5t84.5 68.5q-40 20 -62.5 57.5t-22.5 87.5zM123 203q0 -64 40 -104.5t104 -40.5
q65 0 105 40t40 105t-40 105t-105 40q-64 0 -104 -40.5t-40 -104.5zM154 527q0 -51 31.5 -83t81.5 -32q51 0 82.5 32t31.5 83t-31.5 83t-82.5 32q-50 0 -81.5 -32t-31.5 -83z" />
    <glyph glyph-name="nine" unicode="9" horiz-adv-x="530" 
d="M237 -7l-62 36q102 143 169 261q-34 -20 -80 -20q-97 0 -158 60t-61 158t61 158.5t159 60.5q99 0 159.5 -61t60.5 -164q0 -92 -58 -198q-35 -64 -190 -291zM409 488q0 68 -40 111t-104 43t-104 -43t-40 -111q0 -69 40 -112t104 -43t104 43t40 112z" />
    <glyph glyph-name="colon" unicode=":" 
d="M61 42q0 20 14 34.5t35 14.5q20 0 34.5 -14.5t14.5 -34.5q0 -21 -14.5 -35t-34.5 -14q-21 0 -35 14t-14 35zM61 408q0 21 14 35t35 14q20 0 34.5 -14t14.5 -35q0 -20 -14.5 -34.5t-34.5 -14.5q-21 0 -35 14.5t-14 34.5z" />
    <glyph glyph-name="semicolon" unicode=";" 
d="M61 408q0 21 14 35t35 14q20 0 34.5 -14t14.5 -35q0 -20 -14.5 -34.5t-34.5 -14.5q-21 0 -35 14.5t-14 34.5zM82 -105l-26 26q40 40 46 73q-17 2 -29 15.5t-12 32.5q0 20 14 34.5t35 14.5q20 0 34.5 -14t14.5 -43q0 -62 -77 -139z" />
    <glyph glyph-name="less" unicode="&#x3c;" horiz-adv-x="410" 
d="M316 109l-280 191l280 191l43 -43l-220 -148l220 -148z" />
    <glyph glyph-name="equal" unicode="=" horiz-adv-x="476" 
d="M61 326v58h354v-58h-354zM61 151v59h354v-59h-354z" />
    <glyph glyph-name="greater" unicode="&#x3e;" horiz-adv-x="410" 
d="M369 300l-280 -191l-43 43l220 148l-220 148l43 43z" />
    <glyph glyph-name="question" unicode="?" horiz-adv-x="471" 
d="M86 586l-48 48q79 73 192 73q93 0 144.5 -52.5t51.5 -127.5q0 -41 -16 -71t-39 -48.5l-46 -37.5t-39 -49t-16 -72v-57h-73v57q0 51 16 88.5t38.5 58.5t45 38.5t38.5 40t16 51.5q0 46 -31 81t-91 35q-40 0 -78.5 -15t-64.5 -41zM184 42q0 20 14.5 34.5t34.5 14.5
q21 0 35 -14.5t14 -34.5q0 -21 -14 -35t-35 -14q-20 0 -34.5 14t-14.5 35z" />
    <glyph glyph-name="at" unicode="@" horiz-adv-x="1040" 
d="M832 -74l46 -46q-62 -66 -154.5 -101.5t-199.5 -35.5q-214 0 -346.5 133.5t-132.5 348.5t132 348.5t345 133.5t343 -127t130 -316q0 -73 -21 -128t-55 -85t-71.5 -44t-76.5 -14q-87 0 -116 52q-55 -52 -141 -52q-97 0 -156.5 64t-59.5 168t64 168t169 64q124 0 187 -73
v-274q0 -25 19 -38.5t48 -13.5q53 0 93.5 48.5t40.5 149.5q0 166 -108 276t-288 110q-179 0 -290.5 -116t-111.5 -301q0 -186 111.5 -301.5t292.5 -115.5q92 0 173 31t134 87zM373 225q0 -74 44 -120.5t115 -46.5q73 0 114 43v255q-44 36 -116 36q-70 0 -113.5 -46.5
t-43.5 -120.5z" />
    <glyph glyph-name="A" unicode="A" horiz-adv-x="749" 
d="M634 0l-88 202h-343l-88 -202h-87l311 700h72l310 -700h-87zM375 604l-144 -334h287z" />
    <glyph glyph-name="B" unicode="B" horiz-adv-x="545" 
d="M76 0v700h191q84 0 135.5 -49t51.5 -131q0 -106 -82 -151q55 -18 87.5 -64.5t32.5 -111.5q0 -88 -55 -140.5t-144 -52.5h-217zM417 198q0 58 -35 94t-92 36h-136v-262h136q57 0 92 36t35 96zM379 514q0 54 -32 87t-85 33h-108v-240h108q53 0 85 33t32 87z" />
    <glyph glyph-name="C" unicode="C" horiz-adv-x="699" 
d="M128 350q0 -129 77 -209t201 -80q127 0 204 80l49 -47q-98 -101 -256 -101q-157 0 -255 99t-98 258t98 258t255 99q158 0 256 -101l-49 -48q-76 81 -204 81q-124 0 -201 -80t-77 -209z" />
    <glyph glyph-name="D" unicode="D" horiz-adv-x="692" 
d="M76 0v700h214q158 0 255 -96t97 -254t-97 -254t-255 -96h-214zM564 350q0 128 -75.5 206t-198.5 78h-136v-568h136q123 0 198.5 78t75.5 206z" />
    <glyph glyph-name="E" unicode="E" horiz-adv-x="498" 
d="M151 637v-253h262v-63h-262v-258h299v-63h-374v700h369v-63h-294z" />
    <glyph glyph-name="F" unicode="F" horiz-adv-x="472" 
d="M151 637v-253h244v-63h-244v-321h-75v700h354v-63h-279z" />
    <glyph glyph-name="G" unicode="G" horiz-adv-x="735" 
d="M403 306v63h256v-276q-97 -100 -256 -100q-157 0 -255 99t-98 258t98 258t255 99q158 0 256 -101l-49 -48q-76 81 -204 81q-124 0 -201 -80t-77 -209t77 -209t201 -80q107 0 178 59v186h-181z" />
    <glyph glyph-name="H" unicode="H" horiz-adv-x="690" 
d="M151 700v-316h388v316h75v-700h-75v321h-388v-321h-75v700h75z" />
    <glyph glyph-name="I" unicode="I" horiz-adv-x="222" 
d="M73 0v700h76v-700h-76z" />
    <glyph glyph-name="J" unicode="J" horiz-adv-x="453" 
d="M304 190v510h75v-510q0 -88 -54.5 -142.5t-141.5 -54.5q-88 0 -143 55l49 49q34 -36 91 -36q55 0 89.5 35.5t34.5 93.5z" />
    <glyph glyph-name="K" unicode="K" horiz-adv-x="596" 
d="M73 0v700h76v-700h-76zM468 0l-309 359l289 341h95l-289 -341l311 -359h-97z" />
    <glyph glyph-name="L" unicode="L" horiz-adv-x="465" 
d="M151 700v-637h274v-63h-349v700h75z" />
    <glyph glyph-name="M" unicode="M" horiz-adv-x="809" 
d="M658 0v545l-237 -384h-33l-237 384v-545h-75v700h57l271 -433l271 433h58v-700h-75z" />
    <glyph glyph-name="N" unicode="N" horiz-adv-x="713" 
d="M76 700h51l435 -558v558h75v-700h-51l-435 558v-558h-75v700z" />
    <glyph glyph-name="O" unicode="O" horiz-adv-x="805" 
d="M50 350q0 159 98 258t255 99t254.5 -99t97.5 -258t-97.5 -258t-254.5 -99t-255 99t-98 258zM128 350q0 -129 76.5 -209t198.5 -80t198 80t76 209t-76 209t-198 80t-198.5 -80t-76.5 -209z" />
    <glyph glyph-name="P" unicode="P" horiz-adv-x="519" 
d="M76 0v700h189q91 0 147.5 -53.5t56.5 -142.5t-56.5 -142t-147.5 -53h-111v-309h-78zM391 504q0 58 -35 94t-91 36h-111v-260h111q56 0 91 36t35 94z" />
    <glyph glyph-name="Q" unicode="Q" horiz-adv-x="805" 
d="M719 -26l-91 92q-92 -73 -225 -73q-157 0 -255 99t-98 258t98 258t255 99t254.5 -99t97.5 -258q0 -141 -79 -236l91 -92zM128 350q0 -129 76 -209t198 -80q109 0 176 55l-115 115l47 48l109 -109q58 74 58 180q0 129 -76.5 209t-198.5 80t-198 -80t-76 -209z" />
    <glyph glyph-name="R" unicode="R" horiz-adv-x="534" 
d="M418 0l-168 309h-96v-309h-78v700h196q92 0 148 -53.5t56 -142.5q0 -75 -40.5 -125t-109.5 -65l178 -314h-86zM398 504q0 59 -34.5 94.5t-91.5 35.5h-118v-260h118q57 0 91.5 35.5t34.5 94.5z" />
    <glyph glyph-name="S" unicode="S" horiz-adv-x="530" 
d="M454 625l-47 -48q-25 27 -66.5 44.5t-81.5 17.5q-62 0 -93 -36t-31 -82q0 -45 35 -75t85 -48.5t100 -40t85 -62.5t35 -102q0 -82 -56 -141t-159 -59q-133 0 -219 92l47 47q30 -34 74.5 -52.5t90.5 -18.5q71 0 107.5 41t36.5 89q0 43 -35 72t-84.5 47t-99.5 39.5t-85 64
t-35 105.5q0 78 49.5 133t144.5 55q123 0 202 -82z" />
    <glyph glyph-name="T" unicode="T" horiz-adv-x="557" 
d="M316 637v-637h-75v637h-201v63h477v-63h-201z" />
    <glyph glyph-name="U" unicode="U" horiz-adv-x="673" 
d="M522 255v445h75v-445q0 -117 -72.5 -189.5t-188.5 -72.5q-117 0 -188.5 72t-71.5 190v445h75v-445q0 -87 51 -140.5t133 -53.5q83 0 135 53.5t52 140.5z" />
    <glyph glyph-name="V" unicode="V" horiz-adv-x="749" 
d="M721 700l-310 -700h-72l-311 700h89l258 -602l257 602h89z" />
    <glyph glyph-name="W" unicode="W" horiz-adv-x="1133" 
d="M1105 700l-263 -700h-76l-200 571l-199 -571h-76l-263 700h87l214 -584l198 584h79l199 -584l213 584h87z" />
    <glyph glyph-name="X" unicode="X" horiz-adv-x="721" 
d="M593 0l-233 303l-233 -303h-96l274 354l-267 346h97l225 -294l225 294h97l-268 -346l276 -354h-97z" />
    <glyph glyph-name="Y" unicode="Y" horiz-adv-x="667" 
d="M295 0v302l-267 398h88l217 -323l218 323h87l-267 -399v-301h-76z" />
    <glyph glyph-name="Z" unicode="Z" horiz-adv-x="625" 
d="M57 637v63h515v-27l-413 -610h416v-63h-525v28l413 609h-406z" />
    <glyph glyph-name="bracketleft" unicode="[" horiz-adv-x="297" 
d="M247 750v-58h-101v-884h101v-58h-174v1000h174z" />
    <glyph glyph-name="backslash" unicode="\" horiz-adv-x="549" 
d="M127 750l369 -800h-74l-369 800h74z" />
    <glyph glyph-name="bracketright" unicode="]" horiz-adv-x="297" 
d="M51 692v58h173v-1000h-173v58h100v884h-100z" />
    <glyph glyph-name="asciicircum" unicode="^" horiz-adv-x="453" 
d="M226 675l191 -190l-38 -38l-153 152l-152 -152l-38 38z" />
    <glyph glyph-name="underscore" unicode="_" horiz-adv-x="450" 
d="M0 -158v58h450v-58h-450z" />
    <glyph glyph-name="grave" unicode="`" horiz-adv-x="265" 
d="M89 675l125 -125l-38 -38l-125 125z" />
    <glyph glyph-name="a" unicode="a" horiz-adv-x="453" 
d="M408 49v-49q-9 -4 -29 -4q-56 0 -75 48q-56 -51 -129 -51q-63 0 -96 36.5t-33 86.5q0 68 61.5 107t155.5 39q22 0 34 -3v55q0 32 -23.5 57.5t-67.5 25.5q-27 0 -54.5 -10.5t-43.5 -26.5l-40 40q55 57 144 57q75 0 116.5 -41.5t41.5 -101.5v-228q0 -18 10.5 -27.5
t27.5 -9.5zM197 53q60 0 100 43v113q-14 2 -30 2q-65 0 -106.5 -24t-41.5 -64q0 -26 18.5 -48t59.5 -22z" />
    <glyph glyph-name="b" unicode="b" horiz-adv-x="539" 
d="M261 -7q-125 0 -188 73v684h73v-330q52 37 126 37q99 0 160.5 -64.5t61.5 -167.5q0 -104 -64 -168t-169 -64zM419 225q0 74 -43.5 120.5t-113.5 46.5q-73 0 -116 -48v-250q42 -36 116 -36q70 0 113.5 46.5t43.5 120.5z" />
    <glyph glyph-name="c" unicode="c" horiz-adv-x="478" 
d="M121 225q0 -74 44 -120.5t115 -46.5q75 0 117 47l45 -45q-62 -67 -166 -67q-103 0 -167 64t-64 168t64 168t167 64t166 -68l-45 -45q-43 48 -117 48q-71 0 -115 -46.5t-44 -120.5z" />
    <glyph glyph-name="d" unicode="d" horiz-adv-x="541" 
d="M468 0h-73v38q-56 -45 -133 -45q-97 0 -157 64.5t-60 167.5q0 104 63 168t165 64q69 0 122 -33v326h73v-750zM121 225q0 -74 44 -120.5t115 -46.5q73 0 115 44v247q-43 43 -115 43q-71 0 -115 -46.5t-44 -120.5z" />
    <glyph glyph-name="e" unicode="e" horiz-adv-x="508" 
d="M465 206h-342q5 -67 47.5 -107.5t111.5 -40.5q76 0 120 47l44 -45q-64 -67 -168 -67t-168.5 64.5t-64.5 169.5q0 102 59.5 166t155.5 64q97 0 151 -67.5t54 -183.5zM262 393q-57 0 -95 -36.5t-44 -98.5h269q-7 63 -40.5 99t-89.5 36z" />
    <glyph glyph-name="f" unicode="f" horiz-adv-x="324" 
d="M33 392v58h62v156q0 68 41 109.5t109 41.5q31 0 54 -10v-62q-18 10 -42 10q-39 0 -62.5 -25t-23.5 -64v-156h128v-58h-128v-392h-76v392h-62z" />
    <glyph glyph-name="g" unicode="g" horiz-adv-x="507" 
d="M23 -118q0 43 27.5 75t75.5 48q-58 25 -58 75q0 52 63 77q-78 38 -78 136q0 75 49 119.5t128 44.5q74 0 122 -40q34 40 77 40q17 0 25 -2v-59q-10 3 -21 3q-25 0 -46 -23q20 -35 20 -81q0 -72 -49.5 -117t-129.5 -45q-42 0 -66 -14.5t-24 -36.5t29 -36t78 -14
q96 0 154 -38t58 -100q0 -67 -65.5 -109t-164.5 -42q-93 0 -148.5 38.5t-55.5 100.5zM98 -118q0 -37 34.5 -59.5t94.5 -22.5q65 0 109.5 26t44.5 67q0 37 -37.5 59t-98.5 22q-67 0 -107 -25.5t-40 -66.5zM126 295q0 -46 29.5 -75t75.5 -29t75.5 29t29.5 75t-29.5 75
t-75.5 29t-75.5 -29t-29.5 -75z" />
    <glyph glyph-name="h" unicode="h" horiz-adv-x="523" 
d="M73 750h73v-338q54 45 132 45q77 0 123 -50.5t46 -133.5v-273h-72v273q0 53 -31.5 86t-81.5 33q-71 0 -116 -45v-347h-73v750z" />
    <glyph glyph-name="i" unicode="i" 
d="M73 0v450h73v-450h-73zM61 585q0 20 14 34.5t35 14.5q20 0 34.5 -14.5t14.5 -34.5t-14.5 -34.5t-34.5 -14.5q-21 0 -35 14.5t-14 34.5z" />
    <glyph glyph-name="j" unicode="j" 
d="M61 585q0 20 14 34.5t35 14.5q20 0 34.5 -14.5t14.5 -34.5t-14.5 -34.5t-34.5 -14.5q-21 0 -35 14.5t-14 34.5zM18 -250v49q55 0 55 53v598h73v-600q0 -48 -26 -76t-69 -28q-24 0 -33 4z" />
    <glyph glyph-name="k" unicode="k" horiz-adv-x="466" 
d="M146 0h-73v750h73v-504l180 204h87l-188 -211l210 -239h-87l-202 232v-232z" />
    <glyph glyph-name="l" unicode="l" horiz-adv-x="247" 
d="M204 49v-49q-9 -4 -35 -4q-44 0 -70 28t-26 76v650h73v-648q0 -53 58 -53z" />
    <glyph glyph-name="m" unicode="m" horiz-adv-x="761" 
d="M615 0v303q0 39 -23 64t-60 25q-74 0 -120 -44q5 -23 5 -45v-303h-73v303q0 39 -22.5 64t-59.5 25q-71 0 -116 -45v-347h-73v450h73v-38q54 45 132 45t115 -62q60 62 156 62q63 0 101 -42.5t38 -111.5v-303h-73z" />
    <glyph glyph-name="n" unicode="n" horiz-adv-x="521" 
d="M73 450h73v-38q54 45 132 45q77 0 123 -50.5t46 -133.5v-273h-72v273q0 53 -31.5 86t-81.5 33q-71 0 -116 -45v-347h-73v450z" />
    <glyph glyph-name="o" unicode="o" horiz-adv-x="555" 
d="M45 225q0 104 64.5 168t168.5 64t168 -64.5t64 -167.5t-64 -167.5t-168 -64.5t-168.5 64t-64.5 168zM121 225q0 -74 43.5 -120.5t113.5 -46.5t113.5 46.5t43.5 120.5t-43.5 120.5t-113.5 46.5t-113.5 -46.5t-43.5 -120.5z" />
    <glyph glyph-name="p" unicode="p" horiz-adv-x="541" 
d="M73 450h73v-38q54 45 133 45q97 0 157 -64.5t60 -167.5q0 -104 -63 -168t-165 -64q-69 0 -122 33v-276h-73v700zM420 225q0 74 -44 120.5t-114 46.5q-71 0 -116 -45v-246q45 -43 116 -43q70 0 114 46.5t44 120.5z" />
    <glyph glyph-name="q" unicode="q" horiz-adv-x="539" 
d="M279 457q124 0 187 -73v-634h-73v280q-52 -37 -126 -37q-99 0 -160.5 64.5t-61.5 167.5q0 104 64.5 168t169.5 64zM121 225q0 -74 43.5 -120.5t113.5 -46.5q73 0 115 47v251q-44 36 -116 36q-70 0 -113 -46t-43 -121z" />
    <glyph glyph-name="r" unicode="r" horiz-adv-x="345" 
d="M268 456q9 0 29 -2v-64q-17 3 -34 3q-73 0 -117 -62v-331h-73v450h73v-55q53 61 122 61z" />
    <glyph glyph-name="s" unicode="s" horiz-adv-x="384" 
d="M324 404l-45 -45q-34 36 -87 36q-34 0 -50.5 -20t-16.5 -45q0 -26 21.5 -43.5t52.5 -29t62.5 -25t53 -40t21.5 -64.5q0 -55 -39 -95t-110 -40q-91 0 -148 60l46 45q37 -44 97 -44q41 0 61 23t20 50q0 25 -21.5 42t-52.5 28t-62.5 25t-53 40.5t-21.5 66.5q0 53 34.5 90.5
t100.5 37.5q86 0 137 -53z" />
    <glyph glyph-name="t" unicode="t" horiz-adv-x="319" 
d="M30 392v58h58v100h75v-100h121v-58h-121v-253q0 -37 22 -60.5t58 -23.5q23 0 41 10v-62q-23 -10 -53 -10q-66 0 -104.5 40t-38.5 106v253h-58z" />
    <glyph glyph-name="u" unicode="u" horiz-adv-x="531" 
d="M458 450v-265q0 -86 -53.5 -139t-139.5 -53t-139 53t-53 139v265h76v-265q0 -56 33 -91.5t85 -35.5q53 0 86 35.5t33 91.5v265h72z" />
    <glyph glyph-name="v" unicode="v" horiz-adv-x="529" 
d="M503 450l-204 -450h-69l-204 450h81l158 -360l157 360h81z" />
    <glyph glyph-name="w" unicode="w" horiz-adv-x="792" 
d="M766 450l-174 -450h-76l-120 348l-120 -348h-76l-174 450h83l129 -362l121 362h74l121 -362l129 362h83z" />
    <glyph glyph-name="x" unicode="x" horiz-adv-x="513" 
d="M397 0l-141 183l-141 -183h-84l178 229l-171 221h85l133 -173l134 173h85l-172 -221l179 -229h-85z" />
    <glyph glyph-name="y" unicode="y" horiz-adv-x="529" 
d="M503 450l-321 -700h-81l129 250l-204 450h81l158 -363l157 363h81z" />
    <glyph glyph-name="z" unicode="z" horiz-adv-x="470" 
d="M54 392v58h366v-27l-264 -365h264v-58h-370v28l264 364h-260z" />
    <glyph glyph-name="braceleft" unicode="{" horiz-adv-x="318" 
d="M278 -201v-56q-67 0 -112 61.5t-45 157.5v95q0 71 -23.5 117.5t-57.5 46.5v56q34 0 57.5 46t23.5 117v98q0 96 45 157.5t112 61.5v-56q-34 0 -57.5 -46t-23.5 -117v-98q0 -68 -23 -118t-62 -73q39 -24 62 -74t23 -118v-95q0 -71 23.5 -117t57.5 -46z" />
    <glyph glyph-name="bar" unicode="|" 
d="M73 -250v1000h73v-1000h-73z" />
    <glyph glyph-name="braceright" unicode="}" horiz-adv-x="318" 
d="M40 -257v56q34 0 57.5 46t23.5 117v95q0 68 23 118t62 74q-39 23 -62 73t-23 118v98q0 71 -23.5 117t-57.5 46v56q67 0 112 -61.5t45 -157.5v-98q0 -71 23.5 -117t57.5 -46v-56q-34 0 -57.5 -46.5t-23.5 -117.5v-95q0 -96 -45 -157.5t-112 -61.5z" />
    <glyph glyph-name="asciitilde" unicode="~" horiz-adv-x="433" 
d="M85 249h-49q0 47 30 77t76 30q41 0 80 -32t68 -32q25 0 41 16.5t16 43.5h50q0 -48 -30 -78t-77 -30q-27 0 -48 10t-32.5 22.5t-29 22.5t-37.5 10q-25 0 -41.5 -16.5t-16.5 -43.5z" />
    <glyph glyph-name="exclamdown" unicode="&#xa1;" 
d="M61 408q0 21 14 35t35 14q20 0 34.5 -14t14.5 -35q0 -20 -14.5 -34.5t-34.5 -14.5q-21 0 -35 14.5t-14 34.5zM73 258h73v-508h-73v508z" />
    <glyph glyph-name="cent" unicode="&#xa2;" horiz-adv-x="478" 
d="M243 -100v95q-90 11 -144 73t-54 157q0 94 54 156.5t144 73.5v95h44v-93q95 -5 155 -68l-45 -45q-42 45 -110 48v-334q69 2 110 47l45 -45q-58 -62 -155 -67v-93h-44zM121 225q0 -64 33 -108t89 -56v327q-56 -11 -89 -55t-33 -108z" />
    <glyph glyph-name="sterling" unicode="&#xa3;" horiz-adv-x="512" 
d="M40 321v58h76v131q0 88 54.5 142.5t141.5 54.5q88 0 143 -55l-49 -49q-33 36 -91 36q-55 0 -89.5 -35.5t-34.5 -93.5v-131h178v-58h-178v-204q25 -6 75 -34t80 -28q26 0 42.5 16.5t16.5 42.5h59q0 -54 -32.5 -87.5t-83.5 -33.5q-44 0 -103 33.5t-89 33.5
q-26 0 -42.5 -16.5t-16.5 -43.5h-59q0 44 21 74.5t57 41.5v205h-76z" />
    <glyph glyph-name="currency" unicode="&#xa4;" horiz-adv-x="529" 
d="M96 300q0 57 28 99l-84 84l42 41l84 -84q44 29 99 29q56 0 98 -29l85 84l41 -41l-84 -84q29 -41 29 -99q0 -59 -29 -100l83 -83l-41 -41l-84 84q-40 -29 -98 -29t-99 29l-84 -84l-41 41l83 83q-28 42 -28 100zM161 300q0 -50 29 -81.5t75 -31.5t74.5 31.5t28.5 81.5
t-28.5 81.5t-74.5 31.5t-75 -31.5t-29 -81.5z" />
    <glyph glyph-name="yen" unicode="&#xa5;" horiz-adv-x="667" 
d="M155 221v44h140v37l-267 398h88l217 -323l218 323h87l-267 -399v-36h140v-44h-140v-84h140v-44h-140v-93h-76v93h-140v44h140v84h-140z" />
    <glyph glyph-name="brokenbar" unicode="&#xa6;" 
d="M73 -250v450h73v-450h-73zM146 750v-450h-73v450h73z" />
    <glyph glyph-name="section" unicode="&#xa7;" horiz-adv-x="423" 
d="M161 439l204 -205l-48 -48l-207 206q-65 65 -65 146q0 76 50.5 122.5t132.5 46.5q96 0 155 -67l-47 -47q-39 48 -108 48q-47 0 -77 -29t-30 -74q0 -61 40 -99zM262 11l-204 205l48 48l207 -206q65 -65 65 -146q0 -76 -50.5 -122.5t-132.5 -46.5q-96 0 -154 67l46 47
q40 -48 108 -48q47 0 77.5 29t30.5 74q0 56 -41 99z" />
    <glyph glyph-name="dieresis" unicode="&#xa8;" horiz-adv-x="427" 
d="M71 573q0 19 13.5 32.5t32.5 13.5q20 0 33.5 -13.5t13.5 -32.5t-14 -33t-33 -14t-32.5 13.5t-13.5 33.5zM258 573q0 19 14 33t33 14t33 -14t14 -33t-14 -33t-33 -14t-33 14t-14 33z" />
    <glyph glyph-name="copyright" unicode="&#xa9;" horiz-adv-x="805" 
d="M50 350q0 159 98 258t255 99t254.5 -99t97.5 -258t-97.5 -258t-254.5 -99t-255 99t-98 258zM107 350q0 -139 82 -225.5t214 -86.5q131 0 213 86.5t82 225.5t-82 225.5t-213 86.5q-132 0 -214 -86.5t-82 -225.5zM280 350q0 -62 36.5 -100t95.5 -38q61 0 97 38l29 -28
q-49 -51 -128 -51t-128 49.5t-49 129.5t49 129.5t128 49.5t128 -51l-29 -28q-36 38 -97 38q-59 0 -95.5 -38t-36.5 -100z" />
    <glyph glyph-name="ordfeminine" unicode="&#xaa;" horiz-adv-x="260" 
d="M232 483v-31q-8 -2 -18 -2q-33 0 -44 26q-28 -28 -70 -28q-34 0 -52.5 20t-18.5 48q0 38 33.5 60t84.5 22q11 0 19 -2v26q0 17 -12.5 30.5t-34.5 13.5q-33 0 -53 -20l-25 25q33 33 81 33q42 0 66 -23.5t24 -58.5v-119q0 -20 20 -20zM115 486q30 0 51 22v56q-8 2 -16 2
q-32 0 -53 -12t-21 -33q0 -13 9 -24t30 -11z" />
    <glyph glyph-name="guillemotleft" unicode="&#xab;" horiz-adv-x="470" 
d="M206 79l-170 171l170 171l38 -38l-132 -133l132 -133zM376 79l-171 171l171 171l38 -38l-133 -133l133 -133z" />
    <glyph glyph-name="logicalnot" unicode="&#xac;" horiz-adv-x="500" 
d="M61 271v58h378v-173h-58v115h-320z" />
    <glyph glyph-name="uni00AD" unicode="&#xad;" horiz-adv-x="340" 
d="M61 236v58h218v-58h-218z" />
    <glyph glyph-name="registered" unicode="&#xae;" horiz-adv-x="805" 
d="M50 350q0 159 98 258t255 99t254.5 -99t97.5 -258t-97.5 -258t-254.5 -99t-255 99t-98 258zM107 350q0 -139 82 -225.5t214 -86.5q131 0 213 86.5t82 225.5t-82 225.5t-213 86.5q-132 0 -214 -86.5t-82 -225.5zM473 174l-80 151h-43v-151h-47v350h102q47 0 76 -27.5
t29 -72.5q0 -75 -72 -95l87 -155h-52zM463 424q0 27 -16 43.5t-42 16.5h-55v-120h55q26 0 42 16.5t16 43.5z" />
    <glyph glyph-name="macron" unicode="&#xaf;" horiz-adv-x="376" 
d="M66 543v47h244v-47h-244z" />
    <glyph glyph-name="degree" unicode="&#xb0;" horiz-adv-x="290" 
d="M45 603q0 46 28 74t73 28t72.5 -28t27.5 -74t-27.5 -74t-72.5 -28t-73 28t-28 74zM86 602q0 -28 16.5 -44.5t43.5 -16.5q26 0 43 16.5t17 44.5t-17 45t-43 17q-27 0 -43.5 -17t-16.5 -45z" />
    <glyph glyph-name="plusminus" unicode="&#xb1;" horiz-adv-x="436" 
d="M61 273v59h128v128h58v-128h128v-59h-128v-127h-58v127h-128zM61 55v58h314v-58h-314z" />
    <glyph glyph-name="twosuperior" unicode="&#xb2;" horiz-adv-x="279" 
d="M33 388l150 150q19 19 19 54q0 32 -17.5 52t-45.5 20q-29 0 -46.5 -20t-17.5 -52h-45q0 50 30 81t79 31q48 0 78 -31t30 -81t-33 -83l-121 -121h154v-38h-214v38z" />
    <glyph glyph-name="threesuperior" unicode="&#xb3;" horiz-adv-x="287" 
d="M120 521v37h23q24 0 38.5 15t14.5 39q0 23 -14.5 37.5t-38.5 14.5q-23 0 -37.5 -14.5t-14.5 -37.5h-46q0 40 27.5 66t70.5 26q44 0 71 -25.5t27 -66.5q0 -50 -40 -72q54 -25 54 -87q0 -48 -31 -77.5t-81 -29.5t-80.5 29.5t-30.5 77.5h45q0 -30 18.5 -48.5t47.5 -18.5
q30 0 48.5 18.5t18.5 48.5t-18.5 49t-48.5 19h-23z" />
    <glyph glyph-name="acute" unicode="&#xb4;" horiz-adv-x="265" 
d="M51 550l125 125l38 -38l-125 -125z" />
    <glyph glyph-name="mu" unicode="&#xb5;" horiz-adv-x="531" 
d="M18 -200v49q55 0 55 53v548h76v-265q0 -56 33 -91.5t85 -35.5q53 0 86 35.5t33 91.5v265h72v-265q0 -86 -53.5 -139t-139.5 -53q-70 0 -119 36v-129q0 -48 -26 -76t-69 -28q-24 0 -33 4z" />
    <glyph glyph-name="paragraph" unicode="&#xb6;" horiz-adv-x="574" 
d="M353 700v-700h-71v318h-30q-90 0 -144.5 52t-54.5 139t54.5 139t144.5 52h101zM430 0v700h71v-700h-71z" />
    <glyph glyph-name="periodcentered" unicode="&#xb7;" 
d="M61 250q0 20 14 34.5t35 14.5q20 0 34.5 -14.5t14.5 -34.5t-14.5 -34.5t-34.5 -14.5q-21 0 -35 14.5t-14 34.5z" />
    <glyph glyph-name="cedilla" unicode="&#xb8;" horiz-adv-x="264" 
d="M140 0v-59q30 -5 47.5 -25t17.5 -51q0 -36 -23 -58t-60 -22t-60 25l25 25q14 -14 35 -14t34.5 12t13.5 33q0 47 -65 47v87h35z" />
    <glyph glyph-name="onesuperior" unicode="&#xb9;" horiz-adv-x="182" 
d="M26 651v35l99 16v-352h-44v311z" />
    <glyph glyph-name="ordmasculine" unicode="&#xba;" horiz-adv-x="316" 
d="M29 576q0 57 36 92.5t93 35.5t92.5 -35.5t35.5 -92.5t-35.5 -92.5t-92.5 -35.5t-93 35.5t-36 92.5zM77 576q0 -39 22.5 -62.5t58.5 -23.5t58.5 23.5t22.5 62.5q0 38 -22.5 62t-58.5 24t-58.5 -24t-22.5 -62z" />
    <glyph glyph-name="guillemotright" unicode="&#xbb;" horiz-adv-x="470" 
d="M429 250l-171 -171l-38 38l133 133l-133 133l38 38zM260 250l-171 -171l-38 38l133 133l-133 133l38 38z" />
    <glyph glyph-name="onequarter" unicode="&#xbc;" horiz-adv-x="634" 
d="M26 651v35l99 16v-352h-44v311zM98 0l368 700h55l-368 -700h-55zM524 0v66h-158v20l156 264h45v-247h31v-37h-30v-66h-44zM422 103h104v180z" />
    <glyph glyph-name="onehalf" unicode="&#xbd;" horiz-adv-x="686" 
d="M26 651v35l99 16v-352h-44v311zM98 0l368 700h55l-368 -700h-55zM440 38l150 150q18 18 18 54q0 32 -17 52t-45 20q-29 0 -46.5 -20t-17.5 -52h-46q0 50 30.5 81t79.5 31q48 0 78 -31t30 -81q0 -51 -34 -83l-120 -121h154v-38h-214v38z" />
    <glyph glyph-name="threequarters" unicode="&#xbe;" horiz-adv-x="652" 
d="M120 521v37h23q24 0 38.5 15t14.5 39q0 23 -14.5 37.5t-38.5 14.5q-23 0 -37.5 -14.5t-14.5 -37.5h-46q0 40 27.5 66t70.5 26q44 0 71 -25.5t27 -66.5q0 -50 -40 -72q54 -25 54 -87q0 -48 -31 -77.5t-81 -29.5t-80.5 29.5t-30.5 77.5h45q0 -30 18.5 -48.5t47.5 -18.5
q30 0 48.5 18.5t18.5 48.5t-18.5 49t-48.5 19h-23zM140 0l368 700h56l-368 -700h-56zM542 0v66h-158v20l156 264h44v-247h31v-37h-29v-66h-44zM439 103h105v180z" />
    <glyph glyph-name="questiondown" unicode="&#xbf;" horiz-adv-x="471" 
d="M385 -136l48 -48q-79 -73 -192 -73q-93 0 -144.5 52.5t-51.5 127.5q0 41 16 71t39.5 48.5l46.5 37.5t39 49t16 72v57h72v-57q0 -51 -16 -88.5t-38.5 -58.5t-44.5 -38.5t-38 -40t-16 -51.5q0 -46 30.5 -81t91.5 -35q39 0 78 15.5t64 40.5zM287 408q0 -20 -14.5 -34.5
t-34.5 -14.5t-34.5 14.5t-14.5 34.5q0 21 14.5 35t34.5 14t34.5 -14t14.5 -35z" />
    <glyph glyph-name="Agrave" unicode="&#xc0;" horiz-adv-x="749" 
d="M634 0l-88 202h-343l-88 -202h-87l311 700h72l310 -700h-87zM375 604l-144 -334h287zM311 900l125 -125l-38 -38l-125 125z" />
    <glyph glyph-name="Aacute" unicode="&#xc1;" horiz-adv-x="749" 
d="M634 0l-88 202h-343l-88 -202h-87l311 700h72l310 -700h-87zM375 604l-144 -334h287zM313 775l125 125l38 -38l-125 -125z" />
    <glyph glyph-name="Acircumflex" unicode="&#xc2;" horiz-adv-x="749" 
d="M634 0l-88 202h-343l-88 -202h-87l311 700h72l310 -700h-87zM375 604l-144 -334h287zM375 900l125 -125l-38 -38l-87 87l-88 -87l-38 38z" />
    <glyph glyph-name="Atilde" unicode="&#xc3;" horiz-adv-x="749" 
d="M634 0l-88 202h-343l-88 -202h-87l311 700h72l310 -700h-87zM375 604l-144 -334h287zM279 764h-43q0 39 24 63t60 24q31 0 59.5 -24t48.5 -24q18 0 30 12.5t12 31.5h42q0 -39 -23 -63t-61 -24q-32 0 -60 24t-47 24t-30.5 -12t-11.5 -32z" />
    <glyph glyph-name="Adieresis" unicode="&#xc4;" horiz-adv-x="749" 
d="M634 0l-88 202h-343l-88 -202h-87l311 700h72l310 -700h-87zM375 604l-144 -334h287zM234 797q0 19 14 33t33 14t32.5 -13.5t13.5 -33.5q0 -19 -13.5 -32.5t-32.5 -13.5q-20 0 -33.5 13.5t-13.5 32.5zM421 797q0 20 13.5 33.5t33.5 13.5t33.5 -13.5t13.5 -33.5
q0 -19 -13.5 -32.5t-33.5 -13.5t-33.5 13.5t-13.5 32.5z" />
    <glyph glyph-name="Aring" unicode="&#xc5;" horiz-adv-x="749" 
d="M634 0l-88 202h-343l-88 -202h-87l311 700h72l310 -700h-87zM375 604l-144 -334h287zM287 820q0 40 24.5 65t63.5 25q40 0 63.5 -24.5t23.5 -65.5q0 -40 -23.5 -64.5t-63.5 -24.5q-39 0 -63.5 24.5t-24.5 64.5zM322 820q0 -24 15 -39t38 -15t38 15t15 39t-15 39t-38 15
t-38 -15t-15 -39z" />
    <glyph glyph-name="AE" unicode="&#xc6;" horiz-adv-x="772" 
d="M450 637v-253h239v-63h-239v-258h276v-63h-351v202h-172l-88 -202h-87l311 700h382v-63h-271zM231 270h144v334z" />
    <glyph glyph-name="Ccedilla" unicode="&#xc7;" horiz-adv-x="699" 
d="M128 350q0 -129 77 -209t201 -80q127 0 204 80l49 -47q-92 -95 -241 -101v-52q66 -12 66 -76q0 -36 -23 -58t-60 -22t-60 25l25 25q14 -14 35 -14t34 12t13 33q0 47 -64 47v81q-150 6 -242 104t-92 252q0 159 98 258t255 99q158 0 256 -101l-49 -48q-76 81 -204 81
q-124 0 -201 -80t-77 -209z" />
    <glyph glyph-name="Egrave" unicode="&#xc8;" horiz-adv-x="498" 
d="M151 637v-253h262v-63h-262v-258h299v-63h-374v700h369v-63h-294zM198 900l125 -125l-38 -38l-125 125z" />
    <glyph glyph-name="Eacute" unicode="&#xc9;" horiz-adv-x="498" 
d="M151 637v-253h262v-63h-262v-258h299v-63h-374v700h369v-63h-294zM200 775l125 125l38 -38l-125 -125z" />
    <glyph glyph-name="Ecircumflex" unicode="&#xca;" horiz-adv-x="498" 
d="M151 637v-253h262v-63h-262v-258h299v-63h-374v700h369v-63h-294zM262 900l125 -125l-38 -38l-87 87l-87 -87l-38 38z" />
    <glyph glyph-name="Edieresis" unicode="&#xcb;" horiz-adv-x="498" 
d="M151 637v-253h262v-63h-262v-258h299v-63h-374v700h369v-63h-294zM121 797q0 19 13.5 33t33.5 14t33.5 -14t13.5 -33t-13.5 -32.5t-33.5 -13.5t-33.5 13.5t-13.5 32.5zM309 797q0 20 13 33.5t33 13.5t33.5 -13.5t13.5 -33.5t-13.5 -33t-33.5 -13q-19 0 -32.5 13.5
t-13.5 32.5z" />
    <glyph glyph-name="Igrave" unicode="&#xcc;" horiz-adv-x="222" 
d="M73 0v700h76v-700h-76zM48 900l125 -125l-38 -38l-125 125z" />
    <glyph glyph-name="Iacute" unicode="&#xcd;" horiz-adv-x="222" 
d="M73 0v700h76v-700h-76zM50 775l125 125l38 -38l-125 -125z" />
    <glyph glyph-name="Icircumflex" unicode="&#xce;" horiz-adv-x="222" 
d="M73 0v700h76v-700h-76zM111 900l125 -125l-38 -38l-87 87l-87 -87l-38 38z" />
    <glyph glyph-name="Idieresis" unicode="&#xcf;" horiz-adv-x="222" 
d="M73 0v700h76v-700h-76zM-14 797q0 19 14 33t33 14t32.5 -13.5t13.5 -33.5q0 -19 -13.5 -32.5t-32.5 -13.5q-20 0 -33.5 13.5t-13.5 32.5zM143 797q0 20 13 33.5t33 13.5t33.5 -13.5t13.5 -33.5t-13.5 -33t-33.5 -13q-19 0 -32.5 13.5t-13.5 32.5z" />
    <glyph glyph-name="Eth" unicode="&#xd0;" horiz-adv-x="708" 
d="M46 321v58h55v321h204q158 0 255 -96t97 -254t-97 -254t-255 -96h-204v321h-55zM579 350q0 128 -75.5 206t-198.5 78h-126v-255h161v-58h-161v-255h126q123 0 198.5 78t75.5 206z" />
    <glyph glyph-name="Ntilde" unicode="&#xd1;" horiz-adv-x="713" 
d="M76 700h51l435 -558v558h75v-700h-51l-435 558v-558h-75v700zM260 764h-42q0 39 23.5 63t60.5 24q32 0 60 -24t47 -24t30.5 12t11.5 32h43q0 -39 -23.5 -63t-61.5 -24q-32 0 -59.5 24t-46.5 24t-31 -12t-12 -32z" />
    <glyph glyph-name="Ograve" unicode="&#xd2;" horiz-adv-x="805" 
d="M50 350q0 159 98 258t255 99t254.5 -99t97.5 -258t-97.5 -258t-254.5 -99t-255 99t-98 258zM128 350q0 -129 76.5 -209t198.5 -80t198 80t76 209t-76 209t-198 80t-198.5 -80t-76.5 -209zM339 900l125 -125l-38 -38l-125 125z" />
    <glyph glyph-name="Oacute" unicode="&#xd3;" horiz-adv-x="805" 
d="M50 350q0 159 98 258t255 99t254.5 -99t97.5 -258t-97.5 -258t-254.5 -99t-255 99t-98 258zM128 350q0 -129 76.5 -209t198.5 -80t198 80t76 209t-76 209t-198 80t-198.5 -80t-76.5 -209zM341 775l125 125l38 -38l-125 -125z" />
    <glyph glyph-name="Ocircumflex" unicode="&#xd4;" horiz-adv-x="805" 
d="M50 350q0 159 98 258t255 99t254.5 -99t97.5 -258t-97.5 -258t-254.5 -99t-255 99t-98 258zM128 350q0 -129 76.5 -209t198.5 -80t198 80t76 209t-76 209t-198 80t-198.5 -80t-76.5 -209zM403 900l125 -125l-38 -38l-87 87l-88 -87l-38 38z" />
    <glyph glyph-name="Otilde" unicode="&#xd5;" horiz-adv-x="805" 
d="M50 350q0 159 98 258t255 99t254.5 -99t97.5 -258t-97.5 -258t-254.5 -99t-255 99t-98 258zM128 350q0 -129 76.5 -209t198.5 -80t198 80t76 209t-76 209t-198 80t-198.5 -80t-76.5 -209zM307 764h-43q0 39 23.5 63t60.5 24q31 0 59.5 -24t48.5 -24q18 0 30 12.5t12 31.5
h42q0 -39 -23 -63t-61 -24q-32 0 -60 24t-47 24t-30.5 -12t-11.5 -32z" />
    <glyph glyph-name="Odieresis" unicode="&#xd6;" horiz-adv-x="805" 
d="M50 350q0 159 98 258t255 99t254.5 -99t97.5 -258t-97.5 -258t-254.5 -99t-255 99t-98 258zM128 350q0 -129 76.5 -209t198.5 -80t198 80t76 209t-76 209t-198 80t-198.5 -80t-76.5 -209zM262 797q0 19 14 33t33 14t32.5 -13.5t13.5 -33.5q0 -19 -13.5 -32.5t-32.5 -13.5
q-20 0 -33.5 13.5t-13.5 32.5zM449 797q0 20 13.5 33.5t33.5 13.5t33.5 -13.5t13.5 -33.5q0 -19 -13.5 -32.5t-33.5 -13.5t-33.5 13.5t-13.5 32.5z" />
    <glyph glyph-name="multiply" unicode="&#xd7;" horiz-adv-x="436" 
d="M100 131l-42 41l118 118l-118 119l42 41l118 -118l118 118l41 -41l-118 -119l118 -118l-41 -41l-118 118z" />
    <glyph glyph-name="Oslash" unicode="&#xd8;" horiz-adv-x="805" 
d="M53 -7l90 104q-93 98 -93 253q0 159 98 258t255 99q124 0 214 -65l56 65h79l-90 -104q93 -99 93 -253q0 -159 -97.5 -258t-254.5 -99q-126 0 -215 64l-56 -64h-79zM677 350q0 117 -65 196l-376 -433q69 -52 167 -52q122 0 198 80t76 209zM128 350q0 -117 65 -196l376 433
q-71 52 -166 52q-122 0 -198.5 -80t-76.5 -209z" />
    <glyph glyph-name="Ugrave" unicode="&#xd9;" horiz-adv-x="673" 
d="M522 255v445h75v-445q0 -117 -72.5 -189.5t-188.5 -72.5q-117 0 -188.5 72t-71.5 190v445h75v-445q0 -87 51 -140.5t133 -53.5q83 0 135 53.5t52 140.5zM273 900l125 -125l-38 -38l-125 125z" />
    <glyph glyph-name="Uacute" unicode="&#xda;" horiz-adv-x="673" 
d="M522 255v445h75v-445q0 -117 -72.5 -189.5t-188.5 -72.5q-117 0 -188.5 72t-71.5 190v445h75v-445q0 -87 51 -140.5t133 -53.5q83 0 135 53.5t52 140.5zM275 775l125 125l38 -38l-125 -125z" />
    <glyph glyph-name="Ucircumflex" unicode="&#xdb;" horiz-adv-x="673" 
d="M522 255v445h75v-445q0 -117 -72.5 -189.5t-188.5 -72.5q-117 0 -188.5 72t-71.5 190v445h75v-445q0 -87 51 -140.5t133 -53.5q83 0 135 53.5t52 140.5zM336 900l126 -125l-38 -38l-88 87l-87 -87l-38 38z" />
    <glyph glyph-name="Udieresis" unicode="&#xdc;" horiz-adv-x="673" 
d="M522 255v445h75v-445q0 -117 -72.5 -189.5t-188.5 -72.5q-117 0 -188.5 72t-71.5 190v445h75v-445q0 -87 51 -140.5t133 -53.5q83 0 135 53.5t52 140.5zM196 797q0 19 14 33t33 14t32.5 -13.5t13.5 -33.5q0 -19 -13.5 -32.5t-32.5 -13.5q-20 0 -33.5 13.5t-13.5 32.5z
M383 797q0 20 13.5 33.5t33.5 13.5t33.5 -13.5t13.5 -33.5q0 -19 -13.5 -32.5t-33.5 -13.5t-33.5 13.5t-13.5 32.5z" />
    <glyph glyph-name="Yacute" unicode="&#xdd;" horiz-adv-x="667" 
d="M295 0v302l-267 398h88l217 -323l218 323h87l-267 -399v-301h-76zM272 775l125 125l38 -38l-125 -125z" />
    <glyph glyph-name="Thorn" unicode="&#xde;" horiz-adv-x="519" 
d="M76 0v700h78v-146h111q91 0 147.5 -53.5t56.5 -142.5q0 -88 -56.5 -141.5t-147.5 -53.5h-111v-163h-78zM391 358q0 59 -35 95t-91 36h-111v-260h111q56 0 91 35.5t35 93.5z" />
    <glyph glyph-name="germandbls" unicode="&#xdf;" horiz-adv-x="600" 
d="M149 571v-571h-76v571q0 83 54.5 134.5t142.5 51.5t142.5 -51.5t54.5 -134.5q0 -64 -33.5 -110.5t-90.5 -61.5q0 -40 21.5 -66.5t52.5 -41.5t61.5 -31.5t52 -48t21.5 -79.5q0 -56 -39.5 -97.5t-110.5 -41.5q-92 0 -147 60l45 45q39 -44 97 -44q41 0 61.5 23.5t20.5 51.5
q0 32 -21.5 53.5t-52.5 36t-61.5 32t-52 52.5t-21.5 87v60q54 0 87.5 33t33.5 87t-33.5 88t-87.5 34t-87.5 -34t-33.5 -87z" />
    <glyph glyph-name="agrave" unicode="&#xe0;" horiz-adv-x="453" 
d="M408 49v-49q-9 -4 -29 -4q-56 0 -75 48q-56 -51 -129 -51q-63 0 -96 36.5t-33 86.5q0 68 61.5 107t155.5 39q22 0 34 -3v55q0 32 -23.5 57.5t-67.5 25.5q-27 0 -54.5 -10.5t-43.5 -26.5l-40 40q55 57 144 57q75 0 116.5 -41.5t41.5 -101.5v-228q0 -18 10.5 -27.5
t27.5 -9.5zM197 53q60 0 100 43v113q-14 2 -30 2q-65 0 -106.5 -24t-41.5 -64q0 -26 18.5 -48t59.5 -22zM145 675l125 -125l-38 -38l-125 125z" />
    <glyph glyph-name="aacute" unicode="&#xe1;" horiz-adv-x="453" 
d="M408 49v-49q-9 -4 -29 -4q-56 0 -75 48q-56 -51 -129 -51q-63 0 -96 36.5t-33 86.5q0 68 61.5 107t155.5 39q22 0 34 -3v55q0 32 -23.5 57.5t-67.5 25.5q-27 0 -54.5 -10.5t-43.5 -26.5l-40 40q55 57 144 57q75 0 116.5 -41.5t41.5 -101.5v-228q0 -18 10.5 -27.5
t27.5 -9.5zM197 53q60 0 100 43v113q-14 2 -30 2q-65 0 -106.5 -24t-41.5 -64q0 -26 18.5 -48t59.5 -22zM150 550l125 125l38 -38l-125 -125z" />
    <glyph glyph-name="acircumflex" unicode="&#xe2;" horiz-adv-x="453" 
d="M408 49v-49q-9 -4 -29 -4q-56 0 -75 48q-56 -51 -129 -51q-63 0 -96 36.5t-33 86.5q0 68 61.5 107t155.5 39q22 0 34 -3v55q0 32 -23.5 57.5t-67.5 25.5q-27 0 -54.5 -10.5t-43.5 -26.5l-40 40q55 57 144 57q75 0 116.5 -41.5t41.5 -101.5v-228q0 -18 10.5 -27.5
t27.5 -9.5zM197 53q60 0 100 43v113q-14 2 -30 2q-65 0 -106.5 -24t-41.5 -64q0 -26 18.5 -48t59.5 -22zM214 675l125 -125l-38 -38l-87 87l-88 -87l-38 38z" />
    <glyph glyph-name="atilde" unicode="&#xe3;" horiz-adv-x="453" 
d="M408 49v-49q-9 -4 -29 -4q-56 0 -75 48q-56 -51 -129 -51q-63 0 -96 36.5t-33 86.5q0 68 61.5 107t155.5 39q22 0 34 -3v55q0 32 -23.5 57.5t-67.5 25.5q-27 0 -54.5 -10.5t-43.5 -26.5l-40 40q55 57 144 57q75 0 116.5 -41.5t41.5 -101.5v-228q0 -18 10.5 -27.5
t27.5 -9.5zM197 53q60 0 100 43v113q-14 2 -30 2q-65 0 -106.5 -24t-41.5 -64q0 -26 18.5 -48t59.5 -22zM126 539h-43q0 39 23.5 63.5t60.5 24.5q31 0 59 -24.5t48 -24.5q19 0 31 12.5t12 31.5h42q0 -39 -23.5 -63t-61.5 -24q-32 0 -59.5 24t-46.5 24t-30.5 -12t-11.5 -32z
" />
    <glyph glyph-name="adieresis" unicode="&#xe4;" horiz-adv-x="453" 
d="M408 49v-49q-9 -4 -29 -4q-56 0 -75 48q-56 -51 -129 -51q-63 0 -96 36.5t-33 86.5q0 68 61.5 107t155.5 39q22 0 34 -3v55q0 32 -23.5 57.5t-67.5 25.5q-27 0 -54.5 -10.5t-43.5 -26.5l-40 40q55 57 144 57q75 0 116.5 -41.5t41.5 -101.5v-228q0 -18 10.5 -27.5
t27.5 -9.5zM197 53q60 0 100 43v113q-14 2 -30 2q-65 0 -106.5 -24t-41.5 -64q0 -26 18.5 -48t59.5 -22zM265 573q0 19 13.5 33t33.5 14t33.5 -13.5t13.5 -33.5t-13.5 -33.5t-33.5 -13.5t-33.5 14t-13.5 33zM78 573q0 19 13.5 32.5t33.5 13.5q19 0 32.5 -13.5t13.5 -32.5
q0 -20 -13.5 -33.5t-32.5 -13.5t-33 14t-14 33z" />
    <glyph glyph-name="aring" unicode="&#xe5;" horiz-adv-x="453" 
d="M408 49v-49q-9 -4 -29 -4q-56 0 -75 48q-56 -51 -129 -51q-63 0 -96 36.5t-33 86.5q0 68 61.5 107t155.5 39q22 0 34 -3v55q0 32 -23.5 57.5t-67.5 25.5q-27 0 -54.5 -10.5t-43.5 -26.5l-40 40q55 57 144 57q75 0 116.5 -41.5t41.5 -101.5v-228q0 -18 10.5 -27.5
t27.5 -9.5zM128 596q0 40 24.5 64.5t63.5 24.5q40 0 64 -24.5t24 -64.5q0 -41 -24 -65.5t-64 -24.5q-39 0 -63.5 25t-24.5 65zM197 53q60 0 100 43v113q-14 2 -30 2q-65 0 -106.5 -24t-41.5 -64q0 -26 18.5 -48t59.5 -22zM164 595q0 -24 14.5 -39t37.5 -15q24 0 38.5 15
t14.5 39q0 25 -15 40t-38 15t-37.5 -15t-14.5 -40z" />
    <glyph glyph-name="ae" unicode="&#xe6;" horiz-adv-x="720" 
d="M297 259v55q0 32 -23.5 57.5t-67.5 25.5q-27 0 -54.5 -10.5t-43.5 -26.5l-40 40q55 57 144 57q79 0 119 -52q55 52 141 52q97 0 151 -67.5t54 -183.5h-307v-94q43 -54 124 -54q76 0 120 47l44 -45q-64 -67 -168 -67q-114 0 -174 69q-56 -69 -141 -69q-63 0 -96 36.5
t-33 86.5q0 68 61.5 107t155.5 39q22 0 34 -3zM370 314v-56h234q-7 63 -40.5 99t-89.5 36q-69 0 -107 -50q3 -27 3 -29zM297 101v108q-14 2 -30 2q-65 0 -106.5 -24t-41.5 -64q0 -26 18.5 -48t59.5 -22q58 0 100 48z" />
    <glyph glyph-name="ccedilla" unicode="&#xe7;" horiz-adv-x="478" 
d="M121 225q0 -74 44 -120.5t115 -46.5q75 0 117 47l45 -45q-58 -62 -154 -67v-52q30 -5 47.5 -25t17.5 -51q0 -36 -23 -58t-59 -22q-38 0 -61 25l26 25q14 -14 35 -14t34 12t13 33q0 47 -65 47v81q-94 7 -151 70t-57 161q0 104 64 168t167 64t166 -68l-45 -45
q-43 48 -117 48q-71 0 -115 -46.5t-44 -120.5z" />
    <glyph glyph-name="egrave" unicode="&#xe8;" horiz-adv-x="508" 
d="M465 206h-342q5 -67 47.5 -107.5t111.5 -40.5q76 0 120 47l44 -45q-64 -67 -168 -67t-168.5 64.5t-64.5 169.5q0 102 59.5 166t155.5 64q97 0 151 -67.5t54 -183.5zM262 393q-57 0 -95 -36.5t-44 -98.5h269q-7 63 -40.5 99t-89.5 36zM197 675l126 -125l-38 -38l-126 125z
" />
    <glyph glyph-name="eacute" unicode="&#xe9;" horiz-adv-x="508" 
d="M465 206h-342q5 -67 47.5 -107.5t111.5 -40.5q76 0 120 47l44 -45q-64 -67 -168 -67t-168.5 64.5t-64.5 169.5q0 102 59.5 166t155.5 64q97 0 151 -67.5t54 -183.5zM262 393q-57 0 -95 -36.5t-44 -98.5h269q-7 63 -40.5 99t-89.5 36zM198 550l125 125l38 -38l-125 -125z
" />
    <glyph glyph-name="ecircumflex" unicode="&#xea;" horiz-adv-x="508" 
d="M465 206h-342q5 -67 47.5 -107.5t111.5 -40.5q76 0 120 47l44 -45q-64 -67 -168 -67t-168.5 64.5t-64.5 169.5q0 102 59.5 166t155.5 64q97 0 151 -67.5t54 -183.5zM262 393q-57 0 -95 -36.5t-44 -98.5h269q-7 63 -40.5 99t-89.5 36zM261 675l125 -125l-38 -38l-87 87
l-88 -87l-38 38z" />
    <glyph glyph-name="edieresis" unicode="&#xeb;" horiz-adv-x="508" 
d="M465 206h-342q5 -67 47.5 -107.5t111.5 -40.5q76 0 120 47l44 -45q-64 -67 -168 -67t-168.5 64.5t-64.5 169.5q0 102 59.5 166t155.5 64q97 0 151 -67.5t54 -183.5zM262 393q-57 0 -95 -36.5t-44 -98.5h269q-7 63 -40.5 99t-89.5 36zM121 573q0 19 13.5 32.5t32.5 13.5
q20 0 33.5 -13.5t13.5 -32.5t-14 -33t-33 -14t-32.5 13.5t-13.5 33.5zM308 573q0 20 13.5 33.5t32.5 13.5q20 0 33.5 -13.5t13.5 -33.5t-13.5 -33.5t-33.5 -13.5q-19 0 -32.5 13.5t-13.5 33.5z" />
    <glyph glyph-name="igrave" unicode="&#xec;" 
d="M46 675l125 -125l-38 -38l-125 125zM73 0v450h73v-450h-73z" />
    <glyph glyph-name="iacute" unicode="&#xed;" 
d="M48 550l125 125l38 -38l-125 -125zM73 0v450h73v-450h-73z" />
    <glyph glyph-name="icircumflex" unicode="&#xee;" 
d="M73 0v450h73v-450h-73zM110 675l125 -125l-38 -38l-87 87l-87 -87l-38 38z" />
    <glyph glyph-name="idieresis" unicode="&#xef;" 
d="M73 0v450h73v-450h-73zM-13 573q0 19 13.5 32.5t33.5 13.5t33 -13.5t13 -32.5q0 -20 -13.5 -33.5t-32.5 -13.5q-20 0 -33.5 14t-13.5 33zM139 573q0 20 13.5 33.5t32.5 13.5q20 0 33.5 -13.5t13.5 -33.5t-13.5 -33.5t-33.5 -13.5q-19 0 -32.5 13.5t-13.5 33.5z" />
    <glyph glyph-name="eth" unicode="&#xf0;" horiz-adv-x="555" 
d="M167 538l-29 50l87 49l-62 84l65 36l61 -83l93 53l29 -50l-86 -49q108 -162 146.5 -239t38.5 -157q0 -109 -64 -174t-168 -65t-168.5 64.5t-64.5 168.5q0 103 65 167t167 64q49 0 87 -21q-55 88 -102 156zM435 225q0 74 -43.5 120.5t-113.5 46.5t-113.5 -46.5
t-43.5 -120.5t43.5 -120.5t113.5 -46.5t113.5 46.5t43.5 120.5z" />
    <glyph glyph-name="ntilde" unicode="&#xf1;" horiz-adv-x="521" 
d="M73 450h73v-38q54 45 132 45q77 0 123 -50.5t46 -133.5v-273h-72v273q0 53 -31.5 86t-81.5 33q-71 0 -116 -45v-347h-73v450zM160 539h-43q0 39 24 63.5t60 24.5q31 0 59.5 -24.5t48.5 -24.5q18 0 30 12.5t12 31.5h42q0 -39 -23 -63t-61 -24q-32 0 -60 24t-47 24
t-30.5 -12t-11.5 -32z" />
    <glyph glyph-name="ograve" unicode="&#xf2;" horiz-adv-x="555" 
d="M45 225q0 104 64.5 168t168.5 64t168 -64.5t64 -167.5t-64 -167.5t-168 -64.5t-168.5 64t-64.5 168zM121 225q0 -74 43.5 -120.5t113.5 -46.5t113.5 46.5t43.5 120.5t-43.5 120.5t-113.5 46.5t-113.5 -46.5t-43.5 -120.5zM214 675l125 -125l-38 -38l-125 125z" />
    <glyph glyph-name="oacute" unicode="&#xf3;" horiz-adv-x="555" 
d="M45 225q0 104 64.5 168t168.5 64t168 -64.5t64 -167.5t-64 -167.5t-168 -64.5t-168.5 64t-64.5 168zM121 225q0 -74 43.5 -120.5t113.5 -46.5t113.5 46.5t43.5 120.5t-43.5 120.5t-113.5 46.5t-113.5 -46.5t-43.5 -120.5zM216 550l125 125l38 -38l-125 -125z" />
    <glyph glyph-name="ocircumflex" unicode="&#xf4;" horiz-adv-x="555" 
d="M45 225q0 104 64.5 168t168.5 64t168 -64.5t64 -167.5t-64 -167.5t-168 -64.5t-168.5 64t-64.5 168zM121 225q0 -74 43.5 -120.5t113.5 -46.5t113.5 46.5t43.5 120.5t-43.5 120.5t-113.5 46.5t-113.5 -46.5t-43.5 -120.5zM278 675l125 -125l-38 -38l-87 87l-88 -87
l-38 38z" />
    <glyph glyph-name="otilde" unicode="&#xf5;" horiz-adv-x="555" 
d="M45 225q0 104 64.5 168t168.5 64t168 -64.5t64 -167.5t-64 -167.5t-168 -64.5t-168.5 64t-64.5 168zM121 225q0 -74 43.5 -120.5t113.5 -46.5t113.5 46.5t43.5 120.5t-43.5 120.5t-113.5 46.5t-113.5 -46.5t-43.5 -120.5zM182 539h-43q0 39 23.5 63.5t60.5 24.5
q31 0 59.5 -24.5t48.5 -24.5q18 0 30 12.5t12 31.5h42q0 -39 -23 -63t-61 -24q-32 0 -60 24t-47 24t-30.5 -12t-11.5 -32z" />
    <glyph glyph-name="odieresis" unicode="&#xf6;" horiz-adv-x="555" 
d="M45 225q0 104 64.5 168t168.5 64t168 -64.5t64 -167.5t-64 -167.5t-168 -64.5t-168.5 64t-64.5 168zM121 225q0 -74 43.5 -120.5t113.5 -46.5t113.5 46.5t43.5 120.5t-43.5 120.5t-113.5 46.5t-113.5 -46.5t-43.5 -120.5zM137 573q0 19 13.5 32.5t33.5 13.5t33 -13.5
t13 -32.5q0 -20 -13.5 -33.5t-32.5 -13.5q-20 0 -33.5 14t-13.5 33zM324 573q0 19 14 33t33 14t33 -14t14 -33t-14 -33t-33 -14t-33 14t-14 33z" />
    <glyph glyph-name="divide" unicode="&#xf7;" horiz-adv-x="500" 
d="M61 238v58h378v-58h-378zM204 102q0 19 13 32t33 13t32.5 -12.5t12.5 -32.5t-13 -33t-32 -13q-20 0 -33 13t-13 33zM204 432q0 20 13 33t33 13q19 0 32 -13t13 -33q0 -19 -13 -32t-32 -13t-32.5 13t-13.5 32z" />
    <glyph glyph-name="oslash" unicode="&#xf8;" horiz-adv-x="555" 
d="M53 -7l53 67q-61 64 -61 165q0 104 64.5 168t168.5 64q69 0 121 -29l27 34h76l-56 -70q64 -62 64 -167q0 -103 -64 -167.5t-168 -64.5q-71 0 -125 31l-24 -31h-76zM439 225q0 67 -35 113l-210 -264q36 -21 84 -21q72 0 116.5 47.5t44.5 124.5zM116 225q0 -65 33 -111
l209 263q-35 20 -80 20q-72 0 -117 -48t-45 -124z" />
    <glyph glyph-name="ugrave" unicode="&#xf9;" horiz-adv-x="531" 
d="M458 450v-265q0 -86 -53.5 -139t-139.5 -53t-139 53t-53 139v265h76v-265q0 -56 33 -91.5t85 -35.5q53 0 86 35.5t33 91.5v265h72zM202 675l125 -125l-38 -38l-125 125z" />
    <glyph glyph-name="uacute" unicode="&#xfa;" horiz-adv-x="531" 
d="M458 450v-265q0 -86 -53.5 -139t-139.5 -53t-139 53t-53 139v265h76v-265q0 -56 33 -91.5t85 -35.5q53 0 86 35.5t33 91.5v265h72zM204 550l125 125l38 -38l-125 -125z" />
    <glyph glyph-name="ucircumflex" unicode="&#xfb;" horiz-adv-x="531" 
d="M458 450v-265q0 -86 -53.5 -139t-139.5 -53t-139 53t-53 139v265h76v-265q0 -56 33 -91.5t85 -35.5q53 0 86 35.5t33 91.5v265h72zM265 675l125 -125l-38 -38l-87 87l-87 -87l-38 38z" />
    <glyph glyph-name="udieresis" unicode="&#xfc;" horiz-adv-x="531" 
d="M458 450v-265q0 -86 -53.5 -139t-139.5 -53t-139 53t-53 139v265h76v-265q0 -56 33 -91.5t85 -35.5q53 0 86 35.5t33 91.5v265h72zM125 573q0 19 13.5 32.5t32.5 13.5q20 0 33.5 -13.5t13.5 -32.5t-14 -33t-33 -14t-32.5 13.5t-13.5 33.5zM312 573q0 19 14 33t33 14
t33 -14t14 -33t-14 -33t-33 -14t-33 14t-14 33z" />
    <glyph glyph-name="yacute" unicode="&#xfd;" horiz-adv-x="529" 
d="M503 450l-321 -700h-81l129 250l-204 450h81l158 -363l157 363h81zM203 550l125 125l38 -38l-125 -125z" />
    <glyph glyph-name="thorn" unicode="&#xfe;" horiz-adv-x="541" 
d="M73 750h73v-338q54 45 133 45q97 0 157 -64.5t60 -167.5q0 -104 -63 -168t-165 -64q-69 0 -122 33v-276h-73v1000zM420 225q0 74 -44 120.5t-114 46.5q-71 0 -116 -45v-246q45 -43 116 -43q70 0 114 46.5t44 120.5z" />
    <glyph glyph-name="ydieresis" unicode="&#xff;" horiz-adv-x="529" 
d="M503 450l-321 -700h-81l129 250l-204 450h81l158 -363l157 363h81zM124 573q0 19 13.5 32.5t33.5 13.5q19 0 32.5 -13.5t13.5 -32.5q0 -20 -13.5 -33.5t-32.5 -13.5t-33 14t-14 33zM311 573q0 19 13.5 33t33.5 14t33.5 -14t13.5 -33t-13.5 -33t-33.5 -14t-33.5 14
t-13.5 33z" />
    <glyph glyph-name="Amacron" unicode="&#x100;" horiz-adv-x="749" 
d="M634 0l-88 202h-343l-88 -202h-87l311 700h72l310 -700h-87zM375 604l-144 -334h287zM253 768v46h244v-46h-244z" />
    <glyph glyph-name="amacron" unicode="&#x101;" horiz-adv-x="453" 
d="M408 49v-49q-9 -4 -29 -4q-56 0 -75 48q-56 -51 -129 -51q-63 0 -96 36.5t-33 86.5q0 68 61.5 107t155.5 39q22 0 34 -3v55q0 32 -23.5 57.5t-67.5 25.5q-27 0 -54.5 -10.5t-43.5 -26.5l-40 40q55 57 144 57q75 0 116.5 -41.5t41.5 -101.5v-228q0 -18 10.5 -27.5
t27.5 -9.5zM197 53q60 0 100 43v113q-14 2 -30 2q-65 0 -106.5 -24t-41.5 -64q0 -26 18.5 -48t59.5 -22zM92 543v47h244v-47h-244z" />
    <glyph glyph-name="Abreve" unicode="&#x102;" horiz-adv-x="749" 
d="M634 0l-88 202h-343l-88 -202h-87l311 700h72l310 -700h-87zM375 604l-144 -334h287zM375 807q62 0 102 42l38 -38q-57 -59 -140 -59q-82 0 -141 59l38 38q42 -42 103 -42z" />
    <glyph glyph-name="abreve" unicode="&#x103;" horiz-adv-x="453" 
d="M408 49v-49q-9 -4 -29 -4q-56 0 -75 48q-56 -51 -129 -51q-63 0 -96 36.5t-33 86.5q0 68 61.5 107t155.5 39q22 0 34 -3v55q0 32 -23.5 57.5t-67.5 25.5q-27 0 -54.5 -10.5t-43.5 -26.5l-40 40q55 57 144 57q75 0 116.5 -41.5t41.5 -101.5v-228q0 -18 10.5 -27.5
t27.5 -9.5zM197 53q60 0 100 43v113q-14 2 -30 2q-65 0 -106.5 -24t-41.5 -64q0 -26 18.5 -48t59.5 -22zM216 582q61 0 103 42l38 -38q-57 -59 -141 -59q-82 0 -140 60l38 38q41 -43 102 -43z" />
    <glyph glyph-name="Aogonek" unicode="&#x104;" horiz-adv-x="749" 
d="M663 -39q0 -27 15.5 -42.5t39.5 -15.5t40 16l27 -27q-24 -26 -67 -26q-42 0 -67.5 26t-25.5 69q0 24 9 39l-88 202h-343l-88 -202h-87l311 700h72l310 -700h-48q-10 -14 -10 -39zM375 604l-144 -334h287z" />
    <glyph glyph-name="aogonek" unicode="&#x105;" horiz-adv-x="453" 
d="M380 -39q0 -27 15.5 -42.5t39.5 -15.5q26 0 40 16l28 -27q-24 -26 -67 -26q-42 0 -68 26t-26 69q0 22 10 39q-34 9 -48 44q-56 -51 -129 -51q-63 0 -96 36.5t-33 86.5q0 68 61.5 107t155.5 39q22 0 34 -3v55q0 32 -23.5 57.5t-67.5 25.5q-27 0 -54.5 -10.5t-43.5 -26.5
l-40 40q55 57 144 57q75 0 116.5 -41.5t41.5 -101.5v-228q0 -18 10.5 -27.5t27.5 -9.5v-49q-5 -2 -21 -4q-7 -14 -7 -35zM197 53q60 0 100 43v113q-14 2 -30 2q-65 0 -106.5 -24t-41.5 -64q0 -26 18.5 -48t59.5 -22z" />
    <glyph glyph-name="Cacute" unicode="&#x106;" horiz-adv-x="699" 
d="M128 350q0 -129 77 -209t201 -80q127 0 204 80l49 -47q-98 -101 -256 -101q-157 0 -255 99t-98 258t98 258t255 99q158 0 256 -101l-49 -48q-76 81 -204 81q-124 0 -201 -80t-77 -209zM320 780l125 125l38 -38l-125 -125z" />
    <glyph glyph-name="cacute" unicode="&#x107;" horiz-adv-x="478" 
d="M121 225q0 -74 44 -120.5t115 -46.5q75 0 117 47l45 -45q-62 -67 -166 -67q-103 0 -167 64t-64 168t64 168t167 64t166 -68l-45 -45q-43 48 -117 48q-71 0 -115 -46.5t-44 -120.5zM205 550l125 125l38 -38l-125 -125z" />
    <glyph glyph-name="Ccircumflex" unicode="&#x108;" horiz-adv-x="699" 
d="M128 350q0 -129 77 -209t201 -80q127 0 204 80l49 -47q-98 -101 -256 -101q-157 0 -255 99t-98 258t98 258t255 99q158 0 256 -101l-49 -48q-76 81 -204 81q-124 0 -201 -80t-77 -209zM382 900l125 -125l-38 -38l-87 87l-87 -87l-38 38z" />
    <glyph glyph-name="ccircumflex" unicode="&#x109;" horiz-adv-x="478" 
d="M121 225q0 -74 44 -120.5t115 -46.5q75 0 117 47l45 -45q-62 -67 -166 -67q-103 0 -167 64t-64 168t64 168t167 64t166 -68l-45 -45q-43 48 -117 48q-71 0 -115 -46.5t-44 -120.5zM266 675l125 -125l-38 -38l-87 87l-88 -87l-38 38z" />
    <glyph glyph-name="Cdotaccent" unicode="&#x10a;" horiz-adv-x="699" 
d="M128 350q0 -129 77 -209t201 -80q127 0 204 80l49 -47q-98 -101 -256 -101q-157 0 -255 99t-98 258t98 258t255 99q158 0 256 -101l-49 -48q-76 81 -204 81q-124 0 -201 -80t-77 -209zM333 810q0 20 14.5 34.5t34.5 14.5q21 0 35 -14.5t14 -34.5q0 -21 -14 -35t-35 -14
q-20 0 -34.5 14t-14.5 35z" />
    <glyph glyph-name="cdotaccent" unicode="&#x10b;" horiz-adv-x="478" 
d="M121 225q0 -74 44 -120.5t115 -46.5q75 0 117 47l45 -45q-62 -67 -166 -67q-103 0 -167 64t-64 168t64 168t167 64t166 -68l-45 -45q-43 48 -117 48q-71 0 -115 -46.5t-44 -120.5zM215 585q0 20 14.5 34.5t34.5 14.5q21 0 35 -14.5t14 -34.5t-14 -34.5t-35 -14.5
q-20 0 -34.5 14.5t-14.5 34.5z" />
    <glyph glyph-name="Ccaron" unicode="&#x10c;" horiz-adv-x="699" 
d="M128 350q0 -129 77 -209t201 -80q127 0 204 80l49 -47q-98 -101 -256 -101q-157 0 -255 99t-98 258t98 258t255 99q158 0 256 -101l-49 -48q-76 81 -204 81q-124 0 -201 -80t-77 -209zM380 737l-125 125l38 38l87 -87l87 87l38 -38z" />
    <glyph glyph-name="ccaron" unicode="&#x10d;" horiz-adv-x="478" 
d="M121 225q0 -74 44 -120.5t115 -46.5q75 0 117 47l45 -45q-62 -67 -166 -67q-103 0 -167 64t-64 168t64 168t167 64t166 -68l-45 -45q-43 48 -117 48q-71 0 -115 -46.5t-44 -120.5zM265 512l-126 125l38 38l88 -87l87 87l38 -38z" />
    <glyph glyph-name="Dcaron" unicode="&#x10e;" horiz-adv-x="692" 
d="M76 0v700h214q158 0 255 -96t97 -254t-97 -254t-255 -96h-214zM564 350q0 128 -75.5 206t-198.5 78h-136v-568h136q123 0 198.5 78t75.5 206zM336 737l-125 125l38 38l87 -87l87 87l38 -38z" />
    <glyph glyph-name="dcaron" unicode="&#x10f;" horiz-adv-x="680" 
d="M468 0h-73v38q-56 -45 -133 -45q-97 0 -157 64.5t-60 167.5q0 104 63 168t165 64q69 0 122 -33v326h73v-750zM121 225q0 -74 44 -120.5t115 -46.5q73 0 115 44v247q-43 43 -115 43q-71 0 -115 -46.5t-44 -120.5zM582 561l-26 26q40 41 47 73q-18 3 -30 16.5t-12 31.5
q0 21 14.5 35t35.5 14q20 0 34 -14t14 -43q0 -64 -77 -139z" />
    <glyph glyph-name="Dcroat" unicode="&#x110;" horiz-adv-x="708" 
d="M46 321v58h55v321h204q158 0 255 -96t97 -254t-97 -254t-255 -96h-204v321h-55zM579 350q0 128 -75.5 206t-198.5 78h-126v-255h161v-58h-161v-255h126q123 0 198.5 78t75.5 206z" />
    <glyph glyph-name="dcroat" unicode="&#x111;" horiz-adv-x="555" 
d="M468 0h-73v37q-57 -44 -133 -44q-97 0 -157 64.5t-60 167.5q0 104 63 168t165 64q72 0 122 -35v157h-133v58h133v113h73v-113h57v-58h-57v-579zM121 225q0 -74 44 -120.5t115 -46.5q72 0 115 45v246q-45 43 -115 43q-71 0 -115 -46.5t-44 -120.5z" />
    <glyph glyph-name="Emacron" unicode="&#x112;" horiz-adv-x="498" 
d="M151 637v-253h262v-63h-262v-258h299v-63h-374v700h369v-63h-294zM140 768v46h244v-46h-244z" />
    <glyph glyph-name="emacron" unicode="&#x113;" horiz-adv-x="508" 
d="M465 206h-342q5 -67 47.5 -107.5t111.5 -40.5q76 0 120 47l44 -45q-64 -67 -168 -67t-168.5 64.5t-64.5 169.5q0 102 59.5 166t155.5 64q97 0 151 -67.5t54 -183.5zM262 393q-57 0 -95 -36.5t-44 -98.5h269q-7 63 -40.5 99t-89.5 36zM138 543v47h244v-47h-244z" />
    <glyph glyph-name="Ebreve" unicode="&#x114;" horiz-adv-x="498" 
d="M151 637v-253h262v-63h-262v-258h299v-63h-374v700h369v-63h-294zM262 807q62 0 102 42l38 -38q-57 -59 -140 -59q-82 0 -141 59l38 38q42 -42 103 -42z" />
    <glyph glyph-name="ebreve" unicode="&#x115;" horiz-adv-x="508" 
d="M465 206h-342q5 -67 47.5 -107.5t111.5 -40.5q76 0 120 47l44 -45q-64 -67 -168 -67t-168.5 64.5t-64.5 169.5q0 102 59.5 166t155.5 64q97 0 151 -67.5t54 -183.5zM262 393q-57 0 -95 -36.5t-44 -98.5h269q-7 63 -40.5 99t-89.5 36zM260 582q62 0 102 42l38 -38
q-57 -59 -140 -59q-82 0 -140 60l38 38q41 -43 102 -43z" />
    <glyph glyph-name="Edotaccent" unicode="&#x116;" horiz-adv-x="498" 
d="M151 637v-253h262v-63h-262v-258h299v-63h-374v700h369v-63h-294zM213 810q0 20 14 34.5t35 14.5q20 0 34.5 -14.5t14.5 -34.5q0 -21 -14.5 -35t-34.5 -14q-21 0 -35 14t-14 35z" />
    <glyph glyph-name="edotaccent" unicode="&#x117;" horiz-adv-x="508" 
d="M465 206h-342q5 -67 47.5 -107.5t111.5 -40.5q76 0 120 47l44 -45q-64 -67 -168 -67t-168.5 64.5t-64.5 169.5q0 102 59.5 166t155.5 64q97 0 151 -67.5t54 -183.5zM262 393q-57 0 -95 -36.5t-44 -98.5h269q-7 63 -40.5 99t-89.5 36zM212 585q0 20 14.5 34.5t34.5 14.5
t34.5 -14.5t14.5 -34.5t-14.5 -34.5t-34.5 -14.5t-34.5 14.5t-14.5 34.5z" />
    <glyph glyph-name="Eogonek" unicode="&#x118;" horiz-adv-x="498" 
d="M339 -39q0 -27 15 -42.5t40 -15.5q24 0 40 16l27 -27q-24 -26 -67 -26q-42 0 -68 26t-26 69q0 22 10 39h-234v700h369v-63h-294v-253h262v-63h-262v-258h299v-63h-101q-10 -14 -10 -39z" />
    <glyph glyph-name="eogonek" unicode="&#x119;" horiz-adv-x="508" 
d="M329 -39q0 -27 15 -42.5t39 -15.5q25 0 41 16l27 -27q-24 -26 -67 -26q-42 0 -68 26t-26 69q0 18 6 33q-6 -1 -18 -1q-104 0 -168.5 64.5t-64.5 169.5q0 102 59.5 166t155.5 64q97 0 151 -67.5t54 -183.5h-342q5 -67 47.5 -107.5t111.5 -40.5q76 0 120 47l44 -45
q-43 -45 -107 -60q-10 -14 -10 -39zM262 393q-57 0 -95 -36.5t-44 -98.5h269q-7 63 -40.5 99t-89.5 36z" />
    <glyph glyph-name="Ecaron" unicode="&#x11a;" horiz-adv-x="498" 
d="M151 637v-253h262v-63h-262v-258h299v-63h-374v700h369v-63h-294zM262 737l-125 125l38 38l87 -87l87 87l38 -38z" />
    <glyph glyph-name="ecaron" unicode="&#x11b;" horiz-adv-x="508" 
d="M465 206h-342q5 -67 47.5 -107.5t111.5 -40.5q76 0 120 47l44 -45q-64 -67 -168 -67t-168.5 64.5t-64.5 169.5q0 102 59.5 166t155.5 64q97 0 151 -67.5t54 -183.5zM262 393q-57 0 -95 -36.5t-44 -98.5h269q-7 63 -40.5 99t-89.5 36zM260 512l-125 125l38 38l87 -87
l87 87l38 -38z" />
    <glyph glyph-name="Gcircumflex" unicode="&#x11c;" horiz-adv-x="735" 
d="M403 306v63h256v-276q-97 -100 -256 -100q-157 0 -255 99t-98 258t98 258t255 99q158 0 256 -101l-49 -48q-76 81 -204 81q-124 0 -201 -80t-77 -209t77 -209t201 -80q107 0 178 59v186h-181zM402 900l125 -125l-38 -38l-87 87l-88 -87l-38 38z" />
    <glyph glyph-name="gcircumflex" unicode="&#x11d;" horiz-adv-x="507" 
d="M23 -118q0 43 27.5 75t75.5 48q-58 25 -58 75q0 52 63 77q-78 38 -78 136q0 75 49 119.5t128 44.5q74 0 122 -40q34 40 77 40q17 0 25 -2v-59q-10 3 -21 3q-25 0 -46 -23q20 -35 20 -81q0 -72 -49.5 -117t-129.5 -45q-42 0 -66 -14.5t-24 -36.5t29 -36t78 -14
q96 0 154 -38t58 -100q0 -67 -65.5 -109t-164.5 -42q-93 0 -148.5 38.5t-55.5 100.5zM98 -118q0 -37 34.5 -59.5t94.5 -22.5q65 0 109.5 26t44.5 67q0 37 -37.5 59t-98.5 22q-67 0 -107 -25.5t-40 -66.5zM126 295q0 -46 29.5 -75t75.5 -29t75.5 29t29.5 75t-29.5 75
t-75.5 29t-75.5 -29t-29.5 -75zM229 675l125 -125l-38 -38l-87 87l-87 -87l-38 38z" />
    <glyph glyph-name="Gbreve" unicode="&#x11e;" horiz-adv-x="735" 
d="M403 306v63h256v-276q-97 -100 -256 -100q-157 0 -255 99t-98 258t98 258t255 99q158 0 256 -101l-49 -48q-76 81 -204 81q-124 0 -201 -80t-77 -209t77 -209t201 -80q107 0 178 59v186h-181zM401 807q62 0 102 42l38 -38q-56 -59 -140 -59q-81 0 -140 59l38 38
q40 -42 102 -42z" />
    <glyph glyph-name="gbreve" unicode="&#x11f;" horiz-adv-x="507" 
d="M23 -118q0 43 27.5 75t75.5 48q-58 25 -58 75q0 52 63 77q-78 38 -78 136q0 75 49 119.5t128 44.5q74 0 122 -40q34 40 77 40q17 0 25 -2v-59q-10 3 -21 3q-25 0 -46 -23q20 -35 20 -81q0 -72 -49.5 -117t-129.5 -45q-42 0 -66 -14.5t-24 -36.5t29 -36t78 -14
q96 0 154 -38t58 -100q0 -67 -65.5 -109t-164.5 -42q-93 0 -148.5 38.5t-55.5 100.5zM98 -118q0 -37 34.5 -59.5t94.5 -22.5q65 0 109.5 26t44.5 67q0 37 -37.5 59t-98.5 22q-67 0 -107 -25.5t-40 -66.5zM126 295q0 -46 29.5 -75t75.5 -29t75.5 29t29.5 75t-29.5 75
t-75.5 29t-75.5 -29t-29.5 -75zM230 582q61 0 103 42l38 -38q-57 -59 -141 -59q-82 0 -140 60l38 38q41 -43 102 -43z" />
    <glyph glyph-name="Gdotaccent" unicode="&#x120;" horiz-adv-x="735" 
d="M403 306v63h256v-276q-97 -100 -256 -100q-157 0 -255 99t-98 258t98 258t255 99q158 0 256 -101l-49 -48q-76 81 -204 81q-124 0 -201 -80t-77 -209t77 -209t201 -80q107 0 178 59v186h-181zM352 810q0 20 14.5 34.5t34.5 14.5q21 0 35 -14.5t14 -34.5q0 -21 -14 -35
t-35 -14q-20 0 -34.5 14t-14.5 35z" />
    <glyph glyph-name="gdotaccent" unicode="&#x121;" horiz-adv-x="507" 
d="M23 -118q0 43 27.5 75t75.5 48q-58 25 -58 75q0 52 63 77q-78 38 -78 136q0 75 49 119.5t128 44.5q74 0 122 -40q34 40 77 40q17 0 25 -2v-59q-10 3 -21 3q-25 0 -46 -23q20 -35 20 -81q0 -72 -49.5 -117t-129.5 -45q-42 0 -66 -14.5t-24 -36.5t29 -36t78 -14
q96 0 154 -38t58 -100q0 -67 -65.5 -109t-164.5 -42q-93 0 -148.5 38.5t-55.5 100.5zM98 -118q0 -37 34.5 -59.5t94.5 -22.5q65 0 109.5 26t44.5 67q0 37 -37.5 59t-98.5 22q-67 0 -107 -25.5t-40 -66.5zM126 295q0 -46 29.5 -75t75.5 -29t75.5 29t29.5 75t-29.5 75
t-75.5 29t-75.5 -29t-29.5 -75zM179 585q0 20 14 34.5t35 14.5q20 0 34.5 -14.5t14.5 -34.5t-14.5 -34.5t-34.5 -14.5q-21 0 -35 14.5t-14 34.5z" />
    <glyph glyph-name="Gcommaaccent" unicode="&#x122;" horiz-adv-x="735" 
d="M403 306v63h256v-276q-97 -100 -256 -100q-157 0 -255 99t-98 258t98 258t255 99q158 0 256 -101l-49 -48q-76 81 -204 81q-124 0 -201 -80t-77 -209t77 -209t201 -80q107 0 178 59v186h-181zM370 -217l-22 22q36 36 41 65q-16 1 -26 13t-10 27q0 18 12 30t30 12t30 -12
t12 -37q0 -55 -67 -120z" />
    <glyph glyph-name="gcommaaccent" unicode="&#x123;" horiz-adv-x="507" 
d="M23 -118q0 43 27.5 75t75.5 48q-58 25 -58 75q0 52 63 77q-78 38 -78 136q0 75 49 119.5t128 44.5q74 0 122 -40q34 40 77 40q17 0 25 -2v-59q-10 3 -21 3q-25 0 -46 -23q20 -35 20 -81q0 -72 -49.5 -117t-129.5 -45q-42 0 -66 -14.5t-24 -36.5t29 -36t78 -14
q96 0 154 -38t58 -100q0 -67 -65.5 -109t-164.5 -42q-93 0 -148.5 38.5t-55.5 100.5zM98 -118q0 -37 34.5 -59.5t94.5 -22.5q65 0 109.5 26t44.5 67q0 37 -37.5 59t-98.5 22q-67 0 -107 -25.5t-40 -66.5zM126 295q0 -46 29.5 -75t75.5 -29t75.5 29t29.5 75t-29.5 75
t-75.5 29t-75.5 -29t-29.5 -75zM257 683l22 -22q-36 -38 -41 -65q16 -2 26 -13.5t10 -27.5q0 -17 -12 -29.5t-30 -12.5t-30 12.5t-12 36.5q0 54 67 121z" />
    <glyph glyph-name="Hcircumflex" unicode="&#x124;" horiz-adv-x="690" 
d="M151 700v-316h388v316h75v-700h-75v321h-388v-321h-75v700h75zM345 900l125 -125l-38 -38l-87 87l-87 -87l-38 38z" />
    <glyph glyph-name="hcircumflex" unicode="&#x125;" horiz-adv-x="523" 
d="M73 750h73v-338q54 45 132 45q77 0 123 -50.5t46 -133.5v-273h-72v273q0 53 -31.5 86t-81.5 33q-71 0 -116 -45v-347h-73v750zM273 910l126 -125l-38 -38l-88 87l-87 -87l-38 38z" />
    <glyph glyph-name="Hbar" unicode="&#x126;" horiz-adv-x="700" 
d="M101 0v510h-61v59h61v131h75v-131h343v131h75v-131h66v-59h-66v-510h-75v321h-343v-321h-75zM176 384h343v126h-343v-126z" />
    <glyph glyph-name="hbar" unicode="&#x127;" horiz-adv-x="538" 
d="M30 592v58h58v100h73v-100h173v-58h-173v-179q55 44 132 44q76 0 122.5 -50.5t46.5 -133.5v-273h-73v273q0 53 -31.5 86t-81.5 33q-72 0 -115 -45v-347h-73v592h-58z" />
    <glyph glyph-name="Itilde" unicode="&#x128;" horiz-adv-x="222" 
d="M73 0v700h76v-700h-76zM16 764h-43q0 39 24 63t60 24q31 0 60 -24t48 -24q18 0 30 12.5t12 31.5h43q0 -39 -23.5 -63t-61.5 -24q-32 0 -60 24t-47 24q-18 0 -30 -12t-12 -32z" />
    <glyph glyph-name="itilde" unicode="&#x129;" 
d="M15 539h-43q0 39 23.5 63.5t60.5 24.5q32 0 60 -24.5t47 -24.5t31 12.5t12 31.5h42q0 -39 -23.5 -63t-61.5 -24q-32 0 -59.5 24t-46.5 24t-30.5 -12t-11.5 -32zM73 0v450h73v-450h-73z" />
    <glyph glyph-name="Imacron" unicode="&#x12a;" horiz-adv-x="222" 
d="M73 0v700h76v-700h-76zM-11 768v46h244v-46h-244z" />
    <glyph glyph-name="imacron" unicode="&#x12b;" 
d="M-12 543v47h244v-47h-244zM73 0v450h73v-450h-73z" />
    <glyph glyph-name="Ibreve" unicode="&#x12c;" horiz-adv-x="222" 
d="M73 0v700h76v-700h-76zM111 807q61 0 103 42l38 -38q-57 -59 -141 -59q-81 0 -140 59l38 38q40 -42 102 -42z" />
    <glyph glyph-name="ibreve" unicode="&#x12d;" 
d="M110 582q62 0 102 42l38 -38q-57 -59 -140 -59t-141 60l39 38q41 -43 102 -43zM73 0v450h73v-450h-73z" />
    <glyph glyph-name="Iogonek" unicode="&#x12e;" horiz-adv-x="222" 
d="M102 -39q0 -27 15.5 -42.5t39.5 -15.5q26 0 40 16l28 -27q-26 -26 -68 -26t-67.5 26t-25.5 69q0 24 9 39v700h76v-700h-37q-10 -17 -10 -39z" />
    <glyph glyph-name="iogonek" unicode="&#x12f;" 
d="M73 0v450h73v-450h-73zM61 585q0 20 14 34.5t35 14.5q20 0 34.5 -14.5t14.5 -34.5t-14.5 -34.5t-34.5 -14.5q-21 0 -35 14.5t-14 34.5zM102 -39q0 -27 15.5 -42.5t39.5 -15.5q26 0 40 16l28 -27q-26 -26 -68 -26t-67.5 26t-25.5 69q0 24 9 39h39q-10 -17 -10 -39z" />
    <glyph glyph-name="Idotaccent" unicode="&#x130;" horiz-adv-x="222" 
d="M73 0v700h76v-700h-76zM62 810q0 20 14 34.5t35 14.5q20 0 34.5 -14.5t14.5 -34.5q0 -21 -14.5 -35t-34.5 -14q-21 0 -35 14t-14 35z" />
    <glyph glyph-name="dotlessi" unicode="&#x131;" 
d="M73 0v450h73v-450h-73z" />
    <glyph glyph-name="IJ" unicode="&#x132;" horiz-adv-x="503" 
d="M76 250v450h75v-450h-75zM354 190v510h76v-510q0 -88 -55 -142.5t-142 -54.5t-142 55l48 49q34 -36 91 -36q56 0 90 35.5t34 93.5z" />
    <glyph glyph-name="ij" unicode="&#x133;" horiz-adv-x="439" 
d="M73 0v450h73v-450h-73zM61 585q0 20 14 34.5t35 14.5q20 0 34.5 -14.5t14.5 -34.5t-14.5 -34.5t-34.5 -14.5q-21 0 -35 14.5t-14 34.5zM280 585q0 20 14.5 34.5t34.5 14.5q21 0 35 -14.5t14 -34.5t-14 -34.5t-35 -14.5q-20 0 -34.5 14.5t-14.5 34.5zM237 -250v49
q56 0 56 53v598h73v-600q0 -48 -26 -76t-70 -28q-24 0 -33 4z" />
    <glyph glyph-name="Jcircumflex" unicode="&#x134;" horiz-adv-x="453" 
d="M304 190v510h75v-510q0 -88 -54.5 -142.5t-141.5 -54.5q-88 0 -143 55l49 49q34 -36 91 -36q55 0 89.5 35.5t34.5 93.5zM341 900l126 -125l-38 -38l-88 87l-87 -87l-38 38z" />
    <glyph glyph-name="jcircumflex" unicode="&#x135;" 
d="M18 -250v49q55 0 55 53v598h73v-600q0 -48 -26 -76t-69 -28q-24 0 -33 4zM110 675l125 -125l-38 -38l-87 87l-87 -87l-38 38z" />
    <glyph glyph-name="Kcommaaccent" unicode="&#x136;" horiz-adv-x="596" 
d="M73 0v700h76v-700h-76zM468 0l-309 359l289 341h95l-289 -341l311 -359h-97zM275 -217l-22 22q36 36 41 65q-15 1 -25.5 13t-10.5 27q0 18 12 30t30 12t30 -12t12 -37q0 -55 -67 -120z" />
    <glyph glyph-name="kcommaaccent" unicode="&#x137;" horiz-adv-x="466" 
d="M146 0h-73v750h73v-504l180 204h87l-188 -211l210 -239h-87l-202 232v-232zM210 -217l-22 22q36 36 41 65q-15 1 -25.5 13t-10.5 27q0 18 12.5 30t30.5 12q17 0 29 -12t12 -37q0 -55 -67 -120z" />
    <glyph glyph-name="Lacute" unicode="&#x139;" horiz-adv-x="465" 
d="M151 700v-637h274v-63h-349v700h75zM151 775l125 125l38 -38l-125 -125z" />
    <glyph glyph-name="lacute" unicode="&#x13a;" horiz-adv-x="247" 
d="M204 49v-49q-9 -4 -35 -4q-44 0 -70 28t-26 76v650h73v-648q0 -53 58 -53zM42 810l125 125l38 -38l-125 -125z" />
    <glyph glyph-name="Lcommaaccent" unicode="&#x13b;" horiz-adv-x="465" 
d="M151 700v-637h274v-63h-349v700h75zM226 -217l-23 22q36 36 41 65q-15 1 -25 13t-10 27q0 18 12 30t30 12q17 0 29 -12t12 -37q0 -54 -66 -120z" />
    <glyph glyph-name="lcommaaccent" unicode="&#x13c;" horiz-adv-x="247" 
d="M204 49v-49q-9 -4 -35 -4q-44 0 -70 28t-26 76v650h73v-648q0 -53 58 -53zM111 -217l-22 22q36 36 41 65q-16 1 -26 13t-10 27q0 18 12 30t30 12t30 -12t12 -37q0 -55 -67 -120z" />
    <glyph glyph-name="Lcaron" unicode="&#x13d;" horiz-adv-x="465" 
d="M151 700v-637h274v-63h-349v700h75zM114 737l-125 125l38 38l87 -87l87 87l38 -38z" />
    <glyph glyph-name="lcaron" unicode="&#x13e;" horiz-adv-x="371" 
d="M204 49v-49q-9 -4 -35 -4q-44 0 -70 28t-26 76v650h73v-648q0 -53 58 -53zM273 561l-26 26q39 39 47 73q-18 3 -30 16.5t-12 31.5q0 21 14.5 35t35.5 14q20 0 34 -14t14 -43q0 -64 -77 -139z" />
    <glyph glyph-name="Ldot" unicode="&#x13f;" horiz-adv-x="465" 
d="M151 700v-637h274v-63h-349v700h75zM301 325q0 20 14.5 34.5t34.5 14.5t34.5 -14.5t14.5 -34.5t-14.5 -34.5t-34.5 -14.5t-34.5 14.5t-14.5 34.5z" />
    <glyph glyph-name="ldot" unicode="&#x140;" horiz-adv-x="377" 
d="M204 49v-49q-9 -4 -35 -4q-44 0 -70 28t-26 76v650h73v-648q0 -53 58 -53zM250 325q0 20 14.5 34.5t34.5 14.5q21 0 35 -14.5t14 -34.5t-14 -34.5t-35 -14.5q-20 0 -34.5 14.5t-14.5 34.5z" />
    <glyph glyph-name="Lslash" unicode="&#x141;" horiz-adv-x="494" 
d="M10 234l94 94v372h76v-314l89 90l38 -38l-127 -128v-247h273v-63h-349v252l-56 -56z" />
    <glyph glyph-name="lslash" unicode="&#x142;" horiz-adv-x="290" 
d="M231 49v-49q-9 -4 -36 -4q-43 0 -69 28t-26 76v184l-54 -54l-38 38l92 92v390h73v-333l61 61l38 -38l-99 -99v-239q0 -53 58 -53z" />
    <glyph glyph-name="Nacute" unicode="&#x143;" horiz-adv-x="713" 
d="M76 700h51l435 -558v558h75v-700h-51l-435 558v-558h-75v700zM295 775l125 125l38 -38l-125 -125z" />
    <glyph glyph-name="nacute" unicode="&#x144;" horiz-adv-x="521" 
d="M73 450h73v-38q54 45 132 45q77 0 123 -50.5t46 -133.5v-273h-72v273q0 53 -31.5 86t-81.5 33q-71 0 -116 -45v-347h-73v450zM199 550l125 125l38 -38l-125 -125z" />
    <glyph glyph-name="Ncommaaccent" unicode="&#x145;" horiz-adv-x="713" 
d="M76 700h51l435 -558v558h75v-700h-51l-435 558v-558h-75v700zM334 -217l-22 22q36 36 41 65q-16 1 -26 13t-10 27q0 18 12 30t30 12t30 -12t12 -37q0 -55 -67 -120z" />
    <glyph glyph-name="ncommaaccent" unicode="&#x146;" horiz-adv-x="521" 
d="M73 450h73v-38q54 45 132 45q77 0 123 -50.5t46 -133.5v-273h-72v273q0 53 -31.5 86t-81.5 33q-71 0 -116 -45v-347h-73v450zM235 -217l-22 22q36 36 41 65q-15 1 -25.5 13t-10.5 27q0 18 12.5 30t30.5 12q17 0 29 -12t12 -37q0 -55 -67 -120z" />
    <glyph glyph-name="Ncaron" unicode="&#x147;" horiz-adv-x="713" 
d="M76 700h51l435 -558v558h75v-700h-51l-435 558v-558h-75v700zM356 737l-125 125l38 38l87 -87l87 87l38 -38z" />
    <glyph glyph-name="ncaron" unicode="&#x148;" horiz-adv-x="521" 
d="M73 450h73v-38q54 45 132 45q77 0 123 -50.5t46 -133.5v-273h-72v273q0 53 -31.5 86t-81.5 33q-71 0 -116 -45v-347h-73v450zM260 512l-125 125l38 38l87 -87l87 87l38 -38z" />
    <glyph glyph-name="Eng" unicode="&#x14a;" horiz-adv-x="713" 
d="M506 -250v49q56 0 56 53v175l-411 531v-558h-75v700h51l435 -558v558h75v-850q0 -48 -27 -76t-71 -28q-24 0 -33 4z" />
    <glyph glyph-name="eng" unicode="&#x14b;" horiz-adv-x="521" 
d="M319 -250v49q56 0 56 53v421q0 53 -31.5 86t-81.5 33q-71 0 -116 -45v-347h-73v450h73v-38q54 45 132 45q77 0 123 -50.5t46 -133.5v-423q0 -48 -26 -76t-69 -28q-24 0 -33 4z" />
    <glyph glyph-name="Omacron" unicode="&#x14c;" horiz-adv-x="805" 
d="M50 350q0 159 98 258t255 99t254.5 -99t97.5 -258t-97.5 -258t-254.5 -99t-255 99t-98 258zM128 350q0 -129 76.5 -209t198.5 -80t198 80t76 209t-76 209t-198 80t-198.5 -80t-76.5 -209zM281 768v46h244v-46h-244z" />
    <glyph glyph-name="omacron" unicode="&#x14d;" horiz-adv-x="555" 
d="M45 225q0 104 64.5 168t168.5 64t168 -64.5t64 -167.5t-64 -167.5t-168 -64.5t-168.5 64t-64.5 168zM121 225q0 -74 43.5 -120.5t113.5 -46.5t113.5 46.5t43.5 120.5t-43.5 120.5t-113.5 46.5t-113.5 -46.5t-43.5 -120.5zM156 543v47h244v-47h-244z" />
    <glyph glyph-name="Obreve" unicode="&#x14e;" horiz-adv-x="805" 
d="M50 350q0 159 98 258t255 99t254.5 -99t97.5 -258t-97.5 -258t-254.5 -99t-255 99t-98 258zM128 350q0 -129 76.5 -209t198.5 -80t198 80t76 209t-76 209t-198 80t-198.5 -80t-76.5 -209zM403 807q62 0 102 42l38 -38q-57 -59 -140 -59q-82 0 -141 59l38 38
q40 -42 103 -42z" />
    <glyph glyph-name="obreve" unicode="&#x14f;" horiz-adv-x="555" 
d="M45 225q0 104 64.5 168t168.5 64t168 -64.5t64 -167.5t-64 -167.5t-168 -64.5t-168.5 64t-64.5 168zM121 225q0 -74 43.5 -120.5t113.5 -46.5t113.5 46.5t43.5 120.5t-43.5 120.5t-113.5 46.5t-113.5 -46.5t-43.5 -120.5zM278 582q62 0 102 42l38 -38q-57 -59 -140 -59
t-141 60l38 38q41 -43 103 -43z" />
    <glyph glyph-name="Ohungarumlaut" unicode="&#x150;" horiz-adv-x="805" 
d="M50 350q0 159 98 258t255 99t254.5 -99t97.5 -258t-97.5 -258t-254.5 -99t-255 99t-98 258zM128 350q0 -129 76.5 -209t198.5 -80t198 80t76 209t-76 209t-198 80t-198.5 -80t-76.5 -209zM266 775l126 125l38 -38l-126 -125zM416 775l125 125l38 -38l-125 -125z" />
    <glyph glyph-name="ohungarumlaut" unicode="&#x151;" horiz-adv-x="555" 
d="M45 225q0 104 64.5 168t168.5 64t168 -64.5t64 -167.5t-64 -167.5t-168 -64.5t-168.5 64t-64.5 168zM121 225q0 -74 43.5 -120.5t113.5 -46.5t113.5 46.5t43.5 120.5t-43.5 120.5t-113.5 46.5t-113.5 -46.5t-43.5 -120.5zM141 550l126 125l38 -38l-126 -125zM291 550
l125 125l38 -38l-125 -125z" />
    <glyph glyph-name="OE" unicode="&#x152;" horiz-adv-x="875" 
d="M554 637v-253h238v-63h-238v-258h276v-63h-349q-44 -7 -78 -7q-157 0 -255 99t-98 258t98 258t255 99q34 0 78 -7h344v-63h-271zM403 61q43 0 75 11v556q-32 11 -75 11q-122 0 -198.5 -80t-76.5 -209t76.5 -209t198.5 -80z" />
    <glyph glyph-name="oe" unicode="&#x153;" horiz-adv-x="841" 
d="M798 206h-342q5 -67 47.5 -107.5t112.5 -40.5q75 0 119 47l45 -45q-64 -67 -169 -67t-167 65q-63 -65 -166 -65q-104 0 -168.5 64t-64.5 168t64.5 168t168.5 64q100 0 163 -63q58 63 152 63q97 0 151 -67.5t54 -183.5zM278 58q80 0 124 60q-23 48 -23 109t21 107
q-43 58 -122 58q-70 0 -113.5 -46.5t-43.5 -120.5t43.5 -120.5t113.5 -46.5zM595 393q-57 0 -94.5 -36.5t-44.5 -98.5h269q-6 63 -40 99t-90 36z" />
    <glyph glyph-name="Racute" unicode="&#x154;" horiz-adv-x="534" 
d="M418 0l-168 309h-96v-309h-78v700h196q92 0 148 -53.5t56 -142.5q0 -75 -40.5 -125t-109.5 -65l178 -314h-86zM398 504q0 59 -34.5 94.5t-91.5 35.5h-118v-260h118q57 0 91.5 35.5t34.5 94.5zM200 775l125 125l38 -38l-125 -125z" />
    <glyph glyph-name="racute" unicode="&#x155;" horiz-adv-x="345" 
d="M268 456q9 0 29 -2v-64q-17 3 -34 3q-73 0 -117 -62v-331h-73v450h73v-55q53 61 122 61zM126 550l125 125l38 -38l-125 -125z" />
    <glyph glyph-name="Rcommaaccent" unicode="&#x156;" horiz-adv-x="534" 
d="M418 0l-168 309h-96v-309h-78v700h196q92 0 148 -53.5t56 -142.5q0 -75 -40.5 -125t-109.5 -65l178 -314h-86zM398 504q0 59 -34.5 94.5t-91.5 35.5h-118v-260h118q57 0 91.5 35.5t34.5 94.5zM244 -217l-22 22q36 36 41 65q-15 1 -25.5 13t-10.5 27q0 18 12.5 30t30.5 12
q17 0 29 -12t12 -37q0 -55 -67 -120z" />
    <glyph glyph-name="rcommaaccent" unicode="&#x157;" horiz-adv-x="345" 
d="M268 456q9 0 29 -2v-64q-17 3 -34 3q-73 0 -117 -62v-331h-73v450h73v-55q53 61 122 61zM85 -217l-22 22q36 36 41 65q-16 1 -26 13t-10 27q0 18 12 30t30 12t30 -12t12 -37q0 -55 -67 -120z" />
    <glyph glyph-name="Rcaron" unicode="&#x158;" horiz-adv-x="534" 
d="M418 0l-168 309h-96v-309h-78v700h196q92 0 148 -53.5t56 -142.5q0 -75 -40.5 -125t-109.5 -65l178 -314h-86zM398 504q0 59 -34.5 94.5t-91.5 35.5h-118v-260h118q57 0 91.5 35.5t34.5 94.5zM262 737l-125 125l38 38l87 -87l87 87l38 -38z" />
    <glyph glyph-name="rcaron" unicode="&#x159;" horiz-adv-x="345" 
d="M268 456q9 0 29 -2v-64q-17 3 -34 3q-73 0 -117 -62v-331h-73v450h73v-55q53 61 122 61zM188 512l-126 125l38 38l88 -87l87 87l38 -38z" />
    <glyph glyph-name="Sacute" unicode="&#x15a;" horiz-adv-x="530" 
d="M454 625l-47 -48q-25 27 -66.5 44.5t-81.5 17.5q-62 0 -93 -36t-31 -82q0 -45 35 -75t85 -48.5t100 -40t85 -62.5t35 -102q0 -82 -56 -141t-159 -59q-133 0 -219 92l47 47q30 -34 74.5 -52.5t90.5 -18.5q71 0 107.5 41t36.5 89q0 43 -35 72t-84.5 47t-99.5 39.5t-85 64
t-35 105.5q0 78 49.5 133t144.5 55q123 0 202 -82zM191 775l125 125l38 -38l-125 -125z" />
    <glyph glyph-name="sacute" unicode="&#x15b;" horiz-adv-x="384" 
d="M324 404l-45 -45q-34 36 -87 36q-34 0 -50.5 -20t-16.5 -45q0 -26 21.5 -43.5t52.5 -29t62.5 -25t53 -40t21.5 -64.5q0 -55 -39 -95t-110 -40q-91 0 -148 60l46 45q37 -44 97 -44q41 0 61 23t20 50q0 25 -21.5 42t-52.5 28t-62.5 25t-53 40.5t-21.5 66.5q0 53 34.5 90.5
t100.5 37.5q86 0 137 -53zM123 550l125 125l38 -38l-125 -125z" />
    <glyph glyph-name="Scircumflex" unicode="&#x15c;" horiz-adv-x="530" 
d="M454 625l-47 -48q-25 27 -66.5 44.5t-81.5 17.5q-62 0 -93 -36t-31 -82q0 -45 35 -75t85 -48.5t100 -40t85 -62.5t35 -102q0 -82 -56 -141t-159 -59q-133 0 -219 92l47 47q30 -34 74.5 -52.5t90.5 -18.5q71 0 107.5 41t36.5 89q0 43 -35 72t-84.5 47t-99.5 39.5t-85 64
t-35 105.5q0 78 49.5 133t144.5 55q123 0 202 -82zM252 900l126 -125l-38 -38l-88 87l-87 -87l-38 38z" />
    <glyph glyph-name="scircumflex" unicode="&#x15d;" horiz-adv-x="384" 
d="M324 404l-45 -45q-34 36 -87 36q-34 0 -50.5 -20t-16.5 -45q0 -26 21.5 -43.5t52.5 -29t62.5 -25t53 -40t21.5 -64.5q0 -55 -39 -95t-110 -40q-91 0 -148 60l46 45q37 -44 97 -44q41 0 61 23t20 50q0 25 -21.5 42t-52.5 28t-62.5 25t-53 40.5t-21.5 66.5q0 53 34.5 90.5
t100.5 37.5q86 0 137 -53zM184 675l125 -125l-38 -38l-87 87l-87 -87l-38 38z" />
    <glyph glyph-name="Scedilla" unicode="&#x15e;" horiz-adv-x="530" 
d="M454 625l-47 -48q-25 27 -66.5 44.5t-81.5 17.5q-62 0 -93 -36t-31 -82q0 -45 35 -75t85 -48.5t100 -40t85 -62.5t35 -102q0 -79 -51.5 -137t-147.5 -63v-52q66 -12 66 -76q0 -36 -23 -58t-60 -22t-60 25l25 25q14 -14 35 -14t34 12t13 33q0 47 -64 47v81q-122 6 -201 91
l47 47q30 -34 74.5 -52.5t90.5 -18.5q71 0 107.5 41t36.5 89q0 43 -35 72t-84.5 47t-99.5 39.5t-85 64t-35 105.5q0 78 49.5 133t144.5 55q123 0 202 -82z" />
    <glyph glyph-name="scedilla" unicode="&#x15f;" horiz-adv-x="384" 
d="M324 404l-45 -45q-34 36 -87 36q-34 0 -50.5 -20t-16.5 -45q0 -26 21.5 -43.5t52.5 -29t62.5 -25t53 -40t21.5 -64.5q0 -52 -35 -91t-99 -43v-53q66 -12 66 -76q0 -36 -23 -58t-60 -22t-60 25l25 25q14 -14 35 -14t34.5 12t13.5 33q0 47 -65 47v81q-79 6 -129 59l46 45
q37 -44 97 -44q41 0 61 23t20 50q0 25 -21.5 42t-52.5 28t-62.5 25t-53 40.5t-21.5 66.5q0 53 34.5 90.5t100.5 37.5q86 0 137 -53z" />
    <glyph glyph-name="Scaron" unicode="&#x160;" horiz-adv-x="530" 
d="M454 625l-47 -48q-25 27 -66.5 44.5t-81.5 17.5q-62 0 -93 -36t-31 -82q0 -45 35 -75t85 -48.5t100 -40t85 -62.5t35 -102q0 -82 -56 -141t-159 -59q-133 0 -219 92l47 47q30 -34 74.5 -52.5t90.5 -18.5q71 0 107.5 41t36.5 89q0 43 -35 72t-84.5 47t-99.5 39.5t-85 64
t-35 105.5q0 78 49.5 133t144.5 55q123 0 202 -82zM252 737l-125 125l38 38l87 -87l88 87l38 -38z" />
    <glyph glyph-name="scaron" unicode="&#x161;" horiz-adv-x="384" 
d="M324 404l-45 -45q-34 36 -87 36q-34 0 -50.5 -20t-16.5 -45q0 -26 21.5 -43.5t52.5 -29t62.5 -25t53 -40t21.5 -64.5q0 -55 -39 -95t-110 -40q-91 0 -148 60l46 45q37 -44 97 -44q41 0 61 23t20 50q0 25 -21.5 42t-52.5 28t-62.5 25t-53 40.5t-21.5 66.5q0 53 34.5 90.5
t100.5 37.5q86 0 137 -53zM184 512l-125 125l38 38l87 -87l87 87l38 -38z" />
    <glyph glyph-name="Tcommaaccent" unicode="&#x162;" horiz-adv-x="557" 
d="M316 637v-637h-75v637h-201v63h477v-63h-201zM256 -217l-22 22q36 36 41 65q-15 1 -25.5 13t-10.5 27q0 18 12.5 30t30.5 12q17 0 29 -12t12 -37q0 -55 -67 -120z" />
    <glyph glyph-name="tcommaaccent" unicode="&#x163;" horiz-adv-x="319" 
d="M30 392v58h58v100h75v-100h121v-58h-121v-253q0 -37 22 -60.5t58 -23.5q23 0 41 10v-62q-23 -10 -53 -10q-66 0 -104.5 40t-38.5 106v253h-58zM152 -217l-22 22q36 36 41 65q-15 1 -25.5 13t-10.5 27q0 18 12 30t31 12q17 0 29 -12t12 -37q0 -55 -67 -120z" />
    <glyph glyph-name="Tcaron" unicode="&#x164;" horiz-adv-x="557" 
d="M316 637v-637h-75v637h-201v63h477v-63h-201zM279 737l-126 125l38 38l88 -87l87 87l38 -38z" />
    <glyph glyph-name="tcaron" unicode="&#x165;" horiz-adv-x="358" 
d="M30 392v58h58v100h75v-100h121v-58h-121v-253q0 -37 22 -60.5t58 -23.5q23 0 41 10v-62q-23 -10 -53 -10q-66 0 -104.5 40t-38.5 106v253h-58zM268 535l-26 26q40 42 46 73q-17 3 -29 16.5t-12 31.5q0 21 14 35t35 14q20 0 34.5 -14t14.5 -43q0 -62 -77 -139z" />
    <glyph glyph-name="Tbar" unicode="&#x166;" horiz-adv-x="557" 
d="M96 341v58h145v238h-201v63h477v-63h-201v-238h146v-58h-146v-341h-75v341h-145z" />
    <glyph glyph-name="tbar" unicode="&#x167;" horiz-adv-x="319" 
d="M30 244v56h58v92h-58v58h58v100h75v-100h121v-58h-121v-92h121v-56h-121v-105q0 -37 22 -60.5t58 -23.5q23 0 41 10v-62q-23 -10 -53 -10q-66 0 -104.5 40t-38.5 106v105h-58z" />
    <glyph glyph-name="Utilde" unicode="&#x168;" horiz-adv-x="673" 
d="M522 255v445h75v-445q0 -117 -72.5 -189.5t-188.5 -72.5q-117 0 -188.5 72t-71.5 190v445h75v-445q0 -87 51 -140.5t133 -53.5q83 0 135 53.5t52 140.5zM241 764h-43q0 39 23.5 63t60.5 24q32 0 60 -24t47 -24t31 12.5t12 31.5h42q0 -39 -23.5 -63t-61.5 -24
q-31 0 -59 24t-47 24t-30.5 -12t-11.5 -32z" />
    <glyph glyph-name="utilde" unicode="&#x169;" horiz-adv-x="531" 
d="M458 450v-265q0 -86 -53.5 -139t-139.5 -53t-139 53t-53 139v265h76v-265q0 -56 33 -91.5t85 -35.5q53 0 86 35.5t33 91.5v265h72zM169 539h-42q0 39 23.5 63.5t60.5 24.5q31 0 59 -24.5t48 -24.5q19 0 30.5 12t11.5 32h43q0 -39 -23.5 -63t-61.5 -24q-32 0 -59.5 24
t-46.5 24t-31 -12t-12 -32z" />
    <glyph glyph-name="Umacron" unicode="&#x16a;" horiz-adv-x="673" 
d="M522 255v445h75v-445q0 -117 -72.5 -189.5t-188.5 -72.5q-117 0 -188.5 72t-71.5 190v445h75v-445q0 -87 51 -140.5t133 -53.5q83 0 135 53.5t52 140.5zM214 768v46h244v-46h-244z" />
    <glyph glyph-name="umacron" unicode="&#x16b;" horiz-adv-x="531" 
d="M458 450v-265q0 -86 -53.5 -139t-139.5 -53t-139 53t-53 139v265h76v-265q0 -56 33 -91.5t85 -35.5q53 0 86 35.5t33 91.5v265h72zM143 543v47h244v-47h-244z" />
    <glyph glyph-name="Ubreve" unicode="&#x16c;" horiz-adv-x="673" 
d="M522 255v445h75v-445q0 -117 -72.5 -189.5t-188.5 -72.5q-117 0 -188.5 72t-71.5 190v445h75v-445q0 -87 51 -140.5t133 -53.5q83 0 135 53.5t52 140.5zM336 807q63 0 103 42l38 -38q-57 -59 -141 -59q-81 0 -140 59l38 38q40 -42 102 -42z" />
    <glyph glyph-name="ubreve" unicode="&#x16d;" horiz-adv-x="531" 
d="M458 450v-265q0 -86 -53.5 -139t-139.5 -53t-139 53t-53 139v265h76v-265q0 -56 33 -91.5t85 -35.5q53 0 86 35.5t33 91.5v265h72zM265 582q61 0 103 42l38 -38q-57 -59 -141 -59q-82 0 -140 60l38 38q41 -43 102 -43z" />
    <glyph glyph-name="Uring" unicode="&#x16e;" horiz-adv-x="673" 
d="M522 255v445h75v-445q0 -117 -72.5 -189.5t-188.5 -72.5q-117 0 -188.5 72t-71.5 190v445h75v-445q0 -87 51 -140.5t133 -53.5q83 0 135 53.5t52 140.5zM249 820q0 40 24.5 65t62.5 25q40 0 64 -24.5t24 -65.5q0 -40 -24 -64.5t-64 -24.5q-38 0 -62.5 24.5t-24.5 64.5z
M284 820q0 -24 14.5 -39t37.5 -15q24 0 38.5 15t14.5 39t-14.5 39t-38.5 15q-23 0 -37.5 -15t-14.5 -39z" />
    <glyph glyph-name="uring" unicode="&#x16f;" horiz-adv-x="531" 
d="M458 450v-265q0 -86 -53.5 -139t-139.5 -53t-139 53t-53 139v265h76v-265q0 -56 33 -91.5t85 -35.5q53 0 86 35.5t33 91.5v265h72zM177 596q0 40 24.5 64.5t63.5 24.5q40 0 64 -24.5t24 -64.5q0 -41 -24 -65.5t-64 -24.5q-39 0 -63.5 25t-24.5 65zM213 595
q0 -24 14.5 -39t37.5 -15t38 15t15 39t-15 39.5t-38 15.5t-37.5 -15t-14.5 -40z" />
    <glyph glyph-name="Uhungarumlaut" unicode="&#x170;" horiz-adv-x="673" 
d="M522 255v445h75v-445q0 -117 -72.5 -189.5t-188.5 -72.5q-117 0 -188.5 72t-71.5 190v445h75v-445q0 -87 51 -140.5t133 -53.5q83 0 135 53.5t52 140.5zM200 775l125 125l38 -38l-125 -125zM349 775l126 125l38 -38l-126 -125z" />
    <glyph glyph-name="uhungarumlaut" unicode="&#x171;" horiz-adv-x="531" 
d="M458 450v-265q0 -86 -53.5 -139t-139.5 -53t-139 53t-53 139v265h76v-265q0 -56 33 -91.5t85 -35.5q53 0 86 35.5t33 91.5v265h72zM129 550l125 125l38 -38l-125 -125zM278 550l125 125l38 -38l-125 -125z" />
    <glyph glyph-name="Uogonek" unicode="&#x172;" horiz-adv-x="673" 
d="M392 -39q0 -27 15.5 -42.5t39.5 -15.5q26 0 40 16l28 -27q-26 -26 -67 -26q-42 0 -68 26t-26 69q0 19 7 33q-4 0 -12.5 -0.5t-12.5 -0.5q-117 0 -188.5 72t-71.5 190v445h75v-445q0 -87 51 -140.5t133 -53.5q83 0 135 53.5t52 140.5v445h75v-445q0 -100 -53 -168
t-142 -87q-10 -17 -10 -39z" />
    <glyph glyph-name="uogonek" unicode="&#x173;" horiz-adv-x="531" 
d="M312 -39q0 -27 15 -42.5t39 -15.5q25 0 41 16l27 -27q-24 -26 -67 -26q-42 0 -68 26t-26 69q0 18 6 33q-5 -1 -14 -1q-86 0 -139 53t-53 139v265h76v-265q0 -56 33 -91.5t85 -35.5q53 0 86 35.5t33 91.5v265h72v-265q0 -71 -36.5 -120t-99.5 -65q-10 -14 -10 -39z" />
    <glyph glyph-name="Wcircumflex" unicode="&#x174;" horiz-adv-x="1133" 
d="M1105 700l-263 -700h-76l-200 571l-199 -571h-76l-263 700h87l214 -584l198 584h79l199 -584l213 584h87zM566 900l126 -125l-38 -38l-88 87l-87 -87l-38 38z" />
    <glyph glyph-name="wcircumflex" unicode="&#x175;" horiz-adv-x="792" 
d="M766 450l-174 -450h-76l-120 348l-120 -348h-76l-174 450h83l129 -362l121 362h74l121 -362l129 362h83zM396 675l125 -125l-38 -38l-87 87l-87 -87l-38 38z" />
    <glyph glyph-name="Ycircumflex" unicode="&#x176;" horiz-adv-x="667" 
d="M295 0v302l-267 398h88l217 -323l218 323h87l-267 -399v-301h-76zM333 900l125 -125l-38 -38l-87 87l-87 -87l-38 38z" />
    <glyph glyph-name="ycircumflex" unicode="&#x177;" horiz-adv-x="529" 
d="M503 450l-321 -700h-81l129 250l-204 450h81l158 -363l157 363h81zM265 675l125 -125l-38 -38l-87 87l-88 -87l-38 38z" />
    <glyph glyph-name="Ydieresis" unicode="&#x178;" horiz-adv-x="667" 
d="M295 0v302l-267 398h88l217 -323l218 323h87l-267 -399v-301h-76zM193 797q0 20 13.5 33.5t32.5 13.5t33 -14t14 -33t-13.5 -32.5t-33.5 -13.5q-19 0 -32.5 13.5t-13.5 32.5zM380 797q0 20 13.5 33.5t33.5 13.5t33.5 -13.5t13.5 -33.5q0 -19 -13.5 -32.5t-33.5 -13.5
t-33.5 13.5t-13.5 32.5z" />
    <glyph glyph-name="Zacute" unicode="&#x179;" horiz-adv-x="625" 
d="M57 637v63h515v-27l-413 -610h416v-63h-525v28l413 609h-406zM251 775l125 125l38 -38l-125 -125z" />
    <glyph glyph-name="zacute" unicode="&#x17a;" horiz-adv-x="470" 
d="M54 392v58h366v-27l-264 -365h264v-58h-370v28l264 364h-260zM173 550l125 125l38 -38l-125 -125z" />
    <glyph glyph-name="Zdotaccent" unicode="&#x17b;" horiz-adv-x="625" 
d="M57 637v63h515v-27l-413 -610h416v-63h-525v28l413 609h-406zM263 810q0 20 14.5 34.5t34.5 14.5q21 0 35 -14.5t14 -34.5q0 -21 -14 -35t-35 -14q-20 0 -34.5 14t-14.5 35z" />
    <glyph glyph-name="zdotaccent" unicode="&#x17c;" horiz-adv-x="470" 
d="M54 392v58h366v-27l-264 -365h264v-58h-370v28l264 364h-260zM186 585q0 20 14 34.5t35 14.5q20 0 34.5 -14.5t14.5 -34.5t-14.5 -34.5t-34.5 -14.5q-21 0 -35 14.5t-14 34.5z" />
    <glyph glyph-name="Zcaron" unicode="&#x17d;" horiz-adv-x="625" 
d="M57 637v63h515v-27l-413 -610h416v-63h-525v28l413 609h-406zM312 737l-125 125l38 38l87 -87l88 87l38 -38z" />
    <glyph glyph-name="zcaron" unicode="&#x17e;" horiz-adv-x="470" 
d="M54 392v58h366v-27l-264 -365h264v-58h-370v28l264 364h-260zM235 512l-125 125l38 38l87 -87l87 87l38 -38z" />
    <glyph glyph-name="longs" unicode="&#x17f;" horiz-adv-x="302" 
d="M73 0v606q0 68 41 109.5t109 41.5q31 0 54 -10v-62q-18 10 -42 10q-39 0 -62.5 -25t-23.5 -64v-606h-76z" />
    <glyph glyph-name="uni018F" unicode="&#x18f;" horiz-adv-x="746" 
d="M695 350q0 -159 -89 -258t-233 -99t-233.5 99t-89.5 258v29h566q-10 117 -85 188.5t-191 71.5q-129 0 -205 -81l-48 48q98 101 256 101q157 0 254.5 -99t97.5 -258zM373 61q101 0 167.5 70t74.5 185h-484q8 -115 74 -185t168 -70z" />
    <glyph glyph-name="florin" unicode="&#x192;" horiz-adv-x="324" 
d="M40 -250v49q55 0 55 53v540h-62v58h62v156q0 68 41 109.5t109 41.5q31 0 54 -10v-62q-18 10 -42 10q-39 0 -62.5 -25t-23.5 -64v-156h128v-58h-128v-542q0 -48 -27 -76t-71 -28q-24 0 -33 4z" />
    <glyph glyph-name="uni01DD" unicode="&#x1dd;" horiz-adv-x="508" 
d="M45 244h343q-5 67 -48 107.5t-112 40.5q-77 0 -119 -47l-45 45q64 67 169 67q104 0 168 -64.5t64 -169.5q0 -102 -59 -166t-155 -64q-97 0 -151.5 67t-54.5 184zM249 57q57 0 94.5 36.5t44.5 98.5h-269q6 -63 40 -99t90 -36z" />
    <glyph glyph-name="Aringacute" unicode="&#x1fa;" horiz-adv-x="749" 
d="M336 876l125 125l38 -38l-103 -103q31 -7 48.5 -30t17.5 -57q0 -61 -47 -82l306 -691h-87l-88 202h-343l-88 -202h-87l307 691q-48 21 -48 82q0 33 17.5 56t47.5 30zM375 604l-144 -334h287zM322 772q0 -24 15 -39t38 -15t38 15t15 39t-15 39.5t-38 15.5t-38 -15t-15 -40
z" />
    <glyph glyph-name="aringacute" unicode="&#x1fb;" horiz-adv-x="453" 
d="M408 49v-49q-9 -4 -29 -4q-56 0 -75 48q-56 -51 -129 -51q-63 0 -96 36.5t-33 86.5q0 68 61.5 107t155.5 39q22 0 34 -3v55q0 32 -23.5 57.5t-67.5 25.5q-27 0 -54.5 -10.5t-43.5 -26.5l-40 40q55 57 144 57q75 0 116.5 -41.5t41.5 -101.5v-228q0 -18 10.5 -27.5
t27.5 -9.5zM174 674l126 126l38 -38l-104 -104q31 -6 49.5 -29.5t18.5 -58.5q0 -41 -24 -65.5t-64 -24.5q-39 0 -63.5 25t-24.5 65q0 34 17.5 57t46.5 30zM197 53q60 0 100 43v113q-14 2 -30 2q-65 0 -106.5 -24t-41.5 -64q0 -26 18.5 -48t59.5 -22zM161 570q0 -24 14.5 -39
t38.5 -15t38.5 15t14.5 39t-15 39t-38 15t-38 -15t-15 -39z" />
    <glyph glyph-name="AEacute" unicode="&#x1fc;" horiz-adv-x="772" 
d="M450 637v-253h239v-63h-239v-258h276v-63h-351v202h-172l-88 -202h-87l311 700h382v-63h-271zM231 270h144v334zM349 775l125 125l38 -38l-125 -125z" />
    <glyph glyph-name="aeacute" unicode="&#x1fd;" horiz-adv-x="720" 
d="M297 259v55q0 32 -23.5 57.5t-67.5 25.5q-27 0 -54.5 -10.5t-43.5 -26.5l-40 40q55 57 144 57q79 0 119 -52q55 52 141 52q97 0 151 -67.5t54 -183.5h-307v-94q43 -54 124 -54q76 0 120 47l44 -45q-64 -67 -168 -67q-114 0 -174 69q-56 -69 -141 -69q-63 0 -96 36.5
t-33 86.5q0 68 61.5 107t155.5 39q22 0 34 -3zM370 314v-56h234q-7 63 -40.5 99t-89.5 36q-69 0 -107 -50q3 -27 3 -29zM297 101v108q-14 2 -30 2q-65 0 -106.5 -24t-41.5 -64q0 -26 18.5 -48t59.5 -22q58 0 100 48zM308 550l125 125l38 -38l-125 -125z" />
    <glyph glyph-name="Oslashacute" unicode="&#x1fe;" horiz-adv-x="805" 
d="M53 -7l90 104q-93 98 -93 253q0 159 98 258t255 99q124 0 214 -65l56 65h79l-90 -104q93 -99 93 -253q0 -159 -97.5 -258t-254.5 -99q-126 0 -215 64l-56 -64h-79zM677 350q0 117 -65 196l-376 -433q69 -52 167 -52q122 0 198 80t76 209zM128 350q0 -117 65 -196l376 433
q-71 52 -166 52q-122 0 -198.5 -80t-76.5 -209zM341 775l125 125l38 -38l-125 -125z" />
    <glyph glyph-name="oslashacute" unicode="&#x1ff;" horiz-adv-x="555" 
d="M53 -7l53 67q-61 64 -61 165q0 104 64.5 168t168.5 64q69 0 121 -29l27 34h76l-56 -70q64 -62 64 -167q0 -103 -64 -167.5t-168 -64.5q-71 0 -125 31l-24 -31h-76zM439 225q0 67 -35 113l-210 -264q36 -21 84 -21q72 0 116.5 47.5t44.5 124.5zM116 225q0 -65 33 -111
l209 263q-35 20 -80 20q-72 0 -117 -48t-45 -124zM216 550l125 125l38 -38l-125 -125z" />
    <glyph glyph-name="Scommaaccent" unicode="&#x218;" horiz-adv-x="530" 
d="M454 625l-47 -48q-25 27 -66.5 44.5t-81.5 17.5q-62 0 -93 -36t-31 -82q0 -45 35 -75t85 -48.5t100 -40t85 -62.5t35 -102q0 -82 -56 -141t-159 -59q-133 0 -219 92l47 47q30 -34 74.5 -52.5t90.5 -18.5q71 0 107.5 41t36.5 89q0 43 -35 72t-84.5 47t-99.5 39.5t-85 64
t-35 105.5q0 78 49.5 133t144.5 55q123 0 202 -82zM238 -217l-22 22q36 36 41 65q-16 1 -26 13t-10 27q0 18 12 30t30 12t30 -12t12 -37q0 -55 -67 -120z" />
    <glyph glyph-name="scommaaccent" unicode="&#x219;" horiz-adv-x="384" 
d="M324 404l-45 -45q-34 36 -87 36q-34 0 -50.5 -20t-16.5 -45q0 -26 21.5 -43.5t52.5 -29t62.5 -25t53 -40t21.5 -64.5q0 -55 -39 -95t-110 -40q-91 0 -148 60l46 45q37 -44 97 -44q41 0 61 23t20 50q0 25 -21.5 42t-52.5 28t-62.5 25t-53 40.5t-21.5 66.5q0 53 34.5 90.5
t100.5 37.5q86 0 137 -53zM162 -217l-22 22q36 36 41 65q-15 1 -25.5 13t-10.5 27q0 18 12.5 30t30.5 12q17 0 29 -12t12 -37q0 -55 -67 -120z" />
    <glyph glyph-name="uni021A" unicode="&#x21a;" horiz-adv-x="557" 
d="M316 637v-637h-75v637h-201v63h477v-63h-201zM256 -217l-22 22q36 36 41 65q-15 1 -25.5 13t-10.5 27q0 18 12.5 30t30.5 12q17 0 29 -12t12 -37q0 -55 -67 -120z" />
    <glyph glyph-name="uni021B" unicode="&#x21b;" horiz-adv-x="319" 
d="M30 392v58h58v100h75v-100h121v-58h-121v-253q0 -37 22 -60.5t58 -23.5q23 0 41 10v-62q-23 -10 -53 -10q-66 0 -104.5 40t-38.5 106v253h-58zM152 -217l-22 22q36 36 41 65q-15 1 -25.5 13t-10.5 27q0 18 12 30t31 12q17 0 29 -12t12 -37q0 -55 -67 -120z" />
    <glyph glyph-name="dotlessj" unicode="&#x237;" 
d="M18 -250v49q55 0 55 53v598h73v-600q0 -48 -26 -76t-69 -28q-24 0 -33 4z" />
    <glyph glyph-name="circumflex" unicode="&#x2c6;" horiz-adv-x="352" 
d="M176 675l125 -125l-38 -38l-87 87l-87 -87l-38 38z" />
    <glyph glyph-name="caron" unicode="&#x2c7;" horiz-adv-x="352" 
d="M176 512l-125 125l38 38l87 -87l87 87l38 -38z" />
    <glyph glyph-name="breve" unicode="&#x2d8;" horiz-adv-x="354" 
d="M177 582q62 0 102 42l38 -38q-57 -59 -140 -59t-140 60l38 38q41 -43 102 -43z" />
    <glyph glyph-name="dotaccent" unicode="&#x2d9;" 
d="M61 585q0 20 14 34.5t35 14.5q20 0 34.5 -14.5t14.5 -34.5t-14.5 -34.5t-34.5 -14.5q-21 0 -35 14.5t-14 34.5z" />
    <glyph glyph-name="ring" unicode="&#x2da;" horiz-adv-x="275" 
d="M50 596q0 40 24.5 64.5t63.5 24.5q40 0 64 -24.5t24 -64.5q0 -41 -24 -65.5t-64 -24.5q-39 0 -63.5 25t-24.5 65zM86 595q0 -24 14.5 -39t37.5 -15t38 15t15 39t-15 39.5t-38 15.5t-37.5 -15t-14.5 -40z" />
    <glyph glyph-name="ogonek" unicode="&#x2db;" horiz-adv-x="256" 
d="M86 -39q0 -27 15.5 -42.5t39.5 -15.5q26 0 40 16l28 -27q-26 -26 -68 -26t-67.5 26t-25.5 69q0 24 9 39h39q-10 -17 -10 -39z" />
    <glyph glyph-name="tilde" unicode="&#x2dc;" horiz-adv-x="337" 
d="M73 539h-43q0 39 24 63.5t60 24.5q31 0 59.5 -24.5t48.5 -24.5q18 0 30 12.5t12 31.5h43q0 -39 -23.5 -63t-61.5 -24q-32 0 -60 24t-47 24q-18 0 -30 -12t-12 -32z" />
    <glyph glyph-name="hungarumlaut" unicode="&#x2dd;" horiz-adv-x="414" 
d="M51 550l125 125l38 -38l-125 -125zM200 550l125 125l38 -38l-125 -125z" />
    <glyph glyph-name="uni0400" unicode="&#x400;" horiz-adv-x="498" 
d="M151 637v-253h262v-63h-262v-258h299v-63h-374v700h369v-63h-294zM199 900l125 -125l-38 -38l-125 125z" />
    <glyph glyph-name="afii10023" unicode="&#x401;" horiz-adv-x="498" 
d="M151 637v-253h262v-63h-262v-258h299v-63h-374v700h369v-63h-294zM121 797q0 19 13.5 33t33.5 14t33.5 -14t13.5 -33t-13.5 -32.5t-33.5 -13.5t-33.5 13.5t-13.5 32.5zM309 797q0 20 13 33.5t33 13.5t33.5 -13.5t13.5 -33.5t-13.5 -33t-33.5 -13q-19 0 -32.5 13.5
t-13.5 32.5z" />
    <glyph glyph-name="afii10051" unicode="&#x402;" horiz-adv-x="694" 
d="M489 0v49q56 0 56 53v143q0 53 -31.5 86t-81.5 33q-71 0 -116 -45v-319h-75v637h-201v63h477v-63h-201v-253q57 46 133 46q78 0 124.5 -51t46.5 -134v-145q0 -48 -26 -76t-71 -28q-25 0 -34 4z" />
    <glyph glyph-name="afii10052" unicode="&#x403;" horiz-adv-x="466" 
d="M187 775l125 125l38 -38l-125 -125zM76 0v700h349v-63h-274v-637h-75z" />
    <glyph glyph-name="afii10053" unicode="&#x404;" horiz-adv-x="699" 
d="M406 639q-115 0 -190 -70t-86 -185h415v-63h-415q9 -117 84 -188.5t192 -71.5q127 0 204 80l49 -47q-98 -101 -256 -101q-157 0 -255 99t-98 258t98 258t255 99q158 0 256 -101l-49 -48q-76 81 -204 81z" />
    <glyph glyph-name="afii10054" unicode="&#x405;" horiz-adv-x="530" 
d="M454 625l-47 -48q-25 27 -66.5 44.5t-81.5 17.5q-62 0 -93 -36t-31 -82q0 -45 35 -75t85 -48.5t100 -40t85 -62.5t35 -102q0 -82 -56 -141t-159 -59q-133 0 -219 92l47 47q30 -34 74.5 -52.5t90.5 -18.5q71 0 107.5 41t36.5 89q0 43 -35 72t-84.5 47t-99.5 39.5t-85 64
t-35 105.5q0 78 49.5 133t144.5 55q123 0 202 -82z" />
    <glyph glyph-name="afii10055" unicode="&#x406;" horiz-adv-x="222" 
d="M73 0v700h76v-700h-76z" />
    <glyph glyph-name="afii10056" unicode="&#x407;" horiz-adv-x="222" 
d="M73 0v700h76v-700h-76zM-14 797q0 19 14 33t33 14t32.5 -13.5t13.5 -33.5q0 -19 -13.5 -32.5t-32.5 -13.5q-20 0 -33.5 13.5t-13.5 32.5zM143 797q0 20 13 33.5t33 13.5t33.5 -13.5t13.5 -33.5t-13.5 -33t-33.5 -13q-19 0 -32.5 13.5t-13.5 32.5z" />
    <glyph glyph-name="afii10057" unicode="&#x408;" horiz-adv-x="453" 
d="M304 190v510h75v-510q0 -88 -54.5 -142.5t-141.5 -54.5q-88 0 -143 55l49 49q34 -36 91 -36q55 0 89.5 35.5t34.5 93.5z" />
    <glyph glyph-name="afii10058" unicode="&#x409;" horiz-adv-x="942" 
d="M489 0v637h-256v-464q0 -82 -41 -129.5t-105 -47.5q-36 0 -49 4v49q54 0 86 31t32 89v531h410v-309h122q91 0 147 -53t56 -142t-56 -142.5t-147 -53.5h-199zM814 196q0 58 -35 94t-91 36h-122v-260h122q56 0 91 36t35 94z" />
    <glyph glyph-name="afii10059" unicode="&#x40a;" horiz-adv-x="937" 
d="M151 700v-309h333v309h77v-309h122q91 0 147 -53t56 -142t-56 -142.5t-147 -53.5h-199v326h-333v-326h-75v700h75zM809 196q0 58 -35 94t-91 36h-122v-260h122q56 0 91 36t35 94z" />
    <glyph glyph-name="afii10060" unicode="&#x40b;" horiz-adv-x="694" 
d="M316 637v-253q57 46 133 46q78 0 124.5 -51t46.5 -134v-245h-75v245q0 53 -31.5 86t-81.5 33q-71 0 -116 -45v-319h-75v637h-201v63h477v-63h-201z" />
    <glyph glyph-name="afii10061" unicode="&#x40c;" horiz-adv-x="596" 
d="M73 0v700h76v-700h-76zM468 0l-309 359l289 341h95l-289 -341l311 -359h-97zM236 775l125 125l38 -38l-125 -125z" />
    <glyph glyph-name="uni040D" unicode="&#x40d;" horiz-adv-x="706" 
d="M289 900l125 -125l-38 -38l-125 125zM578 700h52v-700h-76v558l-427 -558h-51v700h75v-558z" />
    <glyph glyph-name="afii10062" unicode="&#x40e;" horiz-adv-x="609" 
d="M305 807q62 0 102 42l38 -38q-57 -59 -140 -59q-82 0 -141 59l38 38q40 -42 103 -42zM583 700l-352 -700h-81l119 220l-243 480h81l198 -393l197 393h81z" />
    <glyph glyph-name="afii10145" unicode="&#x40f;" horiz-adv-x="696" 
d="M313 0h-237v700h75v-637h393v637h76v-700h-237v-150h-70v150z" />
    <glyph glyph-name="afii10017" unicode="&#x410;" horiz-adv-x="749" 
d="M634 0l-88 202h-343l-88 -202h-87l311 700h72l310 -700h-87zM375 604l-144 -334h287z" />
    <glyph glyph-name="afii10018" unicode="&#x411;" horiz-adv-x="537" 
d="M76 0v700h356v-63h-278v-246h129q91 0 147 -53t56 -142t-56 -142.5t-147 -53.5h-207zM409 196q0 58 -35 94t-91 36h-129v-260h129q56 0 91 36t35 94z" />
    <glyph glyph-name="afii10019" unicode="&#x412;" horiz-adv-x="545" 
d="M76 0v700h191q84 0 135.5 -49t51.5 -131q0 -106 -82 -151q55 -18 87.5 -64.5t32.5 -111.5q0 -88 -55 -140.5t-144 -52.5h-217zM417 198q0 58 -35 94t-92 36h-136v-262h136q57 0 92 36t35 96zM379 514q0 54 -32 87t-85 33h-108v-240h108q53 0 85 33t32 87z" />
    <glyph glyph-name="afii10020" unicode="&#x413;" horiz-adv-x="466" 
d="M76 0v700h349v-63h-274v-637h-75z" />
    <glyph glyph-name="afii10021" unicode="&#x414;" horiz-adv-x="680" 
d="M574 0h-468v-150h-70v211q54 0 84.5 39t30.5 116v484h421v-637h72v-213h-70v150zM228 215q0 -103 -55 -152h321v574h-266v-422z" />
    <glyph glyph-name="afii10022" unicode="&#x415;" horiz-adv-x="498" 
d="M151 637v-253h262v-63h-262v-258h299v-63h-374v700h369v-63h-294z" />
    <glyph glyph-name="afii10024" unicode="&#x416;" horiz-adv-x="904" 
d="M414 0v700h75v-700h-75zM784 0l-284 359l269 341h87l-269 -341l286 -359h-89zM404 359l-284 -359h-90l286 359l-268 341h87z" />
    <glyph glyph-name="afii10025" unicode="&#x417;" horiz-adv-x="545" 
d="M185 328v66h77q55 0 88.5 33t33.5 91q0 56 -33 89.5t-91 33.5q-88 0 -163 -75l-46 47q94 94 213 94q93 0 144 -51t51 -133q0 -110 -87 -154q56 -18 88 -64.5t32 -112.5q0 -92 -60 -145.5t-163 -53.5q-133 0 -229 101l49 47q76 -82 176 -82q71 0 111.5 38t40.5 100
q0 59 -35 95t-92 36h-105z" />
    <glyph glyph-name="afii10026" unicode="&#x418;" horiz-adv-x="706" 
d="M578 700h52v-700h-76v558l-427 -558h-51v700h75v-558z" />
    <glyph glyph-name="afii10027" unicode="&#x419;" horiz-adv-x="706" 
d="M353 807q62 0 102 42l38 -38q-57 -59 -140 -59q-82 0 -141 59l39 38q40 -42 102 -42zM578 700h52v-700h-76v558l-427 -558h-51v700h75v-558z" />
    <glyph glyph-name="afii10028" unicode="&#x41a;" horiz-adv-x="596" 
d="M73 0v700h76v-700h-76zM468 0l-309 359l289 341h95l-289 -341l311 -359h-97z" />
    <glyph glyph-name="afii10029" unicode="&#x41b;" horiz-adv-x="658" 
d="M38 0v49q54 0 86 31t32 89v531h426v-700h-78v637h-271v-464q0 -82 -41 -129.5t-105 -47.5q-36 0 -49 4z" />
    <glyph glyph-name="afii10030" unicode="&#x41c;" horiz-adv-x="809" 
d="M658 0v545l-237 -384h-33l-237 384v-545h-75v700h57l271 -433l271 433h58v-700h-75z" />
    <glyph glyph-name="afii10031" unicode="&#x41d;" horiz-adv-x="690" 
d="M151 700v-316h388v316h75v-700h-75v321h-388v-321h-75v700h75z" />
    <glyph glyph-name="afii10032" unicode="&#x41e;" horiz-adv-x="805" 
d="M50 350q0 159 98 258t255 99t254.5 -99t97.5 -258t-97.5 -258t-254.5 -99t-255 99t-98 258zM128 350q0 -129 76.5 -209t198.5 -80t198 80t76 209t-76 209t-198 80t-198.5 -80t-76.5 -209z" />
    <glyph glyph-name="afii10033" unicode="&#x41f;" horiz-adv-x="661" 
d="M76 700h509v-700h-75v637h-359v-637h-75v700z" />
    <glyph glyph-name="afii10034" unicode="&#x420;" horiz-adv-x="519" 
d="M76 0v700h189q91 0 147.5 -53.5t56.5 -142.5t-56.5 -142t-147.5 -53h-111v-309h-78zM391 504q0 58 -35 94t-91 36h-111v-260h111q56 0 91 36t35 94z" />
    <glyph glyph-name="afii10035" unicode="&#x421;" horiz-adv-x="699" 
d="M128 350q0 -129 77 -209t201 -80q127 0 204 80l49 -47q-98 -101 -256 -101q-157 0 -255 99t-98 258t98 258t255 99q158 0 256 -101l-49 -48q-76 81 -204 81q-124 0 -201 -80t-77 -209z" />
    <glyph glyph-name="afii10036" unicode="&#x422;" horiz-adv-x="557" 
d="M316 637v-637h-75v637h-201v63h477v-63h-201z" />
    <glyph glyph-name="afii10037" unicode="&#x423;" horiz-adv-x="609" 
d="M583 700l-352 -700h-81l119 220l-243 480h81l198 -393l197 393h81z" />
    <glyph glyph-name="afii10038" unicode="&#x424;" horiz-adv-x="769" 
d="M347 0v68q-133 0 -215 78.5t-82 203.5t82 203.5t215 78.5v68h75v-68q132 0 214 -78t82 -204t-82 -204t-214 -78v-68h-75zM422 564v-428q98 0 158.5 59.5t60.5 154.5t-60.5 154.5t-158.5 59.5zM347 136v428q-97 0 -158 -59.5t-61 -154.5t61 -154.5t158 -59.5z" />
    <glyph glyph-name="afii10039" unicode="&#x425;" horiz-adv-x="721" 
d="M593 0l-233 303l-233 -303h-96l274 354l-267 346h97l225 -294l225 294h97l-268 -346l276 -354h-97z" />
    <glyph glyph-name="afii10040" unicode="&#x426;" horiz-adv-x="725" 
d="M619 0h-543v700h75v-637h393v637h76v-637h70v-213h-71v150z" />
    <glyph glyph-name="afii10041" unicode="&#x427;" horiz-adv-x="578" 
d="M502 0h-73v315q-64 -19 -149 -19q-99 0 -151.5 55t-52.5 158v191h73v-189q0 -154 145 -154q84 0 135 19v324h73v-700z" />
    <glyph glyph-name="afii10042" unicode="&#x428;" horiz-adv-x="1014" 
d="M938 0h-862v700h75v-637h318v637h76v-637h318v637h75v-700z" />
    <glyph glyph-name="afii10043" unicode="&#x429;" horiz-adv-x="1044" 
d="M938 0h-862v700h75v-637h318v637h76v-637h318v637h75v-637h70v-213h-70v150z" />
    <glyph glyph-name="afii10044" unicode="&#x42a;" horiz-adv-x="649" 
d="M40 637v63h233v-309h122q91 0 147 -53t56 -142t-56 -142.5t-147 -53.5h-199v637h-156zM521 196q0 58 -35 94t-91 36h-122v-260h122q56 0 91 36t35 94z" />
    <glyph glyph-name="afii10045" unicode="&#x42b;" horiz-adv-x="731" 
d="M76 0v700h78v-309h121q91 0 147.5 -53t56.5 -142t-56.5 -142.5t-147.5 -53.5h-199zM401 196q0 58 -35 94t-91 36h-121v-260h121q56 0 91 36t35 94zM580 0v700h75v-700h-75z" />
    <glyph glyph-name="afii10046" unicode="&#x42c;" horiz-adv-x="529" 
d="M76 0v700h78v-309h121q91 0 147.5 -53t56.5 -142t-56.5 -142.5t-147.5 -53.5h-199zM401 196q0 58 -35 94t-91 36h-121v-260h121q56 0 91 36t35 94z" />
    <glyph glyph-name="afii10047" unicode="&#x42d;" horiz-adv-x="699" 
d="M89 558l-49 48q98 101 257 101q157 0 254.5 -99t97.5 -258t-97.5 -258t-254.5 -99q-159 0 -257 101l49 47q77 -80 204 -80q117 0 192.5 71.5t83.5 188.5h-352v63h352q-10 115 -85.5 185t-190.5 70q-126 0 -204 -81z" />
    <glyph glyph-name="afii10048" unicode="&#x42e;" horiz-adv-x="1029" 
d="M151 700v-316h186q11 145 98 234t222 89q144 0 233 -99t89 -258t-89 -258t-233 -99q-136 0 -223.5 90t-96.5 238h-186v-321h-75v700h75zM413 350q0 -129 67.5 -209t176.5 -80t176.5 80t67.5 209t-67.5 209t-176.5 80t-176.5 -80t-67.5 -209z" />
    <glyph glyph-name="afii10049" unicode="&#x42f;" horiz-adv-x="544" 
d="M468 700v-700h-77v309h-107l-162 -309h-86l173 312q-73 13 -116 64t-43 128q0 89 56.5 142.5t147.5 53.5h214zM128 504q0 -58 35 -94t91 -36h137v260h-137q-56 0 -91 -36t-35 -94z" />
    <glyph glyph-name="afii10065" unicode="&#x430;" horiz-adv-x="453" 
d="M408 49v-49q-9 -4 -29 -4q-56 0 -75 48q-56 -51 -129 -51q-63 0 -96 36.5t-33 86.5q0 68 61.5 107t155.5 39q22 0 34 -3v55q0 32 -23.5 57.5t-67.5 25.5q-27 0 -54.5 -10.5t-43.5 -26.5l-40 40q55 57 144 57q75 0 116.5 -41.5t41.5 -101.5v-228q0 -18 10.5 -27.5
t27.5 -9.5zM197 53q60 0 100 43v113q-14 2 -30 2q-65 0 -106.5 -24t-41.5 -64q0 -26 18.5 -48t59.5 -22z" />
    <glyph glyph-name="afii10066" unicode="&#x431;" horiz-adv-x="565" 
d="M434 755l41 -41q-36 -41 -86.5 -67.5t-91.5 -41t-79 -38t-61.5 -74.5t-26.5 -135h6q53 99 162 99q94 0 158 -65t64 -169q0 -103 -65 -166.5t-176 -63.5q-50 0 -88 14t-69.5 48t-48.5 97t-17 153q0 75 12 133t32.5 94t48 63.5t57.5 42t63 28.5t62 23.5t57 26.5t46 39z
M138 224q0 -74 38.5 -120t109.5 -46t115 46.5t44 121.5q0 74 -44 120t-114 46q-69 0 -109 -45.5t-40 -122.5z" />
    <glyph glyph-name="afii10067" unicode="&#x432;" horiz-adv-x="442" 
d="M73 0v450h166q59 0 93 -31.5t34 -82.5q0 -66 -54 -98q80 -27 80 -114q0 -56 -36.5 -90t-100.5 -34h-182zM243 208h-97v-152h97q34 0 55 21t21 55t-21 55t-55 21zM146 259h82q30 0 48.5 19t18.5 49q0 29 -18.5 48t-48.5 19h-82v-135z" />
    <glyph glyph-name="afii10068" unicode="&#x433;" horiz-adv-x="368" 
d="M146 392v-392h-73v450h254v-58h-181z" />
    <glyph glyph-name="afii10069" unicode="&#x434;" horiz-adv-x="534" 
d="M495 58v-178h-68v120h-322v-120h-68v178q38 0 63 28.5t25 71.5v292h310v-392h60zM198 164q0 -65 -43 -106h208v334h-165v-228z" />
    <glyph glyph-name="afii10070" unicode="&#x435;" horiz-adv-x="508" 
d="M465 206h-342q5 -67 47.5 -107.5t111.5 -40.5q76 0 120 47l44 -45q-64 -67 -168 -67t-168.5 64.5t-64.5 169.5q0 102 59.5 166t155.5 64q97 0 151 -67.5t54 -183.5zM262 393q-57 0 -95 -36.5t-44 -98.5h269q-7 63 -40.5 99t-89.5 36z" />
    <glyph glyph-name="afii10072" unicode="&#x436;" horiz-adv-x="664" 
d="M549 0l-181 234v-234h-72v235l-182 -235h-83l185 237l-169 213h84l165 -212v212h72v-211l165 211h84l-169 -213l185 -237h-84z" />
    <glyph glyph-name="afii10073" unicode="&#x437;" horiz-adv-x="408" 
d="M190 457q67 0 106 -33t39 -86q0 -71 -57 -102q80 -27 80 -116q0 -58 -42.5 -92.5t-119.5 -34.5q-94 0 -161 67l42 41q46 -48 113 -48q45 0 70 22t25 57q0 34 -20.5 54t-55.5 20h-69v51h52q31 0 51 20t20 50q0 28 -20.5 49t-58.5 21q-59 0 -100 -44l-41 42q60 62 147 62z
" />
    <glyph glyph-name="afii10074" unicode="&#x438;" horiz-adv-x="533" 
d="M146 450v-333l255 333h59v-450h-73v333l-255 -333h-59v450h73z" />
    <glyph glyph-name="afii10075" unicode="&#x439;" horiz-adv-x="533" 
d="M266 582q61 0 103 42l38 -38q-57 -59 -141 -59q-82 0 -140 60l38 38q41 -43 102 -43zM146 450v-333l255 333h59v-450h-73v333l-255 -333h-59v450h73z" />
    <glyph glyph-name="afii10076" unicode="&#x43a;" horiz-adv-x="465" 
d="M146 0h-73v450h73v-209l185 209h87l-191 -213l208 -237h-87l-202 232v-232z" />
    <glyph glyph-name="afii10077" unicode="&#x43b;" horiz-adv-x="500" 
d="M38 0v49q38 0 60.5 21.5t22.5 63.5v316h305v-450h-72v392h-160v-261q0 -63 -31.5 -99t-84.5 -36q-29 0 -40 4z" />
    <glyph glyph-name="afii10078" unicode="&#x43c;" horiz-adv-x="599" 
d="M73 0v450h70l157 -271l156 271h70v-450h-68v335l-137 -245h-43l-137 245v-335h-68z" />
    <glyph glyph-name="afii10079" unicode="&#x43d;" horiz-adv-x="528" 
d="M146 450v-193h236v193h72v-450h-72v198h-236v-198h-73v450h73z" />
    <glyph glyph-name="afii10080" unicode="&#x43e;" horiz-adv-x="555" 
d="M45 225q0 104 64.5 168t168.5 64t168 -64.5t64 -167.5t-64 -167.5t-168 -64.5t-168.5 64t-64.5 168zM121 225q0 -74 43.5 -120.5t113.5 -46.5t113.5 46.5t43.5 120.5t-43.5 120.5t-113.5 46.5t-113.5 -46.5t-43.5 -120.5z" />
    <glyph glyph-name="afii10081" unicode="&#x43f;" horiz-adv-x="515" 
d="M369 0v392h-223v-392h-73v450h369v-450h-73z" />
    <glyph glyph-name="afii10082" unicode="&#x440;" horiz-adv-x="541" 
d="M73 450h73v-38q54 45 133 45q97 0 157 -64.5t60 -167.5q0 -104 -63 -168t-165 -64q-69 0 -122 33v-276h-73v700zM420 225q0 74 -44 120.5t-114 46.5q-71 0 -116 -45v-246q45 -43 116 -43q70 0 114 46.5t44 120.5z" />
    <glyph glyph-name="afii10083" unicode="&#x441;" horiz-adv-x="478" 
d="M121 225q0 -74 44 -120.5t115 -46.5q75 0 117 47l45 -45q-62 -67 -166 -67q-103 0 -167 64t-64 168t64 168t167 64t166 -68l-45 -45q-43 48 -117 48q-71 0 -115 -46.5t-44 -120.5z" />
    <glyph glyph-name="afii10084" unicode="&#x442;" horiz-adv-x="434" 
d="M254 392v-392h-73v392h-141v58h354v-58h-140z" />
    <glyph glyph-name="afii10085" unicode="&#x443;" horiz-adv-x="529" 
d="M503 450l-321 -700h-81l129 250l-204 450h81l158 -363l157 363h81z" />
    <glyph glyph-name="afii10086" unicode="&#x444;" horiz-adv-x="678" 
d="M401 -5q-11 0 -25 2v-247h-73v247q-18 -2 -25 -2q-104 0 -168.5 63.5t-64.5 166.5t64.5 166.5t168.5 63.5q7 0 25 -2v297h73v-297q14 2 25 2q104 0 168 -63.5t64 -166.5t-64 -166.5t-168 -63.5zM401 392q-11 0 -25 -2v-330q14 -2 25 -2q70 0 113.5 46.5t43.5 120.5
t-43.5 120.5t-113.5 46.5zM121 225q0 -74 43.5 -120.5t113.5 -46.5q7 0 25 2v330q-18 2 -25 2q-70 0 -113.5 -46.5t-43.5 -120.5z" />
    <glyph glyph-name="afii10087" unicode="&#x445;" horiz-adv-x="513" 
d="M397 0l-141 183l-141 -183h-84l178 229l-171 221h85l133 -173l134 173h85l-172 -221l179 -229h-85z" />
    <glyph glyph-name="afii10088" unicode="&#x446;" horiz-adv-x="535" 
d="M73 0v450h73v-392h223v392h73v-392h55v-178h-68v120h-356z" />
    <glyph glyph-name="afii10089" unicode="&#x447;" horiz-adv-x="475" 
d="M402 0h-73v188q-47 -17 -103 -17q-74 0 -114.5 42t-40.5 113v124h73v-121q0 -43 24 -70.5t74 -27.5q52 0 87 20v199h73v-450z" />
    <glyph glyph-name="afii10090" unicode="&#x448;" horiz-adv-x="710" 
d="M564 58v392h73v-450h-564v450h73v-392h173v392h72v-392h173z" />
    <glyph glyph-name="afii10091" unicode="&#x449;" horiz-adv-x="730" 
d="M73 0v450h73v-392h173v392h72v-392h173v392h73v-392h54v-178h-68v120h-550z" />
    <glyph glyph-name="afii10092" unicode="&#x44a;" horiz-adv-x="512" 
d="M323 0h-162v392h-121v58h193v-190h90q67 0 105.5 -36t38.5 -94t-38.5 -94t-105.5 -36zM321 204h-88v-148h88q32 0 52.5 20.5t20.5 53.5q0 32 -20.5 53t-52.5 21z" />
    <glyph glyph-name="afii10093" unicode="&#x44b;" horiz-adv-x="599" 
d="M73 0v450h73v-190h90q67 0 105.5 -36t38.5 -94t-38.5 -94t-105.5 -36h-163zM234 204h-88v-148h88q32 0 52.5 20.5t20.5 53.5q0 32 -20.5 53t-52.5 21zM453 0v450h73v-450h-73z" />
    <glyph glyph-name="afii10094" unicode="&#x44c;" horiz-adv-x="425" 
d="M73 0v450h73v-190h90q67 0 105.5 -36t38.5 -94t-38.5 -94t-105.5 -36h-163zM234 204h-88v-148h88q32 0 52.5 20.5t20.5 53.5q0 32 -20.5 53t-52.5 21z" />
    <glyph glyph-name="afii10095" unicode="&#x44d;" horiz-adv-x="478" 
d="M154 201v53h201q-9 63 -51.5 100.5t-105.5 37.5q-75 0 -117 -47l-45 45q62 67 166 67q103 0 167 -64t64 -168t-64 -168t-167 -64q-102 0 -166 67l45 46q43 -48 117 -48q65 0 107.5 39t49.5 104h-201z" />
    <glyph glyph-name="afii10096" unicode="&#x44e;" horiz-adv-x="747" 
d="M146 450v-193h113q10 90 70 145t151 55q99 0 160.5 -64.5t61.5 -167.5t-61.5 -167.5t-160.5 -64.5q-93 0 -153 56t-68 149h-113v-198h-73v450h73zM333 225q0 -74 41 -120.5t106 -46.5t106 46.5t41 120.5t-41 120.5t-106 46.5t-106 -46.5t-41 -120.5z" />
    <glyph glyph-name="afii10097" unicode="&#x44f;" horiz-adv-x="463" 
d="M389 450v-450h-73v185h-82l-102 -185h-77l112 190q-48 11 -75 45t-27 82q0 60 39 96.5t108 36.5h177zM214 241h102v153h-102q-34 0 -55 -21t-21 -55t21 -55.5t55 -21.5z" />
    <glyph glyph-name="uni0450" unicode="&#x450;" horiz-adv-x="508" 
d="M465 206h-342q5 -67 47.5 -107.5t111.5 -40.5q76 0 120 47l44 -45q-64 -67 -168 -67t-168.5 64.5t-64.5 169.5q0 102 59.5 166t155.5 64q97 0 151 -67.5t54 -183.5zM262 393q-57 0 -95 -36.5t-44 -98.5h269q-7 63 -40.5 99t-89.5 36zM197 675l126 -125l-38 -38l-126 125z
" />
    <glyph glyph-name="afii10071" unicode="&#x451;" horiz-adv-x="508" 
d="M465 206h-342q5 -67 47.5 -107.5t111.5 -40.5q76 0 120 47l44 -45q-64 -67 -168 -67t-168.5 64.5t-64.5 169.5q0 102 59.5 166t155.5 64q97 0 151 -67.5t54 -183.5zM262 393q-57 0 -95 -36.5t-44 -98.5h269q-7 63 -40.5 99t-89.5 36zM121 552q0 20 13.5 33.5t32.5 13.5
t33 -13.5t14 -33.5q0 -19 -13.5 -32.5t-33.5 -13.5q-19 0 -32.5 13t-13.5 33zM308 552q0 20 13 33.5t33 13.5t33.5 -13.5t13.5 -33.5t-13.5 -33t-33.5 -13t-33 13t-13 33z" />
    <glyph glyph-name="afii10099" unicode="&#x452;" horiz-adv-x="538" 
d="M333 -250v49q56 0 56 53v421q0 53 -31.5 86t-81.5 33q-72 0 -115 -45v-347h-73v592h-58v58h58v100h73v-100h173v-58h-173v-179q55 44 132 44q76 0 122.5 -50.5t46.5 -133.5v-423q0 -48 -26 -76t-70 -28q-24 0 -33 4z" />
    <glyph glyph-name="afii10100" unicode="&#x453;" horiz-adv-x="368" 
d="M137 550l125 125l38 -38l-125 -125zM146 392v-392h-73v450h254v-58h-181z" />
    <glyph glyph-name="afii10101" unicode="&#x454;" horiz-adv-x="478" 
d="M280 392q-64 0 -106.5 -37.5t-50.5 -100.5h232v-53h-233q8 -65 50.5 -104t107.5 -39q75 0 117 47l45 -45q-62 -67 -166 -67q-103 0 -167 64t-64 168t64 168t167 64t166 -68l-45 -45q-43 48 -117 48z" />
    <glyph glyph-name="afii10102" unicode="&#x455;" horiz-adv-x="384" 
d="M324 404l-45 -45q-34 36 -87 36q-34 0 -50.5 -20t-16.5 -45q0 -26 21.5 -43.5t52.5 -29t62.5 -25t53 -40t21.5 -64.5q0 -55 -39 -95t-110 -40q-91 0 -148 60l46 45q37 -44 97 -44q41 0 61 23t20 50q0 25 -21.5 42t-52.5 28t-62.5 25t-53 40.5t-21.5 66.5q0 53 34.5 90.5
t100.5 37.5q86 0 137 -53z" />
    <glyph glyph-name="afii10103" unicode="&#x456;" 
d="M73 0v450h73v-450h-73zM61 585q0 20 14 34.5t35 14.5q20 0 34.5 -14.5t14.5 -34.5t-14.5 -34.5t-34.5 -14.5q-21 0 -35 14.5t-14 34.5z" />
    <glyph glyph-name="afii10104" unicode="&#x457;" 
d="M73 0v450h73v-450h-73zM-13 560q0 19 13.5 32.5t33.5 13.5t33 -13t13 -33t-13.5 -33.5t-32.5 -13.5q-20 0 -33.5 13.5t-13.5 33.5zM139 560q0 20 13.5 33.5t32.5 13.5q20 0 33.5 -13.5t13.5 -33.5t-13.5 -33.5t-33.5 -13.5q-19 0 -32.5 13.5t-13.5 33.5z" />
    <glyph glyph-name="afii10105" unicode="&#x458;" 
d="M61 585q0 20 14 34.5t35 14.5q20 0 34.5 -14.5t14.5 -34.5t-14.5 -34.5t-34.5 -14.5q-21 0 -35 14.5t-14 34.5zM18 -250v49q55 0 55 53v598h73v-600q0 -48 -26 -76t-69 -28q-24 0 -33 4z" />
    <glyph glyph-name="afii10106" unicode="&#x459;" horiz-adv-x="700" 
d="M354 0v392h-160v-261q0 -63 -31.5 -99t-84.5 -36q-29 0 -40 4v49q38 0 60.5 21.5t22.5 63.5v316h305v-190h90q67 0 105.5 -36t38.5 -94t-38.5 -94t-105.5 -36h-162zM514 204h-88v-148h88q32 0 52.5 20.5t20.5 53.5q0 32 -20.5 53t-52.5 21z" />
    <glyph glyph-name="afii10107" unicode="&#x45a;" horiz-adv-x="728" 
d="M146 450v-193h230v193h73v-193h96q66 0 103 -35.5t37 -93.5t-37 -93t-103 -35h-169v198h-230v-198h-73v450h73zM543 198h-94v-142h94q31 0 50 19.5t19 51.5q0 33 -19 52t-50 19z" />
    <glyph glyph-name="afii10108" unicode="&#x45b;" horiz-adv-x="538" 
d="M30 592v58h58v100h73v-100h173v-58h-173v-179q55 44 132 44q76 0 122.5 -50.5t46.5 -133.5v-273h-73v273q0 53 -31.5 86t-81.5 33q-72 0 -115 -45v-347h-73v592h-58z" />
    <glyph glyph-name="afii10109" unicode="&#x45c;" horiz-adv-x="465" 
d="M146 0h-73v450h73v-209l185 209h87l-191 -213l208 -237h-87l-202 232v-232zM171 550l125 125l38 -38l-125 -125z" />
    <glyph glyph-name="uni045D" unicode="&#x45d;" horiz-adv-x="533" 
d="M203 675l125 -125l-38 -38l-125 125zM146 450v-333l255 333h59v-450h-73v333l-255 -333h-59v450h73z" />
    <glyph glyph-name="afii10110" unicode="&#x45e;" horiz-adv-x="529" 
d="M503 450l-321 -700h-81l129 250l-204 450h81l158 -363l157 363h81zM265 582q62 0 102 42l38 -38q-57 -59 -140 -59t-141 60l38 38q41 -43 103 -43z" />
    <glyph glyph-name="afii10193" unicode="&#x45f;" horiz-adv-x="515" 
d="M224 -120v120h-151v450h73v-392h223v392h73v-450h-150v-120h-68z" />
    <glyph glyph-name="afii10050" unicode="&#x490;" horiz-adv-x="464" 
d="M151 637v-637h-75v700h276v125h58v-188h-259z" />
    <glyph glyph-name="afii10098" unicode="&#x491;" horiz-adv-x="365" 
d="M146 392v-392h-73v450h186v100h58v-158h-171z" />
    <glyph glyph-name="uni04D8" unicode="&#x4d8;" horiz-adv-x="746" 
d="M695 350q0 -159 -89 -258t-233 -99t-233.5 99t-89.5 258v29h566q-10 117 -85 188.5t-191 71.5q-129 0 -205 -81l-48 48q98 101 256 101q157 0 254.5 -99t97.5 -258zM373 61q101 0 167.5 70t74.5 185h-484q8 -115 74 -185t168 -70z" />
    <glyph glyph-name="afii10846" unicode="&#x4d9;" horiz-adv-x="508" 
d="M45 244h343q-5 67 -48 107.5t-112 40.5q-77 0 -119 -47l-45 45q64 67 169 67q104 0 168 -64.5t64 -169.5q0 -102 -59 -166t-155 -64q-97 0 -151.5 67t-54.5 184zM249 57q57 0 94.5 36.5t44.5 98.5h-269q6 -63 40 -99t90 -36z" />
    <glyph glyph-name="Wgrave" unicode="&#x1e80;" horiz-adv-x="1133" 
d="M1105 700l-263 -700h-76l-200 571l-199 -571h-76l-263 700h87l214 -584l198 584h79l199 -584l213 584h87zM503 900l125 -125l-38 -38l-125 125z" />
    <glyph glyph-name="wgrave" unicode="&#x1e81;" horiz-adv-x="792" 
d="M766 450l-174 -450h-76l-120 348l-120 -348h-76l-174 450h83l129 -362l121 362h74l121 -362l129 362h83zM333 675l125 -125l-38 -38l-125 125z" />
    <glyph glyph-name="Wacute" unicode="&#x1e82;" horiz-adv-x="1133" 
d="M1105 700l-263 -700h-76l-200 571l-199 -571h-76l-263 700h87l214 -584l198 584h79l199 -584l213 584h87zM505 775l125 125l38 -38l-125 -125z" />
    <glyph glyph-name="wacute" unicode="&#x1e83;" horiz-adv-x="792" 
d="M766 450l-174 -450h-76l-120 348l-120 -348h-76l-174 450h83l129 -362l121 362h74l121 -362l129 362h83zM335 550l125 125l38 -38l-125 -125z" />
    <glyph glyph-name="Wdieresis" unicode="&#x1e84;" horiz-adv-x="1133" 
d="M1105 700l-263 -700h-76l-200 571l-199 -571h-76l-263 700h87l214 -584l198 584h79l199 -584l213 584h87zM426 797q0 20 13.5 33.5t32.5 13.5q20 0 33.5 -14t13.5 -33t-13.5 -32.5t-33.5 -13.5t-33 13.5t-13 32.5zM613 797q0 20 13.5 33.5t33.5 13.5t33.5 -13.5
t13.5 -33.5q0 -19 -13.5 -32.5t-33.5 -13.5t-33.5 13.5t-13.5 32.5z" />
    <glyph glyph-name="wdieresis" unicode="&#x1e85;" horiz-adv-x="792" 
d="M766 450l-174 -450h-76l-120 348l-120 -348h-76l-174 450h83l129 -362l121 362h74l121 -362l129 362h83zM256 573q0 19 13 32.5t33 13.5t33.5 -13.5t13.5 -32.5t-13.5 -33t-33.5 -14q-19 0 -32.5 13.5t-13.5 33.5zM443 573q0 20 13.5 33.5t32.5 13.5q20 0 34 -13.5
t14 -33.5t-14 -33.5t-34 -13.5q-19 0 -32.5 13.5t-13.5 33.5z" />
    <glyph glyph-name="Ygrave" unicode="&#x1ef2;" horiz-adv-x="667" 
d="M295 0v302l-267 398h88l217 -323l218 323h87l-267 -399v-301h-76zM270 900l125 -125l-38 -38l-125 125z" />
    <glyph glyph-name="ygrave" unicode="&#x1ef3;" horiz-adv-x="529" 
d="M503 450l-321 -700h-81l129 250l-204 450h81l158 -363l157 363h81zM201 675l125 -125l-38 -38l-125 125z" />
    <glyph glyph-name="figuredash" unicode="&#x2012;" horiz-adv-x="500" 
d="M61 321v58h378v-58h-378z" />
    <glyph glyph-name="endash" unicode="&#x2013;" horiz-adv-x="500" 
d="M61 236v58h378v-58h-378z" />
    <glyph glyph-name="emdash" unicode="&#x2014;" horiz-adv-x="700" 
d="M61 236v58h578v-58h-578z" />
    <glyph glyph-name="quoteleft" unicode="&#x2018;" 
d="M139 707l26 -26q-40 -39 -47 -73q18 -2 29.5 -15.5t11.5 -32.5q0 -20 -14 -34.5t-35 -14.5q-20 0 -34.5 14.5t-14.5 42.5q0 63 78 139z" />
    <glyph glyph-name="quoteright" unicode="&#x2019;" 
d="M82 511l-26 26q40 42 46 73q-17 3 -29 16.5t-12 31.5q0 21 14 35t35 14q20 0 34.5 -14t14.5 -43q0 -62 -77 -139z" />
    <glyph glyph-name="quotesinglbase" unicode="&#x201a;" 
d="M82 -105l-26 26q40 40 46 73q-17 2 -29 15.5t-12 32.5q0 20 14 34.5t35 14.5q20 0 34.5 -14t14.5 -43q0 -62 -77 -139z" />
    <glyph glyph-name="quotedblleft" unicode="&#x201c;" horiz-adv-x="353" 
d="M272 731l26 -26q-40 -40 -46 -73q17 -2 29 -15.5t12 -32.5q0 -20 -14.5 -34.5t-35.5 -14.5q-19 0 -33.5 14.5t-14.5 42.5q0 62 77 139zM139 731l26 -26q-40 -39 -47 -73q18 -2 29.5 -15.5t11.5 -32.5q0 -20 -14 -34.5t-35 -14.5q-20 0 -34.5 14.5t-14.5 42.5q0 63 78 139
z" />
    <glyph glyph-name="quotedblright" unicode="&#x201d;" horiz-adv-x="353" 
d="M82 535l-26 26q40 42 46 73q-17 3 -29 16.5t-12 31.5q0 21 14 35t35 14q20 0 34.5 -14t14.5 -43q0 -62 -77 -139zM215 535l-26 26q39 39 47 73q-18 3 -30 16.5t-12 31.5q0 21 14.5 35t35.5 14q20 0 34 -14t14 -43q0 -64 -77 -139z" />
    <glyph glyph-name="quotedblbase" unicode="&#x201e;" horiz-adv-x="353" 
d="M82 -105l-26 26q40 40 46 73q-17 2 -29 15.5t-12 32.5q0 20 14 34.5t35 14.5q20 0 34.5 -14t14.5 -43q0 -62 -77 -139zM215 -105l-26 26q39 37 47 73q-18 2 -30 15.5t-12 32.5q0 20 14.5 34.5t35.5 14.5q20 0 34 -14.5t14 -42.5q0 -64 -77 -139z" />
    <glyph glyph-name="dagger" unicode="&#x2020;" horiz-adv-x="500" 
d="M61 392v58h153v300h72v-300h153v-58h-153v-642h-72v642h-153z" />
    <glyph glyph-name="daggerdbl" unicode="&#x2021;" horiz-adv-x="500" 
d="M61 66v58h153v268h-153v58h153v300h72v-300h153v-58h-153v-268h153v-58h-153v-316h-72v316h-153z" />
    <glyph glyph-name="bullet" unicode="&#x2022;" horiz-adv-x="259" 
d="M58 275q0 30 21 50.5t51 20.5t50.5 -20.5t20.5 -50.5t-20.5 -50.5t-50.5 -20.5t-51 20.5t-21 50.5z" />
    <glyph glyph-name="ellipsis" unicode="&#x2026;" horiz-adv-x="659" 
d="M61 42q0 20 14 34.5t35 14.5q20 0 34.5 -14.5t14.5 -34.5q0 -21 -14.5 -35t-34.5 -14q-21 0 -35 14t-14 35zM280 42q0 20 14.5 34.5t34.5 14.5q21 0 35 -14.5t14 -34.5q0 -21 -14 -35t-35 -14q-20 0 -34.5 14t-14.5 35zM500 42q0 20 14.5 34.5t34.5 14.5t34.5 -14.5
t14.5 -34.5q0 -21 -14.5 -35t-34.5 -14t-34.5 14t-14.5 35z" />
    <glyph glyph-name="perthousand" unicode="&#x2030;" horiz-adv-x="1247" 
d="M207 0l368 700h74l-368 -700h-74zM40 538q0 76 47 122.5t123 46.5q75 0 122 -46.5t47 -122.5t-47 -122.5t-122 -46.5q-76 0 -123 46.5t-47 122.5zM106 538q0 -50 29 -81.5t75 -31.5t74.5 31.5t28.5 81.5t-28.5 81.5t-74.5 31.5t-75 -31.5t-29 -81.5zM476 162
q0 76 47 122.5t122 46.5q76 0 123 -46.5t47 -122.5t-47 -122.5t-123 -46.5q-75 0 -122 46.5t-47 122.5zM542 162q0 -50 28.5 -81.5t74.5 -31.5t75 31.5t29 81.5t-29 81.5t-75 31.5t-74.5 -31.5t-28.5 -81.5zM868 162q0 76 47 122.5t122 46.5q76 0 122.5 -46.5t46.5 -122.5
t-46.5 -122.5t-122.5 -46.5q-75 0 -122 46.5t-47 122.5zM934 162q0 -50 28.5 -81.5t74.5 -31.5t75 31.5t29 81.5t-29 81.5t-75 31.5t-74.5 -31.5t-28.5 -81.5z" />
    <glyph glyph-name="guilsinglleft" unicode="&#x2039;" horiz-adv-x="300" 
d="M206 79l-170 171l170 171l38 -38l-132 -133l132 -133z" />
    <glyph glyph-name="guilsinglright" unicode="&#x203a;" horiz-adv-x="300" 
d="M260 250l-171 -171l-38 38l133 133l-133 133l38 38z" />
    <glyph glyph-name="fraction" unicode="&#x2044;" horiz-adv-x="530" 
d="M53 0l368 700h56l-368 -700h-56z" />
    <glyph glyph-name="Euro" unicode="&#x20ac;" horiz-adv-x="747" 
d="M40 396v44h67q26 123 118 195t225 72q159 0 257 -101l-49 -48q-78 81 -204 81q-100 0 -171 -53.5t-96 -145.5h268v-44h-276q-3 -22 -3 -46t3 -46h276v-44h-268q25 -92 96 -145.5t171 -53.5q127 0 204 80l49 -47q-98 -101 -257 -101q-133 0 -225 72t-118 195h-67v44h60
q-2 30 -2 46t2 46h-60z" />
    <glyph glyph-name="uni20B4" unicode="&#x20b4;" horiz-adv-x="427" 
d="M43 390v44h207l14 14q43 41 43 91q0 45 -30.5 73.5t-77.5 28.5q-69 0 -108 -48l-47 47q59 67 155 67q82 0 132.5 -46t50.5 -120q0 -57 -41 -107h43v-44h-84l-78 -78h162v-44h-205l-16 -16q-43 -41 -43 -91q0 -45 30.5 -73.5t77.5 -28.5q69 0 108 48l47 -47
q-59 -67 -155 -67q-82 0 -132.5 46t-50.5 120q0 59 42 109h-44v44h86l77 78h-163z" />
    <glyph glyph-name="afii61352" unicode="&#x2116;" horiz-adv-x="995" 
d="M76 700h51l435 -558v558h75v-700h-51l-435 558v-558h-75v700zM709 576q0 57 35.5 92.5t92.5 35.5q58 0 93.5 -35.5t35.5 -92.5t-35.5 -92.5t-93.5 -35.5q-57 0 -92.5 35.5t-35.5 92.5zM757 576q0 -39 22.5 -62.5t57.5 -23.5q36 0 58.5 23.5t22.5 62.5q0 38 -22.5 62
t-58.5 24q-35 0 -57.5 -24t-22.5 -62z" />
    <glyph glyph-name="trademark" unicode="&#x2122;" horiz-adv-x="684" 
d="M167 662v-312h-46v312h-97v38h240v-38h-97zM599 350v257l-112 -180h-18l-112 180v-257h-45v350h34l132 -207l132 207h35v-350h-46z" />
    <glyph glyph-name="arrowleft" unicode="&#x2190;" horiz-adv-x="996" 
d="M406 -4l-354 354l354 354l47 -48l-272 -272h738v-68h-738l273 -271z" />
    <glyph glyph-name="arrowup" unicode="&#x2191;" horiz-adv-x="811" 
d="M372 -162v737l-272 -273l-48 48l354 354l353 -354l-48 -47l-271 272v-737h-68z" />
    <glyph glyph-name="arrowright" unicode="&#x2192;" horiz-adv-x="996" 
d="M77 316v68h737l-272 272l48 48l354 -354l-354 -354l-48 49l272 271h-737z" />
    <glyph glyph-name="arrowdown" unicode="&#x2193;" horiz-adv-x="811" 
d="M406 -167l-354 354l48 48l272 -272v737h68v-737l271 272l48 -48z" />
    <glyph glyph-name="uni2196" unicode="&#x2196;" horiz-adv-x="766" 
d="M77 132v500h500v-68h-384l521 -521l-48 -48l-521 522v-385h-68z" />
    <glyph glyph-name="uni2197" unicode="&#x2197;" horiz-adv-x="766" 
d="M189 564v68h500v-500h-68v385l-521 -522l-48 48l522 521h-385z" />
    <glyph glyph-name="uni2198" unicode="&#x2198;" horiz-adv-x="766" 
d="M189 0v68h385l-522 521l48 48l521 -521v384h68v-500h-500z" />
    <glyph glyph-name="uni2199" unicode="&#x2199;" horiz-adv-x="766" 
d="M77 0v500h68v-384l521 521l48 -48l-521 -521h384v-68h-500z" />
    <glyph glyph-name="minus" unicode="&#x2212;" horiz-adv-x="436" 
d="M61 273v59h314v-59h-314z" />
    <glyph glyph-name="commaaccent" unicode="&#xf6c3;" 
d="M85 -217l-22 22q36 36 41 65q-16 1 -26 13t-10 27q0 18 12 30t30 12t30 -12t12 -37q0 -55 -67 -120z" />
    <glyph glyph-name="adieresis.alt" horiz-adv-x="539" 
d="M279 457q124 0 187 -73v-384h-73v36q-54 -43 -131 -43q-97 0 -157 64.5t-60 167.5q0 104 64.5 168t169.5 64zM121 225q0 -74 44 -120.5t115 -46.5t113 42v256q-44 36 -116 36q-70 0 -113 -46t-43 -121zM325 573q0 20 13.5 33.5t32.5 13.5q20 0 33.5 -13.5t13.5 -33.5
t-13.5 -33.5t-33.5 -13.5q-19 0 -32.5 13.5t-13.5 33.5zM138 573q0 19 13 32.5t33 13.5t33.5 -13.5t13.5 -32.5t-13.5 -33t-33.5 -14q-19 0 -32.5 13.5t-13.5 33.5z" />
    <glyph glyph-name="agrave.alt" horiz-adv-x="539" 
d="M279 457q124 0 187 -73v-384h-73v36q-54 -43 -131 -43q-97 0 -157 64.5t-60 167.5q0 104 64.5 168t169.5 64zM121 225q0 -74 44 -120.5t115 -46.5t113 42v256q-44 36 -116 36q-70 0 -113 -46t-43 -121zM215 675l125 -125l-38 -38l-125 125z" />
    <glyph glyph-name="amacron.alt" horiz-adv-x="539" 
d="M279 457q124 0 187 -73v-384h-73v36q-54 -43 -131 -43q-97 0 -157 64.5t-60 167.5q0 104 64.5 168t169.5 64zM121 225q0 -74 44 -120.5t115 -46.5t113 42v256q-44 36 -116 36q-70 0 -113 -46t-43 -121zM156 543v47h244v-47h-244z" />
    <glyph glyph-name="aogonek.alt" horiz-adv-x="539" 
d="M422 -39q0 -27 15.5 -42.5t39.5 -15.5t40 16l27 -27q-24 -26 -67 -26q-42 0 -67.5 26t-25.5 69q0 24 9 39v36q-54 -43 -131 -43q-97 0 -157 64.5t-60 167.5q0 104 64.5 168t169.5 64q124 0 187 -73v-384h-34q-10 -14 -10 -39zM121 225q0 -74 44 -120.5t115 -46.5t113 42
v256q-44 36 -116 36q-70 0 -113 -46t-43 -121z" />
    <glyph glyph-name="aring.alt" horiz-adv-x="539" 
d="M279 457q124 0 187 -73v-384h-73v36q-54 -43 -131 -43q-97 0 -157 64.5t-60 167.5q0 104 64.5 168t169.5 64zM121 225q0 -74 44 -120.5t115 -46.5t113 42v256q-44 36 -116 36q-70 0 -113 -46t-43 -121zM192 596q0 40 24.5 64.5t62.5 24.5q40 0 64 -24.5t24 -64.5
q0 -41 -24 -65.5t-64 -24.5q-38 0 -62.5 25t-24.5 65zM227 595q0 -24 14.5 -39t37.5 -15q24 0 38.5 15t14.5 39q0 25 -15 40t-38 15t-37.5 -15t-14.5 -40z" />
    <glyph glyph-name="atilde.alt" horiz-adv-x="539" 
d="M279 457q124 0 187 -73v-384h-73v36q-54 -43 -131 -43q-97 0 -157 64.5t-60 167.5q0 104 64.5 168t169.5 64zM121 225q0 -74 44 -120.5t115 -46.5t113 42v256q-44 36 -116 36q-70 0 -113 -46t-43 -121zM184 539h-43q0 39 23.5 63.5t60.5 24.5q31 0 59 -24.5t48 -24.5
q19 0 31 12.5t12 31.5h42q0 -39 -23.5 -63t-61.5 -24q-32 0 -59.5 24t-46.5 24t-30.5 -12t-11.5 -32z" />
    <glyph glyph-name="g.alt" horiz-adv-x="539" 
d="M393 -33v63q-52 -37 -126 -37q-99 0 -160.5 64.5t-61.5 167.5q0 104 64.5 168t169.5 64q124 0 187 -73v-417q0 -102 -61 -163t-161 -61q-106 0 -171 68l45 45q46 -48 122 -48q70 0 111.5 43t41.5 116zM121 225q0 -74 43.5 -120.5t113.5 -46.5q73 0 115 47v251
q-44 36 -116 36q-70 0 -113 -46t-43 -121z" />
    <glyph glyph-name="gbreve.alt" horiz-adv-x="539" 
d="M393 -33v63q-52 -37 -126 -37q-99 0 -160.5 64.5t-61.5 167.5q0 104 64.5 168t169.5 64q124 0 187 -73v-417q0 -102 -61 -163t-161 -61q-106 0 -171 68l45 45q46 -48 122 -48q70 0 111.5 43t41.5 116zM121 225q0 -74 43.5 -120.5t113.5 -46.5q73 0 115 47v251
q-44 36 -116 36q-70 0 -113 -46t-43 -121zM276 582q62 0 102 42l38 -38q-56 -59 -140 -59q-82 0 -140 60l38 38q41 -43 102 -43z" />
    <glyph glyph-name="gcircumflex.alt" horiz-adv-x="539" 
d="M393 -33v63q-52 -37 -126 -37q-99 0 -160.5 64.5t-61.5 167.5q0 104 64.5 168t169.5 64q124 0 187 -73v-417q0 -102 -61 -163t-161 -61q-106 0 -171 68l45 45q46 -48 122 -48q70 0 111.5 43t41.5 116zM121 225q0 -74 43.5 -120.5t113.5 -46.5q73 0 115 47v251
q-44 36 -116 36q-70 0 -113 -46t-43 -121zM277 675l125 -125l-38 -38l-87 87l-88 -87l-38 38z" />
    <glyph glyph-name="gcommaaccent.alt" horiz-adv-x="539" 
d="M393 -33v63q-52 -37 -126 -37q-99 0 -160.5 64.5t-61.5 167.5q0 104 64.5 168t169.5 64q124 0 187 -73v-417q0 -102 -61 -163t-161 -61q-106 0 -171 68l45 45q46 -48 122 -48q70 0 111.5 43t41.5 116zM121 225q0 -74 43.5 -120.5t113.5 -46.5q73 0 115 47v251
q-44 36 -116 36q-70 0 -113 -46t-43 -121zM299 683l23 -22q-36 -38 -41 -65q15 -2 25 -13.5t10 -27.5q0 -17 -12 -29.5t-30 -12.5q-17 0 -29 12.5t-12 36.5q0 55 66 121z" />
    <glyph glyph-name="gdotaccent.alt" horiz-adv-x="539" 
d="M393 -33v63q-52 -37 -126 -37q-99 0 -160.5 64.5t-61.5 167.5q0 104 64.5 168t169.5 64q124 0 187 -73v-417q0 -102 -61 -163t-161 -61q-106 0 -171 68l45 45q46 -48 122 -48q70 0 111.5 43t41.5 116zM121 225q0 -74 43.5 -120.5t113.5 -46.5q73 0 115 47v251
q-44 36 -116 36q-70 0 -113 -46t-43 -121zM227 585q0 20 14 34.5t35 14.5q20 0 34.5 -14.5t14.5 -34.5t-14.5 -34.5t-34.5 -14.5q-21 0 -35 14.5t-14 34.5z" />
    <glyph glyph-name="afii10021.alt" horiz-adv-x="816" 
d="M710 0h-604v-150h-70v213h56l280 637h72l280 -637h56v-213h-70v150zM408 605l-229 -542h458z" />
    <glyph glyph-name="afii10029.alt" horiz-adv-x="749" 
d="M28 0l311 700h72l310 -700h-89l-257 602l-258 -602h-89z" />
    <glyph glyph-name="afii10058.alt" horiz-adv-x="1001" 
d="M28 0l311 700h72l136 -309h200q91 0 147.5 -53t56.5 -142t-56.5 -142.5t-147.5 -53.5h-115l-257 602l-258 -602h-89zM747 326h-171l116 -260h55q56 0 91 36t35 94t-35 94t-91 36z" />
    <glyph glyph-name="afii10065.alt" horiz-adv-x="539" 
d="M279 457q124 0 187 -73v-384h-73v36q-54 -43 -131 -43q-97 0 -157 64.5t-60 167.5q0 104 64.5 168t169.5 64zM121 225q0 -74 44 -120.5t115 -46.5t113 42v256q-44 36 -116 36q-70 0 -113 -46t-43 -121z" />
    <glyph glyph-name="afii10069.alt" horiz-adv-x="592" 
d="M556 58v-178h-68v120h-383v-120h-68v178h49l176 392h69l175 -392h50zM296 367l-131 -309h262z" />
    <glyph glyph-name="afii10077.alt" horiz-adv-x="529" 
d="M26 0l204 450h69l204 -450h-81l-157 363l-158 -363h-81z" />
    <glyph glyph-name="afii10106.alt" horiz-adv-x="707" 
d="M26 0l204 450h69l86 -190h138q67 0 105.5 -36t38.5 -94t-38.5 -94t-105.5 -36h-101l-157 363l-158 -363h-81zM521 204h-111l68 -148h43q32 0 52.5 20.5t20.5 53.5q0 32 -20.5 53t-52.5 21z" />
    <glyph glyph-name="acircumflex.alt" horiz-adv-x="539" 
d="M279 457q124 0 187 -73v-384h-73v36q-54 -43 -131 -43q-97 0 -157 64.5t-60 167.5q0 104 64.5 168t169.5 64zM121 225q0 -74 44 -120.5t115 -46.5t113 42v256q-44 36 -116 36q-70 0 -113 -46t-43 -121zM279 675l125 -125l-38 -38l-87 87l-87 -87l-38 38z" />
    <glyph glyph-name="abreve.alt" horiz-adv-x="539" 
d="M279 457q124 0 187 -73v-384h-73v36q-54 -43 -131 -43q-97 0 -157 64.5t-60 167.5q0 104 64.5 168t169.5 64zM121 225q0 -74 44 -120.5t115 -46.5t113 42v256q-44 36 -116 36q-70 0 -113 -46t-43 -121zM279 582q62 0 102 42l38 -38q-57 -59 -140 -59t-140 60l38 38
q41 -43 102 -43z" />
    <glyph glyph-name="aacute.alt" horiz-adv-x="539" 
d="M279 457q124 0 187 -73v-384h-73v36q-54 -43 -131 -43q-97 0 -157 64.5t-60 167.5q0 104 64.5 168t169.5 64zM121 225q0 -74 44 -120.5t115 -46.5t113 42v256q-44 36 -116 36q-70 0 -113 -46t-43 -121zM216 550l126 125l38 -38l-126 -125z" />
    <glyph glyph-name="a.alt" horiz-adv-x="539" 
d="M279 457q124 0 187 -73v-384h-73v36q-54 -43 -131 -43q-97 0 -157 64.5t-60 167.5q0 104 64.5 168t169.5 64zM121 225q0 -74 44 -120.5t115 -46.5t113 42v256q-44 36 -116 36q-70 0 -113 -46t-43 -121z" />
    <glyph glyph-name="zero.fitted" horiz-adv-x="530" 
d="M37 350q0 159 63 258t165 99t165 -99t63 -258t-63 -258t-165 -99t-165 99t-63 258zM113 350q0 -130 42 -211t110 -81t110 81t42 211t-42 211t-110 81t-110 -81t-42 -211z" />
    <glyph glyph-name="one.fitted" horiz-adv-x="530" 
d="M112 0v58h116v577l-123 -21v59l196 31v-646h115v-58h-304z" />
    <glyph glyph-name="germandbls.case" horiz-adv-x="590" 
d="M149 521v-521h-76v521q0 83 53.5 134.5t138.5 51.5t138.5 -51t53.5 -133q0 -61 -33.5 -105t-90.5 -58q0 -35 21.5 -58.5t52.5 -37t61.5 -28.5t52 -43.5t21.5 -72.5q0 -52 -39 -89.5t-110 -37.5q-91 0 -148 60l46 45q37 -44 97 -44q41 0 61 21t20 46q0 28 -21.5 47
t-52.5 32t-61.5 29.5t-52 48.5t-21.5 79v58q54 0 88 30.5t34 80.5q0 51 -32.5 83.5t-84.5 32.5t-84 -34t-32 -87z" />
    <glyph glyph-name="at.case" horiz-adv-x="794" 
d="M628 130l36 -35q-96 -102 -264 -102q-159 0 -257 99t-98 258t98 258t255 99q158 0 254.5 -94t96.5 -234q0 -54 -15.5 -95t-41 -63t-53 -32.5t-56.5 -10.5q-65 0 -88 37q-42 -37 -102 -37q-72 0 -116.5 47.5t-44.5 124.5t48 124.5t125 47.5q92 0 139 -55v-202
q0 -17 14.5 -26.5t35.5 -9.5q39 0 67.5 34.5t28.5 109.5q0 123 -79 203t-212 80t-214 -84.5t-81 -221.5q0 -138 81.5 -222t215.5 -84q146 0 227 86zM291 350q0 -55 31 -88t84 -33q50 0 81 29v189q-34 24 -83 24q-52 0 -82.5 -33t-30.5 -88z" />
    <glyph glyph-name="parenleft.case" horiz-adv-x="298" 
d="M247 757v-56q-46 0 -78.5 -99t-32.5 -253q0 -153 32.5 -252t78.5 -99v-55q-80 0 -133 114t-53 293t53 293t133 114z" />
    <glyph glyph-name="parenright.case" horiz-adv-x="298" 
d="M51 701v56q80 0 133 -114t53 -293t-53 -293t-133 -114v56q46 0 78.5 99t32.5 252t-32.5 252t-78.5 99z" />
    <glyph glyph-name="bracketleft.case" horiz-adv-x="297" 
d="M247 750v-58h-101v-684h101v-58h-174v800h174z" />
    <glyph glyph-name="bracketright.case" horiz-adv-x="297" 
d="M51 692v58h173v-800h-173v58h100v684h-100z" />
    <glyph glyph-name="braceleft.case" horiz-adv-x="318" 
d="M278 -1v-56q-67 0 -112 48.5t-45 124.5v75q0 57 -23.5 93.5t-57.5 36.5v56q34 0 57.5 36.5t23.5 93.5v77q0 76 45 124.5t112 48.5v-56q-34 0 -57.5 -35.5t-23.5 -91.5v-76q0 -53 -23 -92t-62 -57q39 -18 62 -57t23 -92v-74q0 -56 23.5 -91.5t57.5 -35.5z" />
    <glyph glyph-name="braceright.case" horiz-adv-x="318" 
d="M40 -57v56q34 0 57.5 35.5t23.5 91.5v74q0 53 23 92t62 57q-39 18 -62 57t-23 92v76q0 56 -23.5 91.5t-57.5 35.5v56q67 0 112 -48.5t45 -124.5v-77q0 -57 23.5 -93.5t57.5 -36.5v-56q-34 0 -57.5 -36.5t-23.5 -93.5v-75q0 -76 -45 -124.5t-112 -48.5z" />
    <glyph glyph-name="questiondown.case" horiz-adv-x="471" 
d="M385 114l48 -48q-79 -73 -192 -73q-93 0 -144.5 52.5t-51.5 127.5q0 41 16 71t39.5 48.5l46.5 37.5t39 49t16 72v57h72v-57q0 -51 -16 -88.5t-38.5 -58.5t-44.5 -38.5t-38 -40t-16 -51.5q0 -46 30.5 -81t91.5 -35q39 0 78 15.5t64 40.5zM287 658q0 -20 -14.5 -34.5
t-34.5 -14.5t-34.5 14.5t-14.5 34.5q0 21 14.5 35t34.5 14t34.5 -14t14.5 -35z" />
    <glyph glyph-name="guillemotleft.case" horiz-adv-x="470" 
d="M206 179l-170 171l170 171l38 -38l-132 -133l132 -133zM376 179l-171 171l171 171l38 -38l-133 -133l133 -133z" />
    <glyph glyph-name="guillemotright.case" horiz-adv-x="470" 
d="M429 350l-171 -171l-38 38l133 133l-133 133l38 38zM260 350l-171 -171l-38 38l133 133l-133 133l38 38z" />
    <glyph glyph-name="guilsinglleft.case" horiz-adv-x="300" 
d="M206 179l-170 171l170 171l38 -38l-132 -133l132 -133z" />
    <glyph glyph-name="guilsinglright.case" horiz-adv-x="300" 
d="M260 350l-171 -171l-38 38l133 133l-133 133l38 38z" />
    <glyph glyph-name="hyphen.case" horiz-adv-x="340" 
d="M61 321v58h218v-58h-218z" />
    <glyph glyph-name="endash.case" horiz-adv-x="500" 
d="M61 321v58h378v-58h-378z" />
    <glyph glyph-name="emdash.case" horiz-adv-x="700" 
d="M61 321v58h578v-58h-578z" />
    <glyph glyph-name="bar.case" 
d="M73 -50v800h73v-800h-73z" />
    <glyph glyph-name="brokenbar.case" 
d="M73 -50v350h73v-350h-73zM146 750v-350h-73v350h73z" />
    <glyph glyph-name="asciitilde.case" horiz-adv-x="433" 
d="M85 299h-49q0 47 30 77t76 30q41 0 80 -32t68 -32q25 0 41 16.5t16 43.5h50q0 -48 -30 -78t-77 -30q-27 0 -48 10t-32.5 22.5t-29 22.5t-37.5 10q-25 0 -41.5 -16.5t-16.5 -43.5z" />
    <glyph glyph-name="dagger.case" horiz-adv-x="500" 
d="M61 479v58h153v213h72v-213h153v-58h-153v-529h-72v529h-153z" />
    <glyph glyph-name="daggerdbl.case" horiz-adv-x="500" 
d="M61 179v58h153v242h-153v58h153v213h72v-213h153v-58h-153v-242h153v-58h-153v-229h-72v229h-153z" />
    <glyph glyph-name="bullet.case" horiz-adv-x="259" 
d="M58 350q0 30 21 50.5t51 20.5t50.5 -20.5t20.5 -50.5t-20.5 -50.5t-50.5 -20.5t-51 20.5t-21 50.5z" />
    <glyph glyph-name="A.smcp" horiz-adv-x="586" 
d="M478 0l-61 131h-248l-61 -131h-81l233 504h66l233 -504h-81zM293 413l-99 -219h198z" />
    <glyph glyph-name="Aacute.smcp" horiz-adv-x="586" 
d="M478 0l-61 131h-248l-61 -131h-81l233 504h66l233 -504h-81zM293 413l-99 -219h198zM241 562l99 95l34 -34l-98 -96z" />
    <glyph glyph-name="Abreve.smcp" horiz-adv-x="586" 
d="M478 0l-61 131h-248l-61 -131h-81l233 504h66l233 -504h-81zM293 413l-99 -219h198zM293 586q46 0 75 29l35 -34q-45 -45 -110 -45q-64 0 -109 45l34 34q31 -29 75 -29z" />
    <glyph glyph-name="Acircumflex.smcp" horiz-adv-x="586" 
d="M478 0l-61 131h-248l-61 -131h-81l233 504h66l233 -504h-81zM293 413l-99 -219h198zM293 657l98 -95l-34 -35l-64 62l-64 -62l-35 35z" />
    <glyph glyph-name="Agrave.smcp" horiz-adv-x="586" 
d="M478 0l-61 131h-248l-61 -131h-81l233 504h66l233 -504h-81zM293 413l-99 -219h198zM246 657l98 -95l-34 -35l-99 96z" />
    <glyph glyph-name="Adieresis.smcp" horiz-adv-x="586" 
d="M478 0l-61 131h-248l-61 -131h-81l233 504h66l233 -504h-81zM293 413l-99 -219h198zM182 575q0 17 11.5 28.5t27.5 11.5q17 0 29 -11.5t12 -28.5t-12 -28.5t-29 -11.5t-28 11.5t-11 28.5zM323 575q0 17 12 28.5t29 11.5t29 -11.5t12 -28.5t-12 -28.5t-29 -11.5t-29 11.5
t-12 28.5z" />
    <glyph glyph-name="Amacron.smcp" horiz-adv-x="586" 
d="M478 0l-61 131h-248l-61 -131h-81l233 504h66l233 -504h-81zM293 413l-99 -219h198zM199 549v42h189v-42h-189z" />
    <glyph glyph-name="Aogonek.smcp" horiz-adv-x="586" 
d="M504 -26q0 -18 11 -28.5t28 -10.5q19 0 29 10l24 -23q-20 -20 -52 -20t-52.5 19.5t-20.5 51.5q0 16 7 27l-61 131h-248l-61 -131h-81l233 504h66l233 -504h-48q-7 -12 -7 -26zM293 413l-99 -219h198z" />
    <glyph glyph-name="Aring.smcp" horiz-adv-x="586" 
d="M478 0l-61 131h-248l-61 -131h-81l233 504h66l233 -504h-81zM293 413l-99 -219h198zM226 588q0 30 18.5 48t48.5 18q31 0 49 -18t18 -48t-18 -48t-49 -18q-30 0 -48.5 18t-18.5 48zM256 587q0 -16 10 -25.5t27 -9.5t27 9.5t10 25.5t-10.5 26t-26.5 10q-17 0 -27 -10
t-10 -26z" />
    <glyph glyph-name="Atilde.smcp" horiz-adv-x="586" 
d="M478 0l-61 131h-248l-61 -131h-81l233 504h66l233 -504h-81zM293 413l-99 -219h198zM222 546h-37q0 30 19 49t48 19q24 0 45.5 -16.5t35.5 -16.5q13 0 21.5 8.5t8.5 21.5h38q0 -31 -19 -49.5t-49 -18.5q-24 0 -45 16.5t-35 16.5t-22.5 -8.5t-8.5 -21.5z" />
    <glyph glyph-name="AE.smcp" horiz-adv-x="602" 
d="M363 446v-164h170v-58h-170v-166h198v-58h-268v131h-124l-61 -131h-81l233 504h297v-58h-194zM194 194h99v221z" />
    <glyph glyph-name="AEacute.smcp" horiz-adv-x="602" 
d="M363 446v-164h170v-58h-170v-166h198v-58h-268v131h-124l-61 -131h-81l233 504h297v-58h-194zM194 194h99v221zM268 562l99 95l35 -34l-99 -96z" />
    <glyph glyph-name="B.smcp" horiz-adv-x="432" 
d="M61 0v504h151q65 0 104.5 -36t39.5 -96q0 -70 -57 -106q39 -14 62 -47t23 -78q0 -64 -42.5 -102.5t-111.5 -38.5h-169zM314 146q0 37 -24 60.5t-62 23.5h-94v-169h94q39 0 62.5 23t23.5 62zM286 367q0 34 -21.5 55t-56.5 21h-74v-152h74q35 0 56.5 21t21.5 55z" />
    <glyph glyph-name="C.smcp" horiz-adv-x="543" 
d="M118 252q0 -87 54.5 -141t142.5 -54q89 0 144 53l45 -44q-74 -72 -193 -72q-118 0 -192 71.5t-74 186.5t74 186.5t192 71.5q119 0 193 -72l-45 -45q-54 54 -144 54q-88 0 -142.5 -54t-54.5 -141z" />
    <glyph glyph-name="Cacute.smcp" horiz-adv-x="543" 
d="M118 252q0 -87 54.5 -141t142.5 -54q89 0 144 53l45 -44q-74 -72 -193 -72q-118 0 -192 71.5t-74 186.5t74 186.5t192 71.5q119 0 193 -72l-45 -45q-54 54 -144 54q-88 0 -142.5 -54t-54.5 -141zM243 564l99 96l35 -35l-99 -95z" />
    <glyph glyph-name="Ccaron.smcp" horiz-adv-x="543" 
d="M118 252q0 -87 54.5 -141t142.5 -54q89 0 144 53l45 -44q-74 -72 -193 -72q-118 0 -192 71.5t-74 186.5t74 186.5t192 71.5q119 0 193 -72l-45 -45q-54 54 -144 54q-88 0 -142.5 -54t-54.5 -141zM294 527l-99 96l35 34l64 -61l64 61l35 -34z" />
    <glyph glyph-name="Ccedilla.smcp" horiz-adv-x="543" 
d="M118 252q0 -87 54.5 -141t142.5 -54q89 0 144 53l45 -44q-69 -68 -179 -72v-34q50 -12 50 -57q0 -27 -18 -44t-46 -17q-29 0 -48 19l22 21q14 -10 26 -10q14 0 23.5 9t9.5 23q0 32 -48 32v58q-112 4 -181.5 75.5t-69.5 182.5q0 115 74 186.5t192 71.5q119 0 193 -72
l-45 -45q-54 54 -144 54q-88 0 -142.5 -54t-54.5 -141z" />
    <glyph glyph-name="Ccircumflex.smcp" horiz-adv-x="543" 
d="M118 252q0 -87 54.5 -141t142.5 -54q89 0 144 53l45 -44q-74 -72 -193 -72q-118 0 -192 71.5t-74 186.5t74 186.5t192 71.5q119 0 193 -72l-45 -45q-54 54 -144 54q-88 0 -142.5 -54t-54.5 -141zM296 657l99 -95l-35 -35l-64 62l-64 -62l-35 35z" />
    <glyph glyph-name="Cdotaccent.smcp" horiz-adv-x="543" 
d="M118 252q0 -87 54.5 -141t142.5 -54q89 0 144 53l45 -44q-74 -72 -193 -72q-118 0 -192 71.5t-74 186.5t74 186.5t192 71.5q119 0 193 -72l-45 -45q-54 54 -144 54q-88 0 -142.5 -54t-54.5 -141zM253 584q0 18 12.5 30.5t30.5 12.5t30.5 -12.5t12.5 -30.5
q0 -17 -12.5 -29.5t-30.5 -12.5t-30.5 12.5t-12.5 29.5z" />
    <glyph glyph-name="D.smcp" horiz-adv-x="541" 
d="M61 0v504h169q119 0 192.5 -69t73.5 -183t-73.5 -183t-192.5 -69h-169zM423 252q0 86 -53.5 138.5t-139.5 52.5h-96v-382h96q86 0 139.5 52.5t53.5 138.5z" />
    <glyph glyph-name="Dcaron.smcp" horiz-adv-x="541" 
d="M61 0v504h169q119 0 192.5 -69t73.5 -183t-73.5 -183t-192.5 -69h-169zM423 252q0 86 -53.5 138.5t-139.5 52.5h-96v-382h96q86 0 139.5 52.5t53.5 138.5zM263 527l-99 96l35 34l64 -61l64 61l35 -34z" />
    <glyph glyph-name="Dcroat.smcp" horiz-adv-x="549" 
d="M41 225v54h38v225h159q120 0 193 -69t73 -183t-73 -183t-193 -69h-159v225h-38zM431 252q0 86 -53.5 138.5t-139.5 52.5h-87v-164h114v-54h-114v-164h87q86 0 139.5 52.5t53.5 138.5z" />
    <glyph glyph-name="Eth.smcp" horiz-adv-x="549" 
d="M41 225v54h38v225h159q120 0 193 -69t73 -183t-73 -183t-193 -69h-159v225h-38zM431 252q0 86 -53.5 138.5t-139.5 52.5h-87v-164h114v-54h-114v-164h87q86 0 139.5 52.5t53.5 138.5z" />
    <glyph glyph-name="Thorn.smcp" horiz-adv-x="412" 
d="M61 0v504h73v-101h75q71 0 114.5 -39.5t43.5 -105.5t-43.5 -105t-114.5 -39h-75v-114h-73zM295 258q0 38 -24 61.5t-62 23.5h-75v-168h75q38 0 62 23t24 60z" />
    <glyph glyph-name="E.smcp" horiz-adv-x="388" 
d="M131 446v-164h187v-58h-187v-166h214v-58h-284v504h281v-58h-211z" />
    <glyph glyph-name="Eacute.smcp" horiz-adv-x="388" 
d="M131 446v-164h187v-58h-187v-166h214v-58h-284v504h281v-58h-211zM151 562l98 95l34 -34l-98 -96z" />
    <glyph glyph-name="Ebreve.smcp" horiz-adv-x="388" 
d="M131 446v-164h187v-58h-187v-166h214v-58h-284v504h281v-58h-211zM202 586q46 0 75 29l34 -34q-45 -45 -109 -45q-63 0 -110 45l34 34q32 -29 76 -29z" />
    <glyph glyph-name="Ecaron.smcp" horiz-adv-x="388" 
d="M131 446v-164h187v-58h-187v-166h214v-58h-284v504h281v-58h-211zM202 527l-99 96l35 34l64 -61l64 61l34 -34z" />
    <glyph glyph-name="Ecircumflex.smcp" horiz-adv-x="388" 
d="M131 446v-164h187v-58h-187v-166h214v-58h-284v504h281v-58h-211zM202 657l98 -95l-34 -35l-64 62l-64 -62l-35 35z" />
    <glyph glyph-name="Edieresis.smcp" horiz-adv-x="388" 
d="M131 446v-164h187v-58h-187v-166h214v-58h-284v504h281v-58h-211zM90 575q0 17 12 28.5t28 11.5q17 0 29 -11.5t12 -28.5t-12 -28.5t-29 -11.5t-28.5 11.5t-11.5 28.5zM232 575q0 17 12 28.5t29 11.5t28.5 -11.5t11.5 -28.5t-11.5 -28.5t-28.5 -11.5t-29 11.5t-12 28.5z
" />
    <glyph glyph-name="Edotaccent.smcp" horiz-adv-x="388" 
d="M131 446v-164h187v-58h-187v-166h214v-58h-284v504h281v-58h-211zM159 584q0 18 12.5 30.5t30.5 12.5t30.5 -12.5t12.5 -30.5q0 -17 -12.5 -29.5t-30.5 -12.5t-30.5 12.5t-12.5 29.5z" />
    <glyph glyph-name="Egrave.smcp" horiz-adv-x="388" 
d="M131 446v-164h187v-58h-187v-166h214v-58h-284v504h281v-58h-211zM155 657l98 -95l-34 -35l-98 96z" />
    <glyph glyph-name="Emacron.smcp" horiz-adv-x="388" 
d="M131 446v-164h187v-58h-187v-166h214v-58h-284v504h281v-58h-211zM107 549v42h189v-42h-189z" />
    <glyph glyph-name="Eogonek.smcp" horiz-adv-x="388" 
d="M263 -26q0 -18 10.5 -28.5t28.5 -10.5q19 0 29 10l24 -23q-20 -20 -53 -20q-32 0 -52.5 19.5t-20.5 51.5q0 16 7 27h-175v504h281v-58h-211v-164h187v-58h-187v-166h214v-58h-75q-7 -10 -7 -26z" />
    <glyph glyph-name="F.smcp" horiz-adv-x="370" 
d="M131 446v-164h176v-58h-176v-224h-70v504h270v-58h-200z" />
    <glyph glyph-name="G.smcp" horiz-adv-x="566" 
d="M311 213v58h193v-205q-72 -72 -193 -72q-118 0 -192 71.5t-74 186.5t74 186.5t192 71.5q119 0 193 -72l-45 -45q-54 54 -144 54q-88 0 -142.5 -54t-54.5 -141t54.5 -141t142.5 -54q71 0 119 34v122h-123z" />
    <glyph glyph-name="Gbreve.smcp" horiz-adv-x="566" 
d="M311 213v58h193v-205q-72 -72 -193 -72q-118 0 -192 71.5t-74 186.5t74 186.5t192 71.5q119 0 193 -72l-45 -45q-54 54 -144 54q-88 0 -142.5 -54t-54.5 -141t54.5 -141t142.5 -54q71 0 119 34v122h-123zM310 586q46 0 75 29l34 -34q-43 -45 -109 -45q-64 0 -109 45
l34 34q31 -29 75 -29z" />
    <glyph glyph-name="Gcircumflex.smcp" horiz-adv-x="566" 
d="M311 213v58h193v-205q-72 -72 -193 -72q-118 0 -192 71.5t-74 186.5t74 186.5t192 71.5q119 0 193 -72l-45 -45q-54 54 -144 54q-88 0 -142.5 -54t-54.5 -141t54.5 -141t142.5 -54q71 0 119 34v122h-123zM311 657l98 -95l-34 -35l-64 62l-65 -62l-34 35z" />
    <glyph glyph-name="Gcommaaccent.smcp" horiz-adv-x="566" 
d="M311 213v58h193v-205q-72 -72 -193 -72q-118 0 -192 71.5t-74 186.5t74 186.5t192 71.5q119 0 193 -72l-45 -45q-54 54 -144 54q-88 0 -142.5 -54t-54.5 -141t54.5 -141t142.5 -54q71 0 119 34v122h-123zM284 -168l-18 19q27 27 31 48q-13 1 -21 11t-8 22q0 15 10.5 25.5
t25.5 10.5q14 0 24.5 -9.5t10.5 -30.5q0 -43 -55 -96z" />
    <glyph glyph-name="Gdotaccent.smcp" horiz-adv-x="566" 
d="M311 213v58h193v-205q-72 -72 -193 -72q-118 0 -192 71.5t-74 186.5t74 186.5t192 71.5q119 0 193 -72l-45 -45q-54 54 -144 54q-88 0 -142.5 -54t-54.5 -141t54.5 -141t142.5 -54q71 0 119 34v122h-123zM268 584q0 18 12 30.5t30 12.5t30.5 -12.5t12.5 -30.5
q0 -17 -12.5 -29.5t-30.5 -12.5t-30 12.5t-12 29.5z" />
    <glyph glyph-name="H.smcp" horiz-adv-x="535" 
d="M131 504v-222h273v222h70v-504h-70v224h-273v-224h-70v504h70z" />
    <glyph glyph-name="Hbar.smcp" horiz-adv-x="545" 
d="M81 0v364h-43v54h43v86h70v-86h238v86h70v-86h48v-54h-48v-364h-70v224h-238v-224h-70zM151 282h238v82h-238v-82z" />
    <glyph glyph-name="Hcircumflex.smcp" horiz-adv-x="535" 
d="M131 504v-222h273v222h70v-504h-70v224h-273v-224h-70v504h70zM268 657l98 -95l-34 -35l-64 62l-64 -62l-35 35z" />
    <glyph glyph-name="I.smcp" horiz-adv-x="189" 
d="M59 0v504h71v-504h-71z" />
    <glyph glyph-name="Iacute.smcp" horiz-adv-x="189" 
d="M59 0v504h71v-504h-71zM43 562l99 95l34 -34l-98 -96z" />
    <glyph glyph-name="Ibreve.smcp" horiz-adv-x="190" 
d="M60 0v504h70v-504h-70zM95 586q45 0 76 29l34 -34q-45 -45 -110 -45q-64 0 -109 45l34 34q31 -29 75 -29z" />
    <glyph glyph-name="Icircumflex.smcp" horiz-adv-x="190" 
d="M59 0v504h71v-504h-71zM95 657l99 -95l-35 -35l-64 62l-64 -62l-35 35z" />
    <glyph glyph-name="Idieresis.smcp" horiz-adv-x="190" 
d="M60 0v504h70v-504h-70zM-7 575q0 17 12 28.5t29 11.5q16 0 28 -11.5t12 -28.5t-11.5 -28.5t-28.5 -11.5t-29 11.5t-12 28.5zM115 575q0 17 11.5 28.5t28.5 11.5t29.5 -12t12.5 -28q0 -17 -12.5 -28.5t-29.5 -11.5t-28.5 11.5t-11.5 28.5z" />
    <glyph glyph-name="Idotaccent.smcp" horiz-adv-x="190" 
d="M60 0v504h70v-504h-70zM52 584q0 18 12 30.5t30 12.5q19 0 31 -12.5t12 -30.5t-12.5 -30t-30.5 -12t-30 12.5t-12 29.5z" />
    <glyph glyph-name="Igrave.smcp" horiz-adv-x="189" 
d="M59 0v504h71v-504h-71zM48 657l98 -95l-34 -35l-99 96z" />
    <glyph glyph-name="Imacron.smcp" horiz-adv-x="190" 
d="M60 0v504h70v-504h-70zM1 549v42h189v-42h-189z" />
    <glyph glyph-name="Iogonek.smcp" horiz-adv-x="190" 
d="M59 0v504h71v-504h-71zM86 -26q0 -18 10.5 -28.5t28.5 -10.5q19 0 29 10l24 -23q-20 -20 -53 -20q-32 0 -52 19.5t-20 51.5q0 17 6 27h34q-7 -12 -7 -26z" />
    <glyph glyph-name="Itilde.smcp" horiz-adv-x="189" 
d="M59 0v504h71v-504h-71zM25 546h-38q0 30 19 49t49 19q24 0 45 -16.5t35 -16.5q13 0 21.5 8.5t8.5 21.5h38q0 -31 -19 -49.5t-49 -18.5q-24 0 -45 16.5t-35 16.5q-13 0 -21.5 -8.5t-8.5 -21.5z" />
    <glyph glyph-name="IJ.smcp" horiz-adv-x="394" 
d="M61 180v324h70v-324h-70zM264 140v364h71v-364q0 -65 -42.5 -105.5t-109.5 -40.5q-66 0 -110 41l45 45q23 -23 62 -23q38 0 61 23t23 60z" />
    <glyph glyph-name="J.smcp" horiz-adv-x="359" 
d="M229 140v364h70v-364q0 -65 -42 -105.5t-110 -40.5q-66 0 -109 41l45 45q23 -23 62 -23q37 0 60.5 23t23.5 60z" />
    <glyph glyph-name="Jcircumflex.smcp" horiz-adv-x="358" 
d="M229 140v364h70v-364q0 -65 -42 -105.5t-110 -40.5q-66 0 -109 41l45 45q23 -23 62 -23q37 0 60.5 23t23.5 60zM264 657l98 -95l-34 -35l-64 62l-65 -62l-34 35z" />
    <glyph glyph-name="K.smcp" horiz-adv-x="474" 
d="M59 0v504h71v-504h-71zM355 0l-223 259l208 245h89l-208 -245l225 -259h-91z" />
    <glyph glyph-name="Kcommaaccent.smcp" horiz-adv-x="474" 
d="M59 0v504h71v-504h-71zM355 0l-223 259l208 245h89l-208 -245l225 -259h-91zM219 -168l-19 19q27 27 31 48q-12 1 -20 11t-8 22q0 15 10 25.5t26 10.5q13 0 24 -10t11 -30q0 -43 -55 -96z" />
    <glyph glyph-name="L.smcp" horiz-adv-x="368" 
d="M131 504v-446h199v-58h-269v504h70z" />
    <glyph glyph-name="Lacute.smcp" horiz-adv-x="368" 
d="M131 504v-446h199v-58h-269v504h70zM117 562l99 95l34 -34l-98 -96z" />
    <glyph glyph-name="Lcaron.smcp" horiz-adv-x="368" 
d="M131 504v-446h199v-58h-269v504h70zM96 527l-98 96l34 34l64 -61l65 61l34 -34z" />
    <glyph glyph-name="Lcommaaccent.smcp" horiz-adv-x="368" 
d="M131 504v-446h199v-58h-269v504h70zM176 -168l-19 19q27 25 32 48q-13 1 -21 11t-8 22q0 15 10 25.5t25 10.5t25.5 -9.5t10.5 -30.5q0 -43 -55 -96z" />
    <glyph glyph-name="Ldot.smcp" horiz-adv-x="368" 
d="M131 504v-446h199v-58h-269v504h70zM230 234q0 18 12.5 30.5t30.5 12.5t30.5 -12.5t12.5 -30.5t-12.5 -30.5t-30.5 -12.5t-30.5 12.5t-12.5 30.5z" />
    <glyph glyph-name="Lslash.smcp" horiz-adv-x="396" 
d="M15 163l74 71v270h71v-215l62 60l35 -34l-97 -95v-162h198v-58h-269v166l-39 -38z" />
    <glyph glyph-name="M.smcp" horiz-adv-x="622" 
d="M491 0v360l-166 -250h-28l-166 250v-360h-70v504h53l197 -293l197 293h53v-504h-70z" />
    <glyph glyph-name="N.smcp" horiz-adv-x="553" 
d="M61 504h46l314 -370v370h71v-504h-46l-315 370v-370h-70v504z" />
    <glyph glyph-name="Nacute.smcp" horiz-adv-x="553" 
d="M61 504h46l314 -370v370h71v-504h-46l-315 370v-370h-70v504zM224 562l99 95l35 -34l-99 -96z" />
    <glyph glyph-name="Ncaron.smcp" horiz-adv-x="553" 
d="M61 504h46l314 -370v370h71v-504h-46l-315 370v-370h-70v504zM276 527l-99 96l35 34l64 -61l64 61l35 -34z" />
    <glyph glyph-name="Ncommaaccent.smcp" horiz-adv-x="553" 
d="M61 504h46l314 -370v370h71v-504h-46l-315 370v-370h-70v504zM258 -168l-19 19q26 24 33 48q-13 1 -21.5 11t-8.5 22q0 15 10 25.5t26 10.5q14 0 24.5 -9.5t10.5 -30.5q0 -43 -55 -96z" />
    <glyph glyph-name="Ntilde.smcp" horiz-adv-x="553" 
d="M61 504h46l314 -370v370h71v-504h-46l-315 370v-370h-70v504zM206 546h-38q0 30 19 49t48 19q24 0 45.5 -16.5t35.5 -16.5q13 0 21.5 8.5t8.5 21.5h38q0 -31 -19 -49.5t-49 -18.5q-24 0 -45 16.5t-35 16.5q-13 0 -21.5 -8.5t-8.5 -21.5z" />
    <glyph glyph-name="Eng.smcp" horiz-adv-x="553" 
d="M383 -180v45q38 0 38 36v127l-290 342v-370h-70v504h46l314 -370v370h71v-605q0 -37 -22 -59.5t-59 -22.5q-19 0 -28 3z" />
    <glyph glyph-name="O.smcp" horiz-adv-x="623" 
d="M45 252q0 115 74 186.5t192 71.5q119 0 192.5 -71.5t73.5 -186.5t-73.5 -186.5t-192.5 -71.5q-118 0 -192 71.5t-74 186.5zM118 252q0 -87 53.5 -141t139.5 -54t139.5 54t53.5 141t-53.5 141t-139.5 54t-139.5 -54t-53.5 -141z" />
    <glyph glyph-name="Oacute.smcp" horiz-adv-x="623" 
d="M45 252q0 115 74 186.5t192 71.5q119 0 192.5 -71.5t73.5 -186.5t-73.5 -186.5t-192.5 -71.5q-118 0 -192 71.5t-74 186.5zM118 252q0 -87 53.5 -141t139.5 -54t139.5 54t53.5 141t-53.5 141t-139.5 54t-139.5 -54t-53.5 -141zM259 562l100 95l34 -34l-99 -96z" />
    <glyph glyph-name="Obreve.smcp" horiz-adv-x="623" 
d="M45 252q0 115 74 186.5t192 71.5q119 0 192.5 -71.5t73.5 -186.5t-73.5 -186.5t-192.5 -71.5q-118 0 -192 71.5t-74 186.5zM118 252q0 -87 53.5 -141t139.5 -54t139.5 54t53.5 141t-53.5 141t-139.5 54t-139.5 -54t-53.5 -141zM311 586q46 0 75 29l35 -34
q-45 -45 -110 -45q-62 0 -109 45l34 34q31 -29 75 -29z" />
    <glyph glyph-name="Ocircumflex.smcp" horiz-adv-x="623" 
d="M45 252q0 115 74 186.5t192 71.5q119 0 192.5 -71.5t73.5 -186.5t-73.5 -186.5t-192.5 -71.5q-118 0 -192 71.5t-74 186.5zM118 252q0 -87 53.5 -141t139.5 -54t139.5 54t53.5 141t-53.5 141t-139.5 54t-139.5 -54t-53.5 -141zM311 657l99 -95l-34 -35l-65 62l-64 -62
l-35 35z" />
    <glyph glyph-name="Odieresis.smcp" horiz-adv-x="623" 
d="M45 252q0 115 74 186.5t192 71.5q119 0 192.5 -71.5t73.5 -186.5t-73.5 -186.5t-192.5 -71.5q-118 0 -192 71.5t-74 186.5zM118 252q0 -87 53.5 -141t139.5 -54t139.5 54t53.5 141t-53.5 141t-139.5 54t-139.5 -54t-53.5 -141zM200 575q0 17 12 28.5t28 11.5t28 -11.5
t12 -28.5t-11.5 -28.5t-28.5 -11.5t-28.5 11.5t-11.5 28.5zM342 575q0 17 12 28.5t28 11.5q17 0 29 -11.5t12 -28.5t-12 -28.5t-29 -11.5t-28.5 11.5t-11.5 28.5z" />
    <glyph glyph-name="Ograve.smcp" horiz-adv-x="623" 
d="M45 252q0 115 74 186.5t192 71.5q119 0 192.5 -71.5t73.5 -186.5t-73.5 -186.5t-192.5 -71.5q-118 0 -192 71.5t-74 186.5zM118 252q0 -87 53.5 -141t139.5 -54t139.5 54t53.5 141t-53.5 141t-139.5 54t-139.5 -54t-53.5 -141zM264 657l99 -95l-34 -35l-100 96z" />
    <glyph glyph-name="Ohungarumlaut.smcp" horiz-adv-x="623" 
d="M45 252q0 115 74 186.5t192 71.5q119 0 192.5 -71.5t73.5 -186.5t-73.5 -186.5t-192.5 -71.5q-118 0 -192 71.5t-74 186.5zM118 252q0 -87 53.5 -141t139.5 -54t139.5 54t53.5 141t-53.5 141t-139.5 54t-139.5 -54t-53.5 -141zM201 562l99 95l35 -34l-99 -96zM318 562
l99 95l34 -34l-98 -96z" />
    <glyph glyph-name="Omacron.smcp" horiz-adv-x="623" 
d="M45 252q0 115 74 186.5t192 71.5q119 0 192.5 -71.5t73.5 -186.5t-73.5 -186.5t-192.5 -71.5q-118 0 -192 71.5t-74 186.5zM118 252q0 -87 53.5 -141t139.5 -54t139.5 54t53.5 141t-53.5 141t-139.5 54t-139.5 -54t-53.5 -141zM217 549v42h189v-42h-189z" />
    <glyph glyph-name="Oslash.smcp" horiz-adv-x="622" 
d="M44 -6l69 77q-68 71 -68 181q0 115 74 186.5t192 71.5q89 0 156 -43l39 43h72l-69 -77q68 -71 68 -181q0 -115 -73.5 -186.5t-192.5 -71.5q-90 0 -156 43l-38 -43h-73zM504 252q0 77 -42 128l-262 -293q46 -30 111 -30q86 0 139.5 54t53.5 141zM118 252q0 -77 42 -128
l262 292q-48 31 -111 31q-86 0 -139.5 -54t-53.5 -141z" />
    <glyph glyph-name="Oslashacute.smcp" horiz-adv-x="622" 
d="M44 -6l69 77q-68 71 -68 181q0 115 74 186.5t192 71.5q89 0 156 -43l39 43h72l-69 -77q68 -71 68 -181q0 -115 -73.5 -186.5t-192.5 -71.5q-90 0 -156 43l-38 -43h-73zM504 252q0 77 -42 128l-262 -293q46 -30 111 -30q86 0 139.5 54t53.5 141zM118 252q0 -77 42 -128
l262 292q-48 31 -111 31q-86 0 -139.5 -54t-53.5 -141zM259 562l99 95l35 -34l-99 -96z" />
    <glyph glyph-name="Otilde.smcp" horiz-adv-x="623" 
d="M45 252q0 115 74 186.5t192 71.5q119 0 192.5 -71.5t73.5 -186.5t-73.5 -186.5t-192.5 -71.5q-118 0 -192 71.5t-74 186.5zM118 252q0 -87 53.5 -141t139.5 -54t139.5 54t53.5 141t-53.5 141t-139.5 54t-139.5 -54t-53.5 -141zM241 546h-38q0 31 19 49.5t49 18.5
q23 0 45 -16.5t36 -16.5q13 0 21 8.5t8 21.5h38q0 -31 -18.5 -49.5t-48.5 -18.5q-25 0 -46 16.5t-35 16.5q-13 0 -21.5 -8t-8.5 -22z" />
    <glyph glyph-name="OE.smcp" horiz-adv-x="681" 
d="M442 446v-164h172v-58h-172v-166h199v-58h-266q-42 -6 -64 -6q-118 0 -192 71.5t-74 186.5t74 186.5t192 71.5q23 0 63 -6h263v-58h-195zM311 57q31 0 61 10v370q-30 10 -61 10q-86 0 -139.5 -54t-53.5 -141t53.5 -141t139.5 -54z" />
    <glyph glyph-name="P.smcp" horiz-adv-x="412" 
d="M61 0v504h148q71 0 114.5 -39.5t43.5 -105.5t-43.5 -105.5t-114.5 -39.5h-75v-214h-73zM295 359q0 38 -24 61t-62 23h-75v-168h75q38 0 62 23.5t24 60.5z" />
    <glyph glyph-name="Q.smcp" horiz-adv-x="623" 
d="M541 -17l-64 61q-69 -50 -166 -50q-118 0 -192 71.5t-74 186.5t74 186.5t192 71.5q119 0 192.5 -71.5t73.5 -186.5q0 -96 -55 -164l63 -60zM118 252q0 -87 53.5 -141t139.5 -54q75 0 119 32l-80 77l44 45l75 -71q35 46 35 112q0 87 -53.5 141t-139.5 54t-139.5 -54
t-53.5 -141z" />
    <glyph glyph-name="R.smcp" horiz-adv-x="425" 
d="M316 0l-117 214h-65v-214h-73v504h154q72 0 115.5 -39.5t43.5 -105.5q0 -52 -28 -88.5t-77 -49.5l128 -221h-81zM301 359q0 38 -24 61t-62 23h-81v-168h81q38 0 62 23.5t24 60.5z" />
    <glyph glyph-name="Racute.smcp" horiz-adv-x="425" 
d="M316 0l-117 214h-65v-214h-73v504h154q72 0 115.5 -39.5t43.5 -105.5q0 -52 -28 -88.5t-77 -49.5l128 -221h-81zM301 359q0 38 -24 61t-62 23h-81v-168h81q38 0 62 23.5t24 60.5zM156 562l99 95l35 -34l-100 -96z" />
    <glyph glyph-name="Rcaron.smcp" horiz-adv-x="425" 
d="M316 0l-117 214h-65v-214h-73v504h154q72 0 115.5 -39.5t43.5 -105.5q0 -52 -28 -88.5t-77 -49.5l128 -221h-81zM301 359q0 38 -24 61t-62 23h-81v-168h81q38 0 62 23.5t24 60.5zM207 527l-98 96l35 34l63 -61l65 61l35 -34z" />
    <glyph glyph-name="Rcommaaccent.smcp" horiz-adv-x="425" 
d="M316 0l-117 214h-65v-214h-73v504h154q72 0 115.5 -39.5t43.5 -105.5q0 -52 -28 -88.5t-77 -49.5l128 -221h-81zM301 359q0 38 -24 61t-62 23h-81v-168h81q38 0 62 23.5t24 60.5zM194 -168l-19 19q26 24 33 48q-13 1 -21.5 11t-8.5 22q0 15 10.5 25.5t25.5 10.5
t25.5 -9.5t10.5 -30.5q0 -44 -56 -96z" />
    <glyph glyph-name="S.smcp" horiz-adv-x="424" 
d="M361 447l-45 -44q-19 19 -48.5 31.5t-57.5 12.5q-42 0 -63.5 -23.5t-21.5 -52.5t25.5 -48.5t62 -32t73.5 -28t62.5 -45.5t25.5 -75q0 -62 -43 -105t-122 -43q-100 0 -170 70l44 44q51 -51 120 -51q48 0 73 26t25 57q0 28 -25.5 47t-62 31.5t-73 27.5t-62 46.5t-25.5 77.5
q0 60 38.5 100t111.5 40q93 0 158 -63z" />
    <glyph glyph-name="Sacute.smcp" horiz-adv-x="424" 
d="M361 447l-45 -44q-19 19 -48.5 31.5t-57.5 12.5q-42 0 -63.5 -23.5t-21.5 -52.5t25.5 -48.5t62 -32t73.5 -28t62.5 -45.5t25.5 -75q0 -62 -43 -105t-122 -43q-100 0 -170 70l44 44q51 -51 120 -51q48 0 73 26t25 57q0 28 -25.5 47t-62 31.5t-73 27.5t-62 46.5t-25.5 77.5
q0 60 38.5 100t111.5 40q93 0 158 -63zM152 562l98 95l35 -34l-99 -96z" />
    <glyph glyph-name="Scaron.smcp" horiz-adv-x="424" 
d="M361 447l-45 -44q-19 19 -48.5 31.5t-57.5 12.5q-42 0 -63.5 -23.5t-21.5 -52.5t25.5 -48.5t62 -32t73.5 -28t62.5 -45.5t25.5 -75q0 -62 -43 -105t-122 -43q-100 0 -170 70l44 44q51 -51 120 -51q48 0 73 26t25 57q0 28 -25.5 47t-62 31.5t-73 27.5t-62 46.5t-25.5 77.5
q0 60 38.5 100t111.5 40q93 0 158 -63zM203 527l-98 96l34 34l64 -61l65 61l35 -34z" />
    <glyph glyph-name="Scedilla.smcp" horiz-adv-x="424" 
d="M361 447l-45 -44q-19 19 -48.5 31.5t-57.5 12.5q-42 0 -63.5 -23.5t-21.5 -52.5t25.5 -48.5t62 -32t73.5 -28t62.5 -45.5t25.5 -75q0 -60 -39 -101.5t-111 -45.5v-35q49 -11 49 -57q0 -27 -18 -44t-46 -17t-47 19l22 21q12 -10 25 -10q15 0 24.5 9t9.5 23q0 32 -48 32v59
q-91 4 -156 69l44 44q51 -51 120 -51q48 0 73 26t25 57q0 28 -25.5 47t-62 31.5t-73 27.5t-62 46.5t-25.5 77.5q0 60 38.5 100t111.5 40q93 0 158 -63z" />
    <glyph glyph-name="Scircumflex.smcp" horiz-adv-x="424" 
d="M361 447l-45 -44q-19 19 -48.5 31.5t-57.5 12.5q-42 0 -63.5 -23.5t-21.5 -52.5t25.5 -48.5t62 -32t73.5 -28t62.5 -45.5t25.5 -75q0 -62 -43 -105t-122 -43q-100 0 -170 70l44 44q51 -51 120 -51q48 0 73 26t25 57q0 28 -25.5 47t-62 31.5t-73 27.5t-62 46.5t-25.5 77.5
q0 60 38.5 100t111.5 40q93 0 158 -63zM203 657l100 -95l-35 -35l-65 62l-64 -62l-34 35z" />
    <glyph glyph-name="Scommaaccent.smcp" horiz-adv-x="424" 
d="M361 447l-45 -44q-19 19 -48.5 31.5t-57.5 12.5q-42 0 -63.5 -23.5t-21.5 -52.5t25.5 -48.5t62 -32t73.5 -28t62.5 -45.5t25.5 -75q0 -62 -43 -105t-122 -43q-100 0 -170 70l44 44q51 -51 120 -51q48 0 73 26t25 57q0 28 -25.5 47t-62 31.5t-73 27.5t-62 46.5t-25.5 77.5
q0 60 38.5 100t111.5 40q93 0 158 -63zM192 -168l-19 19q27 27 32 48q-13 1 -21 11t-8 22q0 15 10 25.5t25 10.5t25.5 -9.5t10.5 -30.5q0 -43 -55 -96z" />
    <glyph glyph-name="T.smcp" horiz-adv-x="438" 
d="M254 446v-446h-70v446h-146v58h362v-58h-146z" />
    <glyph glyph-name="Tbar.smcp" horiz-adv-x="438" 
d="M78 240v53h106v153h-146v58h362v-58h-146v-153h106v-53h-106v-240h-70v240h-106z" />
    <glyph glyph-name="two.fitted" horiz-adv-x="530" 
d="M55 65l306 303q41 41 41 118q0 69 -39 112t-101 43t-100.5 -43t-38.5 -112h-75q0 99 59.5 160t154.5 61q96 0 155.5 -61t59.5 -160q0 -100 -67 -167l-258 -256h325v-63h-422v65z" />
    <glyph glyph-name="three.fitted" horiz-adv-x="530" 
d="M217 349v62h46q51 0 82.5 32.5t31.5 83.5t-31.5 83t-82.5 32q-50 0 -81.5 -32t-31.5 -83h-75q0 80 52.5 130t135.5 50q85 0 137 -50t52 -130q0 -50 -22.5 -87.5t-62.5 -57.5q54 -22 85 -68.5t31 -110.5q0 -94 -61 -152t-159 -58q-97 0 -157.5 58t-60.5 152h75
q0 -65 39.5 -105t103.5 -40q65 0 105 40t40 105t-40.5 105.5t-104.5 40.5h-46z" />
    <glyph glyph-name="four.fitted" horiz-adv-x="530" 
d="M350 0v136h-317v36l312 528h75v-501h62v-63h-59v-136h-73zM124 199h228v390z" />
    <glyph glyph-name="five.fitted" horiz-adv-x="530" 
d="M477 214q0 -99 -59.5 -160t-155.5 -61q-95 0 -154.5 57.5t-59.5 149.5h73q0 -62 39.5 -101.5t101.5 -39.5t101 43t39 112q0 75 -44 122t-114 47q-74 0 -117 -43l-53 21l44 339h307v-63h-243l-30 -211q40 23 96 23q103 0 166 -65t63 -170z" />
    <glyph glyph-name="six.fitted" horiz-adv-x="530" 
d="M293 707l62 -36q-107 -150 -170 -261q35 20 81 20q98 0 159 -60t61 -158t-61 -158.5t-160 -60.5t-160 61t-61 164q0 33 4 61t21.5 67.5l28.5 62.5t50.5 84l60.5 92zM119 212q0 -68 40.5 -111t105.5 -43t105.5 43t40.5 111q0 69 -40.5 112t-105.5 43t-105.5 -43
t-40.5 -112z" />
    <glyph glyph-name="seven.fitted" horiz-adv-x="530" 
d="M53 637v63h424v-27l-254 -673h-78l238 637h-330z" />
    <glyph glyph-name="eight.fitted" horiz-adv-x="530" 
d="M75 527q0 80 53 130t137 50t137 -50t53 -130q0 -102 -86 -145q54 -22 85 -68.5t31 -110.5q0 -94 -61 -152t-159 -58t-159 58t-61 152q0 64 30.5 110.5t84.5 68.5q-40 20 -62.5 57.5t-22.5 87.5zM120 203q0 -65 40 -105t105 -40t105 40t40 105t-40 105t-105 40t-105 -40
t-40 -105zM151 527q0 -51 32 -83t82 -32t82 32t32 83t-32 83t-82 32t-82 -32t-32 -83z" />
    <glyph glyph-name="nine.fitted" horiz-adv-x="530" 
d="M237 -7l-63 36q106 147 170 261q-34 -20 -80 -20q-98 0 -159 60t-61 158t61 158.5t160 60.5t160 -61t61 -164q0 -88 -44.5 -172t-183.5 -287zM410 488q0 68 -40.5 111t-104.5 43t-104.5 -43t-40.5 -111q0 -69 40 -112t105 -43t105 43t40 112z" />
    <glyph glyph-name="exclamdown.case" 
d="M61 658q0 21 14 35t35 14q20 0 34.5 -14t14.5 -35q0 -20 -14.5 -34.5t-34.5 -14.5q-21 0 -35 14.5t-14 34.5zM73 508h73v-508h-73v508z" />
    <glyph glyph-name="Uhungarumlaut.smcp" horiz-adv-x="519" 
d="M388 185v319h70v-319q0 -85 -55 -138t-144 -53t-143.5 52.5t-54.5 138.5v319h70v-319q0 -57 35.5 -92.5t91.5 -35.5q58 0 94 35.5t36 92.5zM149 562l99 95l35 -34l-99 -96zM266 562l99 95l35 -34l-99 -96z" />
    <glyph glyph-name="Umacron.smcp" horiz-adv-x="519" 
d="M388 185v319h70v-319q0 -85 -55 -138t-144 -53t-143.5 52.5t-54.5 138.5v319h70v-319q0 -57 35.5 -92.5t91.5 -35.5q58 0 94 35.5t36 92.5zM165 549v42h189v-42h-189z" />
    <glyph glyph-name="Uogonek.smcp" horiz-adv-x="519" 
d="M305 -26q0 -18 11 -28.5t28 -10.5q19 0 29 10l23 -23q-18 -20 -51 -20q-32 0 -52.5 19.5t-20.5 51.5q0 11 3 22q-5 -1 -16 -1q-89 0 -143.5 52.5t-54.5 138.5v319h70v-319q0 -57 35.5 -92.5t91.5 -35.5q58 0 94 35.5t36 92.5v319h70v-319q0 -71 -40 -121t-107 -64
q-6 -10 -6 -26z" />
    <glyph glyph-name="Uring.smcp" horiz-adv-x="519" 
d="M388 185v319h70v-319q0 -85 -55 -138t-144 -53t-143.5 52.5t-54.5 138.5v319h70v-319q0 -57 35.5 -92.5t91.5 -35.5q58 0 94 35.5t36 92.5zM192 588q0 30 18.5 48t48.5 18q31 0 49.5 -18t18.5 -48t-18.5 -48t-49.5 -18q-30 0 -48.5 18t-18.5 48zM223 587q0 -16 10 -25.5
t26 -9.5q17 0 27 9.5t10 25.5t-10 26t-27 10q-16 0 -26 -10t-10 -26z" />
    <glyph glyph-name="Utilde.smcp" horiz-adv-x="519" 
d="M388 185v319h70v-319q0 -85 -55 -138t-144 -53t-143.5 52.5t-54.5 138.5v319h70v-319q0 -57 35.5 -92.5t91.5 -35.5q58 0 94 35.5t36 92.5zM189 546h-37q0 30 18.5 49t47.5 19q24 0 45.5 -16.5t35.5 -16.5q13 0 21.5 8.5t8.5 21.5h38q0 -31 -19 -49.5t-49 -18.5
q-24 0 -45 16.5t-35 16.5q-13 0 -21.5 -8.5t-8.5 -21.5z" />
    <glyph glyph-name="V.smcp" horiz-adv-x="586" 
d="M559 504l-233 -504h-66l-233 504h83l183 -411l183 411h83z" />
    <glyph glyph-name="W.smcp" horiz-adv-x="859" 
d="M833 504l-194 -504h-71l-139 382l-137 -382h-72l-193 504h82l147 -394l137 394h73l138 -394l147 394h82z" />
    <glyph glyph-name="Wacute.smcp" horiz-adv-x="859" 
d="M833 504l-194 -504h-71l-139 382l-137 -382h-72l-193 504h82l147 -394l137 394h73l138 -394l147 394h82zM378 562l99 95l34 -34l-99 -96z" />
    <glyph glyph-name="Wcircumflex.smcp" horiz-adv-x="859" 
d="M833 504l-194 -504h-71l-139 382l-137 -382h-72l-193 504h82l147 -394l137 394h73l138 -394l147 394h82zM429 657l100 -95l-36 -35l-64 62l-63 -62l-36 35z" />
    <glyph glyph-name="Wdieresis.smcp" horiz-adv-x="859" 
d="M833 504l-194 -504h-71l-139 382l-137 -382h-72l-193 504h82l147 -394l137 394h73l138 -394l147 394h82zM318 575q0 17 12 28.5t28 11.5q17 0 29 -12t12 -28q0 -17 -12 -28.5t-29 -11.5t-28.5 11.5t-11.5 28.5zM460 575q0 17 12 28.5t28 11.5q18 0 29.5 -11.5t11.5 -28.5
t-11.5 -28.5t-29.5 -11.5q-17 0 -28.5 11.5t-11.5 28.5z" />
    <glyph glyph-name="Wgrave.smcp" horiz-adv-x="859" 
d="M833 504l-194 -504h-71l-139 382l-137 -382h-72l-193 504h82l147 -394l137 394h73l138 -394l147 394h82zM382 657l99 -95l-34 -35l-99 96z" />
    <glyph glyph-name="X.smcp" horiz-adv-x="566" 
d="M447 0l-164 208l-164 -208h-91l203 255l-197 249h91l158 -200l157 200h92l-198 -249l204 -255h-91z" />
    <glyph glyph-name="Y.smcp" horiz-adv-x="524" 
d="M226 0v212l-199 292h81l154 -223l153 223h82l-200 -293v-211h-71z" />
    <glyph glyph-name="Yacute.smcp" horiz-adv-x="524" 
d="M226 0v212l-199 292h81l154 -223l153 223h82l-200 -293v-211h-71zM210 562l99 95l34 -34l-98 -96z" />
    <glyph glyph-name="Ycircumflex.smcp" horiz-adv-x="524" 
d="M226 0v212l-199 292h81l154 -223l153 223h82l-200 -293v-211h-71zM262 657l98 -95l-34 -35l-64 62l-64 -62l-35 35z" />
    <glyph glyph-name="Ydieresis.smcp" horiz-adv-x="524" 
d="M226 0v212l-199 292h81l154 -223l153 223h82l-200 -293v-211h-71zM150 575q0 17 12 28.5t28 11.5q17 0 29 -11.5t12 -28.5t-12 -28.5t-29 -11.5t-28.5 11.5t-11.5 28.5zM292 575q0 17 12 28.5t29 11.5t28.5 -11.5t11.5 -28.5t-11.5 -28.5t-28.5 -11.5t-29 11.5t-12 28.5z
" />
    <glyph glyph-name="Ygrave.smcp" horiz-adv-x="524" 
d="M226 0v212l-199 292h81l154 -223l153 223h82l-200 -293v-211h-71zM215 657l98 -95l-34 -35l-99 96z" />
    <glyph glyph-name="Z.smcp" horiz-adv-x="489" 
d="M50 446v58h393v-22l-294 -424h295v-58h-399v22l294 424h-289z" />
    <glyph glyph-name="Zacute.smcp" horiz-adv-x="489" 
d="M50 446v58h393v-22l-294 -424h295v-58h-399v22l294 424h-289zM193 562l99 95l34 -34l-99 -96z" />
    <glyph glyph-name="Zcaron.smcp" horiz-adv-x="489" 
d="M50 446v58h393v-22l-294 -424h295v-58h-399v22l294 424h-289zM244 527l-98 96l34 34l64 -61l65 61l34 -34z" />
    <glyph glyph-name="Zdotaccent.smcp" horiz-adv-x="489" 
d="M50 446v58h393v-22l-294 -424h295v-58h-399v22l294 424h-289zM202 584q0 18 12 30.5t30 12.5t31 -12.5t13 -30.5q0 -17 -13 -29.5t-31 -12.5t-30 12.5t-12 29.5z" />
    <glyph glyph-name="uni018F.smcp" horiz-adv-x="576" 
d="M530 252q0 -115 -67 -186.5t-175 -71.5t-175.5 71.5t-67.5 186.5v27h410q-8 75 -61 121.5t-133 46.5q-89 0 -145 -54l-45 45q75 72 193 72q119 0 192.5 -71.5t73.5 -186.5zM288 57q68 0 113.5 44.5t52.5 118.5h-333q8 -74 53 -118.5t114 -44.5z" />
    <glyph glyph-name="afii10017.smcp" horiz-adv-x="586" 
d="M478 0l-61 131h-248l-61 -131h-81l233 504h66l233 -504h-81zM293 413l-99 -219h198z" />
    <glyph glyph-name="afii10018.smcp" horiz-adv-x="424" 
d="M61 0v504h276v-58h-203v-156h86q72 0 115.5 -39.5t43.5 -105.5t-43.5 -105.5t-115.5 -39.5h-159zM306 145q0 38 -23.5 61t-62.5 23h-86v-168h86q39 0 62.5 23t23.5 61z" />
    <glyph glyph-name="afii10019.smcp" horiz-adv-x="432" 
d="M61 0v504h151q65 0 104.5 -36t39.5 -96q0 -70 -57 -106q39 -14 62 -47t23 -78q0 -64 -42.5 -102.5t-111.5 -38.5h-169zM314 146q0 37 -24 60.5t-62 23.5h-94v-169h94q39 0 62.5 23t23.5 62zM286 367q0 34 -21.5 55t-56.5 21h-74v-152h74q35 0 56.5 21t21.5 55z" />
    <glyph glyph-name="afii10020.smcp" horiz-adv-x="368" 
d="M61 0v504h269v-58h-199v-446h-70z" />
    <glyph glyph-name="afii10021.smcp" horiz-adv-x="532" 
d="M433 0h-334v-108h-66v164q40 0 62.5 28.5t22.5 82.5v337h326v-446h55v-166h-66v108zM191 167q0 -70 -40 -109h220v388h-180v-279z" />
    <glyph glyph-name="afii10022.smcp" horiz-adv-x="388" 
d="M131 446v-164h187v-58h-187v-166h214v-58h-284v504h281v-58h-211z" />
    <glyph glyph-name="afii10023.smcp" horiz-adv-x="388" 
d="M131 446v-164h187v-58h-187v-166h214v-58h-284v504h281v-58h-211zM90 575q0 17 12 28.5t28 11.5q17 0 29 -11.5t12 -28.5t-12 -28.5t-29 -11.5t-28.5 11.5t-11.5 28.5zM232 575q0 17 12 28.5t29 11.5t28.5 -11.5t11.5 -28.5t-11.5 -28.5t-28.5 -11.5t-29 11.5t-12 28.5z
" />
    <glyph glyph-name="afii10024.smcp" horiz-adv-x="710" 
d="M320 0v504h70v-504h-70zM598 0l-206 259l195 245h81l-194 -245l208 -259h-84zM317 259l-205 -259h-84l208 259l-194 245h81z" />
    <glyph glyph-name="afii10025.smcp" horiz-adv-x="432" 
d="M150 230v61h57q38 0 60.5 20.5t22.5 57.5t-23 58.5t-63 21.5q-62 0 -115 -51l-43 43q71 69 163 69q72 0 112 -37.5t40 -97.5q0 -74 -62 -109q40 -14 62.5 -47t22.5 -79q0 -67 -46.5 -106.5t-124.5 -39.5q-101 0 -175 72l44 44q57 -55 126 -55q50 0 78 25t28 66
q0 37 -24 60.5t-62 23.5h-78z" />
    <glyph glyph-name="afii10026.smcp" horiz-adv-x="546" 
d="M438 504h47v-504h-71v370l-307 -370h-46v504h70v-370z" />
    <glyph glyph-name="afii10027.smcp" horiz-adv-x="546" 
d="M273 586q46 0 75 29l34 -34q-45 -45 -109 -45q-63 0 -110 45l35 34q31 -29 75 -29zM438 504h47v-504h-71v370l-307 -370h-46v504h70v-370z" />
    <glyph glyph-name="afii10028.smcp" horiz-adv-x="474" 
d="M59 0v504h71v-504h-71zM355 0l-223 259l208 245h89l-208 -245l225 -259h-91z" />
    <glyph glyph-name="afii10029.smcp" horiz-adv-x="513" 
d="M36 0v45q39 0 63 22.5t24 62.5v374h329v-504h-74v446h-183v-313q0 -62 -32.5 -99t-86.5 -37q-26 0 -40 3z" />
    <glyph glyph-name="afii10030.smcp" horiz-adv-x="622" 
d="M491 0v360l-166 -250h-28l-166 250v-360h-70v504h53l197 -293l197 293h53v-504h-70z" />
    <glyph glyph-name="afii10031.smcp" horiz-adv-x="535" 
d="M131 504v-222h273v222h70v-504h-70v224h-273v-224h-70v504h70z" />
    <glyph glyph-name="afii10032.smcp" horiz-adv-x="623" 
d="M45 252q0 115 74 186.5t192 71.5q119 0 192.5 -71.5t73.5 -186.5t-73.5 -186.5t-192.5 -71.5q-118 0 -192 71.5t-74 186.5zM118 252q0 -87 53.5 -141t139.5 -54t139.5 54t53.5 141t-53.5 141t-139.5 54t-139.5 -54t-53.5 -141z" />
    <glyph glyph-name="afii10033.smcp" horiz-adv-x="511" 
d="M61 504h389v-504h-70v446h-249v-446h-70v504z" />
    <glyph glyph-name="afii10034.smcp" horiz-adv-x="412" 
d="M61 0v504h148q71 0 114.5 -39.5t43.5 -105.5t-43.5 -105.5t-114.5 -39.5h-75v-214h-73zM295 359q0 38 -24 61t-62 23h-75v-168h75q38 0 62 23.5t24 60.5z" />
    <glyph glyph-name="afii10035.smcp" horiz-adv-x="543" 
d="M118 252q0 -87 54.5 -141t142.5 -54q89 0 144 53l45 -44q-74 -72 -193 -72q-118 0 -192 71.5t-74 186.5t74 186.5t192 71.5q119 0 193 -72l-45 -45q-54 54 -144 54q-88 0 -142.5 -54t-54.5 -141z" />
    <glyph glyph-name="afii10036.smcp" horiz-adv-x="438" 
d="M254 446v-446h-70v446h-146v58h362v-58h-146z" />
    <glyph glyph-name="afii10037.smcp" horiz-adv-x="477" 
d="M452 504l-261 -504h-76l90 158l-180 346h75l139 -263l138 263h75z" />
    <glyph glyph-name="afii10038.smcp" horiz-adv-x="608" 
d="M269 0v48q-100 0 -162 56.5t-62 147.5t62 147.5t162 56.5v48h70v-48q100 0 161.5 -56.5t61.5 -147.5t-61.5 -147.5t-161.5 -56.5v-48h-70zM339 393v-282q67 0 109 39t42 102t-42 102t-109 39zM269 111v282q-67 0 -109 -39t-42 -102t42 -102t109 -39z" />
    <glyph glyph-name="afii10039.smcp" horiz-adv-x="566" 
d="M447 0l-164 208l-164 -208h-91l203 255l-197 249h91l158 -200l157 200h92l-198 -249l204 -255h-91z" />
    <glyph glyph-name="afii10040.smcp" horiz-adv-x="563" 
d="M464 0h-403v504h70v-446h276v446h70v-446h53v-166h-66v108z" />
    <glyph glyph-name="afii10041.smcp" horiz-adv-x="453" 
d="M392 0h-68v220q-51 -13 -109 -13q-75 0 -114.5 40.5t-39.5 116.5v140h68v-138q0 -103 100 -103q60 0 95 13v228h68v-504z" />
    <glyph glyph-name="afii10042.smcp" horiz-adv-x="771" 
d="M710 0h-649v504h70v-446h219v446h71v-446h219v446h70v-504z" />
    <glyph glyph-name="afii10043.smcp" horiz-adv-x="796" 
d="M697 0h-636v504h70v-446h219v446h71v-446h219v446h70v-446h53v-166h-66v108z" />
    <glyph glyph-name="afii10044.smcp" horiz-adv-x="512" 
d="M38 446v58h188v-214h82q72 0 115.5 -39.5t43.5 -105.5t-43.5 -105.5t-115.5 -39.5h-155v446h-115zM394 145q0 37 -24 60.5t-62 23.5h-82v-168h82q38 0 62 23t24 61z" />
    <glyph glyph-name="afii10045.smcp" horiz-adv-x="576" 
d="M61 0v504h73v-214h83q71 0 114.5 -39.5t43.5 -105.5t-43.5 -105.5t-114.5 -39.5h-156zM302 145q0 38 -23.5 61t-61.5 23h-83v-168h83q38 0 61.5 23t23.5 61zM445 0v504h70v-504h-70z" />
    <glyph glyph-name="afii10046.smcp" horiz-adv-x="420" 
d="M61 0v504h73v-214h83q71 0 114.5 -39.5t43.5 -105.5t-43.5 -105.5t-114.5 -39.5h-156zM302 145q0 38 -23.5 61t-61.5 23h-83v-168h83q38 0 61.5 23t23.5 61z" />
    <glyph glyph-name="afii10047.smcp" horiz-adv-x="543" 
d="M83 393l-45 45q75 72 193 72q119 0 192.5 -71.5t73.5 -186.5t-73.5 -186.5t-192.5 -71.5q-118 0 -193 72l45 44q55 -53 145 -53q80 0 133 45.5t61 121.5h-252v58h252q-9 75 -62 120t-132 45q-91 0 -145 -54z" />
    <glyph glyph-name="afii10048.smcp" horiz-adv-x="792" 
d="M131 504v-222h129q9 102 75 165t167 63q109 0 177 -71.5t68 -186.5t-68 -186.5t-177 -71.5q-102 0 -168 63t-74 167h-129v-224h-70v504h70zM331 252q0 -87 47.5 -141t123.5 -54q77 0 124.5 54t47.5 141t-47.5 141t-124.5 54q-76 0 -123.5 -54t-47.5 -141z" />
    <glyph glyph-name="afii10049.smcp" horiz-adv-x="430" 
d="M369 504v-504h-73v214h-71l-113 -214h-80l125 219q-52 12 -82 49t-30 91q0 66 43.5 105.5t115.5 39.5h165zM118 359q0 -37 24 -60.5t62 -23.5h92v168h-92q-38 0 -62 -23t-24 -61z" />
    <glyph glyph-name="afii10050.smcp" horiz-adv-x="366" 
d="M131 446v-446h-70v504h203v90h54v-148h-187z" />
    <glyph glyph-name="afii10051.smcp" horiz-adv-x="537" 
d="M370 0v45q38 0 38 36v94q0 33 -20.5 54t-54.5 21q-49 0 -79 -28v-222h-70v446h-146v58h362v-58h-146v-167q42 32 96 32q58 0 93.5 -37.5t35.5 -98.5v-96q0 -38 -21.5 -60t-59.5 -22q-20 0 -28 3z" />
    <glyph glyph-name="afii10052.smcp" horiz-adv-x="368" 
d="M143 562l98 95l35 -34l-99 -96zM61 0v504h269v-58h-199v-446h-70z" />
    <glyph glyph-name="afii10053.smcp" horiz-adv-x="543" 
d="M315 447q-80 0 -133 -45t-61 -120h295v-58h-295q8 -76 60.5 -121.5t133.5 -45.5q89 0 144 53l45 -44q-74 -72 -193 -72q-118 0 -192 71.5t-74 186.5t74 186.5t192 71.5q119 0 193 -72l-45 -45q-54 54 -144 54z" />
    <glyph glyph-name="afii10054.smcp" horiz-adv-x="424" 
d="M361 447l-45 -44q-19 19 -48.5 31.5t-57.5 12.5q-42 0 -63.5 -23.5t-21.5 -52.5t25.5 -48.5t62 -32t73.5 -28t62.5 -45.5t25.5 -75q0 -62 -43 -105t-122 -43q-100 0 -170 70l44 44q51 -51 120 -51q48 0 73 26t25 57q0 28 -25.5 47t-62 31.5t-73 27.5t-62 46.5t-25.5 77.5
q0 60 38.5 100t111.5 40q93 0 158 -63z" />
    <glyph glyph-name="afii10055.smcp" horiz-adv-x="189" 
d="M59 0v504h71v-504h-71z" />
    <glyph glyph-name="afii10056.smcp" horiz-adv-x="190" 
d="M60 0v504h70v-504h-70zM-7 575q0 17 12 28.5t29 11.5q16 0 28 -11.5t12 -28.5t-11.5 -28.5t-28.5 -11.5t-29 11.5t-12 28.5zM115 575q0 17 11.5 28.5t28.5 11.5t29.5 -12t12.5 -28q0 -17 -12.5 -28.5t-29.5 -11.5t-28.5 11.5t-11.5 28.5z" />
    <glyph glyph-name="afii10057.smcp" horiz-adv-x="359" 
d="M229 140v364h70v-364q0 -65 -42 -105.5t-110 -40.5q-66 0 -109 41l45 45q23 -23 62 -23q37 0 60.5 23t23.5 60z" />
    <glyph glyph-name="afii10058.smcp" horiz-adv-x="728" 
d="M369 0v446h-174v-313q0 -62 -32.5 -99t-86.5 -37q-26 0 -40 3v45q39 0 63 22.5t24 62.5v374h318v-214h83q71 0 114.5 -39.5t43.5 -105.5t-43 -105.5t-115 -39.5h-155zM610 145q0 37 -24 60.5t-62 23.5h-83v-168h83q38 0 62 23t24 61z" />
    <glyph glyph-name="afii10059.smcp" horiz-adv-x="725" 
d="M131 504v-214h235v214h73v-214h83q71 0 114.5 -39.5t43.5 -105.5t-43.5 -105.5t-114.5 -39.5h-156v229h-235v-229h-70v504h70zM607 145q0 38 -23.5 61t-61.5 23h-83v-168h83q38 0 61.5 23t23.5 61z" />
    <glyph glyph-name="afii10060.smcp" horiz-adv-x="537" 
d="M254 446v-167q42 32 96 32q58 0 93.5 -37.5t35.5 -98.5v-175h-71v175q0 33 -20.5 54t-54.5 21q-49 0 -79 -28v-222h-70v446h-146v58h362v-58h-146z" />
    <glyph glyph-name="afii10061.smcp" horiz-adv-x="474" 
d="M59 0v504h71v-504h-71zM355 0l-223 259l208 245h89l-208 -245l225 -259h-91zM185 562l99 95l35 -34l-100 -96z" />
    <glyph glyph-name="afii10062.smcp" horiz-adv-x="477" 
d="M239 586q46 0 75 29l34 -34q-45 -45 -109 -45q-63 0 -110 45l35 34q29 -29 75 -29zM452 504l-261 -504h-76l90 158l-180 346h75l139 -263l138 263h75z" />
    <glyph glyph-name="afii10145.smcp" horiz-adv-x="538" 
d="M237 0h-176v504h70v-446h276v446h70v-504h-175v-108h-65v108z" />
    <glyph glyph-name="uni040D.smcp" horiz-adv-x="546" 
d="M226 657l98 -95l-34 -35l-99 96zM438 504h47v-504h-71v370l-307 -370h-46v504h70v-370z" />
    <glyph glyph-name="uni0400.smcp" horiz-adv-x="388" 
d="M131 446v-164h187v-58h-187v-166h214v-58h-284v504h281v-58h-211zM155 657l99 -95l-35 -35l-98 96z" />
    <glyph glyph-name="uni04D8.smcp" horiz-adv-x="576" 
d="M530 252q0 -115 -67 -186.5t-175 -71.5t-175.5 71.5t-67.5 186.5v27h410q-8 75 -61 121.5t-133 46.5q-89 0 -145 -54l-45 45q75 72 193 72q119 0 192.5 -71.5t73.5 -186.5zM288 57q68 0 113.5 44.5t52.5 118.5h-333q8 -74 53 -118.5t114 -44.5z" />
    <glyph glyph-name="afii10056_afii10056.smcp" horiz-adv-x="379" 
d="M60 0v504h70v-504h-70zM-7 575q0 17 12 28.5t29 11.5q16 0 28 -11.5t12 -28.5t-11.5 -28.5t-28.5 -11.5t-29 11.5t-12 28.5zM249 0v504h71v-504h-71zM305 575q0 17 11.5 28.5t28.5 11.5q18 0 29.5 -11.5t11.5 -28.5t-11.5 -28.5t-29.5 -11.5q-17 0 -28.5 11.5t-11.5 28.5
zM149 575q0 17 11.5 28.5t29.5 11.5q16 0 28 -11.5t12 -28.5t-11.5 -28.5t-28.5 -11.5q-18 0 -29.5 11.5t-11.5 28.5z" />
    <glyph glyph-name="afii10021.alt.smcp" horiz-adv-x="625" 
d="M527 0h-428v-108h-66v166h41l205 446h67l206 -446h40v-166h-65v108zM312 414l-157 -356h315z" />
    <glyph glyph-name="afii10029.alt.smcp" horiz-adv-x="586" 
d="M27 0l233 504h66l233 -504h-83l-183 411l-183 -411h-83z" />
    <glyph glyph-name="afii10058.alt.smcp" horiz-adv-x="777" 
d="M27 0l233 504h66l100 -214h147q72 0 115.5 -39.5t43.5 -105.5t-43.5 -105.5t-115.5 -39.5h-97l-183 411l-183 -411h-83zM573 229h-121l80 -168h41q38 0 62 23t24 61q0 37 -24 60.5t-62 23.5z" />
    <glyph glyph-name="Aringacute.smcp" horiz-adv-x="586" 
d="M258 633l98 96l35 -34l-79 -76q22 -5 35 -22t13 -41q0 -41 -31 -59l230 -497h-81l-61 131h-248l-61 -131h-81l230 498q-31 17 -31 58q0 50 46 62zM293 413l-99 -219h198zM256 555q0 -16 10 -25.5t27 -9.5t27 9.5t10 25.5t-10.5 26t-26.5 10q-17 0 -27 -10t-10 -26z" />
    <glyph glyph-name="germandbls.smcp" horiz-adv-x="464" 
d="M130 369v-369h-71v369q0 63 41.5 102t108.5 39t108.5 -38.5t41.5 -100.5q0 -42 -23.5 -73t-63.5 -44q0 -23 15.5 -38t37.5 -24t44 -19t37.5 -31t15.5 -52q0 -40 -30.5 -68t-85.5 -28q-71 0 -115 46l42 42q29 -31 68 -31q26 0 39.5 12.5t13.5 27.5q0 17 -15.5 29t-37.5 21
t-44 20.5t-37.5 34t-15.5 55.5v52q38 0 61.5 19.5t23.5 51.5q0 33 -22.5 54.5t-57.5 21.5t-57 -23t-22 -58z" />
    <glyph glyph-name="at.smcp" horiz-adv-x="614" 
d="M474 98l33 -32q-74 -72 -198 -72q-120 0 -194 71.5t-74 186.5t74 186.5t193 71.5t192 -68t73 -169q0 -75 -38.5 -110t-88.5 -35q-49 0 -68 28q-31 -28 -77 -28q-53 0 -85.5 34t-32.5 90t36 90t95 34q73 0 108 -43v-131q0 -28 35 -28q25 0 43.5 22.5t18.5 69.5
q0 87 -57 142.5t-153 55.5t-155 -58.5t-59 -153.5t59 -153.5t156 -58.5q103 0 164 58zM236 252q0 -36 21.5 -57t57.5 -21q34 0 55 18v123q-21 15 -57 15q-35 0 -56 -21.5t-21 -56.5z" />
    <glyph glyph-name="parenleft.smcp" horiz-adv-x="241" 
d="M198 546v-51q-32 0 -54.5 -69t-22.5 -175q0 -105 22.5 -173.5t54.5 -68.5v-51q-63 0 -105 82t-42 212t42 212t105 82z" />
    <glyph glyph-name="parenright.smcp" horiz-adv-x="241" 
d="M43 495v51q64 0 106 -82t42 -212t-42 -212t-106 -82v51q32 0 55 68.5t23 174.5t-23 174.5t-55 68.5z" />
    <glyph glyph-name="bracketleft.smcp" horiz-adv-x="243" 
d="M200 540v-53h-73v-470h73v-53h-141v576h141z" />
    <glyph glyph-name="bracketright.smcp" horiz-adv-x="243" 
d="M43 487v53h141v-576h-141v53h73v470h-73z" />
    <glyph glyph-name="braceleft.smcp" horiz-adv-x="255" 
d="M218 9v-51q-54 0 -90 36t-36 92v51q0 38 -16 63t-38 25v51q22 0 38 25t16 64v53q0 56 36 92t90 36v-51q-22 0 -38.5 -24.5t-16.5 -61.5v-53q0 -36 -17 -64t-46 -41q63 -30 63 -106v-51q0 -37 16.5 -61t38.5 -24z" />
    <glyph glyph-name="braceright.smcp" horiz-adv-x="255" 
d="M38 -42v51q22 0 38 24t16 61v51q0 76 64 106q-30 13 -47 41t-17 64v53q0 37 -16 61.5t-38 24.5v51q54 0 89.5 -36t35.5 -92v-53q0 -39 16.5 -64t38.5 -25v-51q-22 0 -38.5 -25t-16.5 -63v-51q0 -56 -35.5 -92t-89.5 -36z" />
    <glyph glyph-name="exclamdown.smcp" horiz-adv-x="187" 
d="M51 467q0 18 12 30.5t30 12.5q19 0 31 -12.5t12 -30.5q0 -17 -12 -29.5t-31 -12.5q-18 0 -30 12.5t-12 29.5zM59 361h68v-361h-68v361z" />
    <glyph glyph-name="questiondown.smcp" horiz-adv-x="376" 
d="M296 92l44 -44q-63 -54 -147 -54q-71 0 -111.5 38t-40.5 94q0 29 12 50.5t29 34.5l34 26.5t29 34t12 47.5v42h68v-42q0 -36 -11.5 -62.5t-28.5 -42t-33.5 -28t-28 -27t-11.5 -32.5q0 -28 21 -50.5t62 -22.5q58 0 101 38zM234 467q0 -17 -12.5 -29.5t-30.5 -12.5
q-17 0 -30 12.5t-13 29.5q0 18 13 30.5t30 12.5q18 0 30.5 -12.5t12.5 -30.5z" />
    <glyph glyph-name="bar.smcp" horiz-adv-x="187" 
d="M59 -36v576h68v-576h-68z" />
    <glyph glyph-name="brokenbar.smcp" horiz-adv-x="187" 
d="M59 -36v252h68v-252h-68zM127 540v-252h-68v252h68z" />
    <glyph glyph-name="dagger.smcp" horiz-adv-x="395" 
d="M51 337v53h112v150h68v-150h113v-53h-113v-373h-68v373h-112z" />
    <glyph glyph-name="daggerdbl.smcp" horiz-adv-x="395" 
d="M51 121v53h112v163h-112v53h112v150h68v-150h113v-53h-113v-163h113v-53h-113v-157h-68v157h-112z" />
    <glyph glyph-name="zero.smcp" horiz-adv-x="443" 
d="M45 252q0 115 49 186.5t127 71.5q79 0 127.5 -71.5t48.5 -186.5t-48.5 -186.5t-127.5 -71.5q-78 0 -127 71.5t-49 186.5zM116 252q0 -88 29 -143t76 -55t76.5 55t29.5 143t-29.5 143t-76.5 55t-76 -55t-29 -143z" />
    <glyph glyph-name="one.smcp" horiz-adv-x="265" 
d="M34 430v54l150 23v-507h-68v444z" />
    <glyph glyph-name="two.smcp" horiz-adv-x="409" 
d="M44 58l225 215q27 27 27 76q0 44 -26 72t-68 28q-41 0 -67 -28t-26 -72h-70q0 72 45 116.5t118 44.5q74 0 119 -44.5t45 -116.5q0 -74 -50 -121l-179 -170h229v-58h-322v58z" />
    <glyph glyph-name="three.smcp" horiz-adv-x="421" 
d="M175 243v58h34q35 0 56.5 20.5t21.5 53.5t-21.5 54t-56.5 21q-34 0 -55.5 -21t-21.5 -54h-70q0 60 40.5 97.5t106.5 37.5q67 0 107.5 -37.5t40.5 -97.5q0 -68 -59 -102q80 -36 80 -124q0 -69 -47 -112t-122 -43q-74 0 -121 43t-47 112h71q0 -42 27 -68.5t70 -26.5
t70.5 26.5t27.5 68.5q0 41 -27.5 67.5t-70.5 26.5h-34z" />
    <glyph glyph-name="four.smcp" horiz-adv-x="436" 
d="M275 0v93h-237v32l234 379h69v-353h45v-58h-43v-93h-68zM123 151h155v250z" />
    <glyph glyph-name="five.smcp" horiz-adv-x="409" 
d="M366 155q0 -72 -45 -116.5t-119 -44.5q-73 0 -118 42.5t-45 111.5h68q0 -41 26.5 -67t68.5 -26t68 28t26 72q0 49 -30 79.5t-77 30.5q-49 0 -80 -28l-50 17l32 250h236v-58h-176l-19 -131q27 11 61 11q78 0 125.5 -47t47.5 -124z" />
    <glyph glyph-name="six.smcp" horiz-adv-x="417" 
d="M227 510l59 -34q-75 -89 -126 -175q20 10 49 10q75 0 121 -43t46 -115q0 -71 -46.5 -115t-121.5 -44t-121 44.5t-46 120.5q0 74 42 149.5t144 201.5zM112 153q0 -44 26.5 -71.5t69.5 -27.5t70 27.5t27 71.5t-27 72t-70 28t-69.5 -28t-26.5 -72z" />
    <glyph glyph-name="seven.smcp" horiz-adv-x="417" 
d="M45 446v58h327v-22l-184 -482h-73l168 446h-238z" />
    <glyph glyph-name="eight.smcp" horiz-adv-x="422" 
d="M63 375q0 60 41 97.5t107 37.5t107 -37.5t41 -97.5q0 -68 -60 -102q80 -35 80 -124q0 -69 -46.5 -112t-121.5 -43t-121.5 43t-46.5 112q0 89 79 124q-59 34 -59 102zM113 149q0 -42 27.5 -68.5t70.5 -26.5t70.5 26.5t27.5 68.5q0 41 -27.5 67.5t-70.5 26.5t-70.5 -26.5
t-27.5 -67.5zM134 375q0 -32 21.5 -52.5t55.5 -20.5t56 20.5t22 52.5q0 33 -22 54t-56 21t-55.5 -21t-21.5 -54z" />
    <glyph glyph-name="nine.smcp" horiz-adv-x="417" 
d="M190 -6l-59 34q75 89 126 175q-20 -10 -49 -10q-75 0 -121 43t-46 115q0 71 46.5 115t121.5 44t121 -44.5t46 -120.5q0 -74 -42 -149.5t-144 -201.5zM305 351q0 44 -27 71.5t-70 27.5t-69.5 -27.5t-26.5 -71.5t26.5 -72t69.5 -28t70 28t27 72z" />
    <glyph glyph-name="dollar.smcp" horiz-adv-x="424" 
d="M191 -72v67q-89 6 -152 69l44 44q45 -45 108 -51v169q-31 11 -50.5 20.5t-42.5 26t-34 41t-11 56.5q0 57 35.5 96t102.5 43v67h39v-68q78 -10 131 -61l-45 -44q-34 34 -86 42v-161q34 -13 52.5 -21t43.5 -25t36.5 -40.5t11.5 -55.5q0 -58 -37.5 -99.5t-106.5 -47.5v-67
h-39zM301 140q0 43 -71 71v-152q35 8 53 31.5t18 49.5zM125 371q0 -44 66 -72v146q-33 -6 -49.5 -27.5t-16.5 -46.5z" />
    <glyph glyph-name="Euro.smcp" horiz-adv-x="577" 
d="M38 281v39h49q21 87 90 138.5t169 51.5q119 0 194 -72l-45 -45q-56 54 -145 54q-69 0 -118.5 -34.5t-68.5 -92.5h189v-39h-197q-2 -20 -2 -29q0 -11 2 -29h197v-39h-189q19 -59 68.5 -93t118.5 -34q90 0 145 53l45 -44q-75 -72 -194 -72q-100 0 -169 51t-90 139h-49v39
h43q-1 9 -1 29q0 19 1 29h-43z" />
    <glyph glyph-name="sterling.smcp" horiz-adv-x="407" 
d="M38 225v54h56v85q0 65 42 105.5t109 40.5t110 -41l-45 -45q-23 23 -62 23q-38 0 -61 -23t-23 -60v-85h129v-54h-129v-133q15 -4 49.5 -22.5t54.5 -18.5q18 0 29.5 11.5t11.5 28.5h55q0 -44 -26.5 -70.5t-68.5 -26.5q-33 0 -75.5 23t-62.5 23q-18 0 -29.5 -11t-11.5 -29
h-55q0 70 59 91v134h-56z" />
    <glyph glyph-name="yen.smcp" horiz-adv-x="524" 
d="M126 153v39h100v20l-199 292h81l154 -223l153 223h82l-200 -293v-19h100v-39h-100v-52h100v-39h-100v-62h-71v62h-100v39h100v52h-100z" />
    <glyph glyph-name="uni20B4.smcp" horiz-adv-x="343" 
d="M39 278v39h155l9 8q29 26 29 58q0 29 -21 47.5t-53 18.5q-46 0 -74 -31l-44 43q46 49 118 49q64 0 104 -34.5t40 -89.5q0 -38 -23 -69h25v-39h-60l-53 -50h113v-39h-154l-10 -10q-29 -26 -29 -58q0 -29 21 -47.5t53 -18.5q46 0 74 31l43 -43q-44 -49 -117 -49
q-64 0 -104 34.5t-40 89.5q0 39 24 71h-26v39h62l53 50h-115z" />
    <glyph glyph-name="numbersign.smcp" horiz-adv-x="480" 
d="M259 0l19 119h-119l-19 -119h-68l19 119h-53v54h62l24 158h-61v54h70l20 119h68l-20 -119h119l19 119h68l-19 -119h54v-54h-62l-25 -158h62v-54h-71l-19 -119h-68zM193 331l-25 -158h119l24 158h-118z" />
    <glyph glyph-name="zero.fitted.smcp" horiz-adv-x="417" 
d="M36 252q0 115 47.5 186.5t125.5 71.5q77 0 124.5 -71.5t47.5 -186.5t-47.5 -186.5t-124.5 -71.5q-78 0 -125.5 71.5t-47.5 186.5zM106 252q0 -88 28.5 -143t74.5 -55q45 0 73.5 55t28.5 143t-28.5 143t-73.5 55q-46 0 -74.5 -55t-28.5 -143z" />
    <glyph glyph-name="one.fitted.smcp" horiz-adv-x="417" 
d="M88 0v53h85v391l-91 -14v54l159 23v-454h85v-53h-238z" />
    <glyph glyph-name="two.fitted.smcp" horiz-adv-x="418" 
d="M47 58l227 215q28 28 28 76q0 44 -26.5 72t-68.5 28t-68 -28t-26 -72h-70q0 72 45.5 116.5t118.5 44.5t118.5 -44.5t45.5 -116.5q0 -71 -53 -121l-180 -170h233v-58h-324v58z" />
    <glyph glyph-name="three.fitted.smcp" horiz-adv-x="418" 
d="M174 243v58h34q34 0 56 21t22 53q0 33 -22 54t-56 21t-55.5 -21t-21.5 -54h-70q0 60 40.5 97.5t106.5 37.5t107 -37.5t41 -97.5q0 -68 -59 -102q79 -36 79 -124q0 -69 -46.5 -112t-121.5 -43q-74 0 -121 43t-47 112h71q0 -42 27 -68.5t70 -26.5t70.5 26.5t27.5 68.5
q0 41 -27.5 67.5t-70.5 26.5h-34z" />
    <glyph glyph-name="four.fitted.smcp" horiz-adv-x="417" 
d="M265 0v93h-234v32l231 379h68v-353h45v-58h-42v-93h-68zM116 151h152v250z" />
    <glyph glyph-name="five.fitted.smcp" horiz-adv-x="418" 
d="M371 155q0 -72 -45.5 -116.5t-118.5 -44.5t-118.5 42.5t-45.5 111.5h68q0 -41 26.5 -67t69.5 -26q42 0 68.5 28t26.5 72q0 49 -30.5 79.5t-78.5 30.5q-50 0 -81 -28l-49 17l32 250h237v-58h-177l-19 -131q25 11 61 11q79 0 126.5 -47t47.5 -124z" />
    <glyph glyph-name="six.fitted.smcp" horiz-adv-x="418" 
d="M228 510l58 -34q-79 -96 -126 -175q20 10 50 10q74 0 120.5 -43.5t46.5 -114.5t-46.5 -115t-121.5 -44q-76 0 -122 44.5t-46 120.5q0 75 42.5 150.5t144.5 200.5zM111 153q0 -44 27.5 -71.5t70.5 -27.5t70.5 27.5t27.5 71.5t-27.5 72t-70.5 28t-70.5 -28t-27.5 -72z" />
    <glyph glyph-name="seven.fitted.smcp" horiz-adv-x="417" 
d="M46 446v58h325v-22l-184 -482h-72l168 446h-237z" />
    <glyph glyph-name="eight.fitted.smcp" horiz-adv-x="418" 
d="M61 375q0 60 41.5 97.5t106.5 37.5q66 0 107 -37.5t41 -97.5q0 -68 -60 -102q81 -36 81 -124q0 -69 -47 -112t-122 -43t-122 43t-47 112q0 88 80 124q-59 33 -59 102zM111 149q0 -42 27.5 -68.5t70.5 -26.5t70.5 26.5t27.5 68.5q0 41 -27.5 67.5t-70.5 26.5t-70.5 -26.5
t-27.5 -67.5zM131 375q0 -32 22 -52.5t56 -20.5t55.5 20.5t21.5 52.5q0 33 -21.5 54t-55.5 21t-56 -21t-22 -54z" />
    <glyph glyph-name="nine.fitted.smcp" horiz-adv-x="417" 
d="M190 -6l-59 34q75 89 126 175q-20 -10 -49 -10q-74 0 -120.5 43.5t-46.5 114.5t46.5 115t121.5 44t121 -44.5t46 -120.5q0 -74 -42.5 -150t-143.5 -201zM306 351q0 44 -27.5 71.5t-70.5 27.5t-69.5 -27.5t-26.5 -71.5t26.5 -72t69.5 -28t70.5 28t27.5 72z" />
    <glyph glyph-name="exclam.smcp" horiz-adv-x="187" 
d="M51 37q0 17 12 29.5t30 12.5q19 0 31 -12.5t12 -29.5q0 -18 -12 -30.5t-31 -12.5q-18 0 -30 12.5t-12 30.5zM59 143v361h68v-361h-68z" />
    <glyph glyph-name="ampersand.smcp" horiz-adv-x="468" 
d="M258 243v58h172v-58h-51v-94q0 -69 -46.5 -112t-121.5 -43t-121.5 43t-46.5 112q0 88 80 124q-60 34 -60 102q0 60 41 97.5t107 37.5t107 -37.5t41 -97.5h-70q0 33 -22 54t-56 21t-55.5 -21t-21.5 -54q0 -32 21.5 -53t55.5 -21h21v-58h-21q-43 0 -70.5 -26.5t-27.5 -67.5
q0 -42 27.5 -68.5t70.5 -26.5t70.5 26.5t27.5 68.5v94h-51z" />
    <glyph glyph-name="slash.smcp" horiz-adv-x="436" 
d="M44 -36l280 576h68l-279 -576h-69z" />
    <glyph glyph-name="backslash.smcp" horiz-adv-x="436" 
d="M113 540l279 -576h-68l-280 576h69z" />
    <glyph glyph-name="question.smcp" horiz-adv-x="376" 
d="M79 412l-44 44q63 54 147 54q71 0 111.5 -38t40.5 -94q0 -29 -12 -50.5t-29 -34.5l-34 -26.5t-29 -34t-12 -47.5v-42h-68v42q0 36 11.5 62.5t28 42t33.5 28t28.5 27t11.5 32.5q0 28 -21 50.5t-61 22.5q-59 0 -102 -38zM141 37q0 17 12.5 29.5t30.5 12.5t30.5 -12.5
t12.5 -29.5q0 -18 -12.5 -30.5t-30.5 -12.5t-30.5 12.5t-12.5 30.5z" />
    <glyph glyph-name="percent.smcp" horiz-adv-x="676" 
d="M165 0l278 504h69l-279 -504h-68zM38 384q0 56 36.5 91t95.5 35q58 0 94.5 -35t36.5 -91t-36.5 -91t-94.5 -35q-59 0 -95.5 35t-36.5 91zM99 384q0 -34 19.5 -54.5t51.5 -20.5t51.5 20.5t19.5 54.5q0 33 -20 54t-51 21t-51 -21t-20 -54zM374 120q0 56 37 91t96 35
q58 0 94.5 -35t36.5 -91t-36.5 -91t-94.5 -35q-59 0 -96 35t-37 91zM436 120q0 -33 20 -54t51 -21t51 21t20 54t-20 54t-51 21q-32 0 -51.5 -20.5t-19.5 -54.5z" />
    <glyph glyph-name="perthousand.smcp" horiz-adv-x="974" 
d="M165 0l278 504h69l-279 -504h-68zM38 384q0 56 36.5 91t95.5 35q58 0 94.5 -35t36.5 -91t-36.5 -91t-94.5 -35q-59 0 -95.5 35t-36.5 91zM99 384q0 -34 19.5 -54.5t51.5 -20.5t51.5 20.5t19.5 54.5q0 33 -20 54t-51 21t-51 -21t-20 -54zM374 120q0 56 37 91t96 35
q58 0 94.5 -35t36.5 -91t-36.5 -91t-94.5 -35q-59 0 -96 35t-37 91zM436 120q0 -33 20 -54t51 -21t51 21t20 54t-20 54t-51 21q-32 0 -51.5 -20.5t-19.5 -54.5zM673 120q0 56 36.5 91t95.5 35q58 0 94.5 -35t36.5 -91t-36.5 -91t-94.5 -35q-59 0 -95.5 35t-36.5 91zM734 120
q0 -33 19.5 -54t51.5 -21q31 0 51 21t20 54q0 34 -19.5 54.5t-51.5 20.5t-51.5 -20.5t-19.5 -54.5z" />
    <glyph glyph-name="section.smcp" horiz-adv-x="340" 
d="M140 319l151 -146l-45 -44l-153 146q-51 48 -51 108q0 56 39.5 91.5t103.5 35.5q72 0 118 -49l-43 -43q-29 31 -75 31q-32 0 -52.5 -19t-20.5 -48q0 -37 28 -63zM200 5l-151 146l45 45l154 -147q50 -48 50 -108q0 -56 -39.5 -91.5t-103.5 -35.5q-74 0 -118 49l43 43
q29 -31 75 -31q32 0 52.5 19t20.5 48q0 37 -28 63z" />
    <glyph glyph-name="paragraph.smcp" horiz-adv-x="468" 
d="M286 504v-504h-66v224h-19q-69 0 -111.5 38t-42.5 102t42.5 102t111.5 38h85zM343 0v504h66v-504h-66z" />
    <glyph glyph-name="quoteright_afii10056.smcp" horiz-adv-x="274" 
d="M144 0v504h70v-504h-70zM199 575q0 16 12 28t29 12t29 -11.5t12 -28.5t-12 -28.5t-29 -11.5t-29 11.5t-12 28.5zM26 491l-25 26q40 40 46 73q-18 2 -29.5 15.5t-11.5 32.5q0 20 14 34.5t35 14.5q20 0 34.5 -14.5t14.5 -42.5q0 -63 -78 -139z" />
    <glyph glyph-name="zero.sub" horiz-adv-x="302" 
d="M34 125q0 80 32.5 129.5t84.5 49.5t84.5 -49.5t32.5 -129.5t-32.5 -129.5t-84.5 -49.5t-84.5 49.5t-32.5 129.5zM79 125q0 -62 20 -100.5t52 -38.5t51.5 38.5t19.5 100.5t-19.5 100.5t-51.5 38.5t-52 -38.5t-20 -100.5z" />
    <glyph glyph-name="one.sub" horiz-adv-x="182" 
d="M26 251v35l99 16v-352h-44v311z" />
    <glyph glyph-name="two.sub" horiz-adv-x="279" 
d="M33 -12l150 150q19 19 19 54q0 32 -17.5 52t-45.5 20q-29 0 -46.5 -20t-17.5 -52h-45q0 50 30 81t79 31q48 0 78 -31t30 -81t-33 -83l-121 -121h154v-38h-214v38z" />
    <glyph glyph-name="three.sub" horiz-adv-x="287" 
d="M120 121v37h23q24 0 38.5 15t14.5 39q0 23 -14.5 37.5t-38.5 14.5q-23 0 -37.5 -14.5t-14.5 -37.5h-46q0 40 27.5 66t70.5 26q44 0 71 -25.5t27 -66.5q0 -50 -40 -72q54 -25 54 -87q0 -48 -31 -77.5t-81 -29.5t-80.5 29.5t-30.5 77.5h45q0 -30 18.5 -48.5t47.5 -18.5
q30 0 48.5 18.5t18.5 48.5t-18.5 49t-48.5 19h-23z" />
    <glyph glyph-name="four.sub" horiz-adv-x="297" 
d="M187 -50v66h-158v20l156 264h44v-247h31v-37h-29v-66h-44zM84 53h105v180z" />
    <glyph glyph-name="five.sub" horiz-adv-x="279" 
d="M247 58q0 -50 -30 -81t-78 -31q-49 0 -79 29.5t-30 76.5h44q0 -29 18 -47.5t47 -18.5q28 0 45.5 20t17.5 52q0 34 -20.5 56t-52.5 22q-34 0 -54 -20l-32 12l21 172h157v-38h-118l-12 -95q17 9 41 9q52 0 83.5 -32.5t31.5 -85.5z" />
    <glyph glyph-name="six.sub" horiz-adv-x="286" 
d="M156 304l37 -22q-55 -72 -83 -124q13 7 33 7q49 0 80 -30t31 -79t-30.5 -79.5t-80.5 -30.5t-80.5 30.5t-30.5 83.5q0 50 26.5 99t97.5 145zM77 56q0 -31 18.5 -50.5t47.5 -19.5t47 19t18 51t-18 52t-47 20t-47.5 -20t-18.5 -52z" />
    <glyph glyph-name="seven.sub" horiz-adv-x="284" 
d="M34 262v38h216v-14l-123 -336h-47l113 312h-159z" />
    <glyph glyph-name="eight.sub" horiz-adv-x="288" 
d="M46 212q0 41 27.5 66.5t70.5 25.5t70.5 -25.5t27.5 -66.5q0 -49 -40 -72q54 -25 54 -87q0 -48 -31 -77.5t-81 -29.5t-81 29.5t-31 77.5q0 63 54 87q-40 22 -40 72zM78 53q0 -30 18.5 -48.5t47.5 -18.5t47.5 18.5t18.5 48.5t-18.5 48.5t-47.5 18.5t-47.5 -18.5
t-18.5 -48.5zM92 212q0 -24 14.5 -38.5t37.5 -14.5t38 14.5t15 38.5q0 23 -15 37.5t-38 14.5t-37.5 -14.5t-14.5 -37.5z" />
    <glyph glyph-name="nine.sub" horiz-adv-x="286" 
d="M130 -54l-38 22q53 68 84 124q-13 -7 -33 -7q-50 0 -80.5 30t-30.5 79t30.5 79.5t80.5 30.5t80.5 -30.5t30.5 -83.5q0 -49 -26.5 -97.5t-97.5 -146.5zM208 194q0 32 -18 51t-47 19t-47.5 -19.5t-18.5 -50.5q0 -32 18.5 -52t47.5 -20t47 20t18 52z" />
    <glyph glyph-name="comma.sub" horiz-adv-x="131" 
d="M51 -106l-16 14q22 23 25 39q-23 4 -23 27q0 12 8.5 20t20.5 8q11 0 19 -8t8 -24q0 -34 -42 -76z" />
    <glyph glyph-name="period.sub" horiz-adv-x="131" 
d="M37 -26q0 12 8.5 20t19.5 8q12 0 20 -8t8 -20t-8 -20t-20 -8q-11 0 -19.5 8t-8.5 20z" />
    <glyph glyph-name="parenleft.sub" horiz-adv-x="167" 
d="M135 329v-33q-21 0 -36.5 -48.5t-15.5 -122.5q0 -75 15 -123t37 -48v-33q-42 0 -70 57t-28 147t28 147t70 57z" />
    <glyph glyph-name="parenright.sub" horiz-adv-x="167" 
d="M32 296v33q42 0 70 -57t28 -147t-28 -147t-70 -57v33q22 0 37 48t15 123t-15 123t-37 48z" />
    <glyph glyph-name="hyphen.sub" horiz-adv-x="189" 
d="M37 107v36h115v-36h-115z" />
    <glyph glyph-name="zero.sup" horiz-adv-x="302" 
d="M34 525q0 80 32.5 129.5t84.5 49.5t84.5 -49.5t32.5 -129.5t-32.5 -129.5t-84.5 -49.5t-84.5 49.5t-32.5 129.5zM79 525q0 -62 20 -100.5t52 -38.5t51.5 38.5t19.5 100.5t-19.5 100.5t-51.5 38.5t-52 -38.5t-20 -100.5z" />
    <glyph glyph-name="one.sup" horiz-adv-x="182" 
d="M26 651v35l99 16v-352h-44v311z" />
    <glyph glyph-name="two.sup" horiz-adv-x="279" 
d="M33 388l150 150q19 19 19 54q0 32 -17.5 52t-45.5 20q-29 0 -46.5 -20t-17.5 -52h-45q0 50 30 81t79 31q48 0 78 -31t30 -81t-33 -83l-121 -121h154v-38h-214v38z" />
    <glyph glyph-name="three.sup" horiz-adv-x="287" 
d="M120 521v37h23q24 0 38.5 15t14.5 39q0 23 -14.5 37.5t-38.5 14.5q-23 0 -37.5 -14.5t-14.5 -37.5h-46q0 40 27.5 66t70.5 26q44 0 71 -25.5t27 -66.5q0 -50 -40 -72q54 -25 54 -87q0 -48 -31 -77.5t-81 -29.5t-80.5 29.5t-30.5 77.5h45q0 -30 18.5 -48.5t47.5 -18.5
q30 0 48.5 18.5t18.5 48.5t-18.5 49t-48.5 19h-23z" />
    <glyph glyph-name="four.sup" horiz-adv-x="297" 
d="M187 350v66h-158v20l156 264h44v-247h31v-37h-29v-66h-44zM84 453h105v180z" />
    <glyph glyph-name="five.sup" horiz-adv-x="279" 
d="M247 458q0 -50 -30 -81t-78 -31q-49 0 -79 29.5t-30 76.5h44q0 -29 18 -47.5t47 -18.5q28 0 45.5 20t17.5 52q0 34 -20.5 56t-52.5 22q-34 0 -54 -20l-32 12l21 172h157v-38h-118l-12 -95q16 9 41 9q52 0 83.5 -32.5t31.5 -85.5z" />
    <glyph glyph-name="six.sup" horiz-adv-x="286" 
d="M156 704l37 -22q-55 -72 -83 -124q13 7 33 7q49 0 80 -30t31 -79t-30.5 -79.5t-80.5 -30.5t-80.5 30.5t-30.5 83.5q0 50 26.5 99t97.5 145zM77 456q0 -31 18.5 -50.5t47.5 -19.5t47 19t18 51t-18 52t-47 20t-47.5 -20t-18.5 -52z" />
    <glyph glyph-name="seven.sup" horiz-adv-x="284" 
d="M34 662v38h216v-14l-123 -336h-47l113 312h-159z" />
    <glyph glyph-name="eight.sup" horiz-adv-x="288" 
d="M46 612q0 41 27.5 66.5t70.5 25.5t70.5 -25.5t27.5 -66.5q0 -49 -40 -72q54 -25 54 -87q0 -48 -31 -77.5t-81 -29.5t-81 29.5t-31 77.5q0 63 54 87q-40 22 -40 72zM78 453q0 -30 18.5 -48.5t47.5 -18.5t47.5 18.5t18.5 48.5t-18.5 48.5t-47.5 18.5t-47.5 -18.5
t-18.5 -48.5zM92 612q0 -24 14.5 -38.5t37.5 -14.5t38 14.5t15 38.5q0 23 -15 37.5t-38 14.5t-37.5 -14.5t-14.5 -37.5z" />
    <glyph glyph-name="nine.sup" horiz-adv-x="286" 
d="M130 346l-38 22q53 68 84 124q-13 -7 -33 -7q-50 0 -80.5 30t-30.5 79t30.5 79.5t80.5 30.5t80.5 -30.5t30.5 -83.5q0 -49 -26.5 -97.5t-97.5 -146.5zM208 594q0 32 -18 51t-47 19t-47.5 -19.5t-18.5 -50.5q0 -32 18.5 -52t47.5 -20t47 20t18 52z" />
    <glyph glyph-name="comma.sup" horiz-adv-x="131" 
d="M51 294l-16 14q22 23 25 39q-23 4 -23 27q0 12 8.5 20t20.5 8q11 0 19 -8t8 -24q0 -34 -42 -76z" />
    <glyph glyph-name="period.sup" horiz-adv-x="131" 
d="M37 374q0 12 8.5 20t19.5 8q12 0 20 -8t8 -20t-8 -20t-20 -8q-11 0 -19.5 8t-8.5 20z" />
    <glyph glyph-name="parenleft.sup" horiz-adv-x="167" 
d="M135 729v-33q-21 0 -36.5 -48.5t-15.5 -122.5q0 -75 15 -123t37 -48v-33q-42 0 -70 57t-28 147t28 147t70 57z" />
    <glyph glyph-name="parenright.sup" horiz-adv-x="167" 
d="M32 696v33q42 0 70 -57t28 -147t-28 -147t-70 -57v33q22 0 37 48t15 123t-15 123t-37 48z" />
    <glyph glyph-name="hyphen.sup" horiz-adv-x="189" 
d="M37 507v36h115v-36h-115z" />
    <glyph glyph-name="Ugrave.smcp" horiz-adv-x="519" 
d="M388 185v319h70v-319q0 -85 -55 -138t-144 -53t-143.5 52.5t-54.5 138.5v319h70v-319q0 -57 35.5 -92.5t91.5 -35.5q58 0 94 35.5t36 92.5zM212 657l99 -95l-34 -35l-99 96z" />
    <glyph glyph-name="Udieresis.smcp" horiz-adv-x="519" 
d="M388 185v319h70v-319q0 -85 -55 -138t-144 -53t-143.5 52.5t-54.5 138.5v319h70v-319q0 -57 35.5 -92.5t91.5 -35.5q58 0 94 35.5t36 92.5zM148 575q0 17 12 28.5t28 11.5q17 0 28.5 -11.5t11.5 -28.5t-11.5 -28.5t-28.5 -11.5t-28.5 11.5t-11.5 28.5zM290 575
q0 17 12 28.5t28 11.5q17 0 29 -11.5t12 -28.5t-12 -28.5t-29 -11.5t-28.5 11.5t-11.5 28.5z" />
    <glyph glyph-name="Ucircumflex.smcp" horiz-adv-x="519" 
d="M388 185v319h70v-319q0 -85 -55 -138t-144 -53t-143.5 52.5t-54.5 138.5v319h70v-319q0 -57 35.5 -92.5t91.5 -35.5q58 0 94 35.5t36 92.5zM259 657l100 -95l-35 -35l-65 62l-64 -62l-34 35z" />
    <glyph glyph-name="a.ord" horiz-adv-x="260" 
d="M232 483v-31q-8 -2 -18 -2q-33 0 -44 26q-28 -28 -70 -28q-34 0 -52.5 20t-18.5 48q0 38 33.5 60t84.5 22q11 0 19 -2v26q0 17 -12.5 30.5t-34.5 13.5q-33 0 -53 -20l-25 25q33 33 81 33q42 0 66 -23.5t24 -58.5v-119q0 -20 20 -20zM115 486q30 0 51 22v56q-8 2 -16 2
q-32 0 -53 -12t-21 -33q0 -13 9 -24t30 -11z" />
    <glyph glyph-name="b.ord" horiz-adv-x="307" 
d="M148 448q-72 0 -105 42v375h46v-180q28 19 68 19q53 0 87 -35.5t34 -92.5t-36 -92.5t-94 -35.5zM230 576q0 38 -22 62t-59 24t-60 -26v-134q6 0 26.5 -6t34.5 -6q36 0 58 23.5t22 62.5z" />
    <glyph glyph-name="c.ord" horiz-adv-x="272" 
d="M77 576q0 -39 22.5 -62.5t59.5 -23.5q40 0 61 23l28 -28q-34 -37 -91 -37q-58 0 -93 35.5t-35 92.5t35 92.5t93 35.5q56 0 91 -38l-28 -28q-22 24 -61 24q-37 0 -59.5 -24t-22.5 -62z" />
    <glyph glyph-name="d.ord" horiz-adv-x="308" 
d="M265 452h-46v20q-29 -24 -72 -24q-53 0 -85.5 35.5t-32.5 92.5t35 92.5t91 35.5q35 0 64 -17v178h46v-413zM77 576q0 -39 22.5 -62.5t59.5 -23.5q39 0 60 22v128q-22 22 -60 22q-37 0 -59.5 -24t-22.5 -62z" />
    <glyph glyph-name="e.ord" horiz-adv-x="289" 
d="M262 562h-183q3 -33 25 -52.5t57 -19.5q41 0 62 23l28 -28q-35 -37 -93 -37q-57 0 -93 35.5t-36 93.5q0 56 33 91.5t87 35.5t83.5 -38t29.5 -104zM149 663q-29 0 -48 -18t-22 -49h136q-8 67 -66 67z" />
    <glyph glyph-name="egrave.ord" horiz-adv-x="289" 
d="M262 562h-183q3 -33 25 -52.5t57 -19.5q41 0 62 23l28 -28q-35 -37 -93 -37q-57 0 -93 35.5t-36 93.5q0 56 33 91.5t87 35.5t83.5 -38t29.5 -104zM149 663q-29 0 -48 -18t-22 -49h136q-8 67 -66 67zM114 826l72 -71l-24 -23l-72 71z" />
    <glyph glyph-name="f.ord" horiz-adv-x="191" 
d="M23 663v37h33v82q0 40 23.5 63.5t62.5 23.5q16 0 30 -6v-39q-10 5 -22 5q-21 0 -33 -13t-12 -34v-82h67v-37h-67v-211h-49v211h-33z" />
    <glyph glyph-name="g.ord" horiz-adv-x="291" 
d="M16 388q0 49 55 67q-30 15 -30 41q0 28 33 42q-41 21 -41 74q0 42 27.5 67t71.5 25q43 0 69 -23q18 23 42 23q3 0 7.5 -0.5t6.5 -0.5v-38q-3 2 -11 2q-12 0 -24 -12q9 -18 9 -41q0 -40 -27.5 -65t-72.5 -25t-45 -27q0 -25 54 -25t86.5 -21.5t32.5 -56.5
q0 -37 -36.5 -60.5t-91.5 -23.5q-52 0 -83.5 21.5t-31.5 56.5zM64 388q0 -19 18 -30.5t48 -11.5q34 0 57.5 13.5t23.5 33.5q0 19 -19.5 30.5t-51.5 11.5q-34 0 -55 -13t-21 -34zM80 614q0 -24 14.5 -39t38.5 -15q23 0 38.5 15t15.5 39q0 23 -15.5 38t-38.5 15
q-24 0 -38.5 -15t-14.5 -38z" />
    <glyph glyph-name="h.ord" horiz-adv-x="297" 
d="M43 865h46v-186q32 25 71 25q42 0 67.5 -28.5t25.5 -74.5v-149h-46v149q0 28 -16 44.5t-42 16.5q-39 0 -60 -24v-186h-46v413z" />
    </font>
</defs>
</svg>
