<?xml version="1.0" standalone="no"?>
<!DOCTYPE svg PUBLIC "-//W3C//DTD SVG 1.1//EN" "http://www.w3.org/Graphics/SVG/1.1/DTD/svg11.dtd" >
<svg>
<metadata>
Created by FontForge 20090622 at Tue Aug  2 07:48:46 2016
 By deploy user
Copyright (c) 2014 by Andriy Konstantynov. All rights reserved.
</metadata>
<defs>
<font id="ProbaPro-Medium" horiz-adv-x="540" >
  <font-face 
    font-family="Proba Pro Md"
    font-weight="500"
    font-stretch="normal"
    units-per-em="1000"
    panose-1="2 13 0 3 3 2 0 0 0 0"
    ascent="750"
    descent="-250"
    x-height="450"
    cap-height="700"
    bbox="-35 -258 1236 1011"
    underline-thickness="50"
    underline-position="-50"
    unicode-range="U+0020-U+FB03"
  />
<missing-glyph horiz-adv-x="230" 
 />
    <glyph glyph-name="ff" unicode="ff" horiz-adv-x="592" 
d="M353 0v378h-166v-378h-95v378h-60v72h60v147q0 74 43 117.5t116 43.5q34 0 55 -10v-77q-16 9 -38 9q-37 0 -59 -23t-22 -60v-147h166v147q0 74 43 117.5t116 43.5q34 0 55 -10v-77q-17 9 -38 9q-37 0 -59 -23t-22 -60v-147h119v-72h-119v-378h-95z" />
    <glyph glyph-name="fi" unicode="fi" horiz-adv-x="510" 
d="M353 0v378h-166v-378h-95v378h-60v72h60v147q0 74 43 117.5t116 43.5q34 0 55 -10v-77q-16 9 -38 9q-37 0 -59 -23t-22 -60v-147h257v-450h-91zM341 585q0 24 17 40.5t41 16.5t40.5 -16.5t16.5 -40.5t-16.5 -41t-40.5 -17t-41 17t-17 41z" />
    <glyph glyph-name="ffi" unicode="ffi" horiz-adv-x="771" 
d="M614 0v378h-166v-378h-95v378h-166v-378h-95v378h-60v72h60v147q0 74 43 117.5t116 43.5q34 0 55 -10v-77q-16 9 -38 9q-37 0 -59 -23t-22 -60v-147h166v147q0 74 43 117.5t116 43.5q34 0 55 -10v-77q-17 9 -38 9q-37 0 -59 -23t-22 -60v-147h257v-450h-91zM602 585
q0 24 17 40.5t41 16.5t40.5 -16.5t16.5 -40.5t-16.5 -41t-40.5 -17t-41 17t-17 41z" />
    <glyph glyph-name="f_j" unicode="fj" horiz-adv-x="510" 
d="M302 -250v60q23 0 37 13t14 37v518h-166v-378h-95v378h-60v72h60v147q0 74 43 117.5t116 43.5q34 0 55 -10v-77q-16 9 -38 9q-37 0 -59 -23t-22 -60v-147h257v-592q0 -52 -27.5 -82.5t-77.5 -30.5q-24 0 -37 5zM341 585q0 24 17 40.5t41 16.5t40.5 -16.5t16.5 -40.5
t-16.5 -41t-40.5 -17t-41 17t-17 41z" />
    <glyph glyph-name="afii10104_afii10104" unicode="&#x457;&#x457;" horiz-adv-x="446" 
d="M66 0v450h91v-450h-91zM-23 561q0 23 16 39t39 16t38.5 -16t15.5 -39t-16 -38.5t-38 -15.5q-23 0 -39 15.5t-16 38.5zM289 0v450h91v-450h-91zM360 561q0 23 15.5 39t38.5 16t39 -16t16 -39t-16 -38.5t-39 -15.5q-22 0 -38 15.5t-16 38.5zM169 561q0 23 15.5 39t38.5 16
t39 -16t16 -39t-16 -38.5t-39 -15.5t-38.5 15.5t-15.5 38.5z" />
    <glyph glyph-name="afii10103_afii10104" unicode="&#x456;&#x457;" horiz-adv-x="446" 
d="M66 0v450h91v-450h-91zM54 585q0 24 16.5 40.5t40.5 16.5q25 0 41.5 -16.5t16.5 -40.5t-16.5 -41t-41.5 -17q-24 0 -40.5 17t-16.5 41zM289 0v450h91v-450h-91zM212 561q0 23 15.5 39t38.5 16t38.5 -16t15.5 -39t-16 -38.5t-38 -15.5t-38 15.5t-16 38.5zM360 561
q0 23 15.5 39t38.5 16t39 -16t16 -39t-16 -38.5t-39 -15.5q-22 0 -38 15.5t-16 38.5z" />
    <glyph glyph-name="quoteright_afii10104" unicode="&#x2019;&#x457;" horiz-adv-x="315" 
d="M54 472l-31 31q42 42 51 78q-21 4 -34 19.5t-13 36.5q0 24 16.5 40.5t41.5 16.5q23 0 40 -15.5t17 -49.5q0 -69 -88 -157zM158 0v450h92v-450h-92zM229 561q0 23 15.5 39t38.5 16t39 -16t16 -39t-16 -38.5t-39 -15.5t-38.5 15.5t-15.5 38.5z" />
    <glyph glyph-name="afii10056_afii10056" unicode="&#x407;&#x407;" horiz-adv-x="452" 
d="M66 0v700h94v-700h-94zM-23 798q0 23 16 38.5t39 15.5q22 0 38 -16t16 -38t-16 -38t-38 -16q-23 0 -39 15.5t-16 38.5zM292 0v700h95v-700h-95zM366 798q0 23 16 39t39 16t39 -16t16 -39t-16 -38.5t-39 -15.5t-39 15.5t-16 38.5zM172 798q0 23 15.5 39t38.5 16t39 -16
t16 -39t-16 -38.5t-39 -15.5q-22 0 -38 16t-16 38z" />
    <glyph glyph-name="f_f_j" unicode="ffj" horiz-adv-x="771" 
d="M563 -250v60q23 0 37 13t14 37v518h-166v-378h-95v378h-166v-378h-95v378h-60v72h60v147q0 74 43 117.5t116 43.5q34 0 55 -10v-77q-16 9 -38 9q-37 0 -59 -23t-22 -60v-147h166v147q0 74 43 117.5t116 43.5q34 0 55 -10v-77q-17 9 -38 9q-37 0 -59 -23t-22 -60v-147h257
v-592q0 -52 -27.5 -82.5t-77.5 -30.5q-24 0 -37 5zM602 585q0 24 17 40.5t41 16.5t40.5 -16.5t16.5 -40.5t-16.5 -41t-40.5 -17t-41 17t-17 41z" />
    <glyph glyph-name=".notdef" horiz-adv-x="230" 
 />
    <glyph glyph-name=".null" horiz-adv-x="0" 
 />
    <glyph glyph-name="nonmarkingreturn" horiz-adv-x="333" 
 />
    <glyph glyph-name="space" unicode=" " horiz-adv-x="230" 
 />
    <glyph glyph-name="exclam" unicode="!" horiz-adv-x="223" 
d="M54 49q0 24 16.5 41t40.5 17q25 0 41.5 -17t16.5 -41t-16.5 -40.5t-41.5 -16.5q-24 0 -40.5 16.5t-16.5 40.5zM66 198v502h91v-502h-91z" />
    <glyph glyph-name="quotedbl" unicode="&#x22;" horiz-adv-x="370" 
d="M66 450v250h78v-250h-78zM225 450v250h79v-250h-79z" />
    <glyph glyph-name="numbersign" unicode="#" horiz-adv-x="613" 
d="M332 0l25 167h-157l-26 -167h-92l26 167h-71v72h82l34 221h-82v72h92l26 168h92l-26 -168h158l26 168h92l-27 -168h72v-72h-82l-34 -221h83v-72h-94l-25 -167h-92zM244 460l-34 -221h158l34 221h-158z" />
    <glyph glyph-name="dollar" unicode="$" 
d="M242 -100v93q-122 9 -203 96l59 59q58 -65 144 -71v237q-43 16 -68 28.5t-56 36t-46 57t-15 78.5q0 78 48 133.5t137 59.5v93h52v-94q102 -12 174 -84l-60 -60q-43 47 -114 58v-226q46 -18 70 -29.5t57.5 -35t49 -56.5t15.5 -77q0 -79 -50.5 -137t-141.5 -66v-93h-52z
M388 194q0 35 -24 57.5t-70 41.5v-212q46 10 70 43.5t24 69.5zM155 516q0 -36 22.5 -58.5t64.5 -41.5v205q-44 -8 -65.5 -38.5t-21.5 -66.5z" />
    <glyph glyph-name="percent" unicode="%" horiz-adv-x="876" 
d="M206 0l372 700h92l-372 -700h-92zM37 534q0 77 48.5 125.5t127.5 48.5t127.5 -48.5t48.5 -125.5q0 -78 -48.5 -126.5t-127.5 -48.5t-127.5 48.5t-48.5 126.5zM119 534q0 -47 26 -76.5t68 -29.5t68 29.5t26 76.5t-26 76t-68 29t-68 -29t-26 -76zM487 166q0 78 48.5 126.5
t127.5 48.5q78 0 127 -48.5t49 -126.5q0 -77 -49 -125.5t-127 -48.5q-79 0 -127.5 48.5t-48.5 125.5zM568 166q0 -47 26.5 -76.5t68.5 -29.5q41 0 67.5 29.5t26.5 76.5t-26.5 76.5t-67.5 29.5q-42 0 -68.5 -29.5t-26.5 -76.5z" />
    <glyph glyph-name="ampersand" unicode="&#x26;" horiz-adv-x="597" 
d="M330 340v77h230v-77h-67v-134q0 -95 -62.5 -154.5t-162.5 -59.5t-162 59.5t-62 154.5q0 61 28 106t78 68q-79 44 -79 142q0 83 54.5 134.5t142.5 51.5t143 -51.5t55 -134.5h-95q0 46 -28.5 75t-74.5 29q-45 0 -74 -29t-29 -75t29 -75.5t74 -29.5h27v-77h-27
q-58 0 -94 -37.5t-36 -96.5t36 -96t94 -37t94 37t36 96v134h-68z" />
    <glyph glyph-name="quotesingle" unicode="'" horiz-adv-x="210" 
d="M66 450v250h78v-250h-78z" />
    <glyph glyph-name="parenleft" unicode="(" horiz-adv-x="295" 
d="M251 758v-69q-42 0 -72 -124t-30 -315t30 -315.5t72 -124.5v-68q-84 0 -140.5 142t-56.5 366t56.5 366t140.5 142z" />
    <glyph glyph-name="parenright" unicode=")" horiz-adv-x="295" 
d="M44 689v69q84 0 140.5 -142t56.5 -366t-56.5 -366t-140.5 -142v68q42 0 72 124.5t30 315.5t-30 315t-72 124z" />
    <glyph glyph-name="asterisk" unicode="*" horiz-adv-x="448" 
d="M224 460l-79 -110l-55 40l79 110l-129 42l22 64l128 -41v135h68v-135l129 42l21 -64l-129 -43l80 -110l-56 -39z" />
    <glyph glyph-name="plus" unicode="+" horiz-adv-x="430" 
d="M54 253v72h125v125h72v-125h125v-72h-125v-126h-72v126h-125z" />
    <glyph glyph-name="comma" unicode="," horiz-adv-x="223" 
d="M81 -115l-31 30q42 44 51 78q-20 4 -33.5 19.5t-13.5 36.5q0 24 16.5 41t41.5 17q23 0 40 -16t17 -50q0 -70 -88 -156z" />
    <glyph glyph-name="hyphen" unicode="-" horiz-adv-x="340" 
d="M54 230v72h232v-72h-232z" />
    <glyph glyph-name="period" unicode="." horiz-adv-x="223" 
d="M54 49q0 24 16.5 41t40.5 17q25 0 41.5 -17t16.5 -41t-16.5 -40.5t-41.5 -16.5q-24 0 -40.5 16.5t-16.5 40.5z" />
    <glyph glyph-name="slash" unicode="/" horiz-adv-x="556" 
d="M46 -50l372 800h92l-372 -800h-92z" />
    <glyph glyph-name="zero" unicode="0" horiz-adv-x="563" 
d="M47 350q0 160 65 259t170 99t169.5 -99t64.5 -259t-64.5 -259t-169.5 -99t-170 99t-65 259zM142 350q0 -123 39 -200t101 -77t101 77t39 200t-39 199.5t-101 76.5t-101 -76.5t-39 -199.5z" />
    <glyph glyph-name="one" unicode="1" horiz-adv-x="327" 
d="M32 600v72l201 32v-704h-91v619z" />
    <glyph glyph-name="two" unicode="2" horiz-adv-x="520" 
d="M45 78l300 300q36 38 36 106q0 63 -34.5 102.5t-89.5 39.5t-89.5 -39.5t-34.5 -102.5h-94q0 100 60 162t158 62t158.5 -62t60.5 -162q0 -99 -67 -168l-238 -238h305v-78h-431v78z" />
    <glyph glyph-name="three" unicode="3" horiz-adv-x="535" 
d="M220 340v77h46q46 0 74.5 29.5t28.5 75.5t-28.5 75t-74.5 29q-45 0 -73.5 -29t-28.5 -75h-95q0 83 54.5 134.5t142.5 51.5t143 -51.5t55 -134.5q0 -98 -79 -142q50 -23 78 -68t28 -106q0 -95 -62.5 -154.5t-162.5 -59.5t-162 59.5t-62 154.5h95q0 -59 36 -96t93 -37
q58 0 94 37t36 96t-36 96.5t-94 37.5h-46z" />
    <glyph glyph-name="four" unicode="4" horiz-adv-x="555" 
d="M353 0v130h-316v43l312 527h93v-491h60v-79h-57v-130h-92zM151 209h206v353z" />
    <glyph glyph-name="five" unicode="5" horiz-adv-x="529" 
d="M476 216q0 -100 -60.5 -162t-158.5 -62q-97 0 -157.5 59t-60.5 154h91q0 -58 35.5 -94.5t91.5 -36.5q55 0 89.5 39.5t34.5 102.5q0 69 -39.5 112t-102.5 43q-67 0 -106 -41l-67 24l42 346h315v-79h-234l-25 -186q34 17 80 17q104 0 168 -65t64 -171z" />
    <glyph glyph-name="six" unicode="6" horiz-adv-x="530" 
d="M290 708l78 -45q-106 -135 -167 -246q30 14 65 14q99 0 160.5 -60t61.5 -158q0 -99 -62 -160t-162 -61t-161 61.5t-61 166.5q0 100 54.5 200.5t193.5 287.5zM137 213q0 -62 35.5 -101t92.5 -39t92.5 39t35.5 101t-35.5 101t-92.5 39t-92.5 -39t-35.5 -101z" />
    <glyph glyph-name="seven" unicode="7" horiz-adv-x="529" 
d="M47 621v79h435v-30l-244 -670h-98l224 621h-317z" />
    <glyph glyph-name="eight" unicode="8" horiz-adv-x="536" 
d="M71 522q0 83 54.5 134.5t142.5 51.5t143 -51.5t55 -134.5q0 -98 -80 -142q107 -49 107 -174q0 -95 -62.5 -154.5t-162.5 -59.5t-162 59.5t-62 154.5q0 126 105 174q-78 43 -78 142zM138 206q0 -59 36 -96t94 -37t94 37t36 96t-36 96t-94 37t-94 -37t-36 -96zM165 522
q0 -46 29 -75t74 -29q46 0 74.5 29t28.5 75t-28.5 75t-74.5 29q-45 0 -74 -29t-29 -75z" />
    <glyph glyph-name="nine" unicode="9" horiz-adv-x="530" 
d="M240 -8l-78 45q102 131 166 246q-30 -15 -64 -15q-99 0 -160.5 60t-61.5 159t62 160t162 61t161 -61.5t61 -166.5q0 -101 -54 -200.5t-194 -287.5zM393 487q0 62 -35.5 100.5t-92.5 38.5t-92.5 -38.5t-35.5 -100.5t35.5 -101t92.5 -39t92.5 39t35.5 101z" />
    <glyph glyph-name="colon" unicode=":" horiz-adv-x="223" 
d="M54 49q0 24 16.5 41t40.5 17q25 0 41.5 -17t16.5 -41t-16.5 -40.5t-41.5 -16.5q-24 0 -40.5 16.5t-16.5 40.5zM54 401q0 24 16.5 40.5t40.5 16.5q25 0 41.5 -16.5t16.5 -40.5t-16.5 -41t-41.5 -17q-24 0 -40.5 17t-16.5 41z" />
    <glyph glyph-name="semicolon" unicode=";" horiz-adv-x="223" 
d="M54 401q0 24 16.5 40.5t40.5 16.5q25 0 41.5 -16.5t16.5 -40.5t-16.5 -41t-41.5 -17q-24 0 -40.5 17t-16.5 41zM81 -115l-31 30q42 44 51 78q-20 4 -33.5 19.5t-13.5 36.5q0 24 16.5 41t41.5 17q23 0 40 -16t17 -50q0 -70 -88 -156z" />
    <glyph glyph-name="less" unicode="&#x3c;" horiz-adv-x="410" 
d="M316 107l-286 193l286 192l53 -53l-210 -139l210 -140z" />
    <glyph glyph-name="equal" unicode="=" horiz-adv-x="467" 
d="M54 317v72h359v-72h-359zM54 141v72h359v-72h-359z" />
    <glyph glyph-name="greater" unicode="&#x3e;" horiz-adv-x="410" 
d="M376 300l-286 -193l-53 53l210 140l-210 139l53 53z" />
    <glyph glyph-name="question" unicode="?" horiz-adv-x="474" 
d="M93 574l-59 59q83 75 196 75q94 0 148 -53t54 -130q0 -40 -16 -70t-38.5 -48.5l-45 -36.5t-38.5 -47t-16 -67v-58h-92v58q0 49 15.5 86.5t38 59t45 39t38 38t15.5 45.5q0 39 -28.5 70.5t-81.5 31.5q-80 0 -135 -52zM175 49q0 24 16.5 41t40.5 17t41 -17t17 -41t-17 -40.5
t-41 -16.5t-40.5 16.5t-16.5 40.5z" />
    <glyph glyph-name="at" unicode="@" horiz-adv-x="1040" 
d="M819 -65l58 -57q-63 -66 -155 -101t-199 -35q-215 0 -348 134t-133 349t133 349t347 134q213 0 344.5 -127.5t131.5 -316.5q0 -73 -21 -128.5t-56 -85.5t-73 -44t-78 -14q-89 0 -122 53q-55 -53 -139 -53q-95 0 -154 64.5t-59 168.5t65.5 168.5t171.5 64.5q129 0 195 -80
v-250q0 -26 17.5 -40.5t43.5 -14.5q46 0 80 44.5t34 135.5q0 163 -104.5 268t-275.5 105q-172 0 -279 -111t-107 -290t107 -290.5t282 -111.5q86 0 164 29t129 83zM391 225q0 -67 39.5 -109.5t102.5 -42.5q66 0 103 39v232q-38 32 -105 32q-63 0 -101.5 -41.5t-38.5 -109.5z
" />
    <glyph glyph-name="A" unicode="A" horiz-adv-x="755" 
d="M623 0l-80 185h-331l-80 -185h-110l311 700h89l311 -700h-110zM378 578l-132 -308h262z" />
    <glyph glyph-name="B" unicode="B" horiz-adv-x="550" 
d="M67 0v700h203q86 0 139 -49.5t53 -132.5q0 -99 -76 -148q53 -21 83 -66.5t30 -108.5q0 -89 -56.5 -142t-148.5 -53h-227zM405 202q0 53 -32 86t-83 33h-125v-239h125q51 0 83 33t32 87zM367 510q0 49 -28.5 78.5t-75.5 29.5h-98v-216h98q46 0 75 30t29 78z" />
    <glyph glyph-name="C" unicode="C" horiz-adv-x="696" 
d="M145 350q0 -121 72.5 -197t188.5 -76q120 0 193 75l60 -60q-98 -100 -257 -100q-158 0 -256.5 99t-98.5 259t98.5 259t256.5 99q159 0 257 -100l-60 -61q-73 76 -193 76q-116 0 -188.5 -76t-72.5 -197z" />
    <glyph glyph-name="D" unicode="D" horiz-adv-x="695" 
d="M67 0v700h226q159 0 257 -95.5t98 -254.5t-98 -254.5t-257 -95.5h-226zM549 350q0 121 -71 194.5t-185 73.5h-128v-536h128q114 0 185 73.5t71 194.5z" />
    <glyph glyph-name="E" unicode="E" horiz-adv-x="491" 
d="M162 621v-230h248v-79h-248v-234h285v-78h-380v700h375v-79h-280z" />
    <glyph glyph-name="F" unicode="F" horiz-adv-x="466" 
d="M162 621v-230h233v-79h-233v-312h-95v700h361v-79h-266z" />
    <glyph glyph-name="G" unicode="G" horiz-adv-x="727" 
d="M402 297v79h257v-284q-97 -100 -257 -100q-158 0 -256.5 99t-98.5 259t98.5 259t256.5 99q159 0 257 -100l-60 -61q-73 76 -193 76q-116 0 -188.5 -76t-72.5 -197t72.5 -197t188.5 -76q93 0 159 49v171h-163z" />
    <glyph glyph-name="H" unicode="H" horiz-adv-x="687" 
d="M162 700v-309h363v309h94v-700h-94v312h-363v-312h-95v700h95z" />
    <glyph glyph-name="I" unicode="I" horiz-adv-x="226" 
d="M66 0v700h94v-700h-94z" />
    <glyph glyph-name="J" unicode="J" horiz-adv-x="451" 
d="M291 193v507h95v-507q0 -90 -56 -145.5t-146 -55.5q-91 0 -147 56l61 61q30 -32 82 -32q49 0 80 32t31 84z" />
    <glyph glyph-name="K" unicode="K" horiz-adv-x="607" 
d="M66 0v700h94v-700h-94zM461 0l-298 360l277 340h119l-277 -340l301 -360h-122z" />
    <glyph glyph-name="L" unicode="L" horiz-adv-x="463" 
d="M162 700v-622h264v-78h-359v700h95z" />
    <glyph glyph-name="M" unicode="M" horiz-adv-x="803" 
d="M640 0v506l-220 -352h-38l-220 352v-506h-95v700h72l262 -410l263 410h71v-700h-95z" />
    <glyph glyph-name="N" unicode="N" horiz-adv-x="710" 
d="M67 700h63l418 -519v519h95v-700h-63l-418 519v-519h-95v700z" />
    <glyph glyph-name="O" unicode="O" horiz-adv-x="803" 
d="M47 350q0 160 98.5 259t256.5 99t256 -99t98 -259t-98 -259t-256 -99t-256.5 99t-98.5 259zM145 350q0 -121 71.5 -197t185.5 -76t185 75.5t71 197.5t-71 197.5t-185 75.5t-185.5 -76t-71.5 -197z" />
    <glyph glyph-name="P" unicode="P" horiz-adv-x="524" 
d="M67 0v700h198q95 0 153.5 -55t58.5 -146q0 -90 -58.5 -145t-153.5 -55h-100v-299h-98zM379 499q0 54 -31.5 86.5t-82.5 32.5h-100v-237h100q51 0 82.5 32.5t31.5 85.5z" />
    <glyph glyph-name="Q" unicode="Q" horiz-adv-x="803" 
d="M707 -24l-85 85q-91 -69 -220 -69q-158 0 -256.5 99t-98.5 259t98.5 259t256.5 99t256 -99t98 -259q0 -135 -73 -229l85 -85zM145 350q0 -122 71 -197.5t185 -75.5q100 0 159 46l-108 109l60 59l100 -100q46 67 46 159q0 122 -71 197.5t-186 75.5q-114 0 -185 -75.5
t-71 -197.5z" />
    <glyph glyph-name="R" unicode="R" 
d="M408 0l-158 299h-85v-299h-98v700h206q96 0 154 -55t58 -146q0 -72 -37.5 -122.5t-103.5 -68.5l172 -308h-108zM387 499q0 54 -31.5 86.5t-82.5 32.5h-108v-237h108q51 0 82.5 32.5t31.5 85.5z" />
    <glyph glyph-name="S" unicode="S" 
d="M468 622l-60 -60q-24 26 -63.5 43.5t-77.5 17.5q-56 0 -84 -33t-28 -74t34 -68.5t82.5 -45.5t97.5 -39t83 -63t34 -104q0 -86 -58 -145t-162 -59q-135 0 -227 97l59 59q65 -71 159 -71q64 0 97.5 36.5t33.5 80.5q0 29 -18.5 51t-47.5 36t-64.5 27t-70.5 29t-64 37.5
t-47.5 57t-18.5 82.5q0 82 52 138t148 56q127 0 211 -86z" />
    <glyph glyph-name="T" unicode="T" horiz-adv-x="557" 
d="M326 621v-621h-95v621h-194v79h483v-79h-194z" />
    <glyph glyph-name="U" unicode="U" horiz-adv-x="665" 
d="M503 256v444h95v-444q0 -118 -73.5 -191t-192.5 -73t-192 73t-73 191v444h95v-444q0 -79 47 -129t122 -50q76 0 124 49.5t48 129.5z" />
    <glyph glyph-name="V" unicode="V" horiz-adv-x="755" 
d="M733 700l-311 -700h-89l-311 700h112l244 -576l243 576h112z" />
    <glyph glyph-name="W" unicode="W" horiz-adv-x="1119" 
d="M1097 700l-258 -700h-95l-185 536l-183 -536h-96l-258 700h111l195 -552l183 552h98l183 -552l195 552h110z" />
    <glyph glyph-name="X" unicode="X" horiz-adv-x="728" 
d="M582 0l-218 291l-218 -291h-122l270 355l-262 345h122l210 -280l209 280h123l-263 -345l271 -355h-122z" />
    <glyph glyph-name="Y" unicode="Y" horiz-adv-x="673" 
d="M288 0v295l-266 405h110l204 -312l204 312h110l-267 -406v-294h-95z" />
    <glyph glyph-name="Z" unicode="Z" horiz-adv-x="626" 
d="M53 621v79h524v-30l-391 -592h393v-78h-532v30l391 591h-385z" />
    <glyph glyph-name="bracketleft" unicode="[" horiz-adv-x="298" 
d="M254 750v-72h-97v-856h97v-72h-188v1000h188z" />
    <glyph glyph-name="backslash" unicode="\" horiz-adv-x="556" 
d="M138 750l372 -800h-92l-372 800h92z" />
    <glyph glyph-name="bracketright" unicode="]" horiz-adv-x="298" 
d="M44 678v72h188v-1000h-188v72h97v856h-97z" />
    <glyph glyph-name="asciicircum" unicode="^" horiz-adv-x="446" 
d="M223 685l192 -193l-46 -46l-146 146l-146 -146l-47 46z" />
    <glyph glyph-name="underscore" unicode="_" horiz-adv-x="450" 
d="M0 -172v72h450v-72h-450z" />
    <glyph glyph-name="grave" unicode="`" horiz-adv-x="266" 
d="M90 685l132 -132l-46 -47l-132 132z" />
    <glyph glyph-name="a" unicode="a" horiz-adv-x="457" 
d="M414 60v-60q-13 -5 -34 -5q-60 0 -83 49q-54 -52 -126 -52q-62 0 -96 37t-34 89q0 69 61.5 108.5t153.5 39.5q18 0 32 -2v44q0 29 -21 52t-61 23q-60 0 -93 -35l-50 49q61 61 150 61q78 0 122.5 -43.5t44.5 -106.5v-212q0 -17 9.5 -26.5t24.5 -9.5zM201 67q53 0 87 38v97
q-11 3 -27 3q-55 0 -91.5 -21t-36.5 -56q0 -24 16.5 -42.5t51.5 -18.5z" />
    <glyph glyph-name="b" unicode="b" 
d="M260 -8q-131 0 -194 80v678h91v-325q52 33 120 33q98 0 159.5 -64.5t61.5 -168.5t-66 -168.5t-172 -64.5zM403 225q0 67 -39 109t-101 42q-69 0 -106 -45v-226q38 -32 105 -32q63 0 102 42t39 110z" />
    <glyph glyph-name="c" unicode="c" horiz-adv-x="474" 
d="M137 225q0 -67 39.5 -109.5t102.5 -42.5q68 0 106 43l56 -57q-64 -67 -167 -67q-104 0 -168 64.5t-64 168.5t64 168.5t168 64.5q102 0 167 -68l-56 -57q-38 43 -106 43q-63 0 -102.5 -42t-39.5 -109z" />
    <glyph glyph-name="d" unicode="d" horiz-adv-x="541" 
d="M475 0h-92v34q-54 -42 -128 -42q-95 0 -154 64.5t-59 168.5t63 168.5t166 64.5q61 0 112 -28v320h92v-750zM137 225q0 -67 39.5 -109.5t102.5 -42.5q66 0 104 40v226q-39 37 -104 37q-63 0 -102.5 -42t-39.5 -109z" />
    <glyph glyph-name="e" unicode="e" horiz-adv-x="506" 
d="M467 199h-328q7 -58 45 -92t99 -34q69 0 109 43l55 -57q-64 -67 -170 -67q-105 0 -170 64.5t-65 171.5q0 102 60 166t158 64q99 0 153 -69t54 -190zM262 378q-49 0 -82 -31t-41 -84h236q-6 54 -35 84.5t-78 30.5z" />
    <glyph glyph-name="f" unicode="f" horiz-adv-x="331" 
d="M32 378v72h60v147q0 74 43 117.5t116 43.5q34 0 55 -10v-77q-16 9 -38 9q-37 0 -59 -23t-22 -60v-147h119v-72h-119v-378h-95v378h-60z" />
    <glyph glyph-name="g" unicode="g" horiz-adv-x="513" 
d="M19 -115q0 84 98 121q-53 26 -53 74q0 50 58 76q-73 40 -73 135q0 75 50.5 121t132.5 46q76 0 126 -41q35 41 78 41q18 0 26 -2v-73q-11 3 -21 3q-22 0 -42 -22q15 -32 15 -71q0 -73 -51 -118.5t-133 -45.5q-37 0 -57.5 -13t-20.5 -33t25.5 -32.5t68.5 -12.5
q99 0 158.5 -39t59.5 -103q0 -68 -66.5 -111t-167.5 -43q-96 0 -153.5 39.5t-57.5 103.5zM113 -115q0 -33 31 -53t85 -20q59 0 99.5 23t40.5 59q0 33 -33.5 52.5t-88.5 19.5q-60 0 -97 -22.5t-37 -58.5zM140 293q0 -41 26 -66.5t67 -25.5t66.5 25.5t25.5 66.5t-25.5 67
t-66.5 26t-67 -26t-26 -67z" />
    <glyph glyph-name="h" unicode="h" horiz-adv-x="520" 
d="M66 750h91v-335q52 43 127 43q77 0 123 -52t46 -136v-270h-92v270q0 47 -27.5 76.5t-72.5 29.5q-66 0 -104 -41v-335h-91v750z" />
    <glyph glyph-name="i" unicode="i" horiz-adv-x="223" 
d="M66 0v450h91v-450h-91zM54 585q0 24 16.5 40.5t40.5 16.5q25 0 41.5 -16.5t16.5 -40.5t-16.5 -41t-41.5 -17q-24 0 -40.5 17t-16.5 41z" />
    <glyph glyph-name="j" unicode="j" horiz-adv-x="223" 
d="M54 585q0 24 16.5 40.5t40.5 16.5q25 0 41.5 -16.5t16.5 -40.5t-16.5 -41t-41.5 -17q-24 0 -40.5 17t-16.5 41zM15 -250v60q23 0 37 13t14 37v590h91v-592q0 -52 -28 -82.5t-77 -30.5q-24 0 -37 5z" />
    <glyph glyph-name="k" unicode="k" horiz-adv-x="474" 
d="M157 0h-91v750h91v-494l163 194h109l-180 -210l201 -240h-109l-184 223v-223z" />
    <glyph glyph-name="l" unicode="l" horiz-adv-x="251" 
d="M212 60v-60q-15 -5 -41 -5q-49 0 -77 30.5t-28 82.5v642h91v-640q0 -24 15 -37t40 -13z" />
    <glyph glyph-name="m" unicode="m" horiz-adv-x="760" 
d="M603 0v297q0 35 -20.5 57t-52.5 22q-67 0 -108 -36q4 -28 4 -43v-297h-92v297q0 35 -20 57t-53 22q-66 0 -104 -41v-335h-91v450h91v-35q52 43 127 43q76 0 116 -61q59 61 153 61q64 0 102.5 -44.5t38.5 -116.5v-297h-91z" />
    <glyph glyph-name="n" unicode="n" horiz-adv-x="519" 
d="M66 450h91v-35q52 43 127 43q77 0 123 -52t46 -136v-270h-92v270q0 47 -27.5 76.5t-72.5 29.5q-66 0 -104 -41v-335h-91v450z" />
    <glyph glyph-name="o" unicode="o" horiz-adv-x="553" 
d="M42 225q0 104 65 168.5t170 64.5t169.5 -64.5t64.5 -168.5t-64.5 -168.5t-169.5 -64.5t-170 64.5t-65 168.5zM137 225q0 -68 39 -110t101 -42t101 42t39 110q0 67 -39 109t-101 42t-101 -42t-39 -109z" />
    <glyph glyph-name="p" unicode="p" horiz-adv-x="541" 
d="M66 450h91v-35q54 43 128 43q96 0 155 -64.5t59 -168.5t-63.5 -168.5t-165.5 -64.5q-63 0 -113 28v-270h-91v700zM404 225q0 67 -39.5 109t-103.5 42q-66 0 -104 -41v-223q37 -39 104 -39q64 0 103.5 42t39.5 110z" />
    <glyph glyph-name="q" unicode="q" 
d="M280 458q130 0 194 -80v-628h-92v275q-50 -33 -120 -33q-98 0 -159 64.5t-61 168.5t65.5 168.5t172.5 64.5zM137 225q0 -68 39 -110t101 -42q66 0 105 45v226q-38 32 -104 32q-64 0 -102.5 -41.5t-38.5 -109.5z" />
    <glyph glyph-name="r" unicode="r" horiz-adv-x="346" 
d="M273 457q13 0 28 -3v-80q-15 4 -35 4q-70 0 -109 -59v-319h-91v450h91v-50q52 57 116 57z" />
    <glyph glyph-name="s" unicode="s" horiz-adv-x="386" 
d="M333 402l-56 -56q-33 35 -79 35q-28 0 -42.5 -17t-14.5 -37q0 -23 21 -39t50.5 -27t59.5 -24.5t51 -40.5t21 -65q0 -58 -41 -98.5t-114 -40.5q-95 0 -153 63l56 56q38 -43 91 -43q34 0 51.5 19.5t17.5 42.5q0 22 -21 37t-50.5 26t-59 24.5t-50.5 40.5t-21 67
q0 56 36.5 94.5t104.5 38.5q88 0 142 -56z" />
    <glyph glyph-name="t" unicode="t" horiz-adv-x="326" 
d="M30 378v72h55v100h95v-100h111v-72h-111v-231q0 -35 20 -56t54 -21q20 0 37 9v-77q-21 -10 -54 -10q-70 0 -111 42t-41 113v231h-55z" />
    <glyph glyph-name="u" unicode="u" horiz-adv-x="527" 
d="M461 450v-262q0 -88 -54.5 -142t-143.5 -54q-88 0 -142.5 54t-54.5 142v262h94v-262q0 -51 29.5 -83t76.5 -32t76 32t29 83v262h90z" />
    <glyph glyph-name="v" unicode="v" horiz-adv-x="529" 
d="M510 450l-203 -450h-86l-202 450h102l143 -336l144 336h102z" />
    <glyph glyph-name="w" unicode="w" horiz-adv-x="790" 
d="M771 450l-172 -450h-96l-108 321l-108 -321h-96l-172 450h105l115 -338l110 338h92l110 -338l115 338h105z" />
    <glyph glyph-name="x" unicode="x" horiz-adv-x="519" 
d="M389 0l-130 172l-129 -172h-106l175 230l-167 220h106l121 -162l121 162h106l-168 -220l177 -230h-106z" />
    <glyph glyph-name="y" unicode="y" horiz-adv-x="529" 
d="M510 450l-320 -700h-101l132 250l-202 450h102l144 -340l143 340h102z" />
    <glyph glyph-name="z" unicode="z" horiz-adv-x="472" 
d="M51 378v72h374v-30l-243 -348h243v-72h-378v30l243 348h-239z" />
    <glyph glyph-name="braceleft" unicode="{" horiz-adv-x="314" 
d="M277 -190v-68q-72 0 -120 63t-48 161v92q0 68 -21.5 112t-50.5 44v69q29 0 50.5 44t21.5 111v96q0 98 48 161t120 63v-69q-30 0 -51.5 -44t-21.5 -111v-96q0 -66 -22.5 -116t-61.5 -74q39 -24 61.5 -74t22.5 -116v-92q0 -68 21.5 -112t51.5 -44z" />
    <glyph glyph-name="bar" unicode="|" horiz-adv-x="223" 
d="M66 -250v1000h91v-1000h-91z" />
    <glyph glyph-name="braceright" unicode="}" horiz-adv-x="314" 
d="M37 -258v68q29 0 50.5 44.5t21.5 111.5v92q0 66 23 115.5t62 74.5q-39 25 -62 74.5t-23 115.5v96q0 67 -21.5 111t-50.5 44v69q71 0 119 -63t48 -161v-96q0 -67 21.5 -111t51.5 -44v-69q-30 0 -51.5 -44t-21.5 -112v-92q0 -98 -48 -161t-119 -63z" />
    <glyph glyph-name="asciitilde" unicode="~" horiz-adv-x="432" 
d="M91 246h-61q0 50 32.5 81.5t80.5 31.5q41 0 80.5 -30t64.5 -30q23 0 38.5 15.5t15.5 40.5h60q0 -50 -32.5 -82t-81.5 -32q-33 0 -57 15.5t-44 30.5t-43 15t-38 -15.5t-15 -40.5z" />
    <glyph glyph-name="exclamdown" unicode="&#xa1;" horiz-adv-x="223" 
d="M54 401q0 24 16.5 40.5t40.5 16.5q25 0 41.5 -16.5t16.5 -40.5t-16.5 -41t-41.5 -17q-24 0 -40.5 17t-16.5 41zM66 252h91v-502h-91v502z" />
    <glyph glyph-name="cent" unicode="&#xa2;" horiz-adv-x="474" 
d="M239 -100v94q-89 11 -143 73.5t-54 157.5t53.5 157.5t143.5 73.5v94h52v-93q89 -4 150 -67l-56 -57q-36 39 -94 42v-302q60 5 94 43l56 -57q-58 -61 -150 -66v-93h-52zM137 225q0 -56 27.5 -95.5t74.5 -51.5v293q-47 -13 -74.5 -51.5t-27.5 -94.5z" />
    <glyph glyph-name="sterling" unicode="&#xa3;" horiz-adv-x="515" 
d="M37 314v72h75v121q0 90 56 145.5t146 55.5q92 0 146 -56l-60 -61q-32 32 -82 32t-81 -32t-31 -84v-121h171v-72h-171v-188q20 -6 65.5 -31.5t72.5 -25.5q24 0 39 15.5t15 40.5h74q0 -60 -35.5 -96.5t-90.5 -36.5q-44 0 -101 32t-83 32q-25 0 -40 -15.5t-15 -40.5h-73
q0 46 21 78.5t57 46.5v189h-75z" />
    <glyph glyph-name="currency" unicode="&#xa4;" 
d="M94 300q0 56 27 97l-84 84l51 51l85 -84q44 26 97 26t97 -26l85 84l51 -51l-84 -84q27 -41 27 -97q0 -55 -27 -98l83 -83l-51 -52l-84 85q-43 -27 -97 -27t-97 27l-84 -85l-51 52l83 83q-27 43 -27 98zM176 300q0 -47 26.5 -76.5t67.5 -29.5q42 0 68 29.5t26 76.5
t-26 76.5t-68 29.5q-41 0 -67.5 -29.5t-26.5 -76.5z" />
    <glyph glyph-name="yen" unicode="&#xa5;" horiz-adv-x="673" 
d="M154 214v52h134v29l-266 405h110l204 -312l204 312h110l-267 -406v-28h134v-52h-134v-74h134v-53h-134v-87h-95v87h-134v53h134v74h-134z" />
    <glyph glyph-name="brokenbar" unicode="&#xa6;" horiz-adv-x="223" 
d="M66 -250v450h91v-450h-91zM157 750v-450h-91v450h91z" />
    <glyph glyph-name="section" unicode="&#xa7;" horiz-adv-x="426" 
d="M173 442l202 -202l-61 -61l-205 204q-67 67 -67 149q0 79 53 127.5t139 48.5q96 0 157 -67l-59 -59q-36 44 -98 44q-43 0 -70 -26.5t-27 -67.5q0 -56 36 -90zM253 8l-202 202l61 61l205 -205q67 -65 67 -148q0 -79 -53 -127.5t-139 -48.5q-96 0 -157 67l59 59
q36 -44 98 -44q43 0 70 26.5t27 67.5q0 52 -36 90z" />
    <glyph glyph-name="dieresis" unicode="&#xa8;" horiz-adv-x="433" 
d="M64 572q0 22 16 38t38 16t38 -16t16 -38q0 -23 -15.5 -39t-38.5 -16t-38.5 16t-15.5 39zM254 572q0 23 15.5 39t38.5 16t39 -16t16 -39t-16 -39t-39 -16t-38.5 16t-15.5 39z" />
    <glyph glyph-name="copyright" unicode="&#xa9;" horiz-adv-x="803" 
d="M47 350q0 160 98.5 259t256.5 99t256 -99t98 -259t-98 -259t-256 -99t-256.5 99t-98.5 259zM116 350q0 -135 79.5 -219.5t206.5 -84.5t206 84.5t79 219.5t-79 219.5t-206 84.5t-206.5 -84.5t-79.5 -219.5zM288 350q0 -58 34.5 -94.5t90.5 -36.5q57 0 91 36l35 -34
q-50 -50 -129 -50q-80 0 -129.5 49.5t-49.5 129.5t49.5 129.5t129.5 49.5q79 0 129 -50l-35 -34q-36 36 -91 36q-56 0 -90.5 -36.5t-34.5 -94.5z" />
    <glyph glyph-name="ordfeminine" unicode="&#xaa;" horiz-adv-x="262" 
d="M235 489v-37q-7 -3 -20 -3q-35 0 -48 27q-31 -29 -69 -29q-34 0 -53 20.5t-19 49.5q0 39 34 61t84 22q11 0 17 -2v21q0 15 -11 27.5t-32 12.5q-31 0 -50 -19l-30 29q37 35 85 35q43 0 68.5 -24.5t25.5 -60.5v-111q0 -19 18 -19zM116 493q29 0 45 20v48q-8 2 -14 2
q-28 0 -46 -11t-18 -29q0 -30 33 -30z" />
    <glyph glyph-name="guillemotleft" unicode="&#xab;" horiz-adv-x="470" 
d="M203 77l-173 173l173 172l46 -46l-126 -126l126 -126zM376 77l-173 173l173 172l46 -46l-126 -126l126 -126z" />
    <glyph glyph-name="logicalnot" unicode="&#xac;" horiz-adv-x="500" 
d="M54 264v72h392v-186h-72v114h-320z" />
    <glyph glyph-name="uni00AD" unicode="&#xad;" horiz-adv-x="340" 
d="M54 230v72h232v-72h-232z" />
    <glyph glyph-name="registered" unicode="&#xae;" horiz-adv-x="803" 
d="M47 350q0 160 98.5 259t256.5 99t256 -99t98 -259t-98 -259t-256 -99t-256.5 99t-98.5 259zM116 350q0 -135 79.5 -219.5t206.5 -84.5t206 84.5t79 219.5t-79 219.5t-206 84.5t-206.5 -84.5t-79.5 -219.5zM466 174l-76 147h-37v-147h-56v350h106q49 0 79 -28t30 -74
q0 -74 -68 -95l84 -153h-62zM455 422q0 25 -14.5 40t-37.5 15h-50v-110h50q23 0 37.5 15t14.5 40z" />
    <glyph glyph-name="macron" unicode="&#xaf;" horiz-adv-x="367" 
d="M57 537v56h253v-56h-253z" />
    <glyph glyph-name="degree" unicode="&#xb0;" horiz-adv-x="288" 
d="M42 600q0 47 28.5 76t74.5 29t74 -29t28 -76t-28 -76t-74 -29t-74.5 29t-28.5 76zM89 600q0 -25 15.5 -41t40.5 -16t40.5 16t15.5 41t-16 41t-40 16q-25 0 -40.5 -16t-15.5 -41z" />
    <glyph glyph-name="plusminus" unicode="&#xb1;" horiz-adv-x="430" 
d="M54 266v72h125v125h72v-125h125v-72h-125v-126h-72v126h-125zM54 37v72h322v-72h-322z" />
    <glyph glyph-name="twosuperior" unicode="&#xb2;" horiz-adv-x="281" 
d="M30 394l149 149q17 17 17 48q0 29 -15.5 47.5t-40.5 18.5q-26 0 -42 -18.5t-16 -47.5h-54q0 50 31 81.5t81 31.5q49 0 79.5 -31.5t30.5 -81.5t-34 -84l-113 -112h147v-45h-220v44z" />
    <glyph glyph-name="threesuperior" unicode="&#xb3;" horiz-adv-x="289" 
d="M121 517v44h23q22 0 35 13.5t13 35.5q0 21 -13 34t-35 13q-21 0 -34 -13t-13 -34h-55q0 41 28.5 67.5t73.5 26.5q46 0 74 -26.5t28 -67.5q0 -48 -37 -71q49 -26 49 -85q0 -48 -31.5 -78t-82.5 -30t-82.5 30t-31.5 78h55q0 -27 16.5 -44t42.5 -17q27 0 43.5 17t16.5 44
q0 28 -16.5 45.5t-43.5 17.5h-23z" />
    <glyph glyph-name="acute" unicode="&#xb4;" horiz-adv-x="266" 
d="M44 553l132 132l46 -47l-132 -132z" />
    <glyph glyph-name="mu" unicode="&#xb5;" horiz-adv-x="527" 
d="M15 -200v60q23 0 37 13t14 37v540h94v-262q0 -51 29.5 -83t76.5 -32t76 32t29 83v262h90v-262q0 -88 -54.5 -142t-143.5 -54q-60 0 -106 26v-110q0 -52 -28 -82.5t-77 -30.5q-24 0 -37 5z" />
    <glyph glyph-name="paragraph" unicode="&#xb6;" horiz-adv-x="599" 
d="M368 700v-700h-88v312h-26q-93 0 -149 53t-56 141t56 141t149 53h114zM445 0v700h88v-700h-88z" />
    <glyph glyph-name="periodcentered" unicode="&#xb7;" horiz-adv-x="223" 
d="M54 250q0 24 16.5 40.5t40.5 16.5q25 0 41.5 -16.5t16.5 -40.5t-16.5 -41t-41.5 -17q-24 0 -40.5 17t-16.5 41z" />
    <glyph glyph-name="cedilla" unicode="&#xb8;" horiz-adv-x="268" 
d="M147 0v-57q66 -13 66 -79q0 -37 -24 -59.5t-62 -22.5q-39 0 -62 25l29 29q13 -13 33 -13t33 12t13 31q0 45 -65 45v89h39z" />
    <glyph glyph-name="onesuperior" unicode="&#xb9;" horiz-adv-x="187" 
d="M26 645v41l107 17v-353h-52v304z" />
    <glyph glyph-name="ordmasculine" unicode="&#xba;" horiz-adv-x="315" 
d="M27 576q0 57 36 92.5t94 35.5t94 -35.5t36 -92.5q0 -58 -36 -93.5t-94 -35.5t-94 35.5t-36 93.5zM85 576q0 -35 20 -57t52 -22t52.5 22t20.5 57t-20.5 57t-52.5 22q-31 0 -51.5 -22t-20.5 -57z" />
    <glyph glyph-name="guillemotright" unicode="&#xbb;" horiz-adv-x="470" 
d="M436 250l-173 -173l-46 47l126 126l-126 126l46 46zM263 250l-173 -173l-46 47l126 126l-126 126l46 46z" />
    <glyph glyph-name="onequarter" unicode="&#xbc;" horiz-adv-x="637" 
d="M26 645v41l107 17v-353h-52v304zM92 0l372 700h67l-372 -700h-67zM521 0v64h-157v23l155 263h52v-242h30v-44h-28v-64h-52zM430 108h93v163z" />
    <glyph glyph-name="onehalf" unicode="&#xbd;" horiz-adv-x="690" 
d="M26 645v41l107 17v-353h-52v304zM92 0l372 700h67l-372 -700h-67zM439 44l149 149q17 17 17 48q0 29 -15.5 47.5t-40.5 18.5q-26 0 -42 -18.5t-16 -47.5h-54q0 50 31 81.5t81 31.5q49 0 79.5 -31.5t30.5 -81.5t-34 -84l-113 -112h147v-45h-220v44z" />
    <glyph glyph-name="threequarters" unicode="&#xbe;" horiz-adv-x="659" 
d="M121 517v44h23q22 0 35 13.5t13 35.5q0 21 -13 34t-35 13q-21 0 -34 -13t-13 -34h-55q0 41 28.5 67.5t73.5 26.5q46 0 74 -26.5t28 -67.5q0 -48 -37 -71q49 -26 49 -85q0 -48 -31.5 -78t-82.5 -30t-82.5 30t-31.5 78h55q0 -27 16.5 -44t42.5 -17q27 0 43.5 17t16.5 44
q0 28 -16.5 45.5t-43.5 17.5h-23zM137 0l372 700h66l-371 -700h-67zM543 0v64h-157v23l155 263h52v-242h30v-44h-28v-64h-52zM452 108h93v163z" />
    <glyph glyph-name="questiondown" unicode="&#xbf;" horiz-adv-x="474" 
d="M381 -124l60 -59q-84 -75 -197 -75q-94 0 -148 53t-54 129q0 40 16 70t38.5 49l45 37t38.5 47t16 67v58h92v-58q0 -49 -15.5 -86.5t-37.5 -59t-44.5 -39t-38 -38t-15.5 -45.5q0 -40 28 -71.5t82 -31.5q78 0 134 53zM300 401q0 -24 -17 -41t-41 -17t-40.5 17t-16.5 41
t16.5 40.5t40.5 16.5t41 -16.5t17 -40.5z" />
    <glyph glyph-name="Agrave" unicode="&#xc0;" horiz-adv-x="755" 
d="M623 0l-80 185h-331l-80 -185h-110l311 700h89l311 -700h-110zM378 578l-132 -308h262zM315 911l132 -132l-47 -46l-132 132z" />
    <glyph glyph-name="Aacute" unicode="&#xc1;" horiz-adv-x="755" 
d="M623 0l-80 185h-331l-80 -185h-110l311 700h89l311 -700h-110zM378 578l-132 -308h262zM308 779l132 132l47 -46l-132 -132z" />
    <glyph glyph-name="Acircumflex" unicode="&#xc2;" horiz-adv-x="755" 
d="M623 0l-80 185h-331l-80 -185h-110l311 700h89l311 -700h-110zM378 578l-132 -308h262zM378 911l132 -132l-47 -46l-85 85l-86 -85l-46 46z" />
    <glyph glyph-name="Atilde" unicode="&#xc3;" horiz-adv-x="755" 
d="M623 0l-80 185h-331l-80 -185h-110l311 700h89l311 -700h-110zM378 578l-132 -308h262zM284 759h-50q0 42 25 68t64 26q32 0 60.5 -23.5t47.5 -23.5q17 0 28.5 11.5t11.5 30.5h50q0 -41 -25 -67t-65 -26q-33 0 -60.5 23.5t-46.5 23.5q-17 0 -28.5 -12t-11.5 -31z" />
    <glyph glyph-name="Adieresis" unicode="&#xc4;" horiz-adv-x="755" 
d="M623 0l-80 185h-331l-80 -185h-110l311 700h89l311 -700h-110zM378 578l-132 -308h262zM228 798q0 22 16 38t38 16q23 0 39 -15.5t16 -38.5t-16 -38.5t-39 -15.5q-22 0 -38 16t-16 38zM418 798q0 23 15.5 39t38.5 16t39 -16t16 -39t-16 -38.5t-39 -15.5q-22 0 -38 16
t-16 38z" />
    <glyph glyph-name="Aring" unicode="&#xc5;" horiz-adv-x="755" 
d="M623 0l-80 185h-331l-80 -185h-110l311 700h89l311 -700h-110zM378 578l-132 -308h262zM288 817q0 41 25 66t65 25t64.5 -25t24.5 -66t-24.5 -66.5t-64.5 -25.5t-65 25.5t-25 66.5zM329 816q0 -22 13.5 -36t35.5 -14t35.5 14t13.5 36q0 23 -14 37t-35 14q-22 0 -35.5 -14
t-13.5 -37z" />
    <glyph glyph-name="AE" unicode="&#xc6;" horiz-adv-x="776" 
d="M472 621v-230h226v-79h-226v-234h263v-78h-357v185h-166l-80 -185h-110l311 700h397v-79h-258zM246 270h132v309z" />
    <glyph glyph-name="Ccedilla" unicode="&#xc7;" horiz-adv-x="696" 
d="M145 350q0 -121 72.5 -197t188.5 -76q120 0 193 75l60 -60q-91 -93 -239 -99v-50q66 -13 66 -79q0 -37 -24 -59.5t-62 -22.5q-39 0 -62 25l29 29q13 -13 33 -13t33 12t13 31q0 45 -65 45v82q-150 7 -242 105t-92 252q0 160 98.5 259t256.5 99q159 0 257 -100l-60 -61
q-73 76 -193 76q-116 0 -188.5 -76t-72.5 -197z" />
    <glyph glyph-name="Egrave" unicode="&#xc8;" horiz-adv-x="491" 
d="M162 621v-230h248v-79h-248v-234h285v-78h-380v700h375v-79h-280zM193 911l132 -132l-47 -46l-132 132z" />
    <glyph glyph-name="Eacute" unicode="&#xc9;" horiz-adv-x="491" 
d="M162 621v-230h248v-79h-248v-234h285v-78h-380v700h375v-79h-280zM186 779l132 132l47 -46l-132 -132z" />
    <glyph glyph-name="Ecircumflex" unicode="&#xca;" horiz-adv-x="491" 
d="M162 621v-230h248v-79h-248v-234h285v-78h-380v700h375v-79h-280zM255 911l132 -132l-46 -46l-86 85l-85 -85l-47 46z" />
    <glyph glyph-name="Edieresis" unicode="&#xcb;" horiz-adv-x="491" 
d="M162 621v-230h248v-79h-248v-234h285v-78h-380v700h375v-79h-280zM106 798q0 22 16 38t38 16t38 -16t16 -38t-16 -38t-38 -16t-38 16t-16 38zM296 798q0 23 15.5 39t38.5 16t39 -16t16 -39t-16 -38.5t-39 -15.5q-22 0 -38 16t-16 38z" />
    <glyph glyph-name="Igrave" unicode="&#xcc;" horiz-adv-x="226" 
d="M66 0v700h94v-700h-94zM51 911l132 -132l-47 -46l-132 132z" />
    <glyph glyph-name="Iacute" unicode="&#xcd;" horiz-adv-x="226" 
d="M66 0v700h94v-700h-94zM44 779l132 132l47 -46l-132 -132z" />
    <glyph glyph-name="Icircumflex" unicode="&#xce;" horiz-adv-x="226" 
d="M66 0v700h94v-700h-94zM113 911l132 -132l-46 -46l-86 85l-85 -85l-47 46z" />
    <glyph glyph-name="Idieresis" unicode="&#xcf;" horiz-adv-x="226" 
d="M66 0v700h94v-700h-94zM-23 798q0 23 16 38.5t39 15.5q22 0 38 -16t16 -38t-16 -38t-38 -16q-23 0 -39 15.5t-16 38.5zM140 798q0 23 15.5 39t38.5 16t39 -16t16 -39t-16 -38.5t-39 -15.5q-22 0 -38 16t-16 38z" />
    <glyph glyph-name="Eth" unicode="&#xd0;" horiz-adv-x="705" 
d="M40 314v72h51v314h212q160 0 257.5 -95.5t97.5 -254.5t-97.5 -254.5t-257.5 -95.5h-212v314h-51zM560 350q0 121 -71 194.5t-186 73.5h-114v-232h151v-72h-151v-232h114q115 0 186 73.5t71 194.5z" />
    <glyph glyph-name="Ntilde" unicode="&#xd1;" horiz-adv-x="710" 
d="M67 700h63l418 -519v519h95v-700h-63l-418 519v-519h-95v700zM261 759h-50q0 42 25 68t64 26q32 0 61 -23.5t47 -23.5q17 0 28.5 11.5t11.5 30.5h51q0 -41 -25.5 -67t-65.5 -26q-33 0 -60.5 23.5t-46.5 23.5q-17 0 -28.5 -12t-11.5 -31z" />
    <glyph glyph-name="Ograve" unicode="&#xd2;" horiz-adv-x="803" 
d="M47 350q0 160 98.5 259t256.5 99t256 -99t98 -259t-98 -259t-256 -99t-256.5 99t-98.5 259zM145 350q0 -121 71.5 -197t185.5 -76t185 75.5t71 197.5t-71 197.5t-185 75.5t-185.5 -76t-71.5 -197zM339 911l132 -132l-47 -46l-132 132z" />
    <glyph glyph-name="Oacute" unicode="&#xd3;" horiz-adv-x="803" 
d="M47 350q0 160 98.5 259t256.5 99t256 -99t98 -259t-98 -259t-256 -99t-256.5 99t-98.5 259zM145 350q0 -121 71.5 -197t185.5 -76t185 75.5t71 197.5t-71 197.5t-185 75.5t-185.5 -76t-71.5 -197zM332 779l132 132l47 -46l-132 -132z" />
    <glyph glyph-name="Ocircumflex" unicode="&#xd4;" horiz-adv-x="803" 
d="M47 350q0 160 98.5 259t256.5 99t256 -99t98 -259t-98 -259t-256 -99t-256.5 99t-98.5 259zM145 350q0 -121 71.5 -197t185.5 -76t185 75.5t71 197.5t-71 197.5t-185 75.5t-185.5 -76t-71.5 -197zM402 911l132 -132l-47 -46l-85 85l-86 -85l-46 46z" />
    <glyph glyph-name="Otilde" unicode="&#xd5;" horiz-adv-x="803" 
d="M47 350q0 160 98.5 259t256.5 99t256 -99t98 -259t-98 -259t-256 -99t-256.5 99t-98.5 259zM145 350q0 -121 71.5 -197t185.5 -76t185 75.5t71 197.5t-71 197.5t-185 75.5t-185.5 -76t-71.5 -197zM308 759h-50q0 42 25 68t64 26q32 0 61 -23.5t47 -23.5q17 0 28.5 11.5
t11.5 30.5h50q0 -41 -25 -67t-65 -26q-33 0 -60.5 23.5t-46.5 23.5q-17 0 -28.5 -12t-11.5 -31z" />
    <glyph glyph-name="Odieresis" unicode="&#xd6;" horiz-adv-x="803" 
d="M47 350q0 160 98.5 259t256.5 99t256 -99t98 -259t-98 -259t-256 -99t-256.5 99t-98.5 259zM145 350q0 -121 71.5 -197t185.5 -76t185 75.5t71 197.5t-71 197.5t-185 75.5t-185.5 -76t-71.5 -197zM252 798q0 23 16 38.5t39 15.5t38.5 -16t15.5 -38t-15.5 -38t-38.5 -16
t-39 15.5t-16 38.5zM442 798q0 23 15.5 39t38.5 16t39 -16t16 -39t-16 -38.5t-39 -15.5q-22 0 -38 16t-16 38z" />
    <glyph glyph-name="multiply" unicode="&#xd7;" horiz-adv-x="430" 
d="M103 124l-51 51l112 112l-112 112l51 51l112 -112l112 112l51 -51l-112 -112l112 -112l-51 -51l-112 112z" />
    <glyph glyph-name="Oslash" unicode="&#xd8;" horiz-adv-x="803" 
d="M46 -8l92 107q-91 97 -91 251q0 160 98.5 259t256.5 99q118 0 208 -60l51 60h97l-93 -108q91 -97 91 -250q0 -160 -98 -259t-256 -99q-121 0 -208 59l-51 -59h-97zM145 350q0 -106 55 -178l350 407q-63 44 -148 44q-114 0 -185.5 -76t-71.5 -197zM658 350q0 104 -55 178
l-349 -408q61 -43 148 -43q114 0 185 75.5t71 197.5z" />
    <glyph glyph-name="Ugrave" unicode="&#xd9;" horiz-adv-x="665" 
d="M503 256v444h95v-444q0 -118 -73.5 -191t-192.5 -73t-192 73t-73 191v444h95v-444q0 -79 47 -129t122 -50q76 0 124 49.5t48 129.5zM270 911l132 -132l-47 -46l-132 132z" />
    <glyph glyph-name="Uacute" unicode="&#xda;" horiz-adv-x="665" 
d="M503 256v444h95v-444q0 -118 -73.5 -191t-192.5 -73t-192 73t-73 191v444h95v-444q0 -79 47 -129t122 -50q76 0 124 49.5t48 129.5zM263 779l132 132l47 -46l-132 -132z" />
    <glyph glyph-name="Ucircumflex" unicode="&#xdb;" horiz-adv-x="665" 
d="M503 256v444h95v-444q0 -118 -73.5 -191t-192.5 -73t-192 73t-73 191v444h95v-444q0 -79 47 -129t122 -50q76 0 124 49.5t48 129.5zM332 911l132 -132l-46 -46l-86 85l-85 -85l-47 46z" />
    <glyph glyph-name="Udieresis" unicode="&#xdc;" horiz-adv-x="665" 
d="M503 256v444h95v-444q0 -118 -73.5 -191t-192.5 -73t-192 73t-73 191v444h95v-444q0 -79 47 -129t122 -50q76 0 124 49.5t48 129.5zM183 798q0 22 15.5 38t38.5 16t38.5 -16t15.5 -38t-15.5 -38t-38.5 -16t-38.5 16t-15.5 38zM373 798q0 23 15.5 39t38.5 16t39 -16
t16 -39t-16 -38.5t-39 -15.5t-38.5 16t-15.5 38z" />
    <glyph glyph-name="Yacute" unicode="&#xdd;" horiz-adv-x="673" 
d="M288 0v295l-266 405h110l204 -312l204 312h110l-267 -406v-294h-95zM267 779l132 132l46 -46l-132 -132z" />
    <glyph glyph-name="Thorn" unicode="&#xde;" horiz-adv-x="524" 
d="M67 0v700h98v-141h100q95 0 153.5 -54.5t58.5 -145.5t-58.5 -145.5t-153.5 -54.5h-100v-159h-98zM379 359q0 53 -31.5 86t-82.5 33h-100v-238h100q51 0 82.5 33t31.5 86z" />
    <glyph glyph-name="germandbls" unicode="&#xdf;" horiz-adv-x="605" 
d="M160 563v-563h-94v563q0 87 57 141t149 54t149.5 -54t57.5 -140q0 -63 -31 -110t-84 -66q0 -36 20.5 -59.5t49.5 -37t58.5 -29t50 -47t20.5 -78.5q0 -60 -41 -102.5t-114 -42.5q-95 0 -153 63l56 56q38 -43 91 -43q34 0 51.5 20t17.5 44q0 27 -20.5 46t-49.5 32.5
t-58.5 30.5t-50 51t-20.5 84v74q50 0 81 31.5t31 81.5t-31 81.5t-81 31.5t-81 -31.5t-31 -81.5z" />
    <glyph glyph-name="agrave" unicode="&#xe0;" horiz-adv-x="457" 
d="M414 60v-60q-13 -5 -34 -5q-60 0 -83 49q-54 -52 -126 -52q-62 0 -96 37t-34 89q0 69 61.5 108.5t153.5 39.5q18 0 32 -2v44q0 29 -21 52t-61 23q-60 0 -93 -35l-50 49q61 61 150 61q78 0 122.5 -43.5t44.5 -106.5v-212q0 -17 9.5 -26.5t24.5 -9.5zM201 67q53 0 87 38v97
q-11 3 -27 3q-55 0 -91.5 -21t-36.5 -56q0 -24 16.5 -42.5t51.5 -18.5zM147 685l132 -132l-46 -47l-132 132z" />
    <glyph glyph-name="aacute" unicode="&#xe1;" horiz-adv-x="457" 
d="M414 60v-60q-13 -5 -34 -5q-60 0 -83 49q-54 -52 -126 -52q-62 0 -96 37t-34 89q0 69 61.5 108.5t153.5 39.5q18 0 32 -2v44q0 29 -21 52t-61 23q-60 0 -93 -35l-50 49q61 61 150 61q78 0 122.5 -43.5t44.5 -106.5v-212q0 -17 9.5 -26.5t24.5 -9.5zM201 67q53 0 87 38v97
q-11 3 -27 3q-55 0 -91.5 -21t-36.5 -56q0 -24 16.5 -42.5t51.5 -18.5zM144 553l132 132l46 -47l-132 -132z" />
    <glyph glyph-name="acircumflex" unicode="&#xe2;" horiz-adv-x="457" 
d="M414 60v-60q-13 -5 -34 -5q-60 0 -83 49q-54 -52 -126 -52q-62 0 -96 37t-34 89q0 69 61.5 108.5t153.5 39.5q18 0 32 -2v44q0 29 -21 52t-61 23q-60 0 -93 -35l-50 49q61 61 150 61q78 0 122.5 -43.5t44.5 -106.5v-212q0 -17 9.5 -26.5t24.5 -9.5zM216 685l132 -132
l-46 -47l-86 86l-85 -86l-47 47zM201 67q53 0 87 38v97q-11 3 -27 3q-55 0 -91.5 -21t-36.5 -56q0 -24 16.5 -42.5t51.5 -18.5z" />
    <glyph glyph-name="atilde" unicode="&#xe3;" horiz-adv-x="457" 
d="M414 60v-60q-13 -5 -34 -5q-60 0 -83 49q-54 -52 -126 -52q-62 0 -96 37t-34 89q0 69 61.5 108.5t153.5 39.5q18 0 32 -2v44q0 29 -21 52t-61 23q-60 0 -93 -35l-50 49q61 61 150 61q78 0 122.5 -43.5t44.5 -106.5v-212q0 -17 9.5 -26.5t24.5 -9.5zM201 67q53 0 87 38v97
q-11 3 -27 3q-55 0 -91.5 -21t-36.5 -56q0 -24 16.5 -42.5t51.5 -18.5zM130 533h-51q0 42 25 67.5t64 25.5q32 0 61 -23.5t47 -23.5t29 12t11 31h51q0 -42 -25.5 -68t-65.5 -26q-32 0 -60 23.5t-47 23.5q-17 0 -28 -11.5t-11 -30.5z" />
    <glyph glyph-name="adieresis" unicode="&#xe4;" horiz-adv-x="457" 
d="M414 60v-60q-13 -5 -34 -5q-60 0 -83 49q-54 -52 -126 -52q-62 0 -96 37t-34 89q0 69 61.5 108.5t153.5 39.5q18 0 32 -2v44q0 29 -21 52t-61 23q-60 0 -93 -35l-50 49q61 61 150 61q78 0 122.5 -43.5t44.5 -106.5v-212q0 -17 9.5 -26.5t24.5 -9.5zM201 67q53 0 87 38v97
q-11 3 -27 3q-55 0 -91.5 -21t-36.5 -56q0 -24 16.5 -42.5t51.5 -18.5zM262 572q0 23 15.5 39t38.5 16t39 -16t16 -39t-16 -39t-39 -16t-38.5 16t-15.5 39zM72 572q0 22 16 38t38 16t38 -16t16 -38q0 -23 -15.5 -39t-38.5 -16t-38.5 16t-15.5 39z" />
    <glyph glyph-name="aring" unicode="&#xe5;" horiz-adv-x="457" 
d="M414 60v-60q-13 -5 -34 -5q-60 0 -83 49q-54 -52 -126 -52q-62 0 -96 37t-34 89q0 69 61.5 108.5t153.5 39.5q18 0 32 -2v44q0 29 -21 52t-61 23q-60 0 -93 -35l-50 49q61 61 150 61q78 0 122.5 -43.5t44.5 -106.5v-212q0 -17 9.5 -26.5t24.5 -9.5zM129 590
q0 41 24.5 66.5t64.5 25.5t65 -25.5t25 -66.5t-25 -66t-65 -25t-64.5 25t-24.5 66zM201 67q53 0 87 38v97q-11 3 -27 3q-55 0 -91.5 -21t-36.5 -56q0 -24 16.5 -42.5t51.5 -18.5zM169 590q0 -22 14 -36t35 -14q22 0 35.5 14t13.5 36t-14 36.5t-35 14.5t-35 -14.5t-14 -36.5z
" />
    <glyph glyph-name="ae" unicode="&#xe6;" horiz-adv-x="714" 
d="M288 264v44q0 29 -21 52t-61 23q-60 0 -93 -35l-50 49q61 61 150 61q75 0 119 -46q55 46 136 46q99 0 153 -69t54 -190h-295v-79q38 -47 111 -47q69 0 109 43l55 -57q-64 -67 -170 -67q-115 0 -176 69q-53 -69 -138 -69q-62 0 -96 37t-34 89q0 69 61.5 108.5t153.5 39.5
q18 0 32 -2zM380 308v-45h203q-6 54 -35 84.5t-78 30.5q-60 0 -93 -42q3 -27 3 -28zM288 109v93q-11 3 -27 3q-55 0 -91.5 -21t-36.5 -56q0 -24 16.5 -42.5t51.5 -18.5q52 0 87 42z" />
    <glyph glyph-name="ccedilla" unicode="&#xe7;" horiz-adv-x="474" 
d="M137 225q0 -67 39.5 -109.5t102.5 -42.5q68 0 106 43l56 -57q-59 -63 -152 -67v-49q66 -13 66 -79q0 -37 -24 -59.5t-62 -22.5t-63 25l29 29q15 -13 34 -13q20 0 32.5 12t12.5 31q0 45 -65 45v82q-94 8 -150.5 71t-56.5 161q0 104 64 168.5t168 64.5q102 0 167 -68
l-56 -57q-38 43 -106 43q-63 0 -102.5 -42t-39.5 -109z" />
    <glyph glyph-name="egrave" unicode="&#xe8;" horiz-adv-x="506" 
d="M467 199h-328q7 -58 45 -92t99 -34q69 0 109 43l55 -57q-64 -67 -170 -67q-105 0 -170 64.5t-65 171.5q0 102 60 166t158 64q99 0 153 -69t54 -190zM262 378q-49 0 -82 -31t-41 -84h236q-6 54 -35 84.5t-78 30.5zM198 685l132 -132l-47 -47l-132 132z" />
    <glyph glyph-name="eacute" unicode="&#xe9;" horiz-adv-x="506" 
d="M467 199h-328q7 -58 45 -92t99 -34q69 0 109 43l55 -57q-64 -67 -170 -67q-105 0 -170 64.5t-65 171.5q0 102 60 166t158 64q99 0 153 -69t54 -190zM262 378q-49 0 -82 -31t-41 -84h236q-6 54 -35 84.5t-78 30.5zM189 553l132 132l47 -47l-132 -132z" />
    <glyph glyph-name="ecircumflex" unicode="&#xea;" horiz-adv-x="506" 
d="M467 199h-328q7 -58 45 -92t99 -34q69 0 109 43l55 -57q-64 -67 -170 -67q-105 0 -170 64.5t-65 171.5q0 102 60 166t158 64q99 0 153 -69t54 -190zM262 378q-49 0 -82 -31t-41 -84h236q-6 54 -35 84.5t-78 30.5zM260 685l132 -132l-46 -47l-86 86l-85 -86l-47 47z" />
    <glyph glyph-name="edieresis" unicode="&#xeb;" horiz-adv-x="506" 
d="M467 199h-328q7 -58 45 -92t99 -34q69 0 109 43l55 -57q-64 -67 -170 -67q-105 0 -170 64.5t-65 171.5q0 102 60 166t158 64q99 0 153 -69t54 -190zM262 378q-49 0 -82 -31t-41 -84h236q-6 54 -35 84.5t-78 30.5zM111 572q0 22 15.5 38t38.5 16t39 -15.5t16 -38.5
t-16 -39t-39 -16t-38.5 16t-15.5 39zM301 572q0 23 15.5 39t38.5 16t39 -16t16 -39t-16 -39t-39 -16t-38.5 16t-15.5 39z" />
    <glyph glyph-name="igrave" unicode="&#xec;" horiz-adv-x="223" 
d="M49 685l132 -132l-47 -47l-132 132zM66 0v450h91v-450h-91z" />
    <glyph glyph-name="iacute" unicode="&#xed;" horiz-adv-x="223" 
d="M42 553l132 132l47 -47l-132 -132zM66 0v450h91v-450h-91z" />
    <glyph glyph-name="icircumflex" unicode="&#xee;" horiz-adv-x="223" 
d="M66 0v450h91v-450h-91zM111 685l132 -132l-46 -47l-86 86l-85 -86l-47 47z" />
    <glyph glyph-name="idieresis" unicode="&#xef;" horiz-adv-x="223" 
d="M66 0v450h91v-450h-91zM-23 572q0 23 16 38.5t39 15.5q22 0 38 -16t16 -38q0 -23 -15.5 -39t-38.5 -16t-39 16t-16 39zM137 572q0 23 15.5 39t38.5 16t39 -16t16 -39t-16 -39t-39 -16t-38.5 16t-15.5 39z" />
    <glyph glyph-name="eth" unicode="&#xf0;" horiz-adv-x="553" 
d="M166 529l-36 61l78 45l-63 78l82 45l62 -77l85 49l36 -62l-76 -43q95 -137 136 -222.5t41 -168.5q0 -112 -64 -177t-170 -65q-105 0 -170 65t-65 169q0 105 65.5 168.5t167.5 63.5q40 0 70 -15q-26 45 -90 136zM417 225q0 67 -39 109t-101 42t-101 -42t-39 -109
q0 -68 39 -110t101 -42t101 42t39 110z" />
    <glyph glyph-name="ntilde" unicode="&#xf1;" horiz-adv-x="519" 
d="M66 450h91v-35q52 43 127 43q77 0 123 -52t46 -136v-270h-92v270q0 47 -27.5 76.5t-72.5 29.5q-66 0 -104 -41v-335h-91v450zM161 533h-51q0 42 25.5 67.5t64.5 25.5q32 0 60.5 -23.5t47.5 -23.5q17 0 28.5 12t11.5 31h50q0 -42 -25 -68t-65 -26q-33 0 -60.5 23.5
t-46.5 23.5q-17 0 -28.5 -11.5t-11.5 -30.5z" />
    <glyph glyph-name="ograve" unicode="&#xf2;" horiz-adv-x="553" 
d="M42 225q0 104 65 168.5t170 64.5t169.5 -64.5t64.5 -168.5t-64.5 -168.5t-169.5 -64.5t-170 64.5t-65 168.5zM137 225q0 -68 39 -110t101 -42t101 42t39 110q0 67 -39 109t-101 42t-101 -42t-39 -109zM214 685l132 -132l-47 -47l-132 132z" />
    <glyph glyph-name="oacute" unicode="&#xf3;" horiz-adv-x="553" 
d="M42 225q0 104 65 168.5t170 64.5t169.5 -64.5t64.5 -168.5t-64.5 -168.5t-169.5 -64.5t-170 64.5t-65 168.5zM137 225q0 -68 39 -110t101 -42t101 42t39 110q0 67 -39 109t-101 42t-101 -42t-39 -109zM207 553l132 132l47 -47l-132 -132z" />
    <glyph glyph-name="ocircumflex" unicode="&#xf4;" horiz-adv-x="553" 
d="M42 225q0 104 65 168.5t170 64.5t169.5 -64.5t64.5 -168.5t-64.5 -168.5t-169.5 -64.5t-170 64.5t-65 168.5zM137 225q0 -68 39 -110t101 -42t101 42t39 110q0 67 -39 109t-101 42t-101 -42t-39 -109zM277 685l132 -132l-47 -47l-85 86l-86 -86l-46 47z" />
    <glyph glyph-name="otilde" unicode="&#xf5;" horiz-adv-x="553" 
d="M42 225q0 104 65 168.5t170 64.5t169.5 -64.5t64.5 -168.5t-64.5 -168.5t-169.5 -64.5t-170 64.5t-65 168.5zM137 225q0 -68 39 -110t101 -42t101 42t39 110q0 67 -39 109t-101 42t-101 -42t-39 -109zM183 533h-50q0 42 25 67.5t64 25.5q32 0 61 -23.5t47 -23.5
q17 0 28.5 12t11.5 31h50q0 -42 -25 -68t-65 -26q-33 0 -60.5 23.5t-46.5 23.5q-17 0 -28.5 -11.5t-11.5 -30.5z" />
    <glyph glyph-name="odieresis" unicode="&#xf6;" horiz-adv-x="553" 
d="M42 225q0 104 65 168.5t170 64.5t169.5 -64.5t64.5 -168.5t-64.5 -168.5t-169.5 -64.5t-170 64.5t-65 168.5zM137 225q0 -68 39 -110t101 -42t101 42t39 110q0 67 -39 109t-101 42t-101 -42t-39 -109zM127 572q0 23 16 38.5t39 15.5q22 0 38 -16t16 -38q0 -23 -15.5 -39
t-38.5 -16t-39 16t-16 39zM317 572q0 23 15.5 39t38.5 16t39 -16t16 -39t-16 -39t-39 -16t-38.5 16t-15.5 39z" />
    <glyph glyph-name="divide" unicode="&#xf7;" horiz-adv-x="500" 
d="M54 234v72h392v-72h-392zM197 106q0 22 15.5 37.5t37.5 15.5t37 -15t15 -38q0 -22 -15 -37.5t-37 -15.5t-37.5 15.5t-15.5 37.5zM197 433q0 23 15.5 38t37.5 15t37 -15t15 -38q0 -22 -15 -37.5t-37 -15.5t-37.5 15.5t-15.5 37.5z" />
    <glyph glyph-name="oslash" unicode="&#xf8;" horiz-adv-x="553" 
d="M46 -8l55 70q-59 64 -59 163q0 104 65 168.5t170 64.5q60 0 113 -24l24 31h94l-59 -75q62 -64 62 -165q0 -104 -64.5 -168.5t-169.5 -64.5q-66 0 -118 26l-20 -26h-93zM423 225q0 55 -27 96l-187 -239q30 -15 68 -15q65 0 105.5 43.5t40.5 114.5zM130 225q0 -53 25 -94
l185 239q-31 13 -63 13q-65 0 -106 -44t-41 -114z" />
    <glyph glyph-name="ugrave" unicode="&#xf9;" horiz-adv-x="527" 
d="M461 450v-262q0 -88 -54.5 -142t-143.5 -54q-88 0 -142.5 54t-54.5 142v262h94v-262q0 -51 29.5 -83t76.5 -32t76 32t29 83v262h90zM200 685l132 -132l-46 -47l-132 132z" />
    <glyph glyph-name="uacute" unicode="&#xfa;" horiz-adv-x="527" 
d="M461 450v-262q0 -88 -54.5 -142t-143.5 -54q-88 0 -142.5 54t-54.5 142v262h94v-262q0 -51 29.5 -83t76.5 -32t76 32t29 83v262h90zM194 553l132 132l46 -47l-132 -132z" />
    <glyph glyph-name="ucircumflex" unicode="&#xfb;" horiz-adv-x="527" 
d="M461 450v-262q0 -88 -54.5 -142t-143.5 -54q-88 0 -142.5 54t-54.5 142v262h94v-262q0 -51 29.5 -83t76.5 -32t76 32t29 83v262h90zM263 685l132 -132l-46 -47l-86 86l-85 -86l-47 47z" />
    <glyph glyph-name="udieresis" unicode="&#xfc;" horiz-adv-x="527" 
d="M461 450v-262q0 -88 -54.5 -142t-143.5 -54q-88 0 -142.5 54t-54.5 142v262h94v-262q0 -51 29.5 -83t76.5 -32t76 32t29 83v262h90zM114 572q0 22 16 38t38 16t38 -16t16 -38q0 -23 -15.5 -39t-38.5 -16t-38.5 16t-15.5 39zM303 572q0 23 16 39t39 16t39 -16t16 -39
t-16 -39t-39 -16t-39 16t-16 39z" />
    <glyph glyph-name="yacute" unicode="&#xfd;" horiz-adv-x="529" 
d="M510 450l-320 -700h-101l132 250l-202 450h102l144 -340l143 340h102zM195 553l132 132l47 -47l-132 -132z" />
    <glyph glyph-name="thorn" unicode="&#xfe;" horiz-adv-x="541" 
d="M66 750h91v-335q54 43 128 43q96 0 155 -64.5t59 -168.5t-63.5 -168.5t-165.5 -64.5q-63 0 -113 28v-270h-91v1000zM404 225q0 67 -39.5 109t-103.5 42q-66 0 -104 -41v-223q37 -39 104 -39q64 0 103.5 42t39.5 110z" />
    <glyph glyph-name="ydieresis" unicode="&#xff;" horiz-adv-x="529" 
d="M510 450l-320 -700h-101l132 250l-202 450h102l144 -340l143 340h102zM115 572q0 22 15.5 38t38.5 16t38.5 -16t15.5 -38q0 -23 -15.5 -39t-38.5 -16t-38.5 16t-15.5 39zM305 572q0 23 15.5 39t38.5 16t39 -16t16 -39t-16 -39t-39 -16t-38.5 16t-15.5 39z" />
    <glyph glyph-name="Amacron" unicode="&#x100;" horiz-adv-x="755" 
d="M623 0l-80 185h-331l-80 -185h-110l311 700h89l311 -700h-110zM378 578l-132 -308h262zM251 764v55h253v-55h-253z" />
    <glyph glyph-name="amacron" unicode="&#x101;" horiz-adv-x="457" 
d="M414 60v-60q-13 -5 -34 -5q-60 0 -83 49q-54 -52 -126 -52q-62 0 -96 37t-34 89q0 69 61.5 108.5t153.5 39.5q18 0 32 -2v44q0 29 -21 52t-61 23q-60 0 -93 -35l-50 49q61 61 150 61q78 0 122.5 -43.5t44.5 -106.5v-212q0 -17 9.5 -26.5t24.5 -9.5zM201 67q53 0 87 38v97
q-11 3 -27 3q-55 0 -91.5 -21t-36.5 -56q0 -24 16.5 -42.5t51.5 -18.5zM90 537v56h253v-56h-253z" />
    <glyph glyph-name="Abreve" unicode="&#x102;" horiz-adv-x="755" 
d="M623 0l-80 185h-331l-80 -185h-110l311 700h89l311 -700h-110zM378 578l-132 -308h262zM378 813q62 0 100 41l46 -47q-58 -61 -146 -61q-87 0 -146 62l46 46q39 -41 100 -41z" />
    <glyph glyph-name="abreve" unicode="&#x103;" horiz-adv-x="457" 
d="M414 60v-60q-13 -5 -34 -5q-60 0 -83 49q-54 -52 -126 -52q-62 0 -96 37t-34 89q0 69 61.5 108.5t153.5 39.5q18 0 32 -2v44q0 29 -21 52t-61 23q-60 0 -93 -35l-50 49q61 61 150 61q78 0 122.5 -43.5t44.5 -106.5v-212q0 -17 9.5 -26.5t24.5 -9.5zM218 587q62 0 100 40
l46 -46q-59 -62 -146 -62q-86 0 -146 62l46 47q39 -41 100 -41zM201 67q53 0 87 38v97q-11 3 -27 3q-55 0 -91.5 -21t-36.5 -56q0 -24 16.5 -42.5t51.5 -18.5z" />
    <glyph glyph-name="Aogonek" unicode="&#x104;" horiz-adv-x="755" 
d="M659 -37q0 -25 14.5 -40t37.5 -15t38 15l32 -31q-26 -28 -69 -28q-44 0 -70.5 27t-26.5 72q0 22 8 37l-80 185h-331l-80 -185h-110l311 700h89l311 -700h-64q-10 -15 -10 -37zM378 578l-132 -308h262z" />
    <glyph glyph-name="aogonek" unicode="&#x105;" horiz-adv-x="457" 
d="M385 -37q0 -25 14.5 -40t37.5 -15q24 0 39 15l32 -31q-26 -28 -70 -28q-43 0 -70 27t-27 72q0 23 8 36q-36 11 -52 45q-54 -52 -126 -52q-62 0 -96 37t-34 89q0 69 61.5 108.5t153.5 39.5q18 0 32 -2v44q0 29 -21 52t-61 23q-60 0 -93 -35l-50 49q61 61 150 61
q78 0 122.5 -43.5t44.5 -106.5v-212q0 -17 9.5 -26.5t24.5 -9.5v-60q-6 -2 -22 -4q-7 -13 -7 -33zM201 67q53 0 87 38v97q-11 3 -27 3q-55 0 -91.5 -21t-36.5 -56q0 -24 16.5 -42.5t51.5 -18.5z" />
    <glyph glyph-name="Cacute" unicode="&#x106;" horiz-adv-x="696" 
d="M145 350q0 -121 72.5 -197t188.5 -76q120 0 193 75l60 -60q-98 -100 -257 -100q-158 0 -256.5 99t-98.5 259t98.5 259t256.5 99q159 0 257 -100l-60 -61q-73 76 -193 76q-116 0 -188.5 -76t-72.5 -197zM311 783l132 132l46 -47l-132 -132z" />
    <glyph glyph-name="cacute" unicode="&#x107;" horiz-adv-x="474" 
d="M137 225q0 -67 39.5 -109.5t102.5 -42.5q68 0 106 43l56 -57q-64 -67 -167 -67q-104 0 -168 64.5t-64 168.5t64 168.5t168 64.5q102 0 167 -68l-56 -57q-38 43 -106 43q-63 0 -102.5 -42t-39.5 -109zM193 553l132 132l46 -47l-132 -132z" />
    <glyph glyph-name="Ccircumflex" unicode="&#x108;" horiz-adv-x="696" 
d="M145 350q0 -121 72.5 -197t188.5 -76q120 0 193 75l60 -60q-98 -100 -257 -100q-158 0 -256.5 99t-98.5 259t98.5 259t256.5 99q159 0 257 -100l-60 -61q-73 76 -193 76q-116 0 -188.5 -76t-72.5 -197zM381 911l132 -132l-46 -46l-86 85l-85 -85l-47 46z" />
    <glyph glyph-name="ccircumflex" unicode="&#x109;" horiz-adv-x="474" 
d="M137 225q0 -67 39.5 -109.5t102.5 -42.5q68 0 106 43l56 -57q-64 -67 -167 -67q-104 0 -168 64.5t-64 168.5t64 168.5t168 64.5q102 0 167 -68l-56 -57q-38 43 -106 43q-63 0 -102.5 -42t-39.5 -109zM260 685l132 -132l-46 -47l-86 86l-85 -86l-47 47z" />
    <glyph glyph-name="Cdotaccent" unicode="&#x10a;" horiz-adv-x="696" 
d="M145 350q0 -121 72.5 -197t188.5 -76q120 0 193 75l60 -60q-98 -100 -257 -100q-158 0 -256.5 99t-98.5 259t98.5 259t256.5 99q159 0 257 -100l-60 -61q-73 76 -193 76q-116 0 -188.5 -76t-72.5 -197zM324 811q0 25 16.5 41.5t40.5 16.5q25 0 41.5 -16.5t16.5 -41.5
q0 -24 -16.5 -40.5t-41.5 -16.5q-24 0 -40.5 16.5t-16.5 40.5z" />
    <glyph glyph-name="cdotaccent" unicode="&#x10b;" horiz-adv-x="474" 
d="M137 225q0 -67 39.5 -109.5t102.5 -42.5q68 0 106 43l56 -57q-64 -67 -167 -67q-104 0 -168 64.5t-64 168.5t64 168.5t168 64.5q102 0 167 -68l-56 -57q-38 43 -106 43q-63 0 -102.5 -42t-39.5 -109zM201 585q0 24 16.5 40.5t41.5 16.5q24 0 40.5 -16.5t16.5 -40.5
t-16.5 -41t-40.5 -17q-25 0 -41.5 17t-16.5 41z" />
    <glyph glyph-name="Ccaron" unicode="&#x10c;" horiz-adv-x="696" 
d="M145 350q0 -121 72.5 -197t188.5 -76q120 0 193 75l60 -60q-98 -100 -257 -100q-158 0 -256.5 99t-98.5 259t98.5 259t256.5 99q159 0 257 -100l-60 -61q-73 76 -193 76q-116 0 -188.5 -76t-72.5 -197zM379 733l-132 132l46 46l86 -85l85 85l47 -46z" />
    <glyph glyph-name="ccaron" unicode="&#x10d;" horiz-adv-x="474" 
d="M137 225q0 -67 39.5 -109.5t102.5 -42.5q68 0 106 43l56 -57q-64 -67 -167 -67q-104 0 -168 64.5t-64 168.5t64 168.5t168 64.5q102 0 167 -68l-56 -57q-38 43 -106 43q-63 0 -102.5 -42t-39.5 -109zM259 506l-132 132l47 47l85 -86l86 86l46 -47z" />
    <glyph glyph-name="Dcaron" unicode="&#x10e;" horiz-adv-x="695" 
d="M67 0v700h226q159 0 257 -95.5t98 -254.5t-98 -254.5t-257 -95.5h-226zM549 350q0 121 -71 194.5t-185 73.5h-128v-536h128q114 0 185 73.5t71 194.5zM337 733l-132 132l47 46l85 -85l86 85l46 -46z" />
    <glyph glyph-name="dcaron" unicode="&#x10f;" horiz-adv-x="690" 
d="M475 0h-92v34q-54 -42 -128 -42q-95 0 -154 64.5t-59 168.5t63 168.5t166 64.5q61 0 112 -28v320h92v-750zM137 225q0 -67 39.5 -109.5t102.5 -42.5q66 0 104 40v226q-39 37 -104 37q-63 0 -102.5 -42t-39.5 -109zM585 536l-31 31q41 41 50 78q-20 4 -33 19t-13 37
q0 24 16.5 40.5t41.5 16.5q22 0 39.5 -16t17.5 -49q0 -69 -88 -157z" />
    <glyph glyph-name="Dcroat" unicode="&#x110;" horiz-adv-x="705" 
d="M40 314v72h51v314h212q160 0 257.5 -95.5t97.5 -254.5t-97.5 -254.5t-257.5 -95.5h-212v314h-51zM560 350q0 121 -71 194.5t-186 73.5h-114v-232h151v-72h-151v-232h114q115 0 186 73.5t71 194.5z" />
    <glyph glyph-name="dcroat" unicode="&#x111;" horiz-adv-x="560" 
d="M475 0h-92v35q-52 -43 -128 -43q-95 0 -154 64.5t-59 168.5t63 168.5t166 64.5q63 0 112 -30v140h-127v72h127v110h92v-110h55v-72h-55v-568zM137 225q0 -67 39.5 -109.5t102.5 -42.5q66 0 104 41v224q-38 38 -104 38q-63 0 -102.5 -42t-39.5 -109z" />
    <glyph glyph-name="Emacron" unicode="&#x112;" horiz-adv-x="491" 
d="M162 621v-230h248v-79h-248v-234h285v-78h-380v700h375v-79h-280zM129 764v55h253v-55h-253z" />
    <glyph glyph-name="emacron" unicode="&#x113;" horiz-adv-x="506" 
d="M467 199h-328q7 -58 45 -92t99 -34q69 0 109 43l55 -57q-64 -67 -170 -67q-105 0 -170 64.5t-65 171.5q0 102 60 166t158 64q99 0 153 -69t54 -190zM262 378q-49 0 -82 -31t-41 -84h236q-6 54 -35 84.5t-78 30.5zM133 537v56h253v-56h-253z" />
    <glyph glyph-name="Ebreve" unicode="&#x114;" horiz-adv-x="491" 
d="M162 621v-230h248v-79h-248v-234h285v-78h-380v700h375v-79h-280zM255 813q62 0 100 41l46 -47q-58 -61 -146 -61q-86 0 -146 62l46 46q39 -41 100 -41z" />
    <glyph glyph-name="ebreve" unicode="&#x115;" horiz-adv-x="506" 
d="M467 199h-328q7 -58 45 -92t99 -34q69 0 109 43l55 -57q-64 -67 -170 -67q-105 0 -170 64.5t-65 171.5q0 102 60 166t158 64q99 0 153 -69t54 -190zM262 378q-49 0 -82 -31t-41 -84h236q-6 54 -35 84.5t-78 30.5zM260 587q62 0 100 40l46 -46q-59 -62 -146 -62
q-86 0 -146 62l46 47q39 -41 100 -41z" />
    <glyph glyph-name="Edotaccent" unicode="&#x116;" horiz-adv-x="491" 
d="M162 621v-230h248v-79h-248v-234h285v-78h-380v700h375v-79h-280zM198 811q0 25 16.5 41.5t40.5 16.5t41 -16.5t17 -41.5q0 -24 -17 -40.5t-41 -16.5t-40.5 16.5t-16.5 40.5z" />
    <glyph glyph-name="edotaccent" unicode="&#x117;" horiz-adv-x="506" 
d="M467 199h-328q7 -58 45 -92t99 -34q69 0 109 43l55 -57q-64 -67 -170 -67q-105 0 -170 64.5t-65 171.5q0 102 60 166t158 64q99 0 153 -69t54 -190zM262 378q-49 0 -82 -31t-41 -84h236q-6 54 -35 84.5t-78 30.5zM203 585q0 24 16.5 40.5t41.5 16.5q24 0 40.5 -16.5
t16.5 -40.5t-16.5 -41t-40.5 -17q-25 0 -41.5 17t-16.5 41z" />
    <glyph glyph-name="Eogonek" unicode="&#x118;" horiz-adv-x="491" 
d="M337 -37q0 -25 14.5 -40t37.5 -15t38 15l32 -31q-26 -28 -69 -28q-44 0 -71 27t-27 72q0 21 9 37h-234v700h375v-79h-280v-230h248v-79h-248v-234h285v-78h-100q-10 -13 -10 -37z" />
    <glyph glyph-name="eogonek" unicode="&#x119;" horiz-adv-x="506" 
d="M332 -37q0 -25 14.5 -40t37.5 -15t38 15l32 -31q-26 -28 -69 -28q-44 0 -70.5 27t-26.5 72q0 17 4 29h-15q-105 0 -170 64.5t-65 171.5q0 102 60 166t158 64q99 0 153 -69t54 -190h-328q7 -58 45 -92t99 -34q69 0 109 43l55 -57q-44 -46 -106 -59q-9 -14 -9 -37zM262 378
q-49 0 -82 -31t-41 -84h236q-6 54 -35 84.5t-78 30.5z" />
    <glyph glyph-name="Ecaron" unicode="&#x11a;" horiz-adv-x="491" 
d="M162 621v-230h248v-79h-248v-234h285v-78h-380v700h375v-79h-280zM255 733l-132 132l47 46l85 -85l86 85l46 -46z" />
    <glyph glyph-name="ecaron" unicode="&#x11b;" horiz-adv-x="506" 
d="M467 199h-328q7 -58 45 -92t99 -34q69 0 109 43l55 -57q-64 -67 -170 -67q-105 0 -170 64.5t-65 171.5q0 102 60 166t158 64q99 0 153 -69t54 -190zM262 378q-49 0 -82 -31t-41 -84h236q-6 54 -35 84.5t-78 30.5zM259 506l-132 132l47 47l85 -86l86 86l46 -47z" />
    <glyph glyph-name="Gcircumflex" unicode="&#x11c;" horiz-adv-x="727" 
d="M402 297v79h257v-284q-97 -100 -257 -100q-158 0 -256.5 99t-98.5 259t98.5 259t256.5 99q159 0 257 -100l-60 -61q-73 76 -193 76q-116 0 -188.5 -76t-72.5 -197t72.5 -197t188.5 -76q93 0 159 49v171h-163zM401 911l132 -132l-47 -46l-85 85l-86 -85l-46 46z" />
    <glyph glyph-name="gcircumflex" unicode="&#x11d;" horiz-adv-x="513" 
d="M19 -115q0 84 98 121q-53 26 -53 74q0 50 58 76q-73 40 -73 135q0 75 50.5 121t132.5 46q76 0 126 -41q35 41 78 41q18 0 26 -2v-73q-11 3 -21 3q-22 0 -42 -22q15 -32 15 -71q0 -73 -51 -118.5t-133 -45.5q-37 0 -57.5 -13t-20.5 -33t25.5 -32.5t68.5 -12.5
q99 0 158.5 -39t59.5 -103q0 -68 -66.5 -111t-167.5 -43q-96 0 -153.5 39.5t-57.5 103.5zM113 -115q0 -33 31 -53t85 -20q59 0 99.5 23t40.5 59q0 33 -33.5 52.5t-88.5 19.5q-60 0 -97 -22.5t-37 -58.5zM140 293q0 -41 26 -66.5t67 -25.5t66.5 25.5t25.5 66.5t-25.5 67
t-66.5 26t-67 -26t-26 -67zM230 685l132 -132l-46 -47l-86 86l-85 -86l-47 47z" />
    <glyph glyph-name="Gbreve" unicode="&#x11e;" horiz-adv-x="727" 
d="M402 297v79h257v-284q-97 -100 -257 -100q-158 0 -256.5 99t-98.5 259t98.5 259t256.5 99q159 0 257 -100l-60 -61q-73 76 -193 76q-116 0 -188.5 -76t-72.5 -197t72.5 -197t188.5 -76q93 0 159 49v171h-163zM400 813q62 0 100 41l46 -47q-58 -61 -146 -61q-86 0 -146 62
l46 46q39 -41 100 -41z" />
    <glyph glyph-name="gbreve" unicode="&#x11f;" horiz-adv-x="513" 
d="M19 -115q0 84 98 121q-53 26 -53 74q0 50 58 76q-73 40 -73 135q0 75 50.5 121t132.5 46q76 0 126 -41q35 41 78 41q18 0 26 -2v-73q-11 3 -21 3q-22 0 -42 -22q15 -32 15 -71q0 -73 -51 -118.5t-133 -45.5q-37 0 -57.5 -13t-20.5 -33t25.5 -32.5t68.5 -12.5
q99 0 158.5 -39t59.5 -103q0 -68 -66.5 -111t-167.5 -43q-96 0 -153.5 39.5t-57.5 103.5zM113 -115q0 -33 31 -53t85 -20q59 0 99.5 23t40.5 59q0 33 -33.5 52.5t-88.5 19.5q-60 0 -97 -22.5t-37 -58.5zM140 293q0 -41 26 -66.5t67 -25.5t66.5 25.5t25.5 66.5t-25.5 67
t-66.5 26t-67 -26t-26 -67zM232 587q62 0 100 40l46 -46q-59 -62 -146 -62q-86 0 -146 62l46 47q39 -41 100 -41z" />
    <glyph glyph-name="Gdotaccent" unicode="&#x120;" horiz-adv-x="727" 
d="M402 297v79h257v-284q-97 -100 -257 -100q-158 0 -256.5 99t-98.5 259t98.5 259t256.5 99q159 0 257 -100l-60 -61q-73 76 -193 76q-116 0 -188.5 -76t-72.5 -197t72.5 -197t188.5 -76q93 0 159 49v171h-163zM343 811q0 25 16.5 41.5t40.5 16.5t41 -16.5t17 -41.5
q0 -24 -17 -40.5t-41 -16.5t-40.5 16.5t-16.5 40.5z" />
    <glyph glyph-name="gdotaccent" unicode="&#x121;" horiz-adv-x="513" 
d="M19 -115q0 84 98 121q-53 26 -53 74q0 50 58 76q-73 40 -73 135q0 75 50.5 121t132.5 46q76 0 126 -41q35 41 78 41q18 0 26 -2v-73q-11 3 -21 3q-22 0 -42 -22q15 -32 15 -71q0 -73 -51 -118.5t-133 -45.5q-37 0 -57.5 -13t-20.5 -33t25.5 -32.5t68.5 -12.5
q99 0 158.5 -39t59.5 -103q0 -68 -66.5 -111t-167.5 -43q-96 0 -153.5 39.5t-57.5 103.5zM113 -115q0 -33 31 -53t85 -20q59 0 99.5 23t40.5 59q0 33 -33.5 52.5t-88.5 19.5q-60 0 -97 -22.5t-37 -58.5zM140 293q0 -41 26 -66.5t67 -25.5t66.5 25.5t25.5 66.5t-25.5 67
t-66.5 26t-67 -26t-26 -67zM173 585q0 24 16.5 40.5t40.5 16.5q25 0 41.5 -16.5t16.5 -40.5t-16.5 -41t-41.5 -17q-24 0 -40.5 17t-16.5 41z" />
    <glyph glyph-name="Gcommaaccent" unicode="&#x122;" horiz-adv-x="727" 
d="M402 297v79h257v-284q-97 -100 -257 -100q-158 0 -256.5 99t-98.5 259t98.5 259t256.5 99q159 0 257 -100l-60 -61q-73 76 -193 76q-116 0 -188.5 -76t-72.5 -197t72.5 -197t188.5 -76q93 0 159 49v171h-163zM366 -231l-26 25q37 37 43 67q-17 2 -28 15.5t-11 30.5
q0 20 14 34t34 14q19 0 33 -13.5t14 -41.5q0 -58 -73 -131z" />
    <glyph glyph-name="gcommaaccent" unicode="&#x123;" horiz-adv-x="513" 
d="M19 -115q0 84 98 121q-53 26 -53 74q0 50 58 76q-73 40 -73 135q0 75 50.5 121t132.5 46q76 0 126 -41q35 41 78 41q18 0 26 -2v-73q-11 3 -21 3q-22 0 -42 -22q15 -32 15 -71q0 -73 -51 -118.5t-133 -45.5q-37 0 -57.5 -13t-20.5 -33t25.5 -32.5t68.5 -12.5
q99 0 158.5 -39t59.5 -103q0 -68 -66.5 -111t-167.5 -43q-96 0 -153.5 39.5t-57.5 103.5zM113 -115q0 -33 31 -53t85 -20q59 0 99.5 23t40.5 59q0 33 -33.5 52.5t-88.5 19.5q-60 0 -97 -22.5t-37 -58.5zM140 293q0 -41 26 -66.5t67 -25.5t66.5 25.5t25.5 66.5t-25.5 67
t-66.5 26t-67 -26t-26 -67zM260 692l25 -26q-36 -38 -42 -66q17 -3 28 -16t11 -31q0 -20 -14 -33.5t-34 -13.5q-19 0 -33.5 13t-14.5 41q0 60 74 132z" />
    <glyph glyph-name="Hcircumflex" unicode="&#x124;" horiz-adv-x="687" 
d="M162 700v-309h363v309h94v-700h-94v312h-363v-312h-95v700h95zM343 911l132 -132l-46 -46l-86 85l-85 -85l-47 46z" />
    <glyph glyph-name="hcircumflex" unicode="&#x125;" horiz-adv-x="520" 
d="M66 750h91v-335q52 43 127 43q77 0 123 -52t46 -136v-270h-92v270q0 47 -27.5 76.5t-72.5 29.5q-66 0 -104 -41v-335h-91v750zM278 924l132 -132l-47 -46l-85 85l-86 -85l-46 46z" />
    <glyph glyph-name="Hbar" unicode="&#x126;" horiz-adv-x="700" 
d="M94 0v507h-57v72h57v121h95v-121h316v121h94v-121h64v-72h-64v-507h-94v312h-316v-312h-95zM189 391h316v116h-316v-116z" />
    <glyph glyph-name="hbar" unicode="&#x127;" 
d="M30 578v72h55v100h92v-100h164v-72h-164v-162q53 42 127 42q77 0 122.5 -51.5t45.5 -136.5v-270h-91v270q0 47 -27.5 76.5t-72.5 29.5q-67 0 -104 -40v-336h-92v578h-55z" />
    <glyph glyph-name="Itilde" unicode="&#x128;" horiz-adv-x="226" 
d="M66 0v700h94v-700h-94zM20 759h-50q0 42 25 68t64 26q32 0 61 -23.5t47 -23.5q17 0 28.5 11.5t11.5 30.5h51q0 -41 -25.5 -67t-65.5 -26q-33 0 -60.5 23.5t-46.5 23.5q-17 0 -28.5 -12t-11.5 -31z" />
    <glyph glyph-name="itilde" unicode="&#x129;" horiz-adv-x="223" 
d="M18 533h-50q0 42 25 67.5t64 25.5q32 0 61 -23.5t47 -23.5q17 0 28.5 12t11.5 31h51q0 -42 -25.5 -68t-65.5 -26q-32 0 -60 23.5t-47 23.5q-17 0 -28.5 -11.5t-11.5 -30.5zM66 0v450h91v-450h-91z" />
    <glyph glyph-name="Imacron" unicode="&#x12a;" horiz-adv-x="226" 
d="M66 0v700h94v-700h-94zM-13 764v55h253v-55h-253z" />
    <glyph glyph-name="imacron" unicode="&#x12b;" horiz-adv-x="223" 
d="M-15 537v56h253v-56h-253zM66 0v450h91v-450h-91z" />
    <glyph glyph-name="Ibreve" unicode="&#x12c;" horiz-adv-x="226" 
d="M66 0v700h94v-700h-94zM113 813q64 0 100 41l47 -47q-58 -61 -147 -61q-86 0 -146 62l47 46q38 -41 99 -41z" />
    <glyph glyph-name="ibreve" unicode="&#x12d;" horiz-adv-x="223" 
d="M111 587q63 0 100 40l47 -46q-59 -62 -147 -62q-86 0 -146 62l47 47q38 -41 99 -41zM66 0v450h91v-450h-91z" />
    <glyph glyph-name="Iogonek" unicode="&#x12e;" horiz-adv-x="226" 
d="M102 -37q0 -25 14.5 -40t37.5 -15t38 15l32 -31q-26 -28 -70 -28q-43 0 -70 27t-27 72q0 23 9 37v700h94v-700h-49q-9 -14 -9 -37z" />
    <glyph glyph-name="iogonek" unicode="&#x12f;" horiz-adv-x="223" 
d="M66 0v450h91v-450h-91zM54 585q0 24 16.5 40.5t40.5 16.5q25 0 41.5 -16.5t16.5 -40.5t-16.5 -41t-41.5 -17q-24 0 -40.5 17t-16.5 41zM102 -37q0 -25 14.5 -40t37.5 -15t38 15l32 -31q-26 -28 -70 -28q-43 0 -70 27t-27 72q0 23 9 37h45q-9 -14 -9 -37z" />
    <glyph glyph-name="Idotaccent" unicode="&#x130;" horiz-adv-x="226" 
d="M66 0v700h94v-700h-94zM55 811q0 25 17 41.5t41 16.5t40.5 -16.5t16.5 -41.5q0 -24 -16.5 -40.5t-40.5 -16.5t-41 16.5t-17 40.5z" />
    <glyph glyph-name="dotlessi" unicode="&#x131;" horiz-adv-x="223" 
d="M66 0v450h91v-450h-91z" />
    <glyph glyph-name="IJ" unicode="&#x132;" horiz-adv-x="499" 
d="M67 250v450h95v-450h-95zM338 193v507h95v-507q0 -90 -56 -145.5t-146 -55.5q-91 0 -147 56l61 61q32 -32 82 -32t80.5 32t30.5 84z" />
    <glyph glyph-name="ij" unicode="&#x133;" horiz-adv-x="446" 
d="M66 0v450h91v-450h-91zM54 585q0 24 16.5 40.5t40.5 16.5q25 0 41.5 -16.5t16.5 -40.5t-16.5 -41t-41.5 -17q-24 0 -40.5 17t-16.5 41zM277 585q0 24 16.5 40.5t40.5 16.5q25 0 41.5 -16.5t16.5 -40.5t-16.5 -41t-41.5 -17q-24 0 -40.5 17t-16.5 41zM238 -250v60
q23 0 37 13t14 37v590h91v-592q0 -52 -28 -82.5t-77 -30.5q-24 0 -37 5z" />
    <glyph glyph-name="Jcircumflex" unicode="&#x134;" horiz-adv-x="451" 
d="M291 193v507h95v-507q0 -90 -56 -145.5t-146 -55.5q-91 0 -147 56l61 61q30 -32 82 -32q49 0 80 32t31 84zM338 911l132 -132l-47 -46l-85 85l-86 -85l-46 46z" />
    <glyph glyph-name="jcircumflex" unicode="&#x135;" horiz-adv-x="223" 
d="M15 -250v60q23 0 37 13t14 37v590h91v-592q0 -52 -28 -82.5t-77 -30.5q-24 0 -37 5zM111 685l132 -132l-46 -47l-86 86l-85 -86l-47 47z" />
    <glyph glyph-name="Kcommaaccent" unicode="&#x136;" horiz-adv-x="607" 
d="M66 0v700h94v-700h-94zM461 0l-298 360l277 340h119l-277 -340l301 -360h-122zM279 -231l-26 25q37 37 43 67q-17 2 -28 15.5t-11 30.5q0 20 14 34t34 14q19 0 33 -13.5t14 -41.5q0 -58 -73 -131z" />
    <glyph glyph-name="kcommaaccent" unicode="&#x137;" horiz-adv-x="474" 
d="M157 0h-91v750h91v-494l163 194h109l-180 -210l201 -240h-109l-184 223v-223zM212 -231l-25 25q35 35 43 67q-17 2 -28 15.5t-11 30.5q0 20 13.5 34t34.5 14q19 0 33 -13.5t14 -41.5q0 -59 -74 -131z" />
    <glyph glyph-name="Lacute" unicode="&#x139;" horiz-adv-x="463" 
d="M162 700v-622h264v-78h-359v700h95zM142 779l132 132l47 -46l-132 -132z" />
    <glyph glyph-name="lacute" unicode="&#x13a;" horiz-adv-x="251" 
d="M212 60v-60q-15 -5 -41 -5q-49 0 -77 30.5t-28 82.5v642h91v-640q0 -24 15 -37t40 -13zM37 816l132 132l46 -47l-132 -132z" />
    <glyph glyph-name="Lcommaaccent" unicode="&#x13b;" horiz-adv-x="463" 
d="M162 700v-622h264v-78h-359v700h95zM221 -231l-25 25q36 38 42 67q-17 2 -28 15.5t-11 30.5q0 20 14 34t34 14q19 0 33.5 -13.5t14.5 -41.5q0 -59 -74 -131z" />
    <glyph glyph-name="lcommaaccent" unicode="&#x13c;" horiz-adv-x="251" 
d="M212 60v-60q-15 -5 -41 -5q-49 0 -77 30.5t-28 82.5v642h91v-640q0 -24 15 -37t40 -13zM111 -231l-25 25q35 35 42 67q-17 2 -28 15.5t-11 30.5q0 20 14 34t35 14q19 0 33 -13.5t14 -41.5q0 -59 -74 -131z" />
    <glyph glyph-name="Lcaron" unicode="&#x13d;" horiz-adv-x="463" 
d="M162 700v-622h264v-78h-359v700h95zM115 733l-132 132l47 46l85 -85l86 85l46 -46z" />
    <glyph glyph-name="lcaron" unicode="&#x13e;" horiz-adv-x="387" 
d="M212 60v-60q-15 -5 -41 -5q-49 0 -77 30.5t-28 82.5v642h91v-640q0 -24 15 -37t40 -13zM280 536l-30 31q41 41 50 78q-21 4 -34 19.5t-13 36.5q0 24 17 40.5t41 16.5q23 0 40 -15.5t17 -49.5q0 -69 -88 -157z" />
    <glyph glyph-name="Ldot" unicode="&#x13f;" horiz-adv-x="463" 
d="M162 700v-622h264v-78h-359v700h95zM292 325q0 24 17 40.5t41 16.5t40.5 -16.5t16.5 -40.5t-16.5 -41t-40.5 -17t-41 17t-17 41z" />
    <glyph glyph-name="ldot" unicode="&#x140;" horiz-adv-x="388" 
d="M212 60v-60q-15 -5 -41 -5q-49 0 -77 30.5t-28 82.5v642h91v-640q0 -24 15 -37t40 -13zM248 325q0 24 17 40.5t41 16.5t40.5 -16.5t16.5 -40.5t-16.5 -41t-40.5 -17t-41 17t-17 41z" />
    <glyph glyph-name="Lslash" unicode="&#x141;" horiz-adv-x="502" 
d="M7 227l99 99v374h95v-300l83 84l47 -47l-130 -130v-229h264v-78h-359v233l-53 -53z" />
    <glyph glyph-name="lslash" unicode="&#x142;" horiz-adv-x="310" 
d="M247 60v-60q-13 -5 -40 -5q-50 0 -78 30.5t-28 82.5v161l-49 -50l-47 46l96 97v388h92v-318l58 58l46 -46l-104 -105v-229q0 -24 15 -37t39 -13z" />
    <glyph glyph-name="Nacute" unicode="&#x143;" horiz-adv-x="710" 
d="M67 700h63l418 -519v519h95v-700h-63l-418 519v-519h-95v700zM286 779l132 132l46 -46l-132 -132z" />
    <glyph glyph-name="nacute" unicode="&#x144;" horiz-adv-x="519" 
d="M66 450h91v-35q52 43 127 43q77 0 123 -52t46 -136v-270h-92v270q0 47 -27.5 76.5t-72.5 29.5q-66 0 -104 -41v-335h-91v450zM190 553l132 132l46 -47l-132 -132z" />
    <glyph glyph-name="Ncommaaccent" unicode="&#x145;" horiz-adv-x="710" 
d="M67 700h63l418 -519v519h95v-700h-63l-418 519v-519h-95v700zM331 -231l-26 25q37 37 43 67q-17 2 -28 15.5t-11 30.5q0 20 14 34t34 14q19 0 33 -13.5t14 -41.5q0 -58 -73 -131z" />
    <glyph glyph-name="ncommaaccent" unicode="&#x146;" horiz-adv-x="519" 
d="M66 450h91v-35q52 43 127 43q77 0 123 -52t46 -136v-270h-92v270q0 47 -27.5 76.5t-72.5 29.5q-66 0 -104 -41v-335h-91v450zM233 -231l-25 25q36 38 42 67q-17 2 -28 15.5t-11 30.5q0 20 14 34t34 14q19 0 33.5 -13.5t14.5 -41.5q0 -59 -74 -131z" />
    <glyph glyph-name="Ncaron" unicode="&#x147;" horiz-adv-x="710" 
d="M67 700h63l418 -519v519h95v-700h-63l-418 519v-519h-95v700zM355 733l-132 132l46 46l86 -85l85 85l47 -46z" />
    <glyph glyph-name="ncaron" unicode="&#x148;" horiz-adv-x="519" 
d="M66 450h91v-35q52 43 127 43q77 0 123 -52t46 -136v-270h-92v270q0 47 -27.5 76.5t-72.5 29.5q-66 0 -104 -41v-335h-91v450zM259 506l-132 132l47 47l85 -86l86 86l46 -47z" />
    <glyph glyph-name="Eng" unicode="&#x14a;" horiz-adv-x="710" 
d="M497 -250v60q23 0 37 13t14 37v177l-386 482v-519h-95v700h63l418 -519v519h95v-842q0 -51 -29.5 -82t-79.5 -31q-24 0 -37 5z" />
    <glyph glyph-name="eng" unicode="&#x14b;" horiz-adv-x="519" 
d="M310 -250v60q23 0 37 13t14 37v410q0 47 -27.5 76.5t-72.5 29.5q-66 0 -104 -41v-335h-91v450h91v-35q52 43 127 43q77 0 123 -52t46 -136v-412q0 -52 -28 -82.5t-77 -30.5q-25 0 -38 5z" />
    <glyph glyph-name="Omacron" unicode="&#x14c;" horiz-adv-x="803" 
d="M47 350q0 160 98.5 259t256.5 99t256 -99t98 -259t-98 -259t-256 -99t-256.5 99t-98.5 259zM145 350q0 -121 71.5 -197t185.5 -76t185 75.5t71 197.5t-71 197.5t-185 75.5t-185.5 -76t-71.5 -197zM275 764v55h253v-55h-253z" />
    <glyph glyph-name="omacron" unicode="&#x14d;" horiz-adv-x="553" 
d="M42 225q0 104 65 168.5t170 64.5t169.5 -64.5t64.5 -168.5t-64.5 -168.5t-169.5 -64.5t-170 64.5t-65 168.5zM137 225q0 -68 39 -110t101 -42t101 42t39 110q0 67 -39 109t-101 42t-101 -42t-39 -109zM150 537v56h253v-56h-253z" />
    <glyph glyph-name="Obreve" unicode="&#x14e;" horiz-adv-x="803" 
d="M47 350q0 160 98.5 259t256.5 99t256 -99t98 -259t-98 -259t-256 -99t-256.5 99t-98.5 259zM145 350q0 -121 71.5 -197t185.5 -76t185 75.5t71 197.5t-71 197.5t-185 75.5t-185.5 -76t-71.5 -197zM402 813q62 0 100 41l46 -47q-58 -61 -146 -61q-86 0 -146 62l46 46
q39 -41 100 -41z" />
    <glyph glyph-name="obreve" unicode="&#x14f;" horiz-adv-x="553" 
d="M42 225q0 104 65 168.5t170 64.5t169.5 -64.5t64.5 -168.5t-64.5 -168.5t-169.5 -64.5t-170 64.5t-65 168.5zM137 225q0 -68 39 -110t101 -42t101 42t39 110q0 67 -39 109t-101 42t-101 -42t-39 -109zM277 587q62 0 100 40l46 -46q-59 -62 -146 -62q-86 0 -146 62l46 47
q39 -41 100 -41z" />
    <glyph glyph-name="Ohungarumlaut" unicode="&#x150;" horiz-adv-x="803" 
d="M47 350q0 160 98.5 259t256.5 99t256 -99t98 -259t-98 -259t-256 -99t-256.5 99t-98.5 259zM145 350q0 -121 71.5 -197t185.5 -76t185 75.5t71 197.5t-71 197.5t-185 75.5t-185.5 -76t-71.5 -197zM254 779l132 132l47 -46l-132 -132zM410 779l132 132l47 -46l-132 -132z
" />
    <glyph glyph-name="ohungarumlaut" unicode="&#x151;" horiz-adv-x="553" 
d="M42 225q0 104 65 168.5t170 64.5t169.5 -64.5t64.5 -168.5t-64.5 -168.5t-169.5 -64.5t-170 64.5t-65 168.5zM137 225q0 -68 39 -110t101 -42t101 42t39 110q0 67 -39 109t-101 42t-101 -42t-39 -109zM129 553l132 132l47 -47l-132 -132zM285 553l132 132l47 -47
l-132 -132z" />
    <glyph glyph-name="OE" unicode="&#x152;" horiz-adv-x="882" 
d="M578 621v-230h227v-79h-227v-234h264v-78h-356q-43 -8 -84 -8q-158 0 -256.5 99t-98.5 259t98.5 259t256.5 99q40 0 83 -8h352v-79h-259zM402 77q46 0 81 14v518q-39 14 -81 14q-114 0 -185.5 -76t-71.5 -197t71.5 -197t185.5 -76z" />
    <glyph glyph-name="oe" unicode="&#x153;" horiz-adv-x="829" 
d="M791 199h-328q6 -58 44 -92t100 -34q69 0 109 43l55 -57q-65 -67 -171 -67q-100 0 -161 59q-64 -59 -162 -59q-105 0 -170 64.5t-65 168.5t65 168.5t170 64.5q95 0 158 -57q59 57 148 57q99 0 153.5 -69t54.5 -190zM277 73q68 0 109 52q-20 41 -20 103q0 54 18 98
q-38 50 -107 50q-62 0 -101 -42t-39 -109q0 -68 39 -110t101 -42zM586 378q-50 0 -83 -31t-40 -84h236q-7 54 -36 84.5t-77 30.5z" />
    <glyph glyph-name="Racute" unicode="&#x154;" 
d="M408 0l-158 299h-85v-299h-98v700h206q96 0 154 -55t58 -146q0 -72 -37.5 -122.5t-103.5 -68.5l172 -308h-108zM387 499q0 54 -31.5 86.5t-82.5 32.5h-108v-237h108q51 0 82.5 32.5t31.5 85.5zM194 779l132 132l47 -46l-132 -132z" />
    <glyph glyph-name="racute" unicode="&#x155;" horiz-adv-x="346" 
d="M273 457q13 0 28 -3v-80q-15 4 -35 4q-70 0 -109 -59v-319h-91v450h91v-50q52 57 116 57zM117 553l132 132l47 -47l-132 -132z" />
    <glyph glyph-name="Rcommaaccent" unicode="&#x156;" 
d="M408 0l-158 299h-85v-299h-98v700h206q96 0 154 -55t58 -146q0 -72 -37.5 -122.5t-103.5 -68.5l172 -308h-108zM387 499q0 54 -31.5 86.5t-82.5 32.5h-108v-237h108q51 0 82.5 32.5t31.5 85.5zM246 -231l-26 25q37 37 43 67q-17 2 -28 15.5t-11 30.5q0 20 14 34t34 14
q19 0 33 -13.5t14 -41.5q0 -60 -73 -131z" />
    <glyph glyph-name="rcommaaccent" unicode="&#x157;" horiz-adv-x="346" 
d="M273 457q13 0 28 -3v-80q-15 4 -35 4q-70 0 -109 -59v-319h-91v450h91v-50q52 57 116 57zM86 -231l-26 25q37 37 43 67q-17 2 -28 15.5t-11 30.5q0 20 13.5 34t34.5 14q19 0 33 -13.5t14 -41.5q0 -58 -73 -131z" />
    <glyph glyph-name="Rcaron" unicode="&#x158;" 
d="M408 0l-158 299h-85v-299h-98v700h206q96 0 154 -55t58 -146q0 -72 -37.5 -122.5t-103.5 -68.5l172 -308h-108zM387 499q0 54 -31.5 86.5t-82.5 32.5h-108v-237h108q51 0 82.5 32.5t31.5 85.5zM263 733l-132 132l47 46l85 -85l86 85l46 -46z" />
    <glyph glyph-name="rcaron" unicode="&#x159;" horiz-adv-x="346" 
d="M273 457q13 0 28 -3v-80q-15 4 -35 4q-70 0 -109 -59v-319h-91v450h91v-50q52 57 116 57zM187 506l-132 132l46 47l86 -86l85 86l47 -47z" />
    <glyph glyph-name="Sacute" unicode="&#x15a;" 
d="M468 622l-60 -60q-24 26 -63.5 43.5t-77.5 17.5q-56 0 -84 -33t-28 -74t34 -68.5t82.5 -45.5t97.5 -39t83 -63t34 -104q0 -86 -58 -145t-162 -59q-135 0 -227 97l59 59q65 -71 159 -71q64 0 97.5 36.5t33.5 80.5q0 29 -18.5 51t-47.5 36t-64.5 27t-70.5 29t-64 37.5
t-47.5 57t-18.5 82.5q0 82 52 138t148 56q127 0 211 -86zM189 779l132 132l46 -46l-132 -132z" />
    <glyph glyph-name="sacute" unicode="&#x15b;" horiz-adv-x="386" 
d="M333 402l-56 -56q-33 35 -79 35q-28 0 -42.5 -17t-14.5 -37q0 -23 21 -39t50.5 -27t59.5 -24.5t51 -40.5t21 -65q0 -58 -41 -98.5t-114 -40.5q-95 0 -153 63l56 56q38 -43 91 -43q34 0 51.5 19.5t17.5 42.5q0 22 -21 37t-50.5 26t-59 24.5t-50.5 40.5t-21 67
q0 56 36.5 94.5t104.5 38.5q88 0 142 -56zM118 553l132 132l47 -47l-132 -132z" />
    <glyph glyph-name="Scircumflex" unicode="&#x15c;" 
d="M468 622l-60 -60q-24 26 -63.5 43.5t-77.5 17.5q-56 0 -84 -33t-28 -74t34 -68.5t82.5 -45.5t97.5 -39t83 -63t34 -104q0 -86 -58 -145t-162 -59q-135 0 -227 97l59 59q65 -71 159 -71q64 0 97.5 36.5t33.5 80.5q0 29 -18.5 51t-47.5 36t-64.5 27t-70.5 29t-64 37.5
t-47.5 57t-18.5 82.5q0 82 52 138t148 56q127 0 211 -86zM258 911l132 -132l-46 -46l-86 85l-85 -85l-47 46z" />
    <glyph glyph-name="scircumflex" unicode="&#x15d;" horiz-adv-x="386" 
d="M333 402l-56 -56q-33 35 -79 35q-28 0 -42.5 -17t-14.5 -37q0 -23 21 -39t50.5 -27t59.5 -24.5t51 -40.5t21 -65q0 -58 -41 -98.5t-114 -40.5q-95 0 -153 63l56 56q38 -43 91 -43q34 0 51.5 19.5t17.5 42.5q0 22 -21 37t-50.5 26t-59 24.5t-50.5 40.5t-21 67
q0 56 36.5 94.5t104.5 38.5q88 0 142 -56zM187 685l132 -132l-46 -47l-86 86l-85 -86l-47 47z" />
    <glyph glyph-name="Scedilla" unicode="&#x15e;" 
d="M468 622l-60 -60q-24 26 -63.5 43.5t-77.5 17.5q-56 0 -84 -33t-28 -74t34 -68.5t82.5 -45.5t97.5 -39t83 -63t34 -104q0 -82 -53 -140t-148 -63v-50q31 -6 49 -26.5t18 -52.5q0 -37 -24 -59.5t-62 -22.5t-63 25l29 29q15 -13 34 -13q20 0 32.5 12t12.5 31q0 45 -65 45
v82q-123 8 -207 96l59 59q65 -71 159 -71q64 0 97.5 36.5t33.5 80.5q0 29 -18.5 51t-47.5 36t-64.5 27t-70.5 29t-64 37.5t-47.5 57t-18.5 82.5q0 82 52 138t148 56q127 0 211 -86z" />
    <glyph glyph-name="scedilla" unicode="&#x15f;" horiz-adv-x="386" 
d="M333 402l-56 -56q-33 35 -79 35q-28 0 -42.5 -17t-14.5 -37q0 -23 21 -39t50.5 -27t59.5 -24.5t51 -40.5t21 -65q0 -54 -36 -93.5t-101 -44.5v-50q66 -13 66 -79q0 -37 -24 -59.5t-62 -22.5t-63 25l29 29q15 -13 34 -13q20 0 32.5 12t12.5 31q0 45 -65 45v82
q-81 8 -131 62l56 56q38 -43 91 -43q34 0 51.5 19.5t17.5 42.5q0 22 -21 37t-50.5 26t-59 24.5t-50.5 40.5t-21 67q0 56 36.5 94.5t104.5 38.5q88 0 142 -56z" />
    <glyph glyph-name="Scaron" unicode="&#x160;" 
d="M468 622l-60 -60q-24 26 -63.5 43.5t-77.5 17.5q-56 0 -84 -33t-28 -74t34 -68.5t82.5 -45.5t97.5 -39t83 -63t34 -104q0 -86 -58 -145t-162 -59q-135 0 -227 97l59 59q65 -71 159 -71q64 0 97.5 36.5t33.5 80.5q0 29 -18.5 51t-47.5 36t-64.5 27t-70.5 29t-64 37.5
t-47.5 57t-18.5 82.5q0 82 52 138t148 56q127 0 211 -86zM258 733l-132 132l47 46l85 -85l86 85l46 -46z" />
    <glyph glyph-name="scaron" unicode="&#x161;" horiz-adv-x="386" 
d="M333 402l-56 -56q-33 35 -79 35q-28 0 -42.5 -17t-14.5 -37q0 -23 21 -39t50.5 -27t59.5 -24.5t51 -40.5t21 -65q0 -58 -41 -98.5t-114 -40.5q-95 0 -153 63l56 56q38 -43 91 -43q34 0 51.5 19.5t17.5 42.5q0 22 -21 37t-50.5 26t-59 24.5t-50.5 40.5t-21 67
q0 56 36.5 94.5t104.5 38.5q88 0 142 -56zM187 506l-132 132l47 47l85 -86l86 86l46 -47z" />
    <glyph glyph-name="Tcommaaccent" unicode="&#x162;" horiz-adv-x="557" 
d="M326 621v-621h-95v621h-194v79h483v-79h-194zM254 -231l-25 25q36 38 42 67q-17 2 -28 15.5t-11 30.5q0 20 14 34t34 14q19 0 33.5 -13.5t14.5 -41.5q0 -59 -74 -131z" />
    <glyph glyph-name="tcommaaccent" unicode="&#x163;" horiz-adv-x="326" 
d="M30 378v72h55v100h95v-100h111v-72h-111v-231q0 -35 20 -56t54 -21q20 0 37 9v-77q-21 -10 -54 -10q-70 0 -111 42t-41 113v231h-55zM155 -231l-25 25q35 35 42 67q-17 2 -28 15.5t-11 30.5q0 20 14 34t35 14q19 0 33 -13.5t14 -41.5q0 -59 -74 -131z" />
    <glyph glyph-name="Tcaron" unicode="&#x164;" horiz-adv-x="557" 
d="M326 621v-621h-95v621h-194v79h483v-79h-194zM278 733l-132 132l47 46l85 -85l86 85l46 -46z" />
    <glyph glyph-name="tcaron" unicode="&#x165;" horiz-adv-x="378" 
d="M30 378v72h55v100h95v-100h111v-72h-111v-231q0 -35 20 -56t54 -21q20 0 37 9v-77q-21 -10 -54 -10q-70 0 -111 42t-41 113v231h-55zM280 519l-31 30q40 42 51 78q-20 4 -33.5 19.5t-13.5 36.5q0 24 16.5 41t41.5 17q22 0 39.5 -16t17.5 -50q0 -70 -88 -156z" />
    <glyph glyph-name="Tbar" unicode="&#x166;" horiz-adv-x="557" 
d="M90 334v72h141v215h-194v79h483v-79h-194v-215h140v-72h-140v-334h-95v334h-141z" />
    <glyph glyph-name="tbar" unicode="&#x167;" horiz-adv-x="326" 
d="M30 231v69h55v78h-55v72h55v100h95v-100h111v-72h-111v-78h111v-69h-111v-84q0 -35 20 -56t54 -21q20 0 37 9v-77q-21 -10 -54 -10q-70 0 -111 42t-41 113v84h-55z" />
    <glyph glyph-name="Utilde" unicode="&#x168;" horiz-adv-x="665" 
d="M503 256v444h95v-444q0 -118 -73.5 -191t-192.5 -73t-192 73t-73 191v444h95v-444q0 -79 47 -129t122 -50q76 0 124 49.5t48 129.5zM239 759h-51q0 42 25.5 68t64.5 26q32 0 60.5 -23.5t47.5 -23.5q17 0 28.5 11.5t11.5 30.5h50q0 -41 -25 -67t-65 -26q-33 0 -60.5 23.5
t-46.5 23.5q-17 0 -28.5 -12t-11.5 -31z" />
    <glyph glyph-name="utilde" unicode="&#x169;" horiz-adv-x="527" 
d="M461 450v-262q0 -88 -54.5 -142t-143.5 -54q-88 0 -142.5 54t-54.5 142v262h94v-262q0 -51 29.5 -83t76.5 -32t76 32t29 83v262h90zM170 533h-51q0 42 25.5 67.5t64.5 25.5q32 0 60.5 -23.5t46.5 -23.5t29 12t11 31h51q0 -42 -25 -68t-66 -26q-32 0 -60 23.5t-46 23.5
t-29 -11.5t-11 -30.5z" />
    <glyph glyph-name="Umacron" unicode="&#x16a;" horiz-adv-x="665" 
d="M503 256v444h95v-444q0 -118 -73.5 -191t-192.5 -73t-192 73t-73 191v444h95v-444q0 -79 47 -129t122 -50q76 0 124 49.5t48 129.5zM206 764v55h253v-55h-253z" />
    <glyph glyph-name="umacron" unicode="&#x16b;" horiz-adv-x="527" 
d="M461 450v-262q0 -88 -54.5 -142t-143.5 -54q-88 0 -142.5 54t-54.5 142v262h94v-262q0 -51 29.5 -83t76.5 -32t76 32t29 83v262h90zM137 537v56h252v-56h-252z" />
    <glyph glyph-name="Ubreve" unicode="&#x16c;" horiz-adv-x="665" 
d="M503 256v444h95v-444q0 -118 -73.5 -191t-192.5 -73t-192 73t-73 191v444h95v-444q0 -79 47 -129t122 -50q76 0 124 49.5t48 129.5zM332 813q62 0 100 41l46 -47q-56 -61 -146 -61q-86 0 -146 62l46 46q39 -41 100 -41z" />
    <glyph glyph-name="ubreve" unicode="&#x16d;" horiz-adv-x="527" 
d="M461 450v-262q0 -88 -54.5 -142t-143.5 -54q-88 0 -142.5 54t-54.5 142v262h94v-262q0 -51 29.5 -83t76.5 -32t76 32t29 83v262h90zM263 587q62 0 100 40l46 -46q-59 -62 -146 -62q-86 0 -146 62l46 47q39 -41 100 -41z" />
    <glyph glyph-name="Uring" unicode="&#x16e;" horiz-adv-x="665" 
d="M503 256v444h95v-444q0 -118 -73.5 -191t-192.5 -73t-192 73t-73 191v444h95v-444q0 -79 47 -129t122 -50q76 0 124 49.5t48 129.5zM243 817q0 41 24.5 66t64.5 25q41 0 65.5 -25t24.5 -66t-25 -66.5t-65 -25.5t-64.5 25.5t-24.5 66.5zM284 816q0 -22 13.5 -36t34.5 -14
q22 0 36 14t14 36q0 23 -14 37t-36 14q-21 0 -34.5 -14t-13.5 -37z" />
    <glyph glyph-name="uring" unicode="&#x16f;" horiz-adv-x="527" 
d="M461 450v-262q0 -88 -54.5 -142t-143.5 -54q-88 0 -142.5 54t-54.5 142v262h94v-262q0 -51 29.5 -83t76.5 -32t76 32t29 83v262h90zM174 590q0 41 24.5 66.5t64.5 25.5t65 -25.5t25 -66.5t-25 -66t-65 -25t-64.5 25t-24.5 66zM214 590q0 -22 14 -36t35 -14q22 0 36 14
t14 36t-14.5 36.5t-35.5 14.5t-35 -14.5t-14 -36.5z" />
    <glyph glyph-name="Uhungarumlaut" unicode="&#x170;" horiz-adv-x="665" 
d="M503 256v444h95v-444q0 -118 -73.5 -191t-192.5 -73t-192 73t-73 191v444h95v-444q0 -79 47 -129t122 -50q76 0 124 49.5t48 129.5zM185 779l132 132l47 -46l-132 -132zM341 779l132 132l47 -46l-132 -132z" />
    <glyph glyph-name="uhungarumlaut" unicode="&#x171;" horiz-adv-x="527" 
d="M461 450v-262q0 -88 -54.5 -142t-143.5 -54q-88 0 -142.5 54t-54.5 142v262h94v-262q0 -51 29.5 -83t76.5 -32t76 32t29 83v262h90zM116 553l132 132l46 -47l-132 -132zM272 553l132 132l46 -47l-132 -132z" />
    <glyph glyph-name="Uogonek" unicode="&#x172;" horiz-adv-x="665" 
d="M394 -37q0 -25 14 -40t37 -15q24 0 39 15l32 -31q-26 -28 -70 -28q-43 0 -70 27t-27 72q0 19 5 30q-4 0 -11 -0.5t-11 -0.5q-119 0 -192 73t-73 191v444h95v-444q0 -79 47 -129t122 -50q76 0 124 49.5t48 129.5v444h95v-444q0 -98 -53 -167t-142 -89q-9 -14 -9 -37z" />
    <glyph glyph-name="uogonek" unicode="&#x173;" horiz-adv-x="527" 
d="M315 -37q0 -25 14.5 -40t37.5 -15t38 15l32 -31q-26 -28 -70 -28q-43 0 -70 27t-27 72q0 18 5 29h-12q-88 0 -142.5 54t-54.5 142v262h94v-262q0 -51 29.5 -83t76.5 -32t76 32t29 83v262h90v-262q0 -72 -37 -121.5t-100 -66.5q-9 -14 -9 -37z" />
    <glyph glyph-name="Wcircumflex" unicode="&#x174;" horiz-adv-x="1119" 
d="M1097 700l-258 -700h-95l-185 536l-183 -536h-96l-258 700h111l195 -552l183 552h98l183 -552l195 552h110zM559 911l132 -132l-46 -46l-86 85l-85 -85l-47 46z" />
    <glyph glyph-name="wcircumflex" unicode="&#x175;" horiz-adv-x="790" 
d="M771 450l-172 -450h-96l-108 321l-108 -321h-96l-172 450h105l115 -338l110 338h92l110 -338l115 338h105zM395 685l132 -132l-46 -47l-86 86l-85 -86l-47 47z" />
    <glyph glyph-name="Ycircumflex" unicode="&#x176;" horiz-adv-x="673" 
d="M288 0v295l-266 405h110l204 -312l204 312h110l-267 -406v-294h-95zM336 911l132 -132l-46 -46l-86 85l-85 -85l-47 46z" />
    <glyph glyph-name="ycircumflex" unicode="&#x177;" horiz-adv-x="529" 
d="M510 450l-320 -700h-101l132 250l-202 450h102l144 -340l143 340h102zM264 685l132 -132l-46 -47l-86 86l-85 -86l-47 47z" />
    <glyph glyph-name="Ydieresis" unicode="&#x178;" horiz-adv-x="673" 
d="M288 0v295l-266 405h110l204 -312l204 312h110l-267 -406v-294h-95zM187 798q0 22 15.5 38t38.5 16t38.5 -16t15.5 -38t-15.5 -38t-38.5 -16t-38.5 16t-15.5 38zM376 798q0 23 16 39t39 16t38.5 -16t15.5 -39q0 -22 -15.5 -38t-38.5 -16t-39 15.5t-16 38.5z" />
    <glyph glyph-name="Zacute" unicode="&#x179;" horiz-adv-x="626" 
d="M53 621v79h524v-30l-391 -592h393v-78h-532v30l391 591h-385zM243 779l132 132l47 -46l-132 -132z" />
    <glyph glyph-name="zacute" unicode="&#x17a;" horiz-adv-x="472" 
d="M51 378v72h374v-30l-243 -348h243v-72h-378v30l243 348h-239zM167 553l132 132l46 -47l-132 -132z" />
    <glyph glyph-name="Zdotaccent" unicode="&#x17b;" horiz-adv-x="626" 
d="M53 621v79h524v-30l-391 -592h393v-78h-532v30l391 591h-385zM255 811q0 25 16.5 41.5t41.5 16.5q24 0 40.5 -16.5t16.5 -41.5q0 -24 -16.5 -40.5t-40.5 -16.5q-25 0 -41.5 16.5t-16.5 40.5z" />
    <glyph glyph-name="zdotaccent" unicode="&#x17c;" horiz-adv-x="472" 
d="M51 378v72h374v-30l-243 -348h243v-72h-378v30l243 348h-239zM178 585q0 24 17 40.5t41 16.5t40.5 -16.5t16.5 -40.5t-16.5 -41t-40.5 -17t-41 17t-17 41z" />
    <glyph glyph-name="Zcaron" unicode="&#x17d;" horiz-adv-x="626" 
d="M53 621v79h524v-30l-391 -592h393v-78h-532v30l391 591h-385zM313 733l-132 132l46 46l86 -85l85 85l47 -46z" />
    <glyph glyph-name="zcaron" unicode="&#x17e;" horiz-adv-x="472" 
d="M51 378v72h374v-30l-243 -348h243v-72h-378v30l243 348h-239zM236 506l-132 132l46 47l86 -86l85 86l47 -47z" />
    <glyph glyph-name="longs" unicode="&#x17f;" horiz-adv-x="305" 
d="M66 0v597q0 74 43 117.5t116 43.5q34 0 55 -10v-77q-16 9 -38 9q-37 0 -59.5 -23t-22.5 -60v-597h-94z" />
    <glyph glyph-name="uni018F" unicode="&#x18f;" horiz-adv-x="740" 
d="M693 350q0 -160 -89 -259t-234 -99q-144 0 -233.5 99t-89.5 259v36h546q-11 107 -81.5 172t-177.5 65q-119 0 -192 -76l-61 61q98 100 258 100q158 0 256 -99t98 -259zM370 77q91 0 151 63t71 167h-443q10 -104 70 -167t151 -63z" />
    <glyph glyph-name="florin" unicode="&#x192;" horiz-adv-x="331" 
d="M41 -250v60q23 0 37 13t14 37v518h-60v72h60v147q0 74 43 117.5t116 43.5q34 0 55 -10v-77q-16 9 -38 9q-37 0 -59 -23t-22 -60v-147h119v-72h-119v-520q0 -51 -29.5 -82t-79.5 -31q-24 0 -37 5z" />
    <glyph glyph-name="uni01DD" unicode="&#x1dd;" horiz-adv-x="506" 
d="M42 251h328q-7 58 -45 91.5t-99 33.5q-70 0 -109 -42l-55 57q64 67 170 67q105 0 170 -64.5t65 -171.5q0 -102 -60 -166t-158 -64q-99 0 -153 69t-54 190zM247 72q49 0 82 31t41 84h-236q6 -54 35 -84.5t78 -30.5z" />
    <glyph glyph-name="Aringacute" unicode="&#x1fa;" horiz-adv-x="755" 
d="M330 879l132 132l47 -46l-105 -105q29 -8 46 -31t17 -57q0 -56 -42 -80l308 -692h-110l-80 185h-331l-80 -185h-110l307 692q-41 25 -41 80q0 33 16.5 56t45.5 31zM378 578l-132 -308h262zM329 771q0 -22 13.5 -36t35.5 -14t35.5 14t13.5 36q0 23 -14 37t-35 14
q-22 0 -35.5 -14t-13.5 -37z" />
    <glyph glyph-name="aringacute" unicode="&#x1fb;" horiz-adv-x="457" 
d="M414 60v-60q-13 -5 -34 -5q-60 0 -83 49q-54 -52 -126 -52q-62 0 -96 37t-34 89q0 69 61.5 108.5t153.5 39.5q18 0 32 -2v44q0 29 -21 52t-61 23q-60 0 -93 -35l-50 49q61 61 150 61q78 0 122.5 -43.5t44.5 -106.5v-212q0 -17 9.5 -26.5t24.5 -9.5zM167 679l132 132
l46 -47l-106 -106q30 -7 47.5 -30.5t17.5 -57.5q0 -41 -24.5 -66.5t-64.5 -25.5t-65 25.5t-25 66.5q0 33 17 56t46 31zM201 67q53 0 87 38v97q-11 3 -27 3q-55 0 -91.5 -21t-36.5 -56q0 -24 16.5 -42.5t51.5 -18.5zM166 569q0 -22 13.5 -36t35.5 -14t35.5 14t13.5 36
q0 23 -14 37t-35 14q-22 0 -35.5 -14t-13.5 -37z" />
    <glyph glyph-name="AEacute" unicode="&#x1fc;" horiz-adv-x="776" 
d="M472 621v-230h226v-79h-226v-234h263v-78h-357v185h-166l-80 -185h-110l311 700h397v-79h-258zM246 270h132v309zM345 779l132 132l46 -46l-132 -132z" />
    <glyph glyph-name="aeacute" unicode="&#x1fd;" horiz-adv-x="714" 
d="M288 264v44q0 29 -21 52t-61 23q-60 0 -93 -35l-50 49q61 61 150 61q75 0 119 -46q55 46 136 46q99 0 153 -69t54 -190h-295v-79q38 -47 111 -47q69 0 109 43l55 -57q-64 -67 -170 -67q-115 0 -176 69q-53 -69 -138 -69q-62 0 -96 37t-34 89q0 69 61.5 108.5t153.5 39.5
q18 0 32 -2zM380 308v-45h203q-6 54 -35 84.5t-78 30.5q-60 0 -93 -42q3 -27 3 -28zM288 109v93q-11 3 -27 3q-55 0 -91.5 -21t-36.5 -56q0 -24 16.5 -42.5t51.5 -18.5q52 0 87 42zM300 553l132 132l47 -47l-132 -132z" />
    <glyph glyph-name="Oslashacute" unicode="&#x1fe;" horiz-adv-x="803" 
d="M46 -8l92 107q-91 97 -91 251q0 160 98.5 259t256.5 99q118 0 208 -60l51 60h97l-93 -108q91 -97 91 -250q0 -160 -98 -259t-256 -99q-121 0 -208 59l-51 -59h-97zM145 350q0 -106 55 -178l350 407q-63 44 -148 44q-114 0 -185.5 -76t-71.5 -197zM658 350q0 104 -55 178
l-349 -408q61 -43 148 -43q114 0 185 75.5t71 197.5zM332 779l132 132l47 -46l-132 -132z" />
    <glyph glyph-name="oslashacute" unicode="&#x1ff;" horiz-adv-x="553" 
d="M46 -8l55 70q-59 64 -59 163q0 104 65 168.5t170 64.5q60 0 113 -24l24 31h94l-59 -75q62 -64 62 -165q0 -104 -64.5 -168.5t-169.5 -64.5q-66 0 -118 26l-20 -26h-93zM423 225q0 55 -27 96l-187 -239q30 -15 68 -15q65 0 105.5 43.5t40.5 114.5zM130 225q0 -53 25 -94
l185 239q-31 13 -63 13q-65 0 -106 -44t-41 -114zM207 553l132 132l47 -47l-132 -132z" />
    <glyph glyph-name="Scommaaccent" unicode="&#x218;" 
d="M468 622l-60 -60q-24 26 -63.5 43.5t-77.5 17.5q-56 0 -84 -33t-28 -74t34 -68.5t82.5 -45.5t97.5 -39t83 -63t34 -104q0 -86 -58 -145t-162 -59q-135 0 -227 97l59 59q65 -71 159 -71q64 0 97.5 36.5t33.5 80.5q0 29 -18.5 51t-47.5 36t-64.5 27t-70.5 29t-64 37.5
t-47.5 57t-18.5 82.5q0 82 52 138t148 56q127 0 211 -86zM243 -231l-26 25q35 35 43 67q-17 2 -28 15.5t-11 30.5q0 20 13.5 34t34.5 14q19 0 33 -13.5t14 -41.5q0 -58 -73 -131z" />
    <glyph glyph-name="scommaaccent" unicode="&#x219;" horiz-adv-x="386" 
d="M333 402l-56 -56q-33 35 -79 35q-28 0 -42.5 -17t-14.5 -37q0 -23 21 -39t50.5 -27t59.5 -24.5t51 -40.5t21 -65q0 -58 -41 -98.5t-114 -40.5q-95 0 -153 63l56 56q38 -43 91 -43q34 0 51.5 19.5t17.5 42.5q0 22 -21 37t-50.5 26t-59 24.5t-50.5 40.5t-21 67
q0 56 36.5 94.5t104.5 38.5q88 0 142 -56zM164 -231l-26 25q35 35 43 67q-17 2 -28 15.5t-11 30.5q0 20 13.5 34t34.5 14q19 0 33 -13.5t14 -41.5q0 -58 -73 -131z" />
    <glyph glyph-name="uni021A" unicode="&#x21a;" horiz-adv-x="557" 
d="M326 621v-621h-95v621h-194v79h483v-79h-194zM254 -231l-25 25q36 38 42 67q-17 2 -28 15.5t-11 30.5q0 20 14 34t34 14q19 0 33.5 -13.5t14.5 -41.5q0 -59 -74 -131z" />
    <glyph glyph-name="uni021B" unicode="&#x21b;" horiz-adv-x="326" 
d="M30 378v72h55v100h95v-100h111v-72h-111v-231q0 -35 20 -56t54 -21q20 0 37 9v-77q-21 -10 -54 -10q-70 0 -111 42t-41 113v231h-55zM155 -231l-25 25q35 35 42 67q-17 2 -28 15.5t-11 30.5q0 20 14 34t35 14q19 0 33 -13.5t14 -41.5q0 -59 -74 -131z" />
    <glyph glyph-name="dotlessj" unicode="&#x237;" horiz-adv-x="223" 
d="M15 -250v60q23 0 37 13t14 37v590h91v-592q0 -52 -28 -82.5t-77 -30.5q-24 0 -37 5z" />
    <glyph glyph-name="circumflex" unicode="&#x2c6;" horiz-adv-x="352" 
d="M176 685l132 -132l-47 -47l-85 86l-86 -86l-46 47z" />
    <glyph glyph-name="caron" unicode="&#x2c7;" horiz-adv-x="352" 
d="M176 506l-132 132l46 47l86 -86l85 86l47 -47z" />
    <glyph glyph-name="breve" unicode="&#x2d8;" horiz-adv-x="356" 
d="M178 587q62 0 100 40l46 -46q-59 -62 -146 -62q-86 0 -146 62l46 47q39 -41 100 -41z" />
    <glyph glyph-name="dotaccent" unicode="&#x2d9;" horiz-adv-x="223" 
d="M54 585q0 24 16.5 40.5t40.5 16.5q25 0 41.5 -16.5t16.5 -40.5t-16.5 -41t-41.5 -17q-24 0 -40.5 17t-16.5 41z" />
    <glyph glyph-name="ring" unicode="&#x2da;" horiz-adv-x="275" 
d="M48 590q0 41 25 66.5t65 25.5t64.5 -25.5t24.5 -66.5t-24.5 -66t-64.5 -25t-65 25.5t-25 65.5zM89 590q0 -22 13.5 -36t35.5 -14t35.5 14t13.5 36t-14 36.5t-35 14.5q-22 0 -35.5 -14t-13.5 -37z" />
    <glyph glyph-name="ogonek" unicode="&#x2db;" horiz-adv-x="257" 
d="M90 -37q0 -25 14.5 -40t37.5 -15t38 15l32 -31q-26 -28 -69 -28q-44 0 -71 27t-27 72q0 21 9 37h45q-9 -14 -9 -37z" />
    <glyph glyph-name="tilde" unicode="&#x2dc;" horiz-adv-x="342" 
d="M78 533h-51q0 42 25 67.5t64 25.5q32 0 61 -23.5t47 -23.5t29 12t11 31h51q0 -42 -25.5 -68t-65.5 -26q-32 0 -60 23.5t-47 23.5q-17 0 -28 -11.5t-11 -30.5z" />
    <glyph glyph-name="hungarumlaut" unicode="&#x2dd;" horiz-adv-x="422" 
d="M44 553l132 132l46 -47l-132 -132zM200 553l132 132l46 -47l-132 -132z" />
    <glyph glyph-name="uni0400" unicode="&#x400;" horiz-adv-x="491" 
d="M162 621v-230h248v-79h-248v-234h285v-78h-380v700h375v-79h-280zM193 911l132 -132l-46 -46l-132 132z" />
    <glyph glyph-name="afii10023" unicode="&#x401;" horiz-adv-x="491" 
d="M162 621v-230h248v-79h-248v-234h285v-78h-380v700h375v-79h-280zM106 798q0 22 16 38t38 16t38 -16t16 -38t-16 -38t-38 -16t-38 16t-16 38zM296 798q0 23 15.5 39t38.5 16t39 -16t16 -39t-16 -38.5t-39 -15.5q-22 0 -38 16t-16 38z" />
    <glyph glyph-name="afii10051" unicode="&#x402;" horiz-adv-x="689" 
d="M479 0v60q23 0 37 13t14 37v133q0 47 -27.5 77t-72.5 30q-66 0 -104 -41v-309h-95v621h-194v79h483v-79h-194v-233q54 43 128 43q78 0 124.5 -52t46.5 -136v-135q0 -52 -29 -82.5t-79 -30.5q-25 0 -38 5z" />
    <glyph glyph-name="afii10052" unicode="&#x403;" horiz-adv-x="464" 
d="M176 779l132 132l47 -46l-132 -132zM67 0v700h359v-79h-264v-621h-95z" />
    <glyph glyph-name="afii10053" unicode="&#x404;" horiz-adv-x="696" 
d="M406 623q-105 0 -175.5 -63.5t-82.5 -168.5h394v-79h-394q11 -106 81.5 -170.5t176.5 -64.5q120 0 193 75l60 -60q-98 -100 -257 -100q-158 0 -256.5 99t-98.5 259t98.5 259t256.5 99q159 0 257 -100l-60 -61q-73 76 -193 76z" />
    <glyph glyph-name="afii10054" unicode="&#x405;" 
d="M468 622l-60 -60q-24 26 -63.5 43.5t-77.5 17.5q-56 0 -84 -33t-28 -74t34 -68.5t82.5 -45.5t97.5 -39t83 -63t34 -104q0 -86 -58 -145t-162 -59q-135 0 -227 97l59 59q65 -71 159 -71q64 0 97.5 36.5t33.5 80.5q0 29 -18.5 51t-47.5 36t-64.5 27t-70.5 29t-64 37.5
t-47.5 57t-18.5 82.5q0 82 52 138t148 56q127 0 211 -86z" />
    <glyph glyph-name="afii10055" unicode="&#x406;" horiz-adv-x="226" 
d="M66 0v700h94v-700h-94z" />
    <glyph glyph-name="afii10056" unicode="&#x407;" horiz-adv-x="226" 
d="M66 0v700h94v-700h-94zM-23 798q0 23 16 38.5t39 15.5q22 0 38 -16t16 -38t-16 -38t-38 -16q-23 0 -39 15.5t-16 38.5zM140 798q0 23 15.5 39t38.5 16t39 -16t16 -39t-16 -38.5t-39 -15.5q-22 0 -38 16t-16 38z" />
    <glyph glyph-name="afii10057" unicode="&#x408;" horiz-adv-x="451" 
d="M291 193v507h95v-507q0 -90 -56 -145.5t-146 -55.5q-91 0 -147 56l61 61q30 -32 82 -32q49 0 80 32t31 84z" />
    <glyph glyph-name="afii10058" unicode="&#x409;" horiz-adv-x="944" 
d="M478 0v621h-230v-438q0 -86 -43.5 -137t-115.5 -51q-34 0 -54 5v60q53 0 84 31t31 88v521h426v-299h109q95 0 153.5 -54.5t58.5 -145.5q0 -92 -58 -146.5t-154 -54.5h-207zM799 201q0 53 -31.5 85.5t-82.5 32.5h-109v-237h109q51 0 82.5 32.5t31.5 86.5z" />
    <glyph glyph-name="afii10059" unicode="&#x40a;" horiz-adv-x="941" 
d="M162 700v-299h312v299h98v-299h110q95 0 153.5 -55t58.5 -145q0 -92 -58.5 -146.5t-153.5 -54.5h-208v319h-312v-319h-95v700h95zM796 201q0 53 -31.5 85.5t-82.5 32.5h-110v-237h110q51 0 82.5 32.5t31.5 86.5z" />
    <glyph glyph-name="afii10060" unicode="&#x40b;" horiz-adv-x="689" 
d="M326 621v-233q54 43 128 43q78 0 124.5 -52t46.5 -136v-243h-95v243q0 47 -27.5 77t-72.5 30q-66 0 -104 -41v-309h-95v621h-194v79h483v-79h-194z" />
    <glyph glyph-name="afii10061" unicode="&#x40c;" horiz-adv-x="607" 
d="M66 0v700h94v-700h-94zM461 0l-298 360l277 340h119l-277 -340l301 -360h-122zM234 779l132 132l46 -46l-132 -132z" />
    <glyph glyph-name="uni040D" unicode="&#x40d;" horiz-adv-x="700" 
d="M287 911l132 -132l-46 -46l-132 132zM571 700h62v-700h-95v519l-408 -519h-63v700h95v-519z" />
    <glyph glyph-name="afii10062" unicode="&#x40e;" horiz-adv-x="609" 
d="M304 813q62 0 100 41l46 -47q-56 -61 -146 -61q-86 0 -146 62l46 46q39 -41 100 -41zM590 700l-349 -700h-102l121 220l-241 480h102l184 -370l183 370h102z" />
    <glyph glyph-name="afii10145" unicode="&#x40f;" horiz-adv-x="690" 
d="M301 0h-234v700h95v-622h366v622h95v-700h-233v-150h-89v150z" />
    <glyph glyph-name="afii10017" unicode="&#x410;" horiz-adv-x="755" 
d="M623 0l-80 185h-331l-80 -185h-110l311 700h89l311 -700h-110zM378 578l-132 -308h262z" />
    <glyph glyph-name="afii10018" unicode="&#x411;" horiz-adv-x="539" 
d="M67 0v700h369v-79h-271v-220h115q95 0 153.5 -54.5t58.5 -145.5q0 -92 -58 -146.5t-154 -54.5h-213zM394 201q0 53 -31.5 85.5t-82.5 32.5h-115v-237h115q51 0 82.5 32.5t31.5 86.5z" />
    <glyph glyph-name="afii10019" unicode="&#x412;" horiz-adv-x="550" 
d="M67 0v700h203q86 0 139 -49.5t53 -132.5q0 -99 -76 -148q53 -21 83 -66.5t30 -108.5q0 -89 -56.5 -142t-148.5 -53h-227zM405 202q0 53 -32 86t-83 33h-125v-239h125q51 0 83 33t32 87zM367 510q0 49 -28.5 78.5t-75.5 29.5h-98v-216h98q46 0 75 30t29 78z" />
    <glyph glyph-name="afii10020" unicode="&#x413;" horiz-adv-x="464" 
d="M67 0v700h359v-79h-264v-621h-95z" />
    <glyph glyph-name="afii10021" unicode="&#x414;" horiz-adv-x="683" 
d="M564 0h-445v-150h-89v225q53 0 83.5 40t30.5 115v470h435v-622h73v-228h-88v150zM242 230q0 -99 -53 -152h292v543h-239v-391z" />
    <glyph glyph-name="afii10022" unicode="&#x415;" horiz-adv-x="491" 
d="M162 621v-230h248v-79h-248v-234h285v-78h-380v700h375v-79h-280z" />
    <glyph glyph-name="afii10024" unicode="&#x416;" horiz-adv-x="920" 
d="M412 0v700h95v-700h-95zM784 0l-274 360l258 340h110l-259 -340l277 -360h-112zM410 360l-274 -360h-112l276 360l-258 340h109z" />
    <glyph glyph-name="afii10025" unicode="&#x417;" horiz-adv-x="550" 
d="M186 321v81h77q50 0 80 29.5t30 81.5t-30.5 82t-84.5 30q-83 0 -153 -70l-57 57q96 96 217 96q96 0 149.5 -52t53.5 -135q0 -104 -82 -151q53 -21 83 -66.5t30 -109.5q0 -92 -62 -147t-166 -55q-137 0 -234 100l60 60q72 -77 167 -77q66 0 103.5 35t37.5 92q0 53 -32 86
t-83 33h-104z" />
    <glyph glyph-name="afii10026" unicode="&#x418;" horiz-adv-x="700" 
d="M571 700h62v-700h-95v519l-408 -519h-63v700h95v-519z" />
    <glyph glyph-name="afii10027" unicode="&#x419;" horiz-adv-x="700" 
d="M350 813q62 0 100 41l46 -47q-58 -61 -146 -61q-86 0 -146 62l46 46q39 -41 100 -41zM571 700h62v-700h-95v519l-408 -519h-63v700h95v-519z" />
    <glyph glyph-name="afii10028" unicode="&#x41a;" horiz-adv-x="607" 
d="M66 0v700h94v-700h-94zM461 0l-298 360l277 340h119l-277 -340l301 -360h-122z" />
    <glyph glyph-name="afii10029" unicode="&#x41b;" horiz-adv-x="657" 
d="M35 0v60q53 0 84 31t31 88v521h439v-700h-98v621h-243v-438q0 -86 -43.5 -137t-115.5 -51q-34 0 -54 5z" />
    <glyph glyph-name="afii10030" unicode="&#x41c;" horiz-adv-x="803" 
d="M640 0v506l-220 -352h-38l-220 352v-506h-95v700h72l262 -410l263 410h71v-700h-95z" />
    <glyph glyph-name="afii10031" unicode="&#x41d;" horiz-adv-x="687" 
d="M162 700v-309h363v309h94v-700h-94v312h-363v-312h-95v700h95z" />
    <glyph glyph-name="afii10032" unicode="&#x41e;" horiz-adv-x="803" 
d="M47 350q0 160 98.5 259t256.5 99t256 -99t98 -259t-98 -259t-256 -99t-256.5 99t-98.5 259zM145 350q0 -121 71.5 -197t185.5 -76t185 75.5t71 197.5t-71 197.5t-185 75.5t-185.5 -76t-71.5 -197z" />
    <glyph glyph-name="afii10033" unicode="&#x41f;" horiz-adv-x="654" 
d="M67 700h519v-700h-94v621h-330v-621h-95v700z" />
    <glyph glyph-name="afii10034" unicode="&#x420;" horiz-adv-x="524" 
d="M67 0v700h198q95 0 153.5 -55t58.5 -146q0 -90 -58.5 -145t-153.5 -55h-100v-299h-98zM379 499q0 54 -31.5 86.5t-82.5 32.5h-100v-237h100q51 0 82.5 32.5t31.5 85.5z" />
    <glyph glyph-name="afii10035" unicode="&#x421;" horiz-adv-x="696" 
d="M145 350q0 -121 72.5 -197t188.5 -76q120 0 193 75l60 -60q-98 -100 -257 -100q-158 0 -256.5 99t-98.5 259t98.5 259t256.5 99q159 0 257 -100l-60 -61q-73 76 -193 76q-116 0 -188.5 -76t-72.5 -197z" />
    <glyph glyph-name="afii10036" unicode="&#x422;" horiz-adv-x="557" 
d="M326 621v-621h-95v621h-194v79h483v-79h-194z" />
    <glyph glyph-name="afii10037" unicode="&#x423;" horiz-adv-x="609" 
d="M590 700l-349 -700h-102l121 220l-241 480h102l184 -370l183 370h102z" />
    <glyph glyph-name="afii10038" unicode="&#x424;" horiz-adv-x="784" 
d="M345 0v67q-133 0 -215.5 78.5t-82.5 204.5t82.5 204.5t215.5 78.5v67h95v-67q133 0 215 -78.5t82 -204.5t-82 -204.5t-215 -78.5v-67h-95zM440 548v-396q89 0 144 54.5t55 143.5t-55 143.5t-144 54.5zM345 152v396q-89 0 -144.5 -55t-55.5 -143t55.5 -143t144.5 -55z" />
    <glyph glyph-name="afii10039" unicode="&#x425;" horiz-adv-x="728" 
d="M582 0l-218 291l-218 -291h-122l270 355l-262 345h122l210 -280l209 280h123l-263 -345l271 -355h-122z" />
    <glyph glyph-name="afii10040" unicode="&#x426;" horiz-adv-x="723" 
d="M605 0h-538v700h95v-622h366v622h95v-622h70v-228h-88v150z" />
    <glyph glyph-name="afii10041" unicode="&#x427;" horiz-adv-x="577" 
d="M509 0h-91v307q-64 -18 -145 -18q-100 0 -153 55.5t-53 160.5v195h92v-191q0 -145 133 -145q80 0 126 18v318h91v-700z" />
    <glyph glyph-name="afii10042" unicode="&#x428;" horiz-adv-x="1001" 
d="M934 0h-867v700h95v-622h291v622h95v-622h291v622h95v-700z" />
    <glyph glyph-name="afii10043" unicode="&#x429;" horiz-adv-x="1034" 
d="M915 0h-848v700h95v-622h291v622h95v-622h291v622h95v-622h70v-228h-89v150z" />
    <glyph glyph-name="afii10044" unicode="&#x42a;" horiz-adv-x="657" 
d="M37 621v79h251v-299h110q95 0 153.5 -55t58.5 -145q0 -92 -58.5 -146.5t-153.5 -54.5h-208v621h-153zM512 201q0 53 -31.5 85.5t-82.5 32.5h-110v-237h110q51 0 82.5 32.5t31.5 86.5z" />
    <glyph glyph-name="afii10045" unicode="&#x42b;" horiz-adv-x="742" 
d="M67 0v700h98v-299h110q95 0 153.5 -55t58.5 -145q0 -92 -58.5 -146.5t-153.5 -54.5h-208zM389 201q0 53 -31.5 85.5t-82.5 32.5h-110v-237h110q51 0 82.5 32.5t31.5 86.5zM579 0v700h95v-700h-95z" />
    <glyph glyph-name="afii10046" unicode="&#x42c;" horiz-adv-x="534" 
d="M67 0v700h98v-299h110q95 0 153.5 -55t58.5 -145q0 -92 -58.5 -146.5t-153.5 -54.5h-208zM389 201q0 53 -31.5 85.5t-82.5 32.5h-110v-237h110q51 0 82.5 32.5t31.5 86.5z" />
    <glyph glyph-name="afii10047" unicode="&#x42d;" horiz-adv-x="696" 
d="M97 547l-60 61q98 100 258 100q158 0 256 -99t98 -259t-98 -259t-256 -99q-160 0 -258 100l60 60q73 -75 193 -75q107 0 177 64.5t81 170.5h-335v79h335q-12 105 -82.5 168.5t-175.5 63.5q-120 0 -193 -76z" />
    <glyph glyph-name="afii10048" unicode="&#x42e;" horiz-adv-x="1030" 
d="M162 700v-309h170q13 143 101 230t223 87q146 0 236.5 -99t90.5 -259t-90.5 -259t-236.5 -99q-136 0 -224.5 88t-99.5 232h-170v-312h-95v700h95zM428 350q0 -121 63.5 -197t164.5 -76q102 0 165.5 75.5t63.5 197.5t-63.5 197.5t-165.5 75.5q-101 0 -164.5 -76
t-63.5 -197z" />
    <glyph glyph-name="afii10049" unicode="&#x42f;" horiz-adv-x="547" 
d="M480 700v-700h-98v299h-93l-152 -299h-108l168 306q-69 16 -109.5 67t-40.5 126q0 91 58 146t154 55h221zM145 499q0 -53 31.5 -85.5t82.5 -32.5h123v237h-123q-51 0 -82.5 -32.5t-31.5 -86.5z" />
    <glyph glyph-name="afii10065" unicode="&#x430;" horiz-adv-x="457" 
d="M414 60v-60q-13 -5 -34 -5q-60 0 -83 49q-54 -52 -126 -52q-62 0 -96 37t-34 89q0 69 61.5 108.5t153.5 39.5q18 0 32 -2v44q0 29 -21 52t-61 23q-60 0 -93 -35l-50 49q61 61 150 61q78 0 122.5 -43.5t44.5 -106.5v-212q0 -17 9.5 -26.5t24.5 -9.5zM201 67q53 0 87 38v97
q-11 3 -27 3q-55 0 -91.5 -21t-36.5 -56q0 -24 16.5 -42.5t51.5 -18.5z" />
    <glyph glyph-name="afii10066" unicode="&#x431;" horiz-adv-x="563" 
d="M428 755l51 -51q-34 -37 -75.5 -63t-75 -36.5t-67 -27t-57 -36.5t-39.5 -62.5t-20 -106.5h6q54 86 150 86q91 0 155.5 -66t64.5 -170q0 -103 -65.5 -166.5t-178.5 -63.5q-51 0 -89.5 14t-70 48t-48.5 97t-17 153q0 85 15 148t41 100.5t57.5 62.5t69 40.5t71 27.5t67.5 30
t55 42zM152 225q0 -68 35.5 -110t97.5 -42q63 0 102.5 42.5t39.5 109.5t-39 109t-102 42q-61 0 -97.5 -41t-36.5 -110z" />
    <glyph glyph-name="afii10067" unicode="&#x432;" horiz-adv-x="445" 
d="M66 0v450h177q61 0 96 -32t35 -83q0 -65 -52 -97q78 -28 78 -114q0 -56 -37 -90t-103 -34h-194zM244 202h-87v-133h87q28 0 46.5 18.5t18.5 47.5t-18.5 48t-46.5 19zM157 264h72q25 0 41 16.5t16 42.5q0 25 -16 41.5t-41 16.5h-72v-117z" />
    <glyph glyph-name="afii10068" unicode="&#x433;" horiz-adv-x="367" 
d="M157 378v-378h-91v450h264v-72h-173z" />
    <glyph glyph-name="afii10069" unicode="&#x434;" horiz-adv-x="539" 
d="M507 72v-192h-85v120h-305v-120h-85v192q37 0 61.5 26.5t24.5 66.5v285h327v-378h62zM210 173q0 -61 -39 -101h183v306h-144v-205z" />
    <glyph glyph-name="afii10070" unicode="&#x435;" horiz-adv-x="506" 
d="M467 199h-328q7 -58 45 -92t99 -34q69 0 109 43l55 -57q-64 -67 -170 -67q-105 0 -170 64.5t-65 171.5q0 102 60 166t158 64q99 0 153 -69t54 -190zM262 378q-49 0 -82 -31t-41 -84h236q-6 54 -35 84.5t-78 30.5z" />
    <glyph glyph-name="afii10072" unicode="&#x436;" horiz-adv-x="682" 
d="M554 0l-167 227v-227h-92v227l-167 -227h-104l177 238l-160 212h105l149 -201v201h92v-201l149 201h105l-160 -212l177 -238h-104z" />
    <glyph glyph-name="afii10073" unicode="&#x437;" horiz-adv-x="410" 
d="M191 458q70 0 110.5 -34t40.5 -88q0 -69 -55 -101q78 -28 78 -116q0 -58 -43.5 -92.5t-124.5 -34.5q-98 0 -165 67l51 52q41 -44 105 -44q41 0 63.5 19t22.5 50q0 29 -18 46t-47 17h-69v62h51q26 0 43 17.5t17 42.5q0 24 -17 43t-51 19q-55 0 -93 -41l-51 51
q62 65 152 65z" />
    <glyph glyph-name="afii10074" unicode="&#x438;" horiz-adv-x="529" 
d="M157 450v-302l234 302h72v-450h-92v302l-233 -302h-72v450h91z" />
    <glyph glyph-name="afii10075" unicode="&#x439;" horiz-adv-x="529" 
d="M264 587q62 0 100 40l46 -46q-59 -62 -146 -62q-86 0 -146 62l46 47q39 -41 100 -41zM157 450v-302l234 302h72v-450h-92v302l-233 -302h-72v450h91z" />
    <glyph glyph-name="afii10076" unicode="&#x43a;" horiz-adv-x="475" 
d="M157 0h-91v450h91v-200l168 200h109l-182 -212l199 -238h-108l-186 226v-226z" />
    <glyph glyph-name="afii10077" unicode="&#x43b;" horiz-adv-x="501" 
d="M35 0v60q36 0 57.5 21.5t21.5 60.5v308h322v-450h-92v378h-139v-239q0 -67 -33 -105.5t-93 -38.5q-29 0 -44 5z" />
    <glyph glyph-name="afii10078" unicode="&#x43c;" horiz-adv-x="599" 
d="M66 0v450h87l146 -251l147 251h87v-450h-85v308l-124 -221h-49l-124 221v-308h-85z" />
    <glyph glyph-name="afii10079" unicode="&#x43d;" horiz-adv-x="525" 
d="M157 450v-187h211v187h91v-450h-91v191h-211v-191h-91v450h91z" />
    <glyph glyph-name="afii10080" unicode="&#x43e;" horiz-adv-x="553" 
d="M42 225q0 104 65 168.5t170 64.5t169.5 -64.5t64.5 -168.5t-64.5 -168.5t-169.5 -64.5t-170 64.5t-65 168.5zM137 225q0 -68 39 -110t101 -42t101 42t39 110q0 67 -39 109t-101 42t-101 -42t-39 -109z" />
    <glyph glyph-name="afii10081" unicode="&#x43f;" horiz-adv-x="513" 
d="M356 0v378h-199v-378h-91v450h382v-450h-92z" />
    <glyph glyph-name="afii10082" unicode="&#x440;" horiz-adv-x="541" 
d="M66 450h91v-35q54 43 128 43q96 0 155 -64.5t59 -168.5t-63.5 -168.5t-165.5 -64.5q-63 0 -113 28v-270h-91v700zM404 225q0 67 -39.5 109t-103.5 42q-66 0 -104 -41v-223q37 -39 104 -39q64 0 103.5 42t39.5 110z" />
    <glyph glyph-name="afii10083" unicode="&#x441;" horiz-adv-x="474" 
d="M137 225q0 -67 39.5 -109.5t102.5 -42.5q68 0 106 43l56 -57q-64 -67 -167 -67q-104 0 -168 64.5t-64 168.5t64 168.5t168 64.5q102 0 167 -68l-56 -57q-38 43 -106 43q-63 0 -102.5 -42t-39.5 -109z" />
    <glyph glyph-name="afii10084" unicode="&#x442;" horiz-adv-x="436" 
d="M264 378v-378h-92v378h-135v72h362v-72h-135z" />
    <glyph glyph-name="afii10085" unicode="&#x443;" horiz-adv-x="529" 
d="M510 450l-320 -700h-101l132 250l-202 450h102l144 -340l143 340h102z" />
    <glyph glyph-name="afii10086" unicode="&#x444;" horiz-adv-x="692" 
d="M415 -5q-16 0 -23 1v-246h-92v246q-8 -1 -23 -1q-105 0 -170 63t-65 167t65 167t170 63q15 0 23 -1v296h92v-296q7 1 23 1q105 0 170 -63t65 -167t-65 -167t-170 -63zM415 376q-9 0 -23 -2v-299q14 -2 23 -2q62 0 101 42t39 110q0 67 -39 109t-101 42zM137 225
q0 -68 39 -110t101 -42q7 0 23 2v299q-16 2 -23 2q-62 0 -101 -42t-39 -109z" />
    <glyph glyph-name="afii10087" unicode="&#x445;" horiz-adv-x="519" 
d="M389 0l-130 172l-129 -172h-106l175 230l-167 220h106l121 -162l121 162h106l-168 -220l177 -230h-106z" />
    <glyph glyph-name="afii10088" unicode="&#x446;" horiz-adv-x="536" 
d="M66 0v450h91v-378h199v378h92v-378h56v-192h-85v120h-353z" />
    <glyph glyph-name="afii10089" unicode="&#x447;" horiz-adv-x="477" 
d="M411 0h-92v181q-48 -16 -99 -16q-75 0 -115.5 43t-40.5 116v126h91v-123q0 -38 21.5 -62t65.5 -24q49 0 77 17v192h92v-450z" />
    <glyph glyph-name="afii10090" unicode="&#x448;" horiz-adv-x="710" 
d="M553 72v378h91v-450h-578v450h91v-378h152v378h92v-378h152z" />
    <glyph glyph-name="afii10091" unicode="&#x449;" horiz-adv-x="733" 
d="M66 0v450h91v-378h152v378h92v-378h152v378h91v-378h57v-192h-85v120h-550z" />
    <glyph glyph-name="afii10092" unicode="&#x44a;" horiz-adv-x="517" 
d="M326 0h-171v378h-118v72h210v-183h79q71 0 111 -37t40 -97t-40 -96.5t-111 -36.5zM323 198h-76v-129h76q27 0 44.5 18t17.5 46t-17.5 46.5t-44.5 18.5z" />
    <glyph glyph-name="afii10093" unicode="&#x44b;" horiz-adv-x="609" 
d="M66 0v450h91v-183h79q71 0 111 -37t40 -97t-40 -96.5t-111 -36.5h-170zM233 198h-76v-129h76q27 0 45 18t18 46t-18 46.5t-45 18.5zM451 0v450h92v-450h-92z" />
    <glyph glyph-name="afii10094" unicode="&#x44c;" horiz-adv-x="428" 
d="M66 0v450h91v-183h79q71 0 111 -37t40 -97t-40 -96.5t-111 -36.5h-170zM233 198h-76v-129h76q27 0 45 18t18 46t-18 46.5t-45 18.5z" />
    <glyph glyph-name="afii10095" unicode="&#x44d;" horiz-adv-x="474" 
d="M149 194v65h185q-10 54 -47.5 85.5t-92.5 31.5q-68 0 -105 -42l-57 56q63 68 168 68q104 0 168 -64.5t64 -168.5t-64 -168.5t-168 -64.5q-103 0 -168 68l57 57q39 -44 105 -44q56 0 93.5 33t46.5 88h-185z" />
    <glyph glyph-name="afii10096" unicode="&#x44e;" horiz-adv-x="749" 
d="M157 450v-187h100q11 89 72 142t152 53q101 0 164 -64.5t63 -168.5t-63 -168.5t-164 -64.5q-92 0 -152.5 54.5t-71.5 144.5h-100v-191h-91v450h91zM350 225q0 -67 36.5 -109.5t94.5 -42.5q59 0 95.5 42.5t36.5 109.5t-36.5 109t-95.5 42q-58 0 -94.5 -42t-36.5 -109z" />
    <glyph glyph-name="afii10097" unicode="&#x44f;" horiz-adv-x="466" 
d="M400 450v-450h-91v179h-70l-95 -179h-96l109 186q-47 13 -72.5 46.5t-25.5 81.5q0 61 41 98.5t113 37.5h187zM216 247h93v134h-93q-28 0 -46.5 -19t-18.5 -47q0 -30 18.5 -49t46.5 -19z" />
    <glyph glyph-name="uni0450" unicode="&#x450;" horiz-adv-x="506" 
d="M467 199h-328q7 -58 45 -92t99 -34q69 0 109 43l55 -57q-64 -67 -170 -67q-105 0 -170 64.5t-65 171.5q0 102 60 166t158 64q99 0 153 -69t54 -190zM262 378q-49 0 -82 -31t-41 -84h236q-6 54 -35 84.5t-78 30.5zM198 685l132 -132l-47 -47l-132 132z" />
    <glyph glyph-name="afii10071" unicode="&#x451;" horiz-adv-x="506" 
d="M467 199h-328q7 -58 45 -92t99 -34q69 0 109 43l55 -57q-64 -67 -170 -67q-105 0 -170 64.5t-65 171.5q0 102 60 166t158 64q99 0 153 -69t54 -190zM262 378q-49 0 -82 -31t-41 -84h236q-6 54 -35 84.5t-78 30.5zM111 553q0 23 15.5 38.5t38.5 15.5t39 -15.5t16 -38.5
t-16 -38.5t-39 -15.5t-38.5 15.5t-15.5 38.5zM301 553q0 23 15.5 39t38.5 16t39 -16t16 -39t-16 -38.5t-39 -15.5t-38.5 15.5t-15.5 38.5z" />
    <glyph glyph-name="afii10099" unicode="&#x452;" 
d="M330 -250v60q23 0 37 13t14 37v410q0 47 -27.5 76.5t-72.5 29.5q-67 0 -104 -40v-336h-92v578h-55v72h55v100h92v-100h164v-72h-164v-162q53 42 127 42q77 0 122.5 -51.5t45.5 -136.5v-412q0 -52 -28 -82.5t-77 -30.5q-24 0 -37 5z" />
    <glyph glyph-name="afii10100" unicode="&#x453;" horiz-adv-x="367" 
d="M127 553l132 132l47 -47l-132 -132zM157 378v-378h-91v450h264v-72h-173z" />
    <glyph glyph-name="afii10101" unicode="&#x454;" horiz-adv-x="474" 
d="M279 376q-54 0 -91.5 -31.5t-47.5 -85.5h210v-65h-211q9 -55 47 -88t93 -33q68 0 106 43l56 -57q-64 -67 -167 -67q-104 0 -168 64.5t-64 168.5t64 168.5t168 64.5q102 0 167 -68l-56 -57q-38 43 -106 43z" />
    <glyph glyph-name="afii10102" unicode="&#x455;" horiz-adv-x="386" 
d="M333 402l-56 -56q-33 35 -79 35q-28 0 -42.5 -17t-14.5 -37q0 -23 21 -39t50.5 -27t59.5 -24.5t51 -40.5t21 -65q0 -58 -41 -98.5t-114 -40.5q-95 0 -153 63l56 56q38 -43 91 -43q34 0 51.5 19.5t17.5 42.5q0 22 -21 37t-50.5 26t-59 24.5t-50.5 40.5t-21 67
q0 56 36.5 94.5t104.5 38.5q88 0 142 -56z" />
    <glyph glyph-name="afii10103" unicode="&#x456;" horiz-adv-x="223" 
d="M66 0v450h91v-450h-91zM54 585q0 24 16.5 40.5t40.5 16.5q25 0 41.5 -16.5t16.5 -40.5t-16.5 -41t-41.5 -17q-24 0 -40.5 17t-16.5 41z" />
    <glyph glyph-name="afii10104" unicode="&#x457;" horiz-adv-x="223" 
d="M66 0v450h91v-450h-91zM-23 561q0 23 16 39t39 16t38.5 -16t15.5 -39t-16 -38.5t-38 -15.5q-23 0 -39 15.5t-16 38.5zM137 561q0 23 15.5 39t38.5 16t39 -16t16 -39t-16 -38.5t-39 -15.5t-38.5 15.5t-15.5 38.5z" />
    <glyph glyph-name="afii10105" unicode="&#x458;" horiz-adv-x="223" 
d="M54 585q0 24 16.5 40.5t40.5 16.5q25 0 41.5 -16.5t16.5 -40.5t-16.5 -41t-41.5 -17q-24 0 -40.5 17t-16.5 41zM15 -250v60q23 0 37 13t14 37v590h91v-592q0 -52 -28 -82.5t-77 -30.5q-24 0 -37 5z" />
    <glyph glyph-name="afii10106" unicode="&#x459;" horiz-adv-x="703" 
d="M344 0v378h-139v-239q0 -67 -33 -105.5t-93 -38.5q-29 0 -44 5v60q36 0 57.5 21.5t21.5 60.5v308h322v-183h79q71 0 111 -37t40 -97t-40 -96.5t-111 -36.5h-171zM512 198h-76v-129h76q27 0 44.5 18t17.5 46t-17.5 46.5t-44.5 18.5z" />
    <glyph glyph-name="afii10107" unicode="&#x45a;" horiz-adv-x="729" 
d="M157 450v-187h207v187h92v-187h86q70 0 108.5 -36t38.5 -96q0 -59 -38.5 -95t-108.5 -36h-178v191h-207v-191h-91v450h91zM539 191h-83v-122h83q26 0 42.5 16.5t16.5 44.5t-16.5 44.5t-42.5 16.5z" />
    <glyph glyph-name="afii10108" unicode="&#x45b;" 
d="M30 578v72h55v100h92v-100h164v-72h-164v-162q53 42 127 42q77 0 122.5 -51.5t45.5 -136.5v-270h-91v270q0 47 -27.5 76.5t-72.5 29.5q-67 0 -104 -40v-336h-92v578h-55z" />
    <glyph glyph-name="afii10109" unicode="&#x45c;" horiz-adv-x="475" 
d="M157 0h-91v450h91v-200l168 200h109l-182 -212l199 -238h-108l-186 226v-226zM168 553l132 132l46 -47l-132 -132z" />
    <glyph glyph-name="uni045D" unicode="&#x45d;" horiz-adv-x="529" 
d="M201 685l132 -132l-46 -47l-132 132zM157 450v-302l234 302h72v-450h-92v302l-233 -302h-72v450h91z" />
    <glyph glyph-name="afii10110" unicode="&#x45e;" horiz-adv-x="529" 
d="M510 450l-320 -700h-101l132 250l-202 450h102l144 -340l143 340h102zM264 587q62 0 100 40l46 -46q-57 -62 -146 -62q-86 0 -146 62l46 47q39 -41 100 -41z" />
    <glyph glyph-name="afii10193" unicode="&#x45f;" horiz-adv-x="513" 
d="M214 -120v120h-148v450h91v-378h199v378h92v-450h-149v-120h-85z" />
    <glyph glyph-name="afii10050" unicode="&#x490;" horiz-adv-x="461" 
d="M162 621v-621h-95v700h271v125h72v-204h-248z" />
    <glyph glyph-name="afii10098" unicode="&#x491;" horiz-adv-x="365" 
d="M157 378v-378h-91v450h182v100h72v-172h-163z" />
    <glyph glyph-name="uni04D8" unicode="&#x4d8;" horiz-adv-x="740" 
d="M693 350q0 -160 -89 -259t-234 -99q-144 0 -233.5 99t-89.5 259v36h546q-11 107 -81.5 172t-177.5 65q-119 0 -192 -76l-61 61q98 100 258 100q158 0 256 -99t98 -259zM370 77q91 0 151 63t71 167h-443q10 -104 70 -167t151 -63z" />
    <glyph glyph-name="afii10846" unicode="&#x4d9;" horiz-adv-x="506" 
d="M42 251h328q-7 58 -45 91.5t-99 33.5q-70 0 -109 -42l-55 57q64 67 170 67q105 0 170 -64.5t65 -171.5q0 -102 -60 -166t-158 -64q-99 0 -153 69t-54 190zM247 72q49 0 82 31t41 84h-236q6 -54 35 -84.5t78 -30.5z" />
    <glyph glyph-name="Wgrave" unicode="&#x1e80;" horiz-adv-x="1119" 
d="M1097 700l-258 -700h-95l-185 536l-183 -536h-96l-258 700h111l195 -552l183 552h98l183 -552l195 552h110zM497 911l132 -132l-47 -46l-132 132z" />
    <glyph glyph-name="wgrave" unicode="&#x1e81;" horiz-adv-x="790" 
d="M771 450l-172 -450h-96l-108 321l-108 -321h-96l-172 450h105l115 -338l110 338h92l110 -338l115 338h105zM332 685l132 -132l-46 -47l-132 132z" />
    <glyph glyph-name="Wacute" unicode="&#x1e82;" horiz-adv-x="1119" 
d="M1097 700l-258 -700h-95l-185 536l-183 -536h-96l-258 700h111l195 -552l183 552h98l183 -552l195 552h110zM490 779l132 132l47 -46l-132 -132z" />
    <glyph glyph-name="wacute" unicode="&#x1e83;" horiz-adv-x="790" 
d="M771 450l-172 -450h-96l-108 321l-108 -321h-96l-172 450h105l115 -338l110 338h92l110 -338l115 338h105zM326 553l132 132l46 -47l-132 -132z" />
    <glyph glyph-name="Wdieresis" unicode="&#x1e84;" horiz-adv-x="1119" 
d="M1097 700l-258 -700h-95l-185 536l-183 -536h-96l-258 700h111l195 -552l183 552h98l183 -552l195 552h110zM410 798q0 22 16 38t38 16t38 -16t16 -38t-16 -38t-38 -16t-38 16t-16 38zM600 798q0 23 15.5 39t38.5 16t39 -16t16 -39t-16 -38.5t-39 -15.5q-22 0 -38 16
t-16 38z" />
    <glyph glyph-name="wdieresis" unicode="&#x1e85;" horiz-adv-x="790" 
d="M771 450l-172 -450h-96l-108 321l-108 -321h-96l-172 450h105l115 -338l110 338h92l110 -338l115 338h105zM246 572q0 22 16 38t38 16t38 -16t16 -38q0 -23 -15.5 -39t-38.5 -16t-38.5 16t-15.5 39zM435 572q0 23 16 39t39 16t39 -16t16 -39t-16 -39t-39 -16t-39 16
t-16 39z" />
    <glyph glyph-name="Ygrave" unicode="&#x1ef2;" horiz-adv-x="673" 
d="M288 0v295l-266 405h110l204 -312l204 312h110l-267 -406v-294h-95zM273 911l132 -132l-46 -46l-132 132z" />
    <glyph glyph-name="ygrave" unicode="&#x1ef3;" horiz-adv-x="529" 
d="M510 450l-320 -700h-101l132 250l-202 450h102l144 -340l143 340h102zM202 685l132 -132l-47 -47l-132 132z" />
    <glyph glyph-name="figuredash" unicode="&#x2012;" horiz-adv-x="500" 
d="M54 314v72h392v-72h-392z" />
    <glyph glyph-name="endash" unicode="&#x2013;" horiz-adv-x="500" 
d="M54 230v72h392v-72h-392z" />
    <glyph glyph-name="emdash" unicode="&#x2014;" horiz-adv-x="700" 
d="M54 230v72h592v-72h-592z" />
    <glyph glyph-name="quoteleft" unicode="&#x2018;" horiz-adv-x="223" 
d="M142 708l31 -30q-41 -42 -50 -78q20 -4 33 -19.5t13 -36.5q0 -24 -16.5 -41t-41.5 -17q-22 0 -39.5 16t-17.5 50q0 70 88 156z" />
    <glyph glyph-name="quoteright" unicode="&#x2019;" horiz-adv-x="223" 
d="M81 486l-31 31q42 42 51 78q-21 4 -34 19.5t-13 36.5q0 24 16.5 40.5t41.5 16.5q23 0 40 -15.5t17 -49.5q0 -69 -88 -157z" />
    <glyph glyph-name="quotesinglbase" unicode="&#x201a;" horiz-adv-x="223" 
d="M81 -115l-31 30q42 44 51 78q-20 4 -33.5 19.5t-13.5 36.5q0 24 16.5 41t41.5 17q23 0 40 -16t17 -50q0 -70 -88 -156z" />
    <glyph glyph-name="quotedblleft" unicode="&#x201c;" horiz-adv-x="368" 
d="M288 741l30 -31q-41 -41 -50 -77q21 -5 34 -20.5t13 -36.5q0 -24 -16.5 -40.5t-41.5 -16.5q-23 0 -40 15.5t-17 49.5q0 69 88 157zM142 741l31 -31q-41 -41 -50 -77q21 -5 33.5 -20.5t12.5 -36.5q0 -24 -16.5 -40.5t-41.5 -16.5q-22 0 -39.5 16t-17.5 49q0 69 88 157z
" />
    <glyph glyph-name="quotedblright" unicode="&#x201d;" horiz-adv-x="368" 
d="M81 519l-31 30q42 44 51 78q-20 4 -33.5 19.5t-13.5 36.5q0 24 16.5 41t41.5 17q23 0 40 -16t17 -50q0 -70 -88 -156zM227 519l-31 30q41 42 50 78q-20 4 -33.5 19.5t-13.5 36.5q0 24 17 41t41 17q23 0 40 -16t17 -50q0 -71 -87 -156z" />
    <glyph glyph-name="quotedblbase" unicode="&#x201e;" horiz-adv-x="368" 
d="M81 -115l-31 30q42 44 51 78q-20 4 -33.5 19.5t-13.5 36.5q0 24 16.5 41t41.5 17q23 0 40 -16t17 -50q0 -70 -88 -156zM227 -115l-31 30q41 42 50 78q-20 4 -33.5 19.5t-13.5 36.5q0 24 17 41t41 17q23 0 40 -16t17 -50q0 -71 -87 -156z" />
    <glyph glyph-name="dagger" unicode="&#x2020;" horiz-adv-x="500" 
d="M54 378v72h150v300h92v-300h150v-72h-150v-628h-92v628h-150z" />
    <glyph glyph-name="daggerdbl" unicode="&#x2021;" horiz-adv-x="500" 
d="M54 60v72h150v246h-150v72h150v300h92v-300h150v-72h-150v-246h150v-72h-150v-310h-92v310h-150z" />
    <glyph glyph-name="bullet" unicode="&#x2022;" horiz-adv-x="259" 
d="M51 275q0 33 22.5 56t55.5 23q34 0 56.5 -23t22.5 -56t-22.5 -56t-56.5 -23q-33 0 -55.5 23t-22.5 56z" />
    <glyph glyph-name="ellipsis" unicode="&#x2026;" horiz-adv-x="669" 
d="M54 49q0 24 16.5 41t40.5 17q25 0 41.5 -17t16.5 -41t-16.5 -40.5t-41.5 -16.5q-24 0 -40.5 16.5t-16.5 40.5zM277 49q0 24 16.5 41t40.5 17q25 0 41.5 -17t16.5 -41t-16.5 -40.5t-41.5 -16.5q-24 0 -40.5 16.5t-16.5 40.5zM500 49q0 24 16.5 41t40.5 17q25 0 41.5 -17
t16.5 -41t-16.5 -40.5t-41.5 -16.5q-24 0 -40.5 16.5t-16.5 40.5z" />
    <glyph glyph-name="perthousand" unicode="&#x2030;" horiz-adv-x="1273" 
d="M206 0l372 700h92l-372 -700h-92zM37 534q0 77 48.5 125.5t127.5 48.5t127.5 -48.5t48.5 -125.5q0 -78 -48.5 -126.5t-127.5 -48.5t-127.5 48.5t-48.5 126.5zM119 534q0 -47 26 -76.5t68 -29.5t68 29.5t26 76.5t-26 76t-68 29t-68 -29t-26 -76zM487 166q0 78 48.5 126.5
t127.5 48.5q78 0 127 -48.5t49 -126.5q0 -77 -49 -125.5t-127 -48.5q-79 0 -127.5 48.5t-48.5 125.5zM568 166q0 -47 26.5 -76.5t68.5 -29.5q41 0 67.5 29.5t26.5 76.5t-26.5 76.5t-67.5 29.5q-42 0 -68.5 -29.5t-26.5 -76.5zM884 166q0 78 49 126.5t127 48.5
q79 0 127.5 -48.5t48.5 -126.5q0 -77 -48.5 -125.5t-127.5 -48.5q-78 0 -127 48.5t-49 125.5zM966 166q0 -47 26.5 -76.5t67.5 -29.5q42 0 68.5 29.5t26.5 76.5t-26.5 76.5t-68.5 29.5q-41 0 -67.5 -29.5t-26.5 -76.5z" />
    <glyph glyph-name="guilsinglleft" unicode="&#x2039;" horiz-adv-x="297" 
d="M203 77l-173 173l173 172l46 -46l-126 -126l126 -126z" />
    <glyph glyph-name="guilsinglright" unicode="&#x203a;" horiz-adv-x="297" 
d="M263 250l-173 -173l-46 47l126 126l-126 126l46 46z" />
    <glyph glyph-name="fraction" unicode="&#x2044;" horiz-adv-x="530" 
d="M46 0l372 700h66l-372 -700h-66z" />
    <glyph glyph-name="Euro" unicode="&#x20ac;" horiz-adv-x="743" 
d="M37 390v53h67q26 122 118.5 193.5t225.5 71.5q160 0 258 -100l-60 -61q-73 76 -193 76q-92 0 -158 -48.5t-90 -131.5h250v-53h-261q-2 -26 -2 -40q0 -15 2 -41h261v-52h-250q24 -83 90 -131.5t158 -48.5q120 0 193 75l60 -60q-98 -100 -258 -100q-133 0 -225.5 71.5
t-118.5 193.5h-67v52h59q-2 26 -2 41q0 14 2 40h-59z" />
    <glyph glyph-name="uni20B4" unicode="&#x20b4;" horiz-adv-x="431" 
d="M39 387v52h207l12 12q38 38 38 82q0 40 -28 66.5t-71 26.5q-62 0 -98 -44l-58 59q59 67 156 67q86 0 139 -47.5t53 -124.5q0 -53 -31 -97h34v-52h-80l-71 -71h151v-52h-203l-15 -15q-39 -37 -39 -82q0 -40 28 -66.5t71 -26.5q62 0 98 44l59 -59q-61 -67 -157 -67
q-85 0 -138.5 47.5t-53.5 124.5q0 52 34 100h-37v52h84l71 71h-155z" />
    <glyph glyph-name="afii61352" unicode="&#x2116;" horiz-adv-x="997" 
d="M67 700h63l418 -519v519h95v-700h-63l-418 519v-519h-95v700zM710 576q0 57 36 92.5t94 35.5t94 -35.5t36 -92.5q0 -58 -36 -93.5t-94 -35.5t-94 35.5t-36 93.5zM768 576q0 -35 20 -57t52 -22t52.5 22t20.5 57t-20.5 57t-52.5 22q-31 0 -51.5 -22t-20.5 -57z" />
    <glyph glyph-name="trademark" unicode="&#x2122;" horiz-adv-x="682" 
d="M171 655v-305h-55v305h-94v45h244v-45h-95zM592 350v239l-104 -165h-20l-105 165v-239h-54v350h41l128 -196l128 196h41v-350h-55z" />
    <glyph glyph-name="arrowleft" unicode="&#x2190;" horiz-adv-x="974" 
d="M399 -3l-354 354l354 353l60 -60l-252 -251h698v-85h-698l252 -252z" />
    <glyph glyph-name="arrowup" unicode="&#x2191;" horiz-adv-x="798" 
d="M357 -155v698l-252 -252l-60 60l354 354l354 -354l-60 -60l-251 252v-698h-85z" />
    <glyph glyph-name="arrowright" unicode="&#x2192;" horiz-adv-x="974" 
d="M69 308v85h698l-252 251l60 60l354 -353l-354 -354l-60 59l252 252h-698z" />
    <glyph glyph-name="arrowdown" unicode="&#x2193;" horiz-adv-x="798" 
d="M399 -160l-354 354l60 60l252 -252v698h85v-698l251 251l60 -59z" />
    <glyph glyph-name="uni2196" unicode="&#x2196;" horiz-adv-x="753" 
d="M69 133v500h500v-85h-356l494 -493l-60 -60l-493 494v-356h-85z" />
    <glyph glyph-name="uni2197" unicode="&#x2197;" horiz-adv-x="753" 
d="M184 548v85h500v-500h-85v356l-494 -494l-60 60l494 493h-355z" />
    <glyph glyph-name="uni2198" unicode="&#x2198;" horiz-adv-x="753" 
d="M184 0v85h355l-494 493l60 61l494 -495v356h85v-500h-500z" />
    <glyph glyph-name="uni2199" unicode="&#x2199;" horiz-adv-x="753" 
d="M69 0v500h85v-356l493 495l60 -61l-494 -493h356v-85h-500z" />
    <glyph glyph-name="minus" unicode="&#x2212;" horiz-adv-x="430" 
d="M54 266v72h322v-72h-322z" />
    <glyph glyph-name="commaaccent" unicode="&#xf6c3;" horiz-adv-x="223" 
d="M86 -231l-26 25q37 37 43 67q-17 2 -28 15.5t-11 30.5q0 20 13.5 34t34.5 14q19 0 33 -13.5t14 -41.5q0 -58 -73 -131z" />
    <glyph glyph-name="adieresis.alt" 
d="M280 458q130 0 194 -80v-378h-92v34q-52 -42 -127 -42q-95 0 -154 64.5t-59 168.5t65.5 168.5t172.5 64.5zM137 225q0 -67 39.5 -109.5t102.5 -42.5q66 0 103 39v232q-38 32 -104 32q-64 0 -102.5 -41.5t-38.5 -109.5zM319 572q0 23 15.5 39t38.5 16t39 -16t16 -39
t-16 -39t-39 -16t-38.5 16t-15.5 39zM129 572q0 22 15.5 38t38.5 16t38.5 -16t15.5 -38q0 -23 -15.5 -39t-38.5 -16t-38.5 16t-15.5 39z" />
    <glyph glyph-name="agrave.alt" 
d="M280 458q130 0 194 -80v-378h-92v34q-52 -42 -127 -42q-95 0 -154 64.5t-59 168.5t65.5 168.5t172.5 64.5zM137 225q0 -67 39.5 -109.5t102.5 -42.5q66 0 103 39v232q-38 32 -104 32q-64 0 -102.5 -41.5t-38.5 -109.5zM216 685l132 -132l-46 -47l-132 132z" />
    <glyph glyph-name="amacron.alt" 
d="M280 458q130 0 194 -80v-378h-92v34q-52 -42 -127 -42q-95 0 -154 64.5t-59 168.5t65.5 168.5t172.5 64.5zM137 225q0 -67 39.5 -109.5t102.5 -42.5q66 0 103 39v232q-38 32 -104 32q-64 0 -102.5 -41.5t-38.5 -109.5zM153 537v56h252v-56h-252z" />
    <glyph glyph-name="aogonek.alt" 
d="M418 -37q0 -25 14.5 -40t37.5 -15t38 15l32 -31q-26 -28 -69 -28q-44 0 -70.5 27t-26.5 72q0 22 8 37v34q-52 -42 -127 -42q-95 0 -154 64.5t-59 168.5t65.5 168.5t172.5 64.5q130 0 194 -80v-378h-46q-10 -15 -10 -37zM137 225q0 -67 39.5 -109.5t102.5 -42.5
q66 0 103 39v232q-38 32 -104 32q-64 0 -102.5 -41.5t-38.5 -109.5z" />
    <glyph glyph-name="aring.alt" 
d="M280 458q130 0 194 -80v-378h-92v34q-52 -42 -127 -42q-95 0 -154 64.5t-59 168.5t65.5 168.5t172.5 64.5zM137 225q0 -67 39.5 -109.5t102.5 -42.5q66 0 103 39v232q-38 32 -104 32q-64 0 -102.5 -41.5t-38.5 -109.5zM190 590q0 41 25 66.5t65 25.5t64.5 -25.5
t24.5 -66.5t-24.5 -66t-64.5 -25t-65 25.5t-25 65.5zM231 590q0 -22 13.5 -36t35.5 -14t35.5 14t13.5 36t-14 36.5t-35 14.5q-22 0 -35.5 -14t-13.5 -37z" />
    <glyph glyph-name="atilde.alt" 
d="M280 458q130 0 194 -80v-378h-92v34q-52 -42 -127 -42q-95 0 -154 64.5t-59 168.5t65.5 168.5t172.5 64.5zM137 225q0 -67 39.5 -109.5t102.5 -42.5q66 0 103 39v232q-38 32 -104 32q-64 0 -102.5 -41.5t-38.5 -109.5zM186 533h-50q0 42 25 67.5t64 25.5q32 0 61 -23.5
t47 -23.5q17 0 28.5 12t11.5 31h51q0 -42 -25.5 -68t-65.5 -26q-32 0 -60 23.5t-47 23.5q-17 0 -28.5 -11.5t-11.5 -30.5z" />
    <glyph glyph-name="g.alt" 
d="M382 -27v52q-50 -33 -120 -33q-98 0 -159 64.5t-61 168.5t65.5 168.5t172.5 64.5q130 0 194 -80v-405q0 -106 -63 -168.5t-166 -62.5q-109 0 -175 68l56 57q44 -44 113 -44q66 0 104.5 40t38.5 110zM137 225q0 -68 39 -110t101 -42q66 0 105 45v226q-38 32 -104 32
q-64 0 -102.5 -41.5t-38.5 -109.5z" />
    <glyph glyph-name="gbreve.alt" 
d="M382 -27v52q-50 -33 -120 -33q-98 0 -159 64.5t-61 168.5t65.5 168.5t172.5 64.5q130 0 194 -80v-405q0 -106 -63 -168.5t-166 -62.5q-109 0 -175 68l56 57q44 -44 113 -44q66 0 104.5 40t38.5 110zM137 225q0 -68 39 -110t101 -42q66 0 105 45v226q-38 32 -104 32
q-64 0 -102.5 -41.5t-38.5 -109.5zM275 587q62 0 100 40l46 -46q-57 -62 -146 -62q-86 0 -146 62l46 47q39 -41 100 -41z" />
    <glyph glyph-name="gcircumflex.alt" 
d="M382 -27v52q-50 -33 -120 -33q-98 0 -159 64.5t-61 168.5t65.5 168.5t172.5 64.5q130 0 194 -80v-405q0 -106 -63 -168.5t-166 -62.5q-109 0 -175 68l56 57q44 -44 113 -44q66 0 104.5 40t38.5 110zM137 225q0 -68 39 -110t101 -42q66 0 105 45v226q-38 32 -104 32
q-64 0 -102.5 -41.5t-38.5 -109.5zM276 685l132 -132l-46 -47l-86 86l-85 -86l-47 47z" />
    <glyph glyph-name="gcommaaccent.alt" 
d="M382 -27v52q-50 -33 -120 -33q-98 0 -159 64.5t-61 168.5t65.5 168.5t172.5 64.5q130 0 194 -80v-405q0 -106 -63 -168.5t-166 -62.5q-109 0 -175 68l56 57q44 -44 113 -44q66 0 104.5 40t38.5 110zM137 225q0 -68 39 -110t101 -42q66 0 105 45v226q-38 32 -104 32
q-64 0 -102.5 -41.5t-38.5 -109.5zM300 692l25 -26q-36 -38 -42 -66q17 -3 28 -16t11 -31q0 -20 -14 -33.5t-34 -13.5q-19 0 -33.5 13t-14.5 41q0 60 74 132z" />
    <glyph glyph-name="gdotaccent.alt" 
d="M382 -27v52q-50 -33 -120 -33q-98 0 -159 64.5t-61 168.5t65.5 168.5t172.5 64.5q130 0 194 -80v-405q0 -106 -63 -168.5t-166 -62.5q-109 0 -175 68l56 57q44 -44 113 -44q66 0 104.5 40t38.5 110zM137 225q0 -68 39 -110t101 -42q66 0 105 45v226q-38 32 -104 32
q-64 0 -102.5 -41.5t-38.5 -109.5zM218 585q0 24 16.5 40.5t40.5 16.5t41 -16.5t17 -40.5t-17 -41t-41 -17t-40.5 17t-16.5 41z" />
    <glyph glyph-name="afii10021.alt" horiz-adv-x="807" 
d="M688 0h-569v-150h-89v228h55l274 622h89l274 -622h54v-228h-88v150zM403 579l-209 -501h419z" />
    <glyph glyph-name="afii10029.alt" horiz-adv-x="755" 
d="M22 0l311 700h89l311 -700h-112l-243 576l-244 -576h-112z" />
    <glyph glyph-name="afii10058.alt" horiz-adv-x="1010" 
d="M22 0l311 700h89l133 -299h196q95 0 153.5 -54.5t58.5 -145.5q0 -92 -58 -146.5t-154 -54.5h-130l-243 576l-244 -576h-112zM751 319h-160l106 -237h54q51 0 82.5 32.5t31.5 86.5q0 53 -31.5 85.5t-82.5 32.5z" />
    <glyph glyph-name="afii10065.alt" 
d="M280 458q130 0 194 -80v-378h-92v34q-52 -42 -127 -42q-95 0 -154 64.5t-59 168.5t65.5 168.5t172.5 64.5zM137 225q0 -67 39.5 -109.5t102.5 -42.5q66 0 103 39v232q-38 32 -104 32q-64 0 -102.5 -41.5t-38.5 -109.5z" />
    <glyph glyph-name="afii10069.alt" horiz-adv-x="582" 
d="M550 72v-192h-85v120h-348v-120h-85v192h47l169 378h86l169 -378h47zM291 345l-112 -273h224z" />
    <glyph glyph-name="afii10077.alt" horiz-adv-x="529" 
d="M19 0l202 450h86l203 -450h-102l-144 340l-143 -340h-102z" />
    <glyph glyph-name="afii10106.alt" horiz-adv-x="712" 
d="M19 0l202 450h86l82 -183h136q70 0 110 -37t40 -97t-39.5 -96.5t-110.5 -36.5h-117l-144 340l-143 -340h-102zM521 198h-101l59 -129h42q28 0 45.5 18t17.5 46q0 29 -17.5 47t-45.5 18z" />
    <glyph glyph-name="acircumflex.alt" 
d="M280 458q130 0 194 -80v-378h-92v34q-52 -42 -127 -42q-95 0 -154 64.5t-59 168.5t65.5 168.5t172.5 64.5zM137 225q0 -67 39.5 -109.5t102.5 -42.5q66 0 103 39v232q-38 32 -104 32q-64 0 -102.5 -41.5t-38.5 -109.5zM280 685l132 -132l-47 -47l-85 86l-86 -86l-46 47z
" />
    <glyph glyph-name="abreve.alt" 
d="M280 458q130 0 194 -80v-378h-92v34q-52 -42 -127 -42q-95 0 -154 64.5t-59 168.5t65.5 168.5t172.5 64.5zM137 225q0 -67 39.5 -109.5t102.5 -42.5q66 0 103 39v232q-38 32 -104 32q-64 0 -102.5 -41.5t-38.5 -109.5zM280 587q62 0 100 40l46 -46q-59 -62 -146 -62
q-86 0 -146 62l46 47q39 -41 100 -41z" />
    <glyph glyph-name="aacute.alt" 
d="M280 458q130 0 194 -80v-378h-92v34q-52 -42 -127 -42q-95 0 -154 64.5t-59 168.5t65.5 168.5t172.5 64.5zM137 225q0 -67 39.5 -109.5t102.5 -42.5q66 0 103 39v232q-38 32 -104 32q-64 0 -102.5 -41.5t-38.5 -109.5zM209 553l132 132l47 -47l-132 -132z" />
    <glyph glyph-name="a.alt" 
d="M280 458q130 0 194 -80v-378h-92v34q-52 -42 -127 -42q-95 0 -154 64.5t-59 168.5t65.5 168.5t172.5 64.5zM137 225q0 -67 39.5 -109.5t102.5 -42.5q66 0 103 39v232q-38 32 -104 32q-64 0 -102.5 -41.5t-38.5 -109.5z" />
    <glyph glyph-name="zero.fitted" horiz-adv-x="530" 
d="M35 350q0 160 63.5 259t166.5 99t166.5 -99t63.5 -259t-63.5 -259t-166.5 -99t-166.5 99t-63.5 259zM129 350q0 -123 37.5 -200t98.5 -77t98.5 77t37.5 200t-37.5 199.5t-98.5 76.5t-98.5 -76.5t-37.5 -199.5z" />
    <glyph glyph-name="one.fitted" horiz-adv-x="530" 
d="M104 0v72h113v547l-121 -19v72l213 32v-632h113v-72h-318z" />
    <glyph glyph-name="germandbls.case" horiz-adv-x="592" 
d="M160 513v-513h-94v513q0 87 55.5 141t144.5 54t144.5 -53t55.5 -138q0 -59 -31 -102.5t-84 -60.5q0 -32 20.5 -53.5t49.5 -34t58.5 -27t50 -43t20.5 -71.5q0 -55 -41 -94t-114 -39q-95 0 -153 63l56 56q38 -43 91 -43q34 0 51.5 18t17.5 40q0 24 -20.5 41t-50 29.5
t-58.5 28.5t-49.5 47.5t-20.5 77.5v70q50 0 81 27.5t31 72.5q0 47 -29.5 76.5t-75.5 29.5q-47 0 -76.5 -31.5t-29.5 -81.5z" />
    <glyph glyph-name="at.case" horiz-adv-x="793" 
d="M618 136l44 -43q-95 -101 -263 -101q-160 0 -258.5 99t-98.5 259t98.5 259t256.5 99q159 0 256.5 -94.5t97.5 -235.5q0 -104 -51.5 -152.5t-117.5 -48.5t-91 39q-42 -39 -103 -39q-71 0 -114.5 48t-43.5 125t48.5 125t127.5 48q95 0 144 -60v-185q0 -18 13.5 -28
t32.5 -10q34 0 58.5 31.5t24.5 99.5q0 120 -77 197.5t-204 77.5t-205.5 -81.5t-78.5 -214.5t78.5 -214.5t207.5 -81.5q141 0 218 82zM302 350q0 -50 28.5 -80t75.5 -30q46 0 75 27v171q-30 22 -76 22q-47 0 -75 -30t-28 -80z" />
    <glyph glyph-name="parenleft.case" horiz-adv-x="295" 
d="M251 758v-69q-42 0 -72 -96t-30 -243q0 -148 30 -244t72 -96v-68q-84 0 -140.5 114t-56.5 294t56.5 294t140.5 114z" />
    <glyph glyph-name="parenright.case" horiz-adv-x="295" 
d="M44 689v69q84 0 140.5 -114t56.5 -294t-56.5 -294t-140.5 -114v68q42 0 72 96t30 244t-30 243.5t-72 95.5z" />
    <glyph glyph-name="bracketleft.case" horiz-adv-x="298" 
d="M254 750v-72h-97v-656h97v-72h-188v800h188z" />
    <glyph glyph-name="bracketright.case" horiz-adv-x="298" 
d="M44 678v72h188v-800h-188v72h97v656h-97z" />
    <glyph glyph-name="braceleft.case" horiz-adv-x="314" 
d="M277 10v-68q-72 0 -120 49.5t-48 127.5v72q0 53 -21.5 88t-50.5 35v69q29 0 50.5 35t21.5 88v75q0 78 48 127.5t120 49.5v-69q-30 0 -51.5 -34t-21.5 -87v-73q0 -51 -22.5 -89.5t-61.5 -57.5q39 -19 61.5 -57.5t22.5 -89.5v-70q0 -53 21.5 -87t51.5 -34z" />
    <glyph glyph-name="braceright.case" horiz-adv-x="314" 
d="M37 -58v68q29 0 50.5 34t21.5 87v70q0 105 85 147q-39 19 -62 57.5t-23 89.5v73q0 53 -21.5 87t-50.5 34v69q71 0 119 -49.5t48 -127.5v-75q0 -54 21.5 -88.5t51.5 -34.5v-69q-30 0 -51.5 -34.5t-21.5 -88.5v-72q0 -78 -48 -127.5t-119 -49.5z" />
    <glyph glyph-name="questiondown.case" horiz-adv-x="474" 
d="M381 126l60 -59q-84 -75 -197 -75q-94 0 -148 53t-54 129q0 40 16 70t38.5 49l45 37t38.5 47t16 67v58h92v-58q0 -49 -15.5 -86.5t-37.5 -59t-44.5 -39t-38 -38t-15.5 -45.5q0 -40 28 -71.5t82 -31.5q78 0 134 53zM300 651q0 -24 -17 -41t-41 -17t-40.5 17t-16.5 41
t16.5 40.5t40.5 16.5t41 -16.5t17 -40.5z" />
    <glyph glyph-name="guillemotleft.case" horiz-adv-x="470" 
d="M203 177l-173 173l173 172l46 -46l-126 -126l126 -126zM376 177l-173 173l173 172l46 -46l-126 -126l126 -126z" />
    <glyph glyph-name="guillemotright.case" horiz-adv-x="470" 
d="M436 350l-173 -173l-46 47l126 126l-126 126l46 46zM263 350l-173 -173l-46 47l126 126l-126 126l46 46z" />
    <glyph glyph-name="guilsinglleft.case" horiz-adv-x="297" 
d="M203 177l-173 173l173 172l46 -46l-126 -126l126 -126z" />
    <glyph glyph-name="guilsinglright.case" horiz-adv-x="297" 
d="M263 350l-173 -173l-46 47l126 126l-126 126l46 46z" />
    <glyph glyph-name="hyphen.case" horiz-adv-x="340" 
d="M54 314v72h232v-72h-232z" />
    <glyph glyph-name="endash.case" horiz-adv-x="500" 
d="M54 314v72h392v-72h-392z" />
    <glyph glyph-name="emdash.case" horiz-adv-x="700" 
d="M54 314v72h592v-72h-592z" />
    <glyph glyph-name="bar.case" horiz-adv-x="223" 
d="M66 -50v800h91v-800h-91z" />
    <glyph glyph-name="brokenbar.case" horiz-adv-x="223" 
d="M66 -50v350h91v-350h-91zM157 750v-350h-91v350h91z" />
    <glyph glyph-name="asciitilde.case" horiz-adv-x="432" 
d="M91 296h-61q0 50 32.5 81.5t80.5 31.5q41 0 80.5 -30t64.5 -30q23 0 38.5 15.5t15.5 40.5h60q0 -50 -32.5 -82t-81.5 -32q-33 0 -57 15.5t-44 30.5t-43 15t-38 -15.5t-15 -40.5z" />
    <glyph glyph-name="dagger.case" horiz-adv-x="500" 
d="M54 469v72h150v209h92v-209h150v-72h-150v-519h-92v519h-150z" />
    <glyph glyph-name="daggerdbl.case" horiz-adv-x="500" 
d="M54 169v72h150v228h-150v72h150v209h92v-209h150v-72h-150v-228h150v-72h-150v-219h-92v219h-150z" />
    <glyph glyph-name="bullet.case" horiz-adv-x="259" 
d="M51 350q0 33 22.5 56t55.5 23q34 0 56.5 -23t22.5 -56t-22.5 -56t-56.5 -23q-33 0 -55.5 23t-22.5 56z" />
    <glyph glyph-name="A.smcp" horiz-adv-x="591" 
d="M468 0l-54 116h-237l-54 -116h-102l233 504h83l233 -504h-102zM295 389l-86 -195h174z" />
    <glyph glyph-name="Aacute.smcp" horiz-adv-x="591" 
d="M468 0l-54 116h-237l-54 -116h-102l233 504h83l233 -504h-102zM295 389l-86 -195h174zM237 565l105 102l42 -42l-104 -102z" />
    <glyph glyph-name="Abreve.smcp" horiz-adv-x="591" 
d="M468 0l-54 116h-237l-54 -116h-102l233 504h83l233 -504h-102zM295 389l-86 -195h174zM295 592q47 0 74 27l42 -41q-45 -47 -116 -47q-69 0 -114 47l42 42q26 -28 72 -28z" />
    <glyph glyph-name="Acircumflex.smcp" horiz-adv-x="591" 
d="M468 0l-54 116h-237l-54 -116h-102l233 504h83l233 -504h-102zM295 389l-86 -195h174zM295 667l105 -102l-41 -42l-64 60l-62 -60l-42 42z" />
    <glyph glyph-name="Agrave.smcp" horiz-adv-x="591" 
d="M468 0l-54 116h-237l-54 -116h-102l233 504h83l233 -504h-102zM295 389l-86 -195h174zM250 667l104 -102l-42 -42l-105 102z" />
    <glyph glyph-name="Adieresis.smcp" horiz-adv-x="591" 
d="M468 0l-54 116h-237l-54 -116h-102l233 504h83l233 -504h-102zM295 389l-86 -195h174zM176 576q0 19 13.5 32.5t33.5 13.5t33.5 -13t13.5 -33t-13.5 -33.5t-33.5 -13.5t-33.5 13.5t-13.5 33.5zM320 576q0 20 14 33.5t34 13.5t34 -13.5t14 -33.5t-14 -33.5t-34 -13.5
t-34 13.5t-14 33.5z" />
    <glyph glyph-name="Amacron.smcp" horiz-adv-x="591" 
d="M468 0l-54 116h-237l-54 -116h-102l233 504h83l233 -504h-102zM295 389l-86 -195h174zM197 546v50h197v-50h-197z" />
    <glyph glyph-name="Aogonek.smcp" horiz-adv-x="592" 
d="M501 -25q0 -16 10 -25.5t26 -9.5q18 0 27 9l29 -27q-21 -21 -55 -21t-55 20.5t-21 53.5q0 17 6 25l-54 116h-237l-54 -116h-102l233 504h83l233 -504h-62q-7 -8 -7 -25zM295 389l-86 -195h174z" />
    <glyph glyph-name="Aring.smcp" horiz-adv-x="591" 
d="M468 0l-54 116h-237l-54 -116h-102l233 504h83l233 -504h-102zM295 389l-86 -195h174zM227 585q0 30 19 48.5t49 18.5q32 0 50.5 -18t18.5 -49t-19 -49.5t-50 -18.5q-30 0 -49 18.5t-19 49.5zM262 584q0 -14 9.5 -23t23.5 -9q16 0 25.5 9t9.5 23q0 15 -10 24t-25 9
q-14 0 -23.5 -9t-9.5 -24z" />
    <glyph glyph-name="Atilde.smcp" horiz-adv-x="591" 
d="M468 0l-54 116h-237l-54 -116h-102l233 504h83l233 -504h-102zM295 389l-86 -195h174zM227 542h-45q0 33 20.5 53t52.5 20q25 0 47 -15.5t34 -15.5t20 8t8 20h45q0 -33 -20.5 -53t-52.5 -20q-25 0 -46.5 15.5t-34.5 15.5q-12 0 -20 -7.5t-8 -20.5z" />
    <glyph glyph-name="AE.smcp" horiz-adv-x="605" 
d="M384 432v-144h158v-72h-158v-144h185v-72h-274v116h-118l-54 -116h-102l233 504h311v-72h-181zM209 194h86v198z" />
    <glyph glyph-name="AEacute.smcp" horiz-adv-x="605" 
d="M384 432v-144h158v-72h-158v-144h185v-72h-274v116h-118l-54 -116h-102l233 504h311v-72h-181zM209 194h86v198zM265 565l104 102l43 -42l-105 -102z" />
    <glyph glyph-name="B.smcp" horiz-adv-x="436" 
d="M53 0v504h161q67 0 107.5 -36.5t40.5 -97.5q0 -67 -51 -102q80 -36 80 -125q0 -65 -44 -104t-116 -39h-178zM302 149q0 34 -20.5 54t-54.5 20h-82v-147h82q34 0 54.5 20t20.5 53zM275 363q0 30 -18 47.5t-48 17.5h-64v-130h64q29 0 47.5 18t18.5 47z" />
    <glyph glyph-name="C.smcp" 
d="M134 252q0 -80 50.5 -130t130.5 -50q83 0 134 48l56 -55q-75 -72 -195 -72q-119 0 -193.5 72t-74.5 187t74.5 187t193.5 72q120 0 195 -72l-56 -56q-51 49 -134 49q-80 0 -130.5 -50t-50.5 -130z" />
    <glyph glyph-name="Cacute.smcp" 
d="M134 252q0 -80 50.5 -130t130.5 -50q83 0 134 48l56 -55q-75 -72 -195 -72q-119 0 -193.5 72t-74.5 187t74.5 187t193.5 72q120 0 195 -72l-56 -56q-51 49 -134 49q-80 0 -130.5 -50t-50.5 -130zM235 566l105 102l43 -42l-105 -102z" />
    <glyph glyph-name="Ccaron.smcp" 
d="M134 252q0 -80 50.5 -130t130.5 -50q83 0 134 48l56 -55q-75 -72 -195 -72q-119 0 -193.5 72t-74.5 187t74.5 187t193.5 72q120 0 195 -72l-56 -56q-51 49 -134 49q-80 0 -130.5 -50t-50.5 -130zM293 523l-105 102l42 42l63 -60l63 60l42 -42z" />
    <glyph glyph-name="Ccedilla.smcp" 
d="M134 252q0 -80 50.5 -130t130.5 -50q83 0 134 48l56 -55q-69 -66 -179 -72v-31q51 -12 51 -60q0 -28 -18.5 -45.5t-48.5 -17.5q-28 0 -50 20l26 25q10 -10 24 -10t23 8.5t9 21.5q0 31 -49 31v59q-113 5 -182 75.5t-69 182.5q0 115 74.5 187t193.5 72q120 0 195 -72
l-56 -56q-51 49 -134 49q-80 0 -130.5 -50t-50.5 -130z" />
    <glyph glyph-name="Ccircumflex.smcp" 
d="M134 252q0 -80 50.5 -130t130.5 -50q83 0 134 48l56 -55q-75 -72 -195 -72q-119 0 -193.5 72t-74.5 187t74.5 187t193.5 72q120 0 195 -72l-56 -56q-51 49 -134 49q-80 0 -130.5 -50t-50.5 -130zM295 667l105 -102l-42 -42l-63 60l-62 -60l-42 42z" />
    <glyph glyph-name="Cdotaccent.smcp" 
d="M134 252q0 -80 50.5 -130t130.5 -50q83 0 134 48l56 -55q-75 -72 -195 -72q-119 0 -193.5 72t-74.5 187t74.5 187t193.5 72q120 0 195 -72l-56 -56q-51 49 -134 49q-80 0 -130.5 -50t-50.5 -130zM245 586q0 21 14.5 35.5t35.5 14.5q22 0 36.5 -14.5t14.5 -35.5
t-14.5 -35.5t-36.5 -14.5q-21 0 -35.5 14.5t-14.5 35.5z" />
    <glyph glyph-name="D.smcp" horiz-adv-x="543" 
d="M53 0v504h180q121 0 194.5 -68.5t73.5 -183.5t-73.5 -183.5t-194.5 -68.5h-180zM410 252q0 80 -49 128t-128 48h-88v-352h88q79 0 128 48t49 128z" />
    <glyph glyph-name="Dcaron.smcp" horiz-adv-x="543" 
d="M53 0v504h180q121 0 194.5 -68.5t73.5 -183.5t-73.5 -183.5t-194.5 -68.5h-180zM410 252q0 80 -49 128t-128 48h-88v-352h88q79 0 128 48t49 128zM264 523l-105 102l42 42l63 -60l63 60l42 -42z" />
    <glyph glyph-name="Dcroat.smcp" horiz-adv-x="547" 
d="M36 219v66h33v219h167q121 0 195 -68.5t74 -183.5t-74 -183.5t-195 -68.5h-167v219h-33zM413 252q0 80 -49 128t-128 48h-76v-143h105v-66h-105v-143h76q79 0 128 48t49 128z" />
    <glyph glyph-name="Eth.smcp" horiz-adv-x="547" 
d="M36 219v66h33v219h167q121 0 195 -68.5t74 -183.5t-74 -183.5t-195 -68.5h-167v219h-33zM413 252q0 80 -49 128t-128 48h-76v-143h105v-66h-105v-143h76q79 0 128 48t49 128z" />
    <glyph glyph-name="Thorn.smcp" horiz-adv-x="417" 
d="M53 0v504h92v-96h63q75 0 121 -40.5t46 -108.5t-46 -108.5t-121 -40.5h-63v-110h-92zM284 259q0 33 -21 53.5t-55 20.5h-63v-147h63q34 0 55 20t21 53z" />
    <glyph glyph-name="E.smcp" horiz-adv-x="381" 
d="M141 432v-144h174v-72h-174v-144h201v-72h-289v504h286v-72h-198z" />
    <glyph glyph-name="Eacute.smcp" horiz-adv-x="381" 
d="M141 432v-144h174v-72h-174v-144h201v-72h-289v504h286v-72h-198zM138 565l104 102l42 -42l-105 -102z" />
    <glyph glyph-name="Ebreve.smcp" horiz-adv-x="381" 
d="M141 432v-144h174v-72h-174v-144h201v-72h-289v504h286v-72h-198zM196 592q46 0 73 27l41 -41q-45 -47 -114 -47q-70 0 -115 47l42 42q26 -28 73 -28z" />
    <glyph glyph-name="Ecaron.smcp" horiz-adv-x="381" 
d="M141 432v-144h174v-72h-174v-144h201v-72h-289v504h286v-72h-198zM196 523l-105 102l42 42l63 -60l62 60l43 -42z" />
    <glyph glyph-name="Ecircumflex.smcp" horiz-adv-x="381" 
d="M141 432v-144h174v-72h-174v-144h201v-72h-289v504h286v-72h-198zM196 667l105 -102l-43 -42l-62 60l-63 -60l-42 42z" />
    <glyph glyph-name="Edieresis.smcp" horiz-adv-x="381" 
d="M141 432v-144h174v-72h-174v-144h201v-72h-289v504h286v-72h-198zM76 576q0 19 13.5 32.5t33.5 13.5t33.5 -13t13.5 -33t-13.5 -33.5t-33.5 -13.5t-33.5 13.5t-13.5 33.5zM220 576q0 20 14 33.5t34 13.5t33.5 -13.5t13.5 -33.5t-13.5 -33.5t-33.5 -13.5t-34 13.5
t-14 33.5z" />
    <glyph glyph-name="Edotaccent.smcp" horiz-adv-x="381" 
d="M141 432v-144h174v-72h-174v-144h201v-72h-289v504h286v-72h-198zM145 586q0 21 14.5 35.5t36.5 14.5q21 0 35.5 -14.5t14.5 -35.5t-14.5 -35.5t-35.5 -14.5q-22 0 -36.5 14.5t-14.5 35.5z" />
    <glyph glyph-name="Egrave.smcp" horiz-adv-x="381" 
d="M141 432v-144h174v-72h-174v-144h201v-72h-289v504h286v-72h-198zM149 667l105 -102l-42 -42l-104 102z" />
    <glyph glyph-name="Emacron.smcp" horiz-adv-x="381" 
d="M141 432v-144h174v-72h-174v-144h201v-72h-289v504h286v-72h-198zM97 546v50h197v-50h-197z" />
    <glyph glyph-name="Eogonek.smcp" horiz-adv-x="381" 
d="M261 -25q0 -16 10 -25.5t27 -9.5q16 0 27 9l28 -27q-21 -21 -55 -21t-55 20.5t-21 53.5q0 15 6 25h-175v504h286v-72h-198v-144h174v-72h-174v-144h201v-72h-74q-7 -8 -7 -25z" />
    <glyph glyph-name="F.smcp" horiz-adv-x="364" 
d="M141 432v-144h165v-72h-165v-216h-88v504h276v-72h-188z" />
    <glyph glyph-name="G.smcp" horiz-adv-x="558" 
d="M310 206v71h195v-212q-74 -72 -195 -72q-119 0 -193.5 72t-74.5 187t74.5 187t193.5 72q120 0 195 -72l-56 -56q-51 49 -134 49q-80 0 -130.5 -50t-50.5 -130t50.5 -130t130.5 -50q60 0 102 24v110h-107z" />
    <glyph glyph-name="Gbreve.smcp" horiz-adv-x="558" 
d="M310 206v71h195v-212q-74 -72 -195 -72q-119 0 -193.5 72t-74.5 187t74.5 187t193.5 72q120 0 195 -72l-56 -56q-51 49 -134 49q-80 0 -130.5 -50t-50.5 -130t50.5 -130t130.5 -50q60 0 102 24v110h-107zM309 592q46 0 73 27l42 -41q-45 -47 -115 -47q-69 0 -114 47
l42 42q26 -28 72 -28z" />
    <glyph glyph-name="Gcircumflex.smcp" horiz-adv-x="558" 
d="M310 206v71h195v-212q-74 -72 -195 -72q-119 0 -193.5 72t-74.5 187t74.5 187t193.5 72q120 0 195 -72l-56 -56q-51 49 -134 49q-80 0 -130.5 -50t-50.5 -130t50.5 -130t130.5 -50q60 0 102 24v110h-107zM310 667l105 -102l-42 -42l-63 60l-63 -60l-42 42z" />
    <glyph glyph-name="Gcommaaccent.smcp" horiz-adv-x="558" 
d="M310 206v71h195v-212q-74 -72 -195 -72q-119 0 -193.5 72t-74.5 187t74.5 187t193.5 72q120 0 195 -72l-56 -56q-51 49 -134 49q-80 0 -130.5 -50t-50.5 -130t50.5 -130t130.5 -50q60 0 102 24v110h-107zM281 -181l-22 22q26 26 33 50q-14 2 -23 13t-9 25q0 17 12 29
t29 12q16 0 28.5 -10.5t12.5 -34.5q0 -45 -61 -106z" />
    <glyph glyph-name="Gdotaccent.smcp" horiz-adv-x="558" 
d="M310 206v71h195v-212q-74 -72 -195 -72q-119 0 -193.5 72t-74.5 187t74.5 187t193.5 72q120 0 195 -72l-56 -56q-51 49 -134 49q-80 0 -130.5 -50t-50.5 -130t50.5 -130t130.5 -50q60 0 102 24v110h-107zM259 586q0 21 14.5 35.5t35.5 14.5q22 0 36.5 -14.5t14.5 -35.5
t-14.5 -35.5t-36.5 -14.5q-21 0 -35.5 14.5t-14.5 35.5z" />
    <glyph glyph-name="H.smcp" horiz-adv-x="532" 
d="M141 504v-216h250v216h88v-504h-88v216h-250v-216h-88v504h88z" />
    <glyph glyph-name="Hbar.smcp" horiz-adv-x="545" 
d="M74 0v361h-39v66h39v77h89v-77h213v77h88v-77h46v-66h-46v-361h-88v216h-213v-216h-89zM163 288h213v73h-213v-73z" />
    <glyph glyph-name="Hcircumflex.smcp" horiz-adv-x="532" 
d="M141 504v-216h250v216h88v-504h-88v216h-250v-216h-88v504h88zM266 667l105 -102l-42 -42l-63 60l-63 -60l-42 42z" />
    <glyph glyph-name="I.smcp" horiz-adv-x="193" 
d="M52 0v504h89v-504h-89z" />
    <glyph glyph-name="Iacute.smcp" horiz-adv-x="193" 
d="M52 0v504h89v-504h-89zM38 565l105 102l42 -42l-105 -102z" />
    <glyph glyph-name="Ibreve.smcp" horiz-adv-x="194" 
d="M53 0v504h88v-504h-88zM97 592q48 0 73 27l42 -41q-45 -47 -115 -47q-69 0 -114 47l41 42q28 -28 73 -28z" />
    <glyph glyph-name="Icircumflex.smcp" horiz-adv-x="193" 
d="M52 0v504h89v-504h-89zM97 667l105 -102l-43 -42l-62 60l-63 -60l-42 42z" />
    <glyph glyph-name="Idieresis.smcp" horiz-adv-x="194" 
d="M53 0v504h88v-504h-88zM-14 576q0 20 13.5 33t33.5 13t33.5 -13.5t13.5 -32.5q0 -20 -13.5 -33.5t-33.5 -13.5t-33.5 13.5t-13.5 33.5zM113 576q0 20 13.5 33.5t33.5 13.5t34 -13.5t14 -33.5t-14 -33.5t-34 -13.5t-33.5 13.5t-13.5 33.5z" />
    <glyph glyph-name="Idotaccent.smcp" horiz-adv-x="194" 
d="M53 0v504h88v-504h-88zM46 586q0 21 14.5 35.5t35.5 14.5q22 0 36.5 -14.5t14.5 -35.5t-14.5 -35.5t-36.5 -14.5q-21 0 -35.5 14.5t-14.5 35.5z" />
    <glyph glyph-name="Igrave.smcp" horiz-adv-x="193" 
d="M52 0v504h89v-504h-89zM50 667l105 -102l-42 -42l-105 102z" />
    <glyph glyph-name="Imacron.smcp" horiz-adv-x="194" 
d="M53 0v504h88v-504h-88zM-1 546v50h197v-50h-197z" />
    <glyph glyph-name="Iogonek.smcp" horiz-adv-x="193" 
d="M52 0v504h89v-504h-89zM86 -25q0 -16 10 -25.5t26 -9.5q18 0 27 9l28 -27q-21 -21 -54 -21q-34 0 -55 20.5t-21 53.5q0 16 5 25h40q-6 -9 -6 -25z" />
    <glyph glyph-name="Itilde.smcp" horiz-adv-x="193" 
d="M52 0v504h89v-504h-89zM29 542h-45q0 33 20 53t52 20q25 0 47 -15.5t34 -15.5t20 8t8 20h45q0 -33 -20.5 -53t-52.5 -20q-25 0 -46 15.5t-35 15.5q-12 0 -19.5 -8t-7.5 -20z" />
    <glyph glyph-name="IJ.smcp" horiz-adv-x="390" 
d="M53 180v324h88v-324h-88zM249 143v361h89v-361q0 -67 -44 -108.5t-113 -41.5q-70 0 -114 42l56 56q21 -19 54 -19q32 0 52 19.5t20 51.5z" />
    <glyph glyph-name="J.smcp" horiz-adv-x="357" 
d="M217 143v361h88v-361q0 -67 -44 -108.5t-113 -41.5t-113 42l56 56q21 -19 53 -19t52.5 19.5t20.5 51.5z" />
    <glyph glyph-name="Jcircumflex.smcp" horiz-adv-x="357" 
d="M217 143v361h88v-361q0 -67 -44 -108.5t-113 -41.5t-113 42l56 56q21 -19 53 -19t52.5 19.5t20.5 51.5zM261 667l104 -102l-42 -42l-62 60l-64 -60l-42 42z" />
    <glyph glyph-name="K.smcp" horiz-adv-x="484" 
d="M348 0l-207 254v-254h-89v504h89v-238l192 238h111l-197 -244l215 -260h-114z" />
    <glyph glyph-name="Kcommaaccent.smcp" horiz-adv-x="484" 
d="M348 0l-207 254v-254h-89v504h89v-238l192 238h111l-197 -244l215 -260h-114zM222 -181l-22 22q28 28 33 50q-14 2 -23 13t-9 25q0 17 12 29t30 12q16 0 28 -10.5t12 -34.5q0 -47 -61 -106z" />
    <glyph glyph-name="L.smcp" horiz-adv-x="366" 
d="M141 504v-432h190v-72h-278v504h88z" />
    <glyph glyph-name="Lacute.smcp" horiz-adv-x="366" 
d="M141 504v-432h190v-72h-278v504h88zM109 565l105 102l42 -42l-105 -102z" />
    <glyph glyph-name="Lcaron.smcp" horiz-adv-x="366" 
d="M141 504v-432h190v-72h-278v504h88zM98 523l-106 102l43 42l63 -60l62 60l42 -42z" />
    <glyph glyph-name="Lcommaaccent.smcp" horiz-adv-x="366" 
d="M141 504v-432h190v-72h-278v504h88zM172 -181l-22 22q26 26 33 50q-14 2 -23 13t-9 25q0 17 12 29t29 12q16 0 28.5 -10.5t12.5 -34.5q0 -47 -61 -106z" />
    <glyph glyph-name="Ldot.smcp" horiz-adv-x="366" 
d="M141 504v-432h190v-72h-278v504h88zM222 234q0 21 14.5 35.5t35.5 14.5q22 0 36.5 -14.5t14.5 -35.5t-14.5 -35.5t-36.5 -14.5q-21 0 -35.5 14.5t-14.5 35.5z" />
    <glyph glyph-name="Lslash.smcp" horiz-adv-x="404" 
d="M12 157l79 75v272h88v-203l57 55l43 -42l-100 -97v-145h190v-72h-278v148l-36 -34z" />
    <glyph glyph-name="M.smcp" horiz-adv-x="617" 
d="M475 0v325l-151 -221h-32l-151 221v-325h-88v504h66l189 -271l190 271h65v-504h-88z" />
    <glyph glyph-name="N.smcp" horiz-adv-x="550" 
d="M53 504h56l300 -335v335h88v-504h-56l-300 335v-335h-88v504z" />
    <glyph glyph-name="Nacute.smcp" horiz-adv-x="550" 
d="M53 504h56l300 -335v335h88v-504h-56l-300 335v-335h-88v504zM216 565l105 102l42 -42l-105 -102z" />
    <glyph glyph-name="Ncaron.smcp" horiz-adv-x="550" 
d="M53 504h56l300 -335v335h88v-504h-56l-300 335v-335h-88v504zM275 523l-105 102l42 42l63 -60l63 60l42 -42z" />
    <glyph glyph-name="Ncommaaccent.smcp" horiz-adv-x="550" 
d="M53 504h56l300 -335v335h88v-504h-56l-300 335v-335h-88v504zM255 -181l-22 22q28 28 34 50q-14 2 -23.5 13t-9.5 25q0 17 12 29t30 12q16 0 28 -10.5t12 -34.5q0 -47 -61 -106z" />
    <glyph glyph-name="Ntilde.smcp" horiz-adv-x="550" 
d="M53 504h56l300 -335v335h88v-504h-56l-300 335v-335h-88v504zM207 542h-45q0 33 20 53t52 20q24 0 46 -15.5t35 -15.5q12 0 20 8t8 20h45q0 -33 -20.5 -53t-52.5 -20q-25 0 -46 15.5t-35 15.5q-12 0 -19.5 -7.5t-7.5 -20.5z" />
    <glyph glyph-name="Eng.smcp" horiz-adv-x="550" 
d="M374 -180v56q35 0 35 32v129l-268 298v-335h-88v504h56l300 -335v335h88v-598q0 -40 -24 -65t-66 -25q-22 0 -33 4z" />
    <glyph glyph-name="O.smcp" horiz-adv-x="621" 
d="M42 252q0 115 74.5 187t193.5 72q121 0 195 -71.5t74 -187.5t-74 -187.5t-195 -71.5q-119 0 -193.5 72t-74.5 187zM134 252q0 -80 49 -130t127 -50q79 0 128.5 50t49.5 130t-49.5 130t-128.5 50q-78 0 -127 -50t-49 -130z" />
    <glyph glyph-name="Oacute.smcp" horiz-adv-x="621" 
d="M42 252q0 115 74.5 187t193.5 72q121 0 195 -71.5t74 -187.5t-74 -187.5t-195 -71.5q-119 0 -193.5 72t-74.5 187zM134 252q0 -80 49 -130t127 -50q79 0 128.5 50t49.5 130t-49.5 130t-128.5 50q-78 0 -127 -50t-49 -130zM252 565l105 102l42 -42l-105 -102z" />
    <glyph glyph-name="Obreve.smcp" horiz-adv-x="621" 
d="M42 252q0 115 74.5 187t193.5 72q121 0 195 -71.5t74 -187.5t-74 -187.5t-195 -71.5q-119 0 -193.5 72t-74.5 187zM134 252q0 -80 49 -130t127 -50q79 0 128.5 50t49.5 130t-49.5 130t-128.5 50q-78 0 -127 -50t-49 -130zM310 592q46 0 73 27l43 -41q-45 -47 -116 -47
q-69 0 -114 47l42 42q28 -28 72 -28z" />
    <glyph glyph-name="Ocircumflex.smcp" horiz-adv-x="621" 
d="M42 252q0 115 74.5 187t193.5 72q121 0 195 -71.5t74 -187.5t-74 -187.5t-195 -71.5q-119 0 -193.5 72t-74.5 187zM134 252q0 -80 49 -130t127 -50q79 0 128.5 50t49.5 130t-49.5 130t-128.5 50q-78 0 -127 -50t-49 -130zM310 667l106 -102l-42 -42l-64 60l-62 -60
l-43 42z" />
    <glyph glyph-name="Odieresis.smcp" horiz-adv-x="621" 
d="M42 252q0 115 74.5 187t193.5 72q121 0 195 -71.5t74 -187.5t-74 -187.5t-195 -71.5q-119 0 -193.5 72t-74.5 187zM134 252q0 -80 49 -130t127 -50q79 0 128.5 50t49.5 130t-49.5 130t-128.5 50q-78 0 -127 -50t-49 -130zM191 576q0 19 13.5 32.5t33.5 13.5t33.5 -13.5
t13.5 -32.5q0 -20 -13.5 -33.5t-33.5 -13.5t-33.5 13.5t-13.5 33.5zM335 576q0 20 13.5 33.5t33.5 13.5q21 0 35 -13.5t14 -33.5t-14 -33.5t-35 -13.5q-20 0 -33.5 13.5t-13.5 33.5z" />
    <glyph glyph-name="Ograve.smcp" horiz-adv-x="621" 
d="M42 252q0 115 74.5 187t193.5 72q121 0 195 -71.5t74 -187.5t-74 -187.5t-195 -71.5q-119 0 -193.5 72t-74.5 187zM134 252q0 -80 49 -130t127 -50q79 0 128.5 50t49.5 130t-49.5 130t-128.5 50q-78 0 -127 -50t-49 -130zM264 667l105 -102l-42 -42l-105 102z" />
    <glyph glyph-name="Ohungarumlaut.smcp" horiz-adv-x="621" 
d="M42 252q0 115 74.5 187t193.5 72q121 0 195 -71.5t74 -187.5t-74 -187.5t-195 -71.5q-119 0 -193.5 72t-74.5 187zM134 252q0 -80 49 -130t127 -50q79 0 128.5 50t49.5 130t-49.5 130t-128.5 50q-78 0 -127 -50t-49 -130zM190 565l105 102l43 -42l-105 -102zM313 565
l105 102l43 -42l-105 -102z" />
    <glyph glyph-name="Omacron.smcp" horiz-adv-x="621" 
d="M42 252q0 115 74.5 187t193.5 72q121 0 195 -71.5t74 -187.5t-74 -187.5t-195 -71.5q-119 0 -193.5 72t-74.5 187zM134 252q0 -80 49 -130t127 -50q79 0 128.5 50t49.5 130t-49.5 130t-128.5 50q-78 0 -127 -50t-49 -130zM212 546v50h197v-50h-197z" />
    <glyph glyph-name="Oslash.smcp" horiz-adv-x="620" 
d="M37 -7l71 80q-66 71 -66 179q0 115 74.5 187t193.5 72q85 0 150 -38l34 38h89l-70 -80q66 -71 66 -179q0 -116 -74 -187.5t-195 -71.5q-86 0 -150 38l-33 -38h-90zM133 252q0 -66 34 -112l236 268q-42 24 -93 24q-78 0 -127.5 -50t-49.5 -130zM487 252q0 66 -34 112
l-236 -269q40 -23 93 -23q79 0 128 50t49 130z" />
    <glyph glyph-name="Oslashacute.smcp" horiz-adv-x="620" 
d="M37 -7l71 80q-66 71 -66 179q0 115 74.5 187t193.5 72q85 0 150 -38l34 38h89l-70 -80q66 -71 66 -179q0 -116 -74 -187.5t-195 -71.5q-86 0 -150 38l-33 -38h-90zM133 252q0 -66 34 -112l236 268q-42 24 -93 24q-78 0 -127.5 -50t-49.5 -130zM487 252q0 66 -34 112
l-236 -269q40 -23 93 -23q79 0 128 50t49 130zM252 565l104 102l43 -42l-105 -102z" />
    <glyph glyph-name="Otilde.smcp" horiz-adv-x="621" 
d="M42 252q0 115 74.5 187t193.5 72q121 0 195 -71.5t74 -187.5t-74 -187.5t-195 -71.5q-119 0 -193.5 72t-74.5 187zM134 252q0 -80 49 -130t127 -50q79 0 128.5 50t49.5 130t-49.5 130t-128.5 50q-78 0 -127 -50t-49 -130zM243 542h-46q0 33 20.5 53t52.5 20
q24 0 46 -15.5t35 -15.5q12 0 20 8t8 20h45q0 -33 -20.5 -53t-52.5 -20q-25 0 -46 15.5t-35 15.5q-12 0 -19.5 -7.5t-7.5 -20.5z" />
    <glyph glyph-name="OE.smcp" horiz-adv-x="688" 
d="M464 432v-144h161v-72h-161v-144h188v-72h-273q-38 -7 -69 -7q-119 0 -193.5 72t-74.5 187t74.5 187t193.5 72q30 0 67 -7h271v-72h-184zM310 72q37 0 67 12v336q-30 12 -67 12q-78 0 -127 -50t-49 -130t49 -130t127 -50z" />
    <glyph glyph-name="P.smcp" horiz-adv-x="417" 
d="M53 0v504h155q75 0 121 -40.5t46 -108.5t-46 -109t-121 -41h-63v-205h-92zM284 355q0 33 -21 53t-55 20h-63v-147h63q34 0 55 20.5t21 53.5z" />
    <glyph glyph-name="Q.smcp" horiz-adv-x="621" 
d="M530 -16l-58 55q-68 -46 -162 -46q-119 0 -193.5 72t-74.5 187t74.5 187t193.5 72q121 0 195 -71.5t74 -187.5q0 -91 -51 -158l58 -54zM134 252q0 -80 49 -130t127 -50q67 0 105 24l-75 71l55 55l67 -63q26 42 26 93q0 80 -49.5 130t-128.5 50q-78 0 -127 -50t-49 -130z
" />
    <glyph glyph-name="R.smcp" horiz-adv-x="431" 
d="M307 0l-109 205h-53v-205h-92v504h163q75 0 120.5 -40.5t45.5 -108.5q0 -50 -26 -86.5t-71 -52.5l123 -216h-101zM290 355q0 33 -20.5 53t-53.5 20h-71v-147h71q33 0 53.5 20.5t20.5 53.5z" />
    <glyph glyph-name="Racute.smcp" horiz-adv-x="431" 
d="M307 0l-109 205h-53v-205h-92v504h163q75 0 120.5 -40.5t45.5 -108.5q0 -50 -26 -86.5t-71 -52.5l123 -216h-101zM290 355q0 33 -20.5 53t-53.5 20h-71v-147h71q33 0 53.5 20.5t20.5 53.5zM150 565l106 102l42 -42l-106 -102z" />
    <glyph glyph-name="Rcaron.smcp" horiz-adv-x="431" 
d="M307 0l-109 205h-53v-205h-92v504h163q75 0 120.5 -40.5t45.5 -108.5q0 -50 -26 -86.5t-71 -52.5l123 -216h-101zM290 355q0 33 -20.5 53t-53.5 20h-71v-147h71q33 0 53.5 20.5t20.5 53.5zM209 523l-105 102l43 42l62 -60l62 60l43 -42z" />
    <glyph glyph-name="Rcommaaccent.smcp" horiz-adv-x="431" 
d="M307 0l-109 205h-53v-205h-92v504h163q75 0 120.5 -40.5t45.5 -108.5q0 -50 -26 -86.5t-71 -52.5l123 -216h-101zM290 355q0 33 -20.5 53t-53.5 20h-71v-147h71q33 0 53.5 20.5t20.5 53.5zM196 -181l-23 22q27 26 34 50q-14 2 -23 13t-9 25q0 17 12 29t29 12
q16 0 28.5 -10.5t12.5 -34.5q0 -47 -61 -106z" />
    <glyph glyph-name="S.smcp" horiz-adv-x="433" 
d="M373 444l-55 -54q-44 42 -101 42q-36 0 -55 -20.5t-19 -44.5q0 -26 25 -43t60.5 -29.5t71 -27.5t60.5 -46t25 -76q0 -65 -45 -108.5t-125 -43.5q-101 0 -178 75l54 55q53 -51 115 -51q41 0 64 22t23 49q0 25 -25 41.5t-60.5 28.5t-70.5 27t-60 46.5t-25 78.5
q0 63 41 104.5t115 41.5q96 0 165 -67z" />
    <glyph glyph-name="Sacute.smcp" horiz-adv-x="433" 
d="M373 444l-55 -54q-44 42 -101 42q-36 0 -55 -20.5t-19 -44.5q0 -26 25 -43t60.5 -29.5t71 -27.5t60.5 -46t25 -76q0 -65 -45 -108.5t-125 -43.5q-101 0 -178 75l54 55q53 -51 115 -51q41 0 64 22t23 49q0 25 -25 41.5t-60.5 28.5t-70.5 27t-60 46.5t-25 78.5
q0 63 41 104.5t115 41.5q96 0 165 -67zM150 565l105 102l42 -42l-105 -102z" />
    <glyph glyph-name="Scaron.smcp" horiz-adv-x="433" 
d="M373 444l-55 -54q-44 42 -101 42q-36 0 -55 -20.5t-19 -44.5q0 -26 25 -43t60.5 -29.5t71 -27.5t60.5 -46t25 -76q0 -65 -45 -108.5t-125 -43.5q-101 0 -178 75l54 55q53 -51 115 -51q41 0 64 22t23 49q0 25 -25 41.5t-60.5 28.5t-70.5 27t-60 46.5t-25 78.5
q0 63 41 104.5t115 41.5q96 0 165 -67zM209 523l-105 102l42 42l63 -60l62 60l43 -42z" />
    <glyph glyph-name="Scedilla.smcp" horiz-adv-x="433" 
d="M373 444l-55 -54q-44 42 -101 42q-36 0 -55 -20.5t-19 -44.5q0 -26 25 -43t60.5 -29.5t71 -27.5t60.5 -46t25 -76q0 -62 -40.5 -104.5t-112.5 -46.5v-32q50 -11 50 -60q0 -28 -18.5 -45.5t-48.5 -17.5q-29 0 -49 20l25 25q10 -10 24 -10t23 8.5t9 21.5q0 31 -49 31v59
q-91 6 -161 74l54 55q53 -51 115 -51q41 0 64 22t23 49q0 25 -25 41.5t-60.5 28.5t-70.5 27t-60 46.5t-25 78.5q0 63 41 104.5t115 41.5q96 0 165 -67z" />
    <glyph glyph-name="Scircumflex.smcp" horiz-adv-x="433" 
d="M373 444l-55 -54q-44 42 -101 42q-36 0 -55 -20.5t-19 -44.5q0 -26 25 -43t60.5 -29.5t71 -27.5t60.5 -46t25 -76q0 -65 -45 -108.5t-125 -43.5q-101 0 -178 75l54 55q53 -51 115 -51q41 0 64 22t23 49q0 25 -25 41.5t-60.5 28.5t-70.5 27t-60 46.5t-25 78.5
q0 63 41 104.5t115 41.5q96 0 165 -67zM209 667l105 -102l-43 -42l-62 60l-63 -60l-42 42z" />
    <glyph glyph-name="Scommaaccent.smcp" horiz-adv-x="433" 
d="M373 444l-55 -54q-44 42 -101 42q-36 0 -55 -20.5t-19 -44.5q0 -26 25 -43t60.5 -29.5t71 -27.5t60.5 -46t25 -76q0 -65 -45 -108.5t-125 -43.5q-101 0 -178 75l54 55q53 -51 115 -51q41 0 64 22t23 49q0 25 -25 41.5t-60.5 28.5t-70.5 27t-60 46.5t-25 78.5
q0 63 41 104.5t115 41.5q96 0 165 -67zM196 -181l-22 22q26 26 34 50q-14 2 -23.5 13t-9.5 25q0 17 12 29t29 12q41 0 41 -45q0 -47 -61 -106z" />
    <glyph glyph-name="T.smcp" horiz-adv-x="437" 
d="M262 432v-432h-88v432h-139v72h367v-72h-140z" />
    <glyph glyph-name="Tbar.smcp" horiz-adv-x="437" 
d="M73 234v65h101v133h-139v72h367v-72h-140v-133h101v-65h-101v-234h-88v234h-101z" />
    <glyph glyph-name="two.fitted" horiz-adv-x="530" 
d="M49 78l302 300q36 36 36 106q0 63 -35 102.5t-90 39.5t-89.5 -39.5t-34.5 -102.5h-95q0 100 60.5 162t158.5 62t159 -62t61 -162q0 -97 -71 -168l-239 -238h310v-78h-433v78z" />
    <glyph glyph-name="three.fitted" horiz-adv-x="530" 
d="M218 340v77h46q45 0 73.5 29.5t28.5 75.5t-28.5 75t-73.5 29t-73.5 -29t-28.5 -75h-95q0 83 54.5 134.5t142.5 51.5t142.5 -51.5t54.5 -134.5q0 -98 -79 -142q50 -23 78 -68t28 -106q0 -95 -62 -154.5t-162 -59.5t-162 59.5t-62 154.5h95q0 -59 36 -96t93 -37t93 37
t36 96t-36 96.5t-93 37.5h-46z" />
    <glyph glyph-name="four.fitted" horiz-adv-x="530" 
d="M339 0v130h-312v43l307 527h93v-491h60v-79h-56v-130h-92zM141 209h201v353z" />
    <glyph glyph-name="five.fitted" horiz-adv-x="530" 
d="M482 216q0 -100 -61 -162t-159 -62t-158.5 59t-60.5 154h91q0 -58 36 -94.5t92 -36.5q55 0 90 39.5t35 102.5q0 69 -39.5 112t-103.5 43q-66 0 -107 -41l-67 24l42 346h317v-79h-236l-25 -186q34 17 81 17q104 0 168.5 -65t64.5 -171z" />
    <glyph glyph-name="six.fitted" horiz-adv-x="530" 
d="M290 708l78 -45q-106 -135 -167 -246q28 14 65 14q99 0 161 -60t62 -158q0 -99 -62 -160t-163 -61q-100 0 -161.5 61.5t-61.5 166.5q0 100 54.5 200.5t194.5 287.5zM135 213q0 -62 36.5 -101t93.5 -39t93.5 39t36.5 101t-36.5 101t-93.5 39t-93.5 -39t-36.5 -101z" />
    <glyph glyph-name="seven.fitted" horiz-adv-x="530" 
d="M48 621v79h434v-30l-244 -670h-98l224 621h-316z" />
    <glyph glyph-name="eight.fitted" horiz-adv-x="530" 
d="M67 522q0 82 55 134t143 52t143 -52t55 -134q0 -98 -79 -142q50 -23 78 -68t28 -106q0 -95 -62.5 -154.5t-162.5 -59.5t-162.5 59.5t-62.5 154.5q0 61 27.5 106t77.5 68q-78 44 -78 142zM135 206q0 -59 36 -96t94 -37t94 37t36 96t-36 96t-94 37t-94 -37t-36 -96z
M162 522q0 -46 29 -75t74 -29t74 29t29 75t-29 75t-74 29t-74 -29t-29 -75z" />
    <glyph glyph-name="nine.fitted" horiz-adv-x="530" 
d="M240 -8l-79 45q105 132 168 246q-32 -15 -65 -15q-99 0 -160.5 60t-61.5 159t61.5 160t162.5 61q100 0 161 -61.5t61 -166.5q0 -101 -54 -200.5t-194 -287.5zM394 487q0 62 -36 100.5t-93 38.5t-93 -38.5t-36 -100.5t36 -101t93 -39t93 39t36 101z" />
    <glyph glyph-name="exclamdown.case" horiz-adv-x="223" 
d="M54 651q0 24 16.5 40.5t40.5 16.5q25 0 41.5 -16.5t16.5 -40.5t-16.5 -41t-41.5 -17q-24 0 -40.5 17t-16.5 41zM66 502h91v-502h-91v502z" />
    <glyph glyph-name="Uhungarumlaut.smcp" horiz-adv-x="512" 
d="M370 187v317h89v-317q0 -86 -56.5 -140t-147.5 -54t-146.5 54t-55.5 140v317h88v-317q0 -51 31.5 -83t82.5 -32t83 31.5t32 83.5zM135 565l106 102l42 -42l-105 -102zM259 565l104 102l43 -42l-105 -102z" />
    <glyph glyph-name="Umacron.smcp" horiz-adv-x="512" 
d="M370 187v317h89v-317q0 -86 -56.5 -140t-147.5 -54t-146.5 54t-55.5 140v317h88v-317q0 -51 31.5 -83t82.5 -32t83 31.5t32 83.5zM157 546v50h197v-50h-197z" />
    <glyph glyph-name="Uogonek.smcp" horiz-adv-x="512" 
d="M306 -25q0 -16 10 -25.5t26 -9.5q18 0 27 9l28 -27q-19 -21 -54 -21q-34 0 -55 20.5t-21 53.5q0 13 2 19q-5 -1 -14 -1q-91 0 -146.5 54t-55.5 140v317h88v-317q0 -51 31.5 -83t82.5 -32t83 31.5t32 83.5v317h89v-317q0 -72 -40 -122t-108 -66q-5 -10 -5 -24z" />
    <glyph glyph-name="Uring.smcp" horiz-adv-x="512" 
d="M370 187v317h89v-317q0 -86 -56.5 -140t-147.5 -54t-146.5 54t-55.5 140v317h88v-317q0 -51 31.5 -83t82.5 -32t83 31.5t32 83.5zM187 585q0 31 19 49t50 18t50 -18t19 -49t-19 -49.5t-50 -18.5t-50 18.5t-19 49.5zM223 584q0 -14 9 -23t24 -9t24 9t9 23q0 15 -9.5 24
t-23.5 9q-15 0 -24 -9t-9 -24z" />
    <glyph glyph-name="Utilde.smcp" horiz-adv-x="512" 
d="M370 187v317h89v-317q0 -86 -56.5 -140t-147.5 -54t-146.5 54t-55.5 140v317h88v-317q0 -51 31.5 -83t82.5 -32t83 31.5t32 83.5zM187 542h-44q0 33 20 53t51 20q25 0 47 -15.5t35 -15.5q12 0 20 8t8 20h45q0 -33 -20.5 -53t-52.5 -20q-25 0 -46.5 15.5t-34.5 15.5
q-12 0 -20 -7.5t-8 -20.5z" />
    <glyph glyph-name="V.smcp" horiz-adv-x="591" 
d="M570 504l-233 -504h-83l-233 504h104l170 -387l171 387h104z" />
    <glyph glyph-name="W.smcp" horiz-adv-x="847" 
d="M826 504l-190 -504h-89l-124 349l-123 -349h-89l-190 504h103l131 -365l123 365h91l123 -365l131 365h103z" />
    <glyph glyph-name="Wacute.smcp" horiz-adv-x="847" 
d="M826 504l-190 -504h-89l-124 349l-123 -349h-89l-190 504h103l131 -365l123 365h91l123 -365l131 365h103zM364 565l106 102l42 -42l-105 -102z" />
    <glyph glyph-name="Wcircumflex.smcp" horiz-adv-x="847" 
d="M826 504l-190 -504h-89l-124 349l-123 -349h-89l-190 504h103l131 -365l123 365h91l123 -365l131 365h103zM423 667l105 -102l-43 -42l-62 60l-62 -60l-43 42z" />
    <glyph glyph-name="Wdieresis.smcp" horiz-adv-x="847" 
d="M826 504l-190 -504h-89l-124 349l-123 -349h-89l-190 504h103l131 -365l123 365h91l123 -365l131 365h103zM303 576q0 19 14 32.5t34 13.5t33.5 -13.5t13.5 -32.5q0 -20 -13.5 -33.5t-33.5 -13.5t-34 13.5t-14 33.5zM448 576q0 20 14 33.5t33 13.5q20 0 34 -13.5
t14 -33.5t-14 -33.5t-34 -13.5t-33.5 13.5t-13.5 33.5z" />
    <glyph glyph-name="Wgrave.smcp" horiz-adv-x="847" 
d="M826 504l-190 -504h-89l-124 349l-123 -349h-89l-190 504h103l131 -365l123 365h91l123 -365l131 365h103zM377 667l105 -102l-42 -42l-106 102z" />
    <glyph glyph-name="X.smcp" horiz-adv-x="572" 
d="M436 0l-150 196l-150 -196h-114l198 256l-191 248h113l144 -188l143 188h114l-192 -248l199 -256h-114z" />
    <glyph glyph-name="Y.smcp" horiz-adv-x="529" 
d="M220 0v205l-199 299h102l141 -212l142 212h101l-199 -299v-205h-88z" />
    <glyph glyph-name="Yacute.smcp" horiz-adv-x="529" 
d="M220 0v205l-199 299h102l141 -212l142 212h101l-199 -299v-205h-88zM206 565l104 102l43 -42l-105 -102z" />
    <glyph glyph-name="Ycircumflex.smcp" horiz-adv-x="529" 
d="M220 0v205l-199 299h102l141 -212l142 212h101l-199 -299v-205h-88zM264 667l105 -102l-42 -42l-63 60l-62 -60l-43 42z" />
    <glyph glyph-name="Ydieresis.smcp" horiz-adv-x="529" 
d="M220 0v205l-199 299h102l141 -212l142 212h101l-199 -299v-205h-88zM145 576q0 20 13.5 33t33.5 13t33.5 -13.5t13.5 -32.5q0 -20 -13.5 -33.5t-33.5 -13.5t-33.5 13.5t-13.5 33.5zM289 576q0 20 13.5 33.5t33.5 13.5t34 -13.5t14 -33.5t-14 -33.5t-34 -13.5t-33.5 13.5
t-13.5 33.5z" />
    <glyph glyph-name="Ygrave.smcp" horiz-adv-x="529" 
d="M220 0v205l-199 299h102l141 -212l142 212h101l-199 -299v-205h-88zM218 667l105 -102l-43 -42l-104 102z" />
    <glyph glyph-name="Z.smcp" horiz-adv-x="490" 
d="M46 432v72h401v-24l-274 -408h274v-72h-405v25l274 407h-270z" />
    <glyph glyph-name="Zacute.smcp" horiz-adv-x="490" 
d="M46 432v72h401v-24l-274 -408h274v-72h-405v25l274 407h-270zM186 565l105 102l42 -42l-105 -102z" />
    <glyph glyph-name="Zcaron.smcp" horiz-adv-x="490" 
d="M46 432v72h401v-24l-274 -408h274v-72h-405v25l274 407h-270zM245 523l-105 102l42 42l63 -60l62 60l43 -42z" />
    <glyph glyph-name="Zdotaccent.smcp" horiz-adv-x="490" 
d="M46 432v72h401v-24l-274 -408h274v-72h-405v25l274 407h-270zM194 586q0 21 14.5 35.5t36.5 14.5q21 0 36 -14.5t15 -35.5t-15 -35.5t-36 -14.5q-22 0 -36.5 14.5t-14.5 35.5z" />
    <glyph glyph-name="uni018F.smcp" horiz-adv-x="571" 
d="M529 252q0 -115 -67.5 -187t-175.5 -72q-109 0 -176.5 72t-67.5 187v33h393q-11 66 -59.5 106.5t-119.5 40.5q-83 0 -134 -49l-56 56q75 72 194 72q120 0 194.5 -71.5t74.5 -187.5zM286 72q58 0 98.5 38.5t48.5 102.5h-296q9 -64 49 -102.5t100 -38.5z" />
    <glyph glyph-name="afii10017.smcp" horiz-adv-x="591" 
d="M468 0l-54 116h-237l-54 -116h-102l233 504h83l233 -504h-102zM295 389l-86 -195h174z" />
    <glyph glyph-name="afii10018.smcp" horiz-adv-x="426" 
d="M53 0v504h288v-72h-196v-134h73q75 0 120.5 -40.5t45.5 -108.5t-45.5 -108.5t-120.5 -40.5h-165zM293 149q0 33 -20.5 53.5t-54.5 20.5h-73v-147h73q34 0 54.5 20t20.5 53z" />
    <glyph glyph-name="afii10019.smcp" horiz-adv-x="436" 
d="M53 0v504h161q67 0 107.5 -36.5t40.5 -97.5q0 -67 -51 -102q80 -36 80 -125q0 -65 -44 -104t-116 -39h-178zM302 149q0 34 -20.5 54t-54.5 20h-82v-147h82q34 0 54.5 20t20.5 53zM275 363q0 30 -18 47.5t-48 17.5h-64v-130h64q29 0 47.5 18t18.5 47z" />
    <glyph glyph-name="afii10020.smcp" horiz-adv-x="366" 
d="M53 0v504h278v-72h-190v-432h-88z" />
    <glyph glyph-name="afii10021.smcp" horiz-adv-x="535" 
d="M425 0h-315v-108h-82v177q39 0 61.5 29.5t22.5 82.5v323h339v-432h56v-180h-82v108zM203 181q0 -69 -37 -109h194v360h-157v-251z" />
    <glyph glyph-name="afii10022.smcp" horiz-adv-x="381" 
d="M141 432v-144h174v-72h-174v-144h201v-72h-289v504h286v-72h-198z" />
    <glyph glyph-name="afii10023.smcp" horiz-adv-x="381" 
d="M141 432v-144h174v-72h-174v-144h201v-72h-289v504h286v-72h-198zM76 576q0 19 13.5 32.5t33.5 13.5t33.5 -13t13.5 -33t-13.5 -33.5t-33.5 -13.5t-33.5 13.5t-13.5 33.5zM220 576q0 20 14 33.5t34 13.5t33.5 -13.5t13.5 -33.5t-13.5 -33.5t-33.5 -13.5t-34 13.5
t-14 33.5z" />
    <glyph glyph-name="afii10024.smcp" horiz-adv-x="724" 
d="M598 0l-192 254v-254h-88v253l-191 -253h-105l199 260l-185 244h102l180 -238v238h88v-239l180 239h102l-185 -244l199 -260h-104z" />
    <glyph glyph-name="afii10025.smcp" horiz-adv-x="436" 
d="M151 223v75h57q32 0 52.5 18t20.5 49q0 32 -21.5 50.5t-57.5 18.5q-58 0 -106 -46l-53 52q73 71 167 71q75 0 117 -39t42 -99q0 -70 -58 -105q80 -36 80 -126q0 -68 -48 -108.5t-128 -40.5q-106 0 -180 72l55 55q52 -50 118 -50q44 0 69 22t25 58q0 33 -20.5 53t-54.5 20
h-76z" />
    <glyph glyph-name="afii10026.smcp" horiz-adv-x="541" 
d="M431 504h57v-504h-89v335l-290 -335h-56v504h88v-335z" />
    <glyph glyph-name="afii10027.smcp" horiz-adv-x="541" 
d="M270 592q48 0 73 27l42 -41q-45 -47 -115 -47q-69 0 -114 47l41 42q28 -28 73 -28zM431 504h57v-504h-89v335l-290 -335h-56v504h88v-335z" />
    <glyph glyph-name="afii10028.smcp" horiz-adv-x="484" 
d="M348 0l-207 254v-254h-89v504h89v-238l192 238h111l-197 -244l215 -260h-114z" />
    <glyph glyph-name="afii10029.smcp" horiz-adv-x="512" 
d="M33 0v56q39 0 62 22t23 61v365h341v-504h-92v432h-158v-290q0 -66 -35 -106t-96 -40q-32 0 -45 4z" />
    <glyph glyph-name="afii10030.smcp" horiz-adv-x="617" 
d="M475 0v325l-151 -221h-32l-151 221v-325h-88v504h66l189 -271l190 271h65v-504h-88z" />
    <glyph glyph-name="afii10031.smcp" horiz-adv-x="532" 
d="M141 504v-216h250v216h88v-504h-88v216h-250v-216h-88v504h88z" />
    <glyph glyph-name="afii10032.smcp" horiz-adv-x="621" 
d="M42 252q0 115 74.5 187t193.5 72q121 0 195 -71.5t74 -187.5t-74 -187.5t-195 -71.5q-119 0 -193.5 72t-74.5 187zM134 252q0 -80 49 -130t127 -50q79 0 128.5 50t49.5 130t-49.5 130t-128.5 50q-78 0 -127 -50t-49 -130z" />
    <glyph glyph-name="afii10033.smcp" horiz-adv-x="504" 
d="M53 504h398v-504h-87v432h-223v-432h-88v504z" />
    <glyph glyph-name="afii10034.smcp" horiz-adv-x="417" 
d="M53 0v504h155q75 0 121 -40.5t46 -108.5t-46 -109t-121 -41h-63v-205h-92zM284 355q0 33 -21 53t-55 20h-63v-147h63q34 0 55 20.5t21 53.5z" />
    <glyph glyph-name="afii10035.smcp" 
d="M134 252q0 -80 50.5 -130t130.5 -50q83 0 134 48l56 -55q-75 -72 -195 -72q-119 0 -193.5 72t-74.5 187t74.5 187t193.5 72q120 0 195 -72l-56 -56q-51 49 -134 49q-80 0 -130.5 -50t-50.5 -130z" />
    <glyph glyph-name="afii10036.smcp" horiz-adv-x="437" 
d="M262 432v-432h-88v432h-139v72h367v-72h-140z" />
    <glyph glyph-name="afii10037.smcp" horiz-adv-x="477" 
d="M458 504l-258 -504h-94l91 158l-178 346h94l126 -242l125 242h94z" />
    <glyph glyph-name="afii10038.smcp" horiz-adv-x="622" 
d="M267 0v47q-100 0 -162.5 57t-62.5 148t62.5 148t162.5 57v47h88v-47q101 0 163 -57t62 -148t-62 -148t-163 -57v-47h-88zM355 378v-252q60 0 96.5 35t36.5 91t-36.5 91t-96.5 35zM267 126v252q-59 0 -96 -35t-37 -91t37 -91t96 -35z" />
    <glyph glyph-name="afii10039.smcp" horiz-adv-x="572" 
d="M436 0l-150 196l-150 -196h-114l198 256l-191 248h113l144 -188l143 188h114l-192 -248l199 -256h-114z" />
    <glyph glyph-name="afii10040.smcp" horiz-adv-x="561" 
d="M451 0h-398v504h88v-432h251v432h88v-432h53v-180h-82v108z" />
    <glyph glyph-name="afii10041.smcp" horiz-adv-x="451" 
d="M398 0h-85v213q-51 -12 -105 -12q-76 0 -115.5 41t-39.5 119v143h85v-141q0 -48 21.5 -70.5t67.5 -22.5q53 0 86 11v223h85v-504z" />
    <glyph glyph-name="afii10042.smcp" horiz-adv-x="759" 
d="M706 0h-653v504h88v-432h194v432h89v-432h194v432h88v-504z" />
    <glyph glyph-name="afii10043.smcp" horiz-adv-x="787" 
d="M677 0h-624v504h88v-432h194v432h89v-432h194v432h88v-432h53v-180h-82v108z" />
    <glyph glyph-name="afii10044.smcp" horiz-adv-x="520" 
d="M35 432v72h205v-206h71q75 0 120.5 -40.5t45.5 -108.5t-45.5 -108.5t-120.5 -40.5h-163v432h-113zM386 149q0 33 -20.5 53.5t-54.5 20.5h-71v-147h71q34 0 54.5 20t20.5 53z" />
    <glyph glyph-name="afii10045.smcp" horiz-adv-x="586" 
d="M53 0v504h92v-206h71q75 0 121 -40.5t46 -108.5t-46 -108.5t-121 -40.5h-163zM291 149q0 33 -20.5 53.5t-54.5 20.5h-71v-147h71q34 0 54.5 20t20.5 53zM444 0v504h89v-504h-89z" />
    <glyph glyph-name="afii10046.smcp" horiz-adv-x="425" 
d="M53 0v504h92v-206h71q75 0 121 -40.5t46 -108.5t-46 -108.5t-121 -40.5h-163zM291 149q0 33 -20.5 53.5t-54.5 20.5h-71v-147h71q34 0 54.5 20t20.5 53z" />
    <glyph glyph-name="afii10047.smcp" 
d="M90 383l-55 56q75 72 194 72q120 0 194 -71.5t74 -187.5t-74 -187.5t-194 -71.5q-119 0 -194 72l55 55q51 -48 135 -48q71 0 119 39.5t59 104.5h-237v72h237q-11 65 -59.5 104.5t-118.5 39.5q-84 0 -135 -49z" />
    <glyph glyph-name="afii10048.smcp" horiz-adv-x="793" 
d="M141 504v-216h114q11 100 78 161.5t168 61.5q111 0 180 -72t69 -187t-69 -187t-180 -72q-102 0 -168.5 61t-77.5 162h-114v-216h-88v504h88zM345 252q0 -80 43.5 -130t112.5 -50q70 0 114 50t44 130t-44 130t-114 50q-69 0 -112.5 -50t-43.5 -130z" />
    <glyph glyph-name="afii10049.smcp" horiz-adv-x="433" 
d="M380 504v-504h-92v205h-58l-104 -205h-100l120 213q-48 15 -76 52.5t-28 89.5q0 68 46 108.5t121 40.5h171zM133 355q0 -33 21 -53.5t55 -20.5h79v147h-79q-34 0 -55 -20t-21 -53z" />
    <glyph glyph-name="afii10050.smcp" horiz-adv-x="363" 
d="M141 432v-432h-88v504h199v90h65v-162h-176z" />
    <glyph glyph-name="afii10051.smcp" horiz-adv-x="533" 
d="M360 0v56q15 0 24.5 8.5t9.5 23.5v85q0 28 -17.5 46t-45.5 18q-44 0 -69 -25v-212h-88v432h-139v72h367v-72h-140v-150q41 31 92 31q59 0 94 -38.5t35 -101.5v-87q0 -41 -23.5 -65.5t-67.5 -24.5q-23 0 -32 4z" />
    <glyph glyph-name="afii10052.smcp" horiz-adv-x="366" 
d="M134 565l104 102l42 -42l-105 -102zM53 0v504h278v-72h-190v-432h-88z" />
    <glyph glyph-name="afii10053.smcp" 
d="M315 432q-71 0 -119 -39.5t-59 -104.5h276v-72h-276q10 -65 58 -104.5t120 -39.5q83 0 134 48l56 -55q-75 -72 -195 -72q-119 0 -193.5 72t-74.5 187t74.5 187t193.5 72q120 0 195 -72l-56 -56q-51 49 -134 49z" />
    <glyph glyph-name="afii10054.smcp" horiz-adv-x="433" 
d="M373 444l-55 -54q-44 42 -101 42q-36 0 -55 -20.5t-19 -44.5q0 -26 25 -43t60.5 -29.5t71 -27.5t60.5 -46t25 -76q0 -65 -45 -108.5t-125 -43.5q-101 0 -178 75l54 55q53 -51 115 -51q41 0 64 22t23 49q0 25 -25 41.5t-60.5 28.5t-70.5 27t-60 46.5t-25 78.5
q0 63 41 104.5t115 41.5q96 0 165 -67z" />
    <glyph glyph-name="afii10055.smcp" horiz-adv-x="193" 
d="M52 0v504h89v-504h-89z" />
    <glyph glyph-name="afii10056.smcp" horiz-adv-x="194" 
d="M53 0v504h88v-504h-88zM-14 576q0 20 13.5 33t33.5 13t33.5 -13.5t13.5 -32.5q0 -20 -13.5 -33.5t-33.5 -13.5t-33.5 13.5t-13.5 33.5zM113 576q0 20 13.5 33.5t33.5 13.5t34 -13.5t14 -33.5t-14 -33.5t-34 -13.5t-33.5 13.5t-13.5 33.5z" />
    <glyph glyph-name="afii10057.smcp" horiz-adv-x="357" 
d="M217 143v361h88v-361q0 -67 -44 -108.5t-113 -41.5t-113 42l56 56q21 -19 53 -19t52.5 19.5t20.5 51.5z" />
    <glyph glyph-name="afii10058.smcp" horiz-adv-x="730" 
d="M359 0v432h-150v-290q0 -66 -35 -106t-96 -40q-32 0 -45 4v56q39 0 62 22t23 61v365h331v-206h73q75 0 120.5 -40.5t45.5 -108.5t-45.5 -108.5t-120.5 -40.5h-163zM596 149q0 33 -20.5 53.5t-53.5 20.5h-73v-147h73q33 0 53.5 20t20.5 53z" />
    <glyph glyph-name="afii10059.smcp" horiz-adv-x="729" 
d="M141 504v-206h216v206h92v-206h72q75 0 120 -40.5t45 -108.5t-45 -108.5t-120 -40.5h-164v223h-216v-223h-88v504h88zM595 149q0 33 -20.5 53.5t-53.5 20.5h-72v-147h72q33 0 53.5 20t20.5 53z" />
    <glyph glyph-name="afii10060.smcp" horiz-adv-x="533" 
d="M262 432v-150q41 31 92 31q59 0 94 -38.5t35 -101.5v-173h-89v173q0 28 -17.5 46t-45.5 18q-44 0 -69 -25v-212h-88v432h-139v72h367v-72h-140z" />
    <glyph glyph-name="afii10061.smcp" horiz-adv-x="484" 
d="M348 0l-207 254v-254h-89v504h89v-238l192 238h111l-197 -244l215 -260h-114zM183 565l105 102l42 -42l-105 -102z" />
    <glyph glyph-name="afii10062.smcp" horiz-adv-x="477" 
d="M238 592q47 0 74 27l41 -41q-45 -47 -115 -47q-69 0 -114 47l42 42q26 -28 72 -28zM458 504l-258 -504h-94l91 158l-178 346h94l126 -242l125 242h94z" />
    <glyph glyph-name="afii10145.smcp" horiz-adv-x="533" 
d="M226 0h-173v504h88v-432h251v432h88v-504h-172v-108h-82v108z" />
    <glyph glyph-name="uni040D.smcp" horiz-adv-x="541" 
d="M224 667l105 -102l-42 -42l-105 102zM431 504h57v-504h-89v335l-290 -335h-56v504h88v-335z" />
    <glyph glyph-name="uni0400.smcp" horiz-adv-x="381" 
d="M141 432v-144h174v-72h-174v-144h201v-72h-289v504h286v-72h-198zM150 667l105 -102l-42 -42l-105 102z" />
    <glyph glyph-name="uni04D8.smcp" horiz-adv-x="571" 
d="M529 252q0 -115 -67.5 -187t-175.5 -72q-109 0 -176.5 72t-67.5 187v33h393q-11 66 -59.5 106.5t-119.5 40.5q-83 0 -134 -49l-56 56q75 72 194 72q120 0 194.5 -71.5t74.5 -187.5zM286 72q58 0 98.5 38.5t48.5 102.5h-296q9 -64 49 -102.5t100 -38.5z" />
    <glyph glyph-name="afii10056_afii10056.smcp" horiz-adv-x="387" 
d="M53 0v504h88v-504h-88zM-14 576q0 20 13.5 33t33.5 13t33.5 -13.5t13.5 -32.5q0 -20 -13.5 -33.5t-33.5 -13.5t-33.5 13.5t-13.5 33.5zM246 0v504h89v-504h-89zM306 576q0 20 14 33.5t33 13.5q21 0 35 -13.5t14 -33.5t-14 -33.5t-35 -13.5q-20 0 -33.5 13.5t-13.5 33.5z
M146 576q0 20 14 33.5t34 13.5t33.5 -13.5t13.5 -33.5t-13.5 -33.5t-33.5 -13.5t-34 13.5t-14 33.5z" />
    <glyph glyph-name="afii10021.alt.smcp" horiz-adv-x="617" 
d="M507 0h-397v-108h-82v180h39l200 432h83l200 -432h39v-180h-82v108zM308 390l-139 -318h279z" />
    <glyph glyph-name="afii10029.alt.smcp" horiz-adv-x="591" 
d="M21 0l233 504h83l233 -504h-104l-171 387l-170 -387h-104z" />
    <glyph glyph-name="afii10058.alt.smcp" horiz-adv-x="785" 
d="M21 0l233 504h83l96 -206h144q75 0 120.5 -40.5t45.5 -108.5t-45.5 -108.5t-120.5 -40.5h-111l-171 387l-170 -387h-104zM577 223h-111l71 -147h40q34 0 54.5 20t20.5 53t-20.5 53.5t-54.5 20.5z" />
    <glyph glyph-name="Aringacute.smcp" horiz-adv-x="591" 
d="M252 636l106 102l42 -42l-80 -78q44 -13 44 -63q0 -36 -25 -55l231 -500h-102l-54 116h-237l-54 -116h-102l231 500q-25 19 -25 55q0 50 43 63zM295 389l-86 -195h174zM262 554q0 -14 9.5 -23t23.5 -9q16 0 25.5 9t9.5 23q0 15 -10 24t-25 9q-14 0 -23.5 -9t-9.5 -24z
" />
    <glyph glyph-name="germandbls.smcp" horiz-adv-x="465" 
d="M141 362v-362h-89v362q0 67 43.5 108t114.5 41q70 0 113.5 -40.5t43.5 -105.5q0 -39 -21 -70t-58 -47q0 -24 22.5 -39.5t48.5 -23t48 -30.5t22 -60q0 -43 -32.5 -72.5t-87.5 -29.5q-74 0 -121 49l52 52q28 -30 62 -30q20 0 31 9.5t11 22.5q0 16 -22 28.5t-48.5 21.5
t-48.5 34t-22 64v64q34 0 55 16.5t21 44.5q0 29 -19.5 48t-49.5 19q-31 0 -50 -21t-19 -53z" />
    <glyph glyph-name="at.smcp" horiz-adv-x="613" 
d="M464 104l41 -40q-73 -71 -197 -71q-121 0 -195.5 71.5t-74.5 187.5t74.5 187.5t194.5 71.5q119 0 193.5 -68.5t74.5 -170.5q0 -75 -39.5 -110t-90.5 -35t-71 29q-31 -29 -77 -29q-52 0 -84 34.5t-32 90.5t36.5 90.5t97.5 34.5q76 0 113 -47v-116q0 -15 9 -23t22 -8
q21 0 35.5 20t14.5 61q0 85 -55.5 138t-145.5 53q-91 0 -147.5 -56.5t-56.5 -146.5t56.5 -146.5t148.5 -56.5q100 0 155 55zM246 252q0 -31 19 -50t50 -19q30 0 49 17v107q-19 14 -50 14q-30 0 -49 -19t-19 -50z" />
    <glyph glyph-name="parenleft.smcp" horiz-adv-x="239" 
d="M202 547v-63q-28 0 -48.5 -65.5t-20.5 -166.5t20.5 -166.5t48.5 -65.5v-63q-67 0 -112 82.5t-45 212.5t45 212.5t112 82.5z" />
    <glyph glyph-name="parenright.smcp" horiz-adv-x="239" 
d="M37 484v63q67 0 112 -82.5t45 -212.5t-45 -212.5t-112 -82.5v63q28 0 49 66t21 166t-21 166t-49 66z" />
    <glyph glyph-name="bracketleft.smcp" horiz-adv-x="244" 
d="M207 540v-65h-70v-446h70v-65h-155v576h155z" />
    <glyph glyph-name="bracketright.smcp" horiz-adv-x="244" 
d="M37 475v65h155v-576h-155v65h70v446h-70z" />
    <glyph glyph-name="braceleft.smcp" horiz-adv-x="251" 
d="M217 20v-63q-58 0 -97 37t-39 94v49q0 36 -13.5 59t-32.5 23v63q19 0 32.5 23t13.5 59v52q0 57 39 94t97 37v-63q-19 0 -33 -22.5t-14 -57.5v-50q0 -73 -63 -104q63 -31 63 -103v-48q0 -34 14 -56.5t33 -22.5z" />
    <glyph glyph-name="braceright.smcp" horiz-adv-x="251" 
d="M35 -43v63q19 0 32.5 22.5t13.5 56.5v48q0 71 63 103q-63 32 -63 104v50q0 35 -13.5 57.5t-32.5 22.5v63q58 0 96.5 -37t38.5 -94v-52q0 -36 14 -59t33 -23v-63q-19 0 -33 -23t-14 -59v-49q0 -57 -38.5 -94t-96.5 -37z" />
    <glyph glyph-name="exclamdown.smcp" horiz-adv-x="190" 
d="M45 460q0 22 14.5 36.5t35.5 14.5q22 0 36.5 -14.5t14.5 -36.5q0 -21 -14.5 -35.5t-36.5 -14.5q-21 0 -35.5 14.5t-14.5 35.5zM52 355h85v-355h-85v355z" />
    <glyph glyph-name="questiondown.smcp" horiz-adv-x="379" 
d="M292 103l55 -55q-68 -55 -151 -55q-72 0 -115 38.5t-43 95.5q0 34 18 59.5t39 38.5t39 35.5t18 52.5v42h85v-42q0 -34 -11.5 -61t-27.5 -42.5t-32 -28t-27.5 -26t-11.5 -27.5q0 -22 18.5 -41t52.5 -19q54 0 94 35zM246 460q0 -21 -15 -35.5t-36 -14.5t-35.5 14.5
t-14.5 35.5q0 22 14.5 36.5t35.5 14.5t36 -14.5t15 -36.5z" />
    <glyph glyph-name="bar.smcp" horiz-adv-x="190" 
d="M52 -36v576h85v-576h-85z" />
    <glyph glyph-name="brokenbar.smcp" horiz-adv-x="190" 
d="M52 -36v252h85v-252h-85zM137 540v-252h-85v252h85z" />
    <glyph glyph-name="dagger.smcp" horiz-adv-x="395" 
d="M45 328v66h110v146h85v-146h110v-66h-110v-364h-85v364h-110z" />
    <glyph glyph-name="daggerdbl.smcp" horiz-adv-x="395" 
d="M45 112v66h110v150h-110v66h110v146h85v-146h110v-66h-110v-150h110v-66h-110v-148h-85v148h-110z" />
    <glyph glyph-name="zero.smcp" horiz-adv-x="441" 
d="M42 252q0 115 49.5 187t128.5 72q80 0 129.5 -71.5t49.5 -187.5t-49.5 -187.5t-129.5 -71.5q-79 0 -128.5 72t-49.5 187zM131 252q0 -82 24.5 -133t64.5 -51t65.5 51t25.5 133q0 81 -25.5 132.5t-65.5 51.5t-64.5 -51.5t-24.5 -132.5z" />
    <glyph glyph-name="one.smcp" horiz-adv-x="275" 
d="M33 417v66l167 24v-507h-85v430z" />
    <glyph glyph-name="two.smcp" horiz-adv-x="411" 
d="M38 69l223 213q24 24 24 65q0 39 -23 63.5t-58 24.5q-36 0 -58.5 -24.5t-22.5 -63.5h-88q0 74 46.5 119t122.5 45t122 -45t46 -119q0 -72 -52 -121l-163 -154h215v-72h-334v69z" />
    <glyph glyph-name="three.smcp" horiz-adv-x="423" 
d="M177 235v71h34q30 0 48.5 18t18.5 47t-18.5 47t-48.5 18t-48.5 -18t-18.5 -47h-88q0 62 42.5 101t112.5 39t113 -39t43 -101q0 -65 -54 -99q71 -39 71 -121q0 -70 -48 -114t-125 -44t-125 44t-48 114h89q0 -37 23.5 -60t60.5 -23q38 0 61.5 23t23.5 60t-24 60.5t-61 23.5
h-34z" />
    <glyph glyph-name="four.smcp" horiz-adv-x="443" 
d="M269 0v88h-234v38l231 378h85v-343h43v-73h-40v-88h-85zM141 161h131v216z" />
    <glyph glyph-name="five.smcp" horiz-adv-x="411" 
d="M372 157q0 -74 -46 -119t-122 -45t-122.5 44.5t-46.5 115.5h85q0 -37 23.5 -60.5t60.5 -23.5q35 0 58 24.5t23 63.5q0 43 -26.5 70t-68.5 27q-45 0 -71 -26l-62 20l30 256h245v-72h-170l-14 -109q19 6 47 6q80 0 128.5 -47.5t48.5 -124.5z" />
    <glyph glyph-name="six.smcp" horiz-adv-x="417" 
d="M224 511l73 -42q-76 -81 -123 -161q18 5 36 5q75 0 122 -44t47 -115q0 -72 -47 -116.5t-124 -44.5t-123.5 45t-46.5 124q0 154 186 349zM127 154q0 -38 22.5 -62t59.5 -24q36 0 58.5 24t22.5 62t-22.5 62.5t-58.5 24.5q-37 0 -59.5 -24.5t-22.5 -62.5z" />
    <glyph glyph-name="seven.smcp" horiz-adv-x="422" 
d="M42 432v72h338v-24l-177 -480h-90l156 432h-227z" />
    <glyph glyph-name="eight.smcp" horiz-adv-x="424" 
d="M56 371q0 62 43 101t113 39t112.5 -39t42.5 -101q0 -65 -53 -99q71 -39 71 -121q0 -70 -48 -114t-125 -44t-125 44t-48 114q0 83 70 121q-53 34 -53 99zM127 151q0 -37 23.5 -60t61.5 -23t61.5 23t23.5 60t-23.5 60t-61.5 23t-61.5 -23t-23.5 -60zM145 371
q0 -29 18.5 -46.5t48.5 -17.5t48.5 17.5t18.5 46.5t-18.5 47t-48.5 18t-48.5 -18t-18.5 -47z" />
    <glyph glyph-name="nine.smcp" horiz-adv-x="417" 
d="M193 -7l-73 42q76 81 123 161q-18 -5 -36 -5q-76 0 -122.5 43.5t-46.5 115.5t47 116.5t124 44.5t123.5 -45t46.5 -124q0 -154 -186 -349zM290 350q0 38 -22.5 62t-58.5 24q-37 0 -59.5 -24t-22.5 -62t22.5 -62.5t59.5 -24.5q36 0 58.5 24.5t22.5 62.5z" />
    <glyph glyph-name="dollar.smcp" horiz-adv-x="433" 
d="M193 -72v66q-89 9 -156 74l54 55q47 -45 102 -51v145q-32 11 -51.5 20.5t-43 26.5t-35 42.5t-11.5 58.5q0 60 37 100.5t104 44.5v66h47v-67q75 -11 133 -65l-55 -54q-35 31 -78 40v-139q27 -10 41.5 -16t37.5 -19.5t35 -27t21.5 -35.5t9.5 -48q0 -60 -38.5 -102
t-106.5 -49v-66h-47zM293 143q0 33 -53 57v-123q25 8 39 27t14 39zM143 367q0 -34 50 -58v120q-24 -7 -37 -25t-13 -37z" />
    <glyph glyph-name="Euro.smcp" horiz-adv-x="574" 
d="M35 276v47h49q21 86 91 137t169 51q120 0 195 -72l-56 -56q-51 49 -134 49q-61 0 -105.5 -29t-63.5 -80h171v-47h-182q-1 -8 -1 -24t1 -24h182v-47h-171q19 -51 63.5 -80t105.5 -29q84 0 134 48l56 -55q-75 -72 -195 -72q-99 0 -169 50.5t-91 137.5h-49v47h42q-1 8 -1 24
t1 24h-42z" />
    <glyph glyph-name="sterling.smcp" horiz-adv-x="410" 
d="M35 219v66h56v76q0 67 43.5 108.5t112.5 41.5t113 -42l-56 -56q-21 19 -53 19t-52.5 -19.5t-20.5 -51.5v-76h123v-66h-123v-120q12 -5 29.5 -14.5t31.5 -15t27 -5.5q16 0 26.5 10t10.5 26h68q0 -48 -29.5 -77.5t-74.5 -29.5q-33 0 -73 22t-58 22q-17 0 -27 -10t-10 -27
h-67q0 73 59 98v121h-56z" />
    <glyph glyph-name="yen.smcp" horiz-adv-x="529" 
d="M125 147v47h95v11l-199 299h102l141 -212l142 212h101l-199 -299v-11h94v-47h-94v-44h94v-46h-94v-57h-88v57h-95v46h95v44h-95z" />
    <glyph glyph-name="uni20B4.smcp" horiz-adv-x="346" 
d="M35 275v47h157l5 5q25 23 25 51q0 25 -18.5 41t-47.5 16q-41 0 -65 -27l-54 54q47 49 119 49q68 0 110.5 -36t42.5 -94q0 -32 -16 -59h18v-47h-58l-45 -43h103v-46h-152l-9 -9q-25 -23 -25 -51q0 -25 18.5 -41t46.5 -16q41 0 66 27l53 -54q-46 -49 -119 -49
q-68 0 -110 36t-42 94q0 35 19 63h-22v46h62l45 43h-107z" />
    <glyph glyph-name="numbersign.smcp" horiz-adv-x="487" 
d="M258 0l17 112h-106l-17 -112h-85l16 112h-48v66h59l22 148h-58v66h68l18 112h85l-18 -112h107l17 112h85l-17 -112h49v-66h-59l-23 -148h59v-66h-69l-17 -112h-85zM201 326l-22 -148h106l23 148h-107z" />
    <glyph glyph-name="zero.fitted.smcp" horiz-adv-x="417" 
d="M33 252q0 116 48 187.5t127 71.5t127.5 -71.5t48.5 -187.5t-48.5 -187.5t-127.5 -71.5t-127 71.5t-48 187.5zM121 252q0 -82 24 -133t63 -51t63 51t24 133q0 81 -24 132.5t-63 51.5t-63 -51.5t-24 -132.5z" />
    <glyph glyph-name="one.fitted.smcp" horiz-adv-x="418" 
d="M81 0v65h82v365l-89 -13v66l174 24v-442h84v-65h-251z" />
    <glyph glyph-name="two.fitted.smcp" horiz-adv-x="417" 
d="M41 69l224 213q24 24 24 65q0 39 -23 63.5t-59 24.5t-58.5 -24.5t-22.5 -63.5h-88q0 74 46.5 119t122.5 45t122.5 -45t46.5 -119q0 -69 -56 -121l-163 -154h219v-72h-335v69z" />
    <glyph glyph-name="three.fitted.smcp" horiz-adv-x="418" 
d="M174 235v71h34q30 0 49 18t19 47t-19 47t-49 18q-29 0 -47.5 -18t-18.5 -47h-88q0 62 42.5 101t111.5 39q70 0 113 -39t43 -101q0 -64 -53 -99q70 -39 70 -121q0 -70 -48 -114t-125 -44q-76 0 -124 44t-48 114h89q0 -37 23 -60t60 -23q38 0 61.5 23t23.5 60t-24 60.5
t-61 23.5h-34z" />
    <glyph glyph-name="four.fitted.smcp" horiz-adv-x="418" 
d="M255 0v88h-230v38l227 378h85v-343h43v-73h-40v-88h-85zM131 161h128v216z" />
    <glyph glyph-name="five.fitted.smcp" horiz-adv-x="417" 
d="M376 157q0 -74 -46.5 -119t-122.5 -45t-122.5 44.5t-46.5 115.5h85q0 -37 23.5 -60.5t60.5 -23.5q36 0 59 24.5t23 63.5q0 43 -27 70t-69 27q-45 0 -71 -26l-62 20l30 256h246v-72h-171l-14 -109q20 6 47 6q80 0 129 -47.5t49 -124.5z" />
    <glyph glyph-name="six.fitted.smcp" horiz-adv-x="418" 
d="M225 511l73 -42q-79 -85 -123 -161q17 5 35 5q75 0 122.5 -43.5t47.5 -115.5t-47.5 -116.5t-124.5 -44.5t-123.5 45t-46.5 124q0 157 187 349zM126 154q0 -38 23 -62t60 -24t60 24t23 62t-23 62.5t-60 24.5t-60 -24.5t-23 -62.5z" />
    <glyph glyph-name="seven.fitted.smcp" horiz-adv-x="417" 
d="M40 432v72h336v-24l-175 -480h-91l155 432h-225z" />
    <glyph glyph-name="eight.fitted.smcp" horiz-adv-x="418" 
d="M54 371q0 62 43 101t112 39t112 -39t43 -101q0 -64 -53 -99q71 -39 71 -121q0 -70 -48.5 -114t-124.5 -44q-77 0 -125 44t-48 114q0 82 70 121q-52 33 -52 99zM125 151q0 -37 23.5 -60t60.5 -23t60.5 23t23.5 60t-23.5 60t-60.5 23t-60.5 -23t-23.5 -60zM142 371
q0 -28 19 -46t48 -18t48 18t19 46t-19 46.5t-48 18.5t-48 -18.5t-19 -46.5z" />
    <glyph glyph-name="nine.fitted.smcp" horiz-adv-x="418" 
d="M193 -7l-73 42q77 82 122 161q-15 -5 -35 -5q-75 0 -121.5 43.5t-46.5 115.5t47 116.5t124 44.5q76 0 122.5 -45t46.5 -124q0 -154 -186 -349zM290 350q0 38 -22.5 62t-58.5 24t-59 -24t-23 -62t23 -62.5t59 -24.5t58.5 24.5t22.5 62.5z" />
    <glyph glyph-name="exclam.smcp" horiz-adv-x="190" 
d="M45 44q0 21 14.5 35.5t35.5 14.5q22 0 36.5 -14.5t14.5 -35.5q0 -22 -14.5 -36.5t-36.5 -14.5q-21 0 -35.5 14.5t-14.5 36.5zM52 149v355h85v-355h-85z" />
    <glyph glyph-name="ampersand.smcp" horiz-adv-x="463" 
d="M253 235v71h175v-71h-43v-84q0 -70 -48 -114t-125 -44t-125 44t-48 114q0 82 71 121q-54 34 -54 99q0 62 43 101t113 39t112.5 -39t42.5 -101h-88q0 29 -18.5 47t-48.5 18t-48.5 -18t-18.5 -47t18.5 -47t48.5 -18h19v-71h-19q-37 0 -61 -23.5t-24 -60.5t23.5 -60
t61.5 -23t61.5 23t23.5 60v84h-44z" />
    <glyph glyph-name="slash.smcp" horiz-adv-x="442" 
d="M37 -36l283 576h85l-282 -576h-86z" />
    <glyph glyph-name="backslash.smcp" horiz-adv-x="442" 
d="M123 540l282 -576h-85l-283 576h86z" />
    <glyph glyph-name="question.smcp" horiz-adv-x="379" 
d="M86 401l-54 55q68 55 151 55q72 0 114.5 -38.5t42.5 -96.5q0 -34 -18 -59t-39 -38t-39 -35.5t-18 -52.5v-42h-85v42q0 42 17.5 73.5t38 45.5t38 31t17.5 34q0 23 -18.5 42t-53.5 19q-52 0 -94 -35zM132 44q0 21 15 35.5t36 14.5q22 0 36.5 -14.5t14.5 -35.5
q0 -22 -14.5 -36.5t-36.5 -14.5q-21 0 -36 14.5t-15 36.5z" />
    <glyph glyph-name="percent.smcp" horiz-adv-x="694" 
d="M164 0l282 504h85l-282 -504h-85zM35 380q0 59 38 95t100 36q61 0 99 -36.5t38 -94.5t-38 -94.5t-99 -36.5q-62 0 -100 36t-38 95zM110 380q0 -30 17.5 -49t45.5 -19t45 19t17 49t-17 49t-45 19t-45.5 -19t-17.5 -49zM384 124q0 58 38 94t100 36t100 -36t38 -94
t-38 -94.5t-100 -36.5t-100 36.5t-38 94.5zM460 124q0 -30 17.5 -49t44.5 -19q28 0 45.5 19t17.5 49t-17.5 49t-45.5 19q-27 0 -44.5 -19t-17.5 -49z" />
    <glyph glyph-name="perthousand.smcp" horiz-adv-x="998" 
d="M164 0l282 504h85l-282 -504h-85zM35 380q0 59 38 95t100 36q61 0 99 -36.5t38 -94.5t-38 -94.5t-99 -36.5q-62 0 -100 36t-38 95zM110 380q0 -30 17.5 -49t45.5 -19t45 19t17 49t-17 49t-45 19t-45.5 -19t-17.5 -49zM384 124q0 58 38 94t100 36t100 -36t38 -94
t-38 -94.5t-100 -36.5t-100 36.5t-38 94.5zM460 124q0 -30 17.5 -49t44.5 -19q28 0 45.5 19t17.5 49t-17.5 49t-45.5 19q-27 0 -44.5 -19t-17.5 -49zM688 124q0 58 38 94t99 36q62 0 100 -36t38 -94t-38 -94.5t-100 -36.5q-61 0 -99 36.5t-38 94.5zM763 124q0 -30 17 -49
t45 -19t45.5 19t17.5 49t-17.5 49t-45.5 19t-45 -19t-17 -49z" />
    <glyph glyph-name="section.smcp" horiz-adv-x="342" 
d="M151 322l149 -144l-56 -55l-152 145q-53 51 -53 109q0 59 42 96.5t109 37.5q74 0 120 -49l-53 -54q-25 27 -67 27q-28 0 -45.5 -16t-17.5 -42q0 -33 24 -55zM192 2l-149 144l56 56l152 -146q53 -51 53 -109q0 -60 -41.5 -97t-109.5 -37q-74 0 -121 49l54 54
q24 -27 67 -27q27 0 45 16.5t18 41.5q0 31 -24 55z" />
    <glyph glyph-name="paragraph.smcp" horiz-adv-x="490" 
d="M300 504v-504h-83v219h-14q-72 0 -116 38.5t-44 103.5t44 104t116 39h97zM356 0v504h82v-504h-82z" />
    <glyph glyph-name="quoteright_afii10056.smcp" horiz-adv-x="289" 
d="M149 0v504h87v-504h-87zM209 576q0 20 13.5 33.5t33.5 13.5t34 -13.5t14 -33.5t-14 -33.5t-34 -13.5t-33.5 13.5t-13.5 33.5zM31 472l-31 31q40 40 51 78q-21 4 -34 19.5t-13 36.5q0 24 16.5 40.5t41.5 16.5q22 0 39.5 -16t17.5 -49q0 -69 -88 -157z" />
    <glyph glyph-name="zero.sub" horiz-adv-x="301" 
d="M32 125q0 80 33 129.5t86 49.5t85.5 -49.5t32.5 -129.5t-32.5 -129.5t-85.5 -49.5t-86 49.5t-33 129.5zM87 125q0 -60 17.5 -96t46.5 -36q28 0 45.5 36.5t17.5 95.5t-17.5 95.5t-45.5 36.5q-29 0 -46.5 -36t-17.5 -96z" />
    <glyph glyph-name="one.sub" horiz-adv-x="187" 
d="M26 245v41l107 17v-353h-52v304z" />
    <glyph glyph-name="two.sub" horiz-adv-x="281" 
d="M30 -6l149 149q17 17 17 48q0 29 -15.5 47.5t-40.5 18.5q-26 0 -42 -18.5t-16 -47.5h-54q0 50 31 81.5t81 31.5q49 0 79.5 -31.5t30.5 -81.5t-34 -84l-113 -112h147v-45h-220v44z" />
    <glyph glyph-name="three.sub" horiz-adv-x="289" 
d="M121 117v44h23q22 0 35 13.5t13 35.5q0 21 -13 34t-35 13q-21 0 -34 -13t-13 -34h-55q0 41 28.5 67.5t73.5 26.5q46 0 74 -26.5t28 -67.5q0 -48 -37 -71q49 -26 49 -85q0 -48 -31.5 -78t-82.5 -30t-82.5 30t-31.5 78h55q0 -27 16.5 -44t42.5 -17q27 0 43.5 17t16.5 44
q0 28 -16.5 45.5t-43.5 17.5h-23z" />
    <glyph glyph-name="four.sub" horiz-adv-x="300" 
d="M184 -50v64h-157v23l155 263h52v-242h30v-44h-28v-64h-52zM93 58h93v163z" />
    <glyph glyph-name="five.sub" horiz-adv-x="281" 
d="M250 59q0 -50 -30.5 -81.5t-79.5 -31.5q-50 0 -81 30t-31 78h52q0 -27 16.5 -44t43.5 -17q25 0 40.5 18.5t15.5 47.5q0 32 -18.5 52t-47.5 20q-30 0 -50 -20l-38 14l20 175h161v-45h-115l-9 -84q11 6 34 6q52 0 84.5 -32.5t32.5 -85.5z" />
    <glyph glyph-name="six.sub" horiz-adv-x="286" 
d="M154 304l45 -25q-51 -63 -82 -118q12 5 27 5q49 0 80.5 -30t31.5 -80t-31 -80t-83 -30q-50 0 -81 31t-31 84q0 54 30 109t94 134zM85 57q0 -28 16 -46t42 -18t42 18t16 46q0 29 -16.5 47t-41.5 18t-41.5 -18t-16.5 -47z" />
    <glyph glyph-name="seven.sub" horiz-adv-x="286" 
d="M32 255v45h222v-16l-119 -334h-56l107 305h-154z" />
    <glyph glyph-name="eight.sub" horiz-adv-x="289" 
d="M42 210q0 41 28.5 67.5t73.5 26.5q46 0 74 -26.5t28 -67.5q0 -48 -37 -71q49 -25 49 -85q0 -48 -31.5 -78t-82.5 -30t-82.5 30t-31.5 78q0 60 49 85q-37 23 -37 71zM85 54q0 -27 16.5 -44t42.5 -17q27 0 43.5 17t16.5 44q0 28 -16.5 45t-43.5 17q-26 0 -42.5 -17
t-16.5 -45zM97 210q0 -22 13 -35.5t34 -13.5q22 0 35 13.5t13 35.5q0 21 -13 34t-35 13q-21 0 -34 -13t-13 -34z" />
    <glyph glyph-name="nine.sub" horiz-adv-x="286" 
d="M132 -54l-46 25q51 60 83 118q-10 -5 -27 -5q-50 0 -81 30t-31 80t31 80t82 30t82 -31t31 -84q0 -54 -30 -109t-94 -134zM201 193q0 28 -16 46t-42 18t-42 -18t-16 -46q0 -29 16.5 -47t41.5 -18t41.5 18t16.5 47z" />
    <glyph glyph-name="comma.sub" horiz-adv-x="132" 
d="M50 -111l-17 17q21 23 26 40q-11 2 -18 11t-7 21q0 13 9.5 22t23.5 9q12 0 21.5 -8.5t9.5 -26.5q0 -37 -48 -85z" />
    <glyph glyph-name="period.sub" horiz-adv-x="132" 
d="M34 -22q0 13 9.5 22t22.5 9t22.5 -9t9.5 -22q0 -14 -9 -23t-23 -9t-23 9t-9 23z" />
    <glyph glyph-name="parenleft.sub" horiz-adv-x="166" 
d="M137 329v-39q-20 0 -34 -46.5t-14 -118.5q0 -73 14 -119.5t34 -46.5v-38q-44 0 -73.5 57t-29.5 147t29.5 147t73.5 57z" />
    <glyph glyph-name="parenright.sub" horiz-adv-x="166" 
d="M29 290v39q44 0 73.5 -57t29.5 -147t-29.5 -147t-73.5 -57v39q20 0 34 46t14 119t-14 119t-34 46z" />
    <glyph glyph-name="hyphen.sub" horiz-adv-x="190" 
d="M34 104v42h121v-42h-121z" />
    <glyph glyph-name="zero.sup" horiz-adv-x="301" 
d="M32 525q0 80 33 129.5t86 49.5t85.5 -49.5t32.5 -129.5t-32.5 -129.5t-85.5 -49.5t-86 49.5t-33 129.5zM87 525q0 -60 17.5 -96t46.5 -36q28 0 45.5 36.5t17.5 95.5t-17.5 95.5t-45.5 36.5q-29 0 -46.5 -36t-17.5 -96z" />
    <glyph glyph-name="one.sup" horiz-adv-x="187" 
d="M26 645v41l107 17v-353h-52v304z" />
    <glyph glyph-name="two.sup" horiz-adv-x="281" 
d="M30 394l149 149q17 17 17 48q0 29 -15.5 47.5t-40.5 18.5q-26 0 -42 -18.5t-16 -47.5h-54q0 50 31 81.5t81 31.5q49 0 79.5 -31.5t30.5 -81.5t-34 -84l-113 -112h147v-45h-220v44z" />
    <glyph glyph-name="three.sup" horiz-adv-x="289" 
d="M121 517v44h23q22 0 35 13.5t13 35.5q0 21 -13 34t-35 13q-21 0 -34 -13t-13 -34h-55q0 41 28.5 67.5t73.5 26.5q46 0 74 -26.5t28 -67.5q0 -48 -37 -71q49 -26 49 -85q0 -48 -31.5 -78t-82.5 -30t-82.5 30t-31.5 78h55q0 -27 16.5 -44t42.5 -17q27 0 43.5 17t16.5 44
q0 28 -16.5 45.5t-43.5 17.5h-23z" />
    <glyph glyph-name="four.sup" horiz-adv-x="300" 
d="M184 350v64h-157v23l155 263h52v-242h30v-44h-28v-64h-52zM93 458h93v163z" />
    <glyph glyph-name="five.sup" horiz-adv-x="281" 
d="M250 459q0 -50 -30.5 -81.5t-79.5 -31.5q-50 0 -81 30t-31 78h52q0 -27 16.5 -44t43.5 -17q25 0 40.5 18.5t15.5 47.5q0 32 -18.5 52t-47.5 20q-30 0 -50 -20l-38 14l20 175h161v-45h-115l-9 -84q11 6 34 6q52 0 84.5 -32.5t32.5 -85.5z" />
    <glyph glyph-name="six.sup" horiz-adv-x="286" 
d="M154 704l45 -25q-51 -63 -82 -118q12 5 27 5q49 0 80.5 -30t31.5 -80t-31 -80t-83 -30q-50 0 -81 31t-31 84q0 54 30 109t94 134zM85 457q0 -28 16 -46t42 -18t42 18t16 46q0 29 -16.5 47t-41.5 18t-41.5 -18t-16.5 -47z" />
    <glyph glyph-name="seven.sup" horiz-adv-x="286" 
d="M32 655v45h222v-16l-119 -334h-56l107 305h-154z" />
    <glyph glyph-name="eight.sup" horiz-adv-x="289" 
d="M42 610q0 41 28.5 67.5t73.5 26.5q46 0 74 -26.5t28 -67.5q0 -48 -37 -71q49 -25 49 -85q0 -48 -31.5 -78t-82.5 -30t-82.5 30t-31.5 78q0 60 49 85q-37 23 -37 71zM85 454q0 -27 16.5 -44t42.5 -17q27 0 43.5 17t16.5 44q0 28 -16.5 45t-43.5 17q-26 0 -42.5 -17
t-16.5 -45zM97 610q0 -22 13 -35.5t34 -13.5q22 0 35 13.5t13 35.5q0 21 -13 34t-35 13q-21 0 -34 -13t-13 -34z" />
    <glyph glyph-name="nine.sup" horiz-adv-x="286" 
d="M132 346l-46 25q51 60 83 118q-10 -5 -27 -5q-50 0 -81 30t-31 80t31 80t82 30t82 -31t31 -84q0 -54 -30 -109t-94 -134zM201 593q0 28 -16 46t-42 18t-42 -18t-16 -46q0 -29 16.5 -47t41.5 -18t41.5 18t16.5 47z" />
    <glyph glyph-name="comma.sup" horiz-adv-x="132" 
d="M50 289l-17 17q21 23 26 40q-11 2 -18 11t-7 21q0 13 9.5 22t23.5 9q12 0 21.5 -8.5t9.5 -26.5q0 -37 -48 -85z" />
    <glyph glyph-name="period.sup" horiz-adv-x="132" 
d="M34 378q0 13 9.5 22t22.5 9t22.5 -9t9.5 -22q0 -14 -9 -23t-23 -9t-23 9t-9 23z" />
    <glyph glyph-name="parenleft.sup" horiz-adv-x="166" 
d="M137 729v-39q-20 0 -34 -46.5t-14 -118.5q0 -73 14 -119.5t34 -46.5v-38q-44 0 -73.5 57t-29.5 147t29.5 147t73.5 57z" />
    <glyph glyph-name="parenright.sup" horiz-adv-x="166" 
d="M29 690v39q44 0 73.5 -57t29.5 -147t-29.5 -147t-73.5 -57v39q20 0 34 46t14 119t-14 119t-34 46z" />
    <glyph glyph-name="hyphen.sup" horiz-adv-x="190" 
d="M34 504v42h121v-42h-121z" />
    <glyph glyph-name="Ugrave.smcp" horiz-adv-x="512" 
d="M370 187v317h89v-317q0 -86 -56.5 -140t-147.5 -54t-146.5 54t-55.5 140v317h88v-317q0 -51 31.5 -83t82.5 -32t83 31.5t32 83.5zM209 667l105 -102l-42 -42l-105 102z" />
    <glyph glyph-name="Udieresis.smcp" horiz-adv-x="512" 
d="M370 187v317h89v-317q0 -86 -56.5 -140t-147.5 -54t-146.5 54t-55.5 140v317h88v-317q0 -51 31.5 -83t82.5 -32t83 31.5t32 83.5zM136 576q0 19 13.5 32.5t33.5 13.5t33.5 -13.5t13.5 -32.5q0 -20 -13.5 -33.5t-33.5 -13.5t-33.5 13.5t-13.5 33.5zM280 576q0 20 14 33.5
t34 13.5t34 -13.5t14 -33.5t-14 -33.5t-34 -13.5t-34 13.5t-14 33.5z" />
    <glyph glyph-name="Ucircumflex.smcp" horiz-adv-x="512" 
d="M370 187v317h89v-317q0 -86 -56.5 -140t-147.5 -54t-146.5 54t-55.5 140v317h88v-317q0 -51 31.5 -83t82.5 -32t83 31.5t32 83.5zM256 667l105 -102l-43 -42l-62 60l-63 -60l-42 42z" />
    <glyph glyph-name="a.ord" horiz-adv-x="262" 
d="M235 489v-37q-7 -3 -20 -3q-35 0 -48 27q-31 -29 -69 -29q-34 0 -53 20.5t-19 49.5q0 39 34 61t84 22q11 0 17 -2v21q0 15 -11 27.5t-32 12.5q-31 0 -50 -19l-30 29q37 35 85 35q43 0 68.5 -24.5t25.5 -60.5v-111q0 -19 18 -19zM116 493q29 0 45 20v48q-8 2 -14 2
q-28 0 -46 -11t-18 -29q0 -30 33 -30z" />
    <glyph glyph-name="b.ord" horiz-adv-x="307" 
d="M148 447q-73 0 -108 46h-1v372h56v-178q28 17 64 17q53 0 86.5 -35.5t33.5 -92.5q0 -58 -36 -93.5t-95 -35.5zM222 576q0 35 -20 57t-52 22q-33 0 -55 -25v-122q4 0 22.5 -5.5t31.5 -5.5q32 0 52.5 22t20.5 57z" />
    <glyph glyph-name="c.ord" horiz-adv-x="270" 
d="M85 576q0 -35 20.5 -57t53.5 -22q35 0 55 22l34 -35q-37 -37 -92 -37q-58 0 -93.5 35.5t-35.5 93.5q0 57 35.5 92.5t93.5 35.5q55 0 92 -37l-34 -35q-21 23 -55 23q-33 0 -53.5 -22t-20.5 -57z" />
    <glyph glyph-name="d.ord" horiz-adv-x="308" 
d="M269 452h-56v18q-29 -23 -69 -23q-52 0 -84.5 35.5t-32.5 93.5q0 57 35 92.5t91 35.5q34 0 60 -14v175h56v-413zM85 576q0 -35 20.5 -57t53.5 -22q35 0 54 21v117q-22 20 -54 20q-33 0 -53.5 -22t-20.5 -57z" />
    <glyph glyph-name="e.ord" horiz-adv-x="288" 
d="M263 559h-176q4 -28 23.5 -45t50.5 -17q37 0 57 22l33 -35q-35 -37 -94 -37q-58 0 -94 36t-36 94q0 56 33.5 91.5t87.5 35.5q55 0 85 -38t30 -107zM149 656q-25 0 -41.5 -15.5t-20.5 -42.5h120q-8 58 -58 58z" />
    <glyph glyph-name="egrave.ord" horiz-adv-x="288" 
d="M263 559h-176q4 -28 23.5 -45t50.5 -17q37 0 57 22l33 -35q-35 -37 -94 -37q-58 0 -94 36t-36 94q0 56 33.5 91.5t87.5 35.5q55 0 85 -38t30 -107zM149 656q-25 0 -41.5 -15.5t-20.5 -42.5h120q-8 58 -58 58zM114 831l75 -74l-28 -28l-75 74z" />
    <glyph glyph-name="f.ord" horiz-adv-x="194" 
d="M22 656v44h32v78q0 41 24.5 66t66.5 25q19 0 30 -5v-46q-12 4 -20 4q-19 0 -30.5 -12t-11.5 -32v-78h62v-44h-62v-204h-59v204h-32z" />
    <glyph glyph-name="g.ord" horiz-adv-x="294" 
d="M14 389q0 45 53 66q-28 16 -28 42t30 41q-38 23 -38 73q0 43 28 68t74 25q44 0 70 -23q18 23 44 23q10 0 15 -1v-44q-8 2 -12 2q-12 0 -22 -13q7 -18 7 -35q0 -41 -28 -66t-75 -25q-39 0 -39 -24q0 -23 48 -23q55 0 88.5 -22t33.5 -58q0 -37 -37 -61t-94 -24
q-54 0 -86 22t-32 57zM72 389q0 -17 16 -27t44 -10q30 0 51.5 12t21.5 30q0 17 -17.5 27.5t-46.5 10.5q-31 0 -50 -12t-19 -31zM87 613q0 -21 13 -34.5t34 -13.5t34 13.5t13 34.5t-13 34.5t-34 13.5t-34 -13.5t-13 -34.5z" />
    <glyph glyph-name="h.ord" horiz-adv-x="295" 
d="M39 865h56v-184q30 23 68 23q42 0 67.5 -28.5t25.5 -75.5v-148h-56v148q0 24 -14.5 39.5t-37.5 15.5q-32 0 -53 -21v-182h-56v413z" />
    <glyph glyph-name="i.ord" horiz-adv-x="134" 
d="M39 452v248h56v-248h-56zM33 774q0 14 10 24t24 10t24 -10t10 -24t-10 -24t-24 -10t-24 10t-10 24z" />
    <glyph glyph-name="j.ord" horiz-adv-x="134" 
d="M33 774q0 14 10 24t24 10t24 -10t10 -24t-10 -24t-24 -10t-24 10t-10 24zM12 315v36q27 0 27 26v323h55v-324q0 -30 -15.5 -47t-44.5 -17q-17 0 -22 3z" />
    <glyph glyph-name="k.ord" horiz-adv-x="273" 
d="M95 452h-56v413h56v-269l85 104h66l-97 -116l108 -132h-66l-96 119v-119z" />
    <glyph glyph-name="l.ord" horiz-adv-x="150" 
d="M124 489v-37q-7 -3 -24 -3q-29 0 -45 17.5t-16 47.5v351h56v-350q0 -26 29 -26z" />
    <glyph glyph-name="m.ord" horiz-adv-x="428" 
d="M334 452v162q0 18 -10.5 29.5t-27.5 11.5q-35 0 -56 -19q2 -14 2 -22v-162h-56v162q0 18 -10.5 29.5t-27.5 11.5q-32 0 -53 -21v-182h-56v248h56v-19q30 23 68 23q42 0 64 -33q31 33 83 33q36 0 57.5 -24.5t21.5 -65.5v-162h-55z" />
    <glyph glyph-name="n.ord" horiz-adv-x="295" 
d="M39 700h56v-19q30 23 68 23q42 0 67.5 -28.5t25.5 -75.5v-148h-56v148q0 24 -14.5 39.5t-37.5 15.5q-32 0 -53 -21v-182h-56v248z" />
    <glyph glyph-name="p.ord" horiz-adv-x="308" 
d="M39 700h56v-19q31 23 69 23q52 0 84 -35.5t32 -92.5q0 -58 -34.5 -93.5t-90.5 -35.5q-34 0 -60 14v-146h-56v385zM222 576q0 35 -20.5 57t-53.5 22q-32 0 -53 -21v-118q19 -19 53 -19q33 0 53.5 22t20.5 57z" />
    <glyph glyph-name="q.ord" horiz-adv-x="307" 
d="M269 658l-1 -1v-342h-56v148q-26 -16 -63 -16q-54 0 -88 35.5t-34 93.5q0 57 36.5 92.5t95.5 35.5q74 0 110 -46zM85 576q0 -35 20 -57t52 -22q37 0 55 23v123q-5 0 -23.5 6t-30.5 6q-33 0 -53 -22t-20 -57z" />
    </font>
</defs>
</svg>
